%TF.GenerationSoftware,KiCad,Pcbnew,7.0.1*%
%TF.CreationDate,2023-04-03T11:39:16+02:00*%
%TF.ProjectId,smart_power_socket-54x54x1.6mm_3Cu,736d6172-745f-4706-9f77-65725f736f63,rev?*%
%TF.SameCoordinates,Original*%
%TF.FileFunction,Profile,NP*%
%FSLAX46Y46*%
G04 Gerber Fmt 4.6, Leading zero omitted, Abs format (unit mm)*
G04 Created by KiCad (PCBNEW 7.0.1) date 2023-04-03 11:39:16*
%MOMM*%
%LPD*%
G01*
G04 APERTURE LIST*
%TA.AperFunction,Profile*%
%ADD10C,0.100000*%
%TD*%
G04 APERTURE END LIST*
D10*
X116034099Y-112111772D02*
X116052969Y-116354114D01*
X116053012Y-116354114D02*
G75*
G03*
X116483456Y-116764113I410688J214D01*
G01*
X122643533Y-112108968D02*
G75*
G03*
X122213106Y-111698969I-410133J368D01*
G01*
X133166963Y-90296963D02*
X133169024Y-85632061D01*
X149514022Y-102110000D02*
X149514022Y-99850000D01*
X133983518Y-104398103D02*
X133983518Y-117967975D01*
X138475031Y-75704054D02*
G75*
G03*
X137833206Y-76074610I-320931J-185246D01*
G01*
X121850193Y-112910000D02*
G75*
G03*
X121419756Y-112500002I-410293J200D01*
G01*
X118920000Y-95070000D02*
X136210000Y-95070000D01*
X133580000Y-90710000D02*
X137060000Y-90710871D01*
X114049965Y-118009947D02*
X114031486Y-76477000D01*
X139031575Y-92830000D02*
G75*
G03*
X138428425Y-92830000I-301575J0D01*
G01*
X124690000Y-104455063D02*
X124690000Y-118024935D01*
X117263698Y-112493958D02*
X121419756Y-112500001D01*
X116810000Y-92960000D02*
X116810000Y-90660000D01*
X116843168Y-115784446D02*
G75*
G03*
X117273699Y-116194445I410532J46D01*
G01*
X128063037Y-70017000D02*
G75*
G03*
X127650000Y-70430000I-37J-413000D01*
G01*
X153640000Y-105505978D02*
X151100000Y-102965978D01*
X122240273Y-116774315D02*
X121440275Y-116774758D01*
X133983533Y-104398077D02*
G75*
G03*
X124690000Y-104455064I-4596133J-8285823D01*
G01*
X150395978Y-103310000D02*
X153115978Y-106030000D01*
X137060000Y-90710809D02*
G75*
G03*
X137060000Y-89969791I0J370509D01*
G01*
X139007938Y-85220975D02*
G75*
G03*
X139420975Y-84807938I-38J413075D01*
G01*
X117273699Y-116768755D02*
G75*
G03*
X117273699Y-116194445I1J287155D01*
G01*
X150560000Y-102425978D02*
X149830000Y-102425978D01*
X134332062Y-85960000D02*
X139817938Y-85960975D01*
X126898920Y-75336963D02*
G75*
G03*
X127640000Y-75336963I370540J0D01*
G01*
X134332062Y-89980000D02*
X137060000Y-89969791D01*
X140230000Y-78840000D02*
X138475001Y-75704071D01*
X133582061Y-85219024D02*
G75*
G03*
X133169024Y-85632061I39J-413076D01*
G01*
X133919025Y-89566963D02*
X133919025Y-86373037D01*
X116810000Y-90660000D02*
G75*
G03*
X116068920Y-90660000I-370540J0D01*
G01*
X126903000Y-70403037D02*
G75*
G03*
X126490000Y-69990000I-413000J37D01*
G01*
X149514022Y-99850000D02*
G75*
G03*
X148772942Y-99850000I-370540J0D01*
G01*
X139420975Y-84807938D02*
X139440000Y-78900000D01*
X168031605Y-76476965D02*
G75*
G03*
X161631486Y-70076895I-6400005J65D01*
G01*
X139440000Y-78900000D02*
X137833206Y-76074610D01*
X120431556Y-70076930D02*
X120597938Y-70076930D01*
X136170000Y-95760833D02*
G75*
G03*
X139031574Y-92830000I-23700J2885533D01*
G01*
X122240273Y-116774368D02*
G75*
G03*
X122650272Y-116343828I127J410368D01*
G01*
X126490000Y-69990000D02*
X122160000Y-69990000D01*
X127650000Y-70430000D02*
X127640000Y-75336963D01*
X116810000Y-92960000D02*
G75*
G03*
X118920000Y-95070000I2110000J0D01*
G01*
X168050035Y-118009912D02*
X168031556Y-76476965D01*
X133167000Y-90296963D02*
G75*
G03*
X133580000Y-90710000I413000J-37D01*
G01*
X122649754Y-116343828D02*
X122643593Y-112108968D01*
X118880000Y-95760871D02*
X136170000Y-95760871D01*
X122160000Y-69989963D02*
G75*
G03*
X121746963Y-70403037I0J-413037D01*
G01*
X140230975Y-85547938D02*
X140230000Y-78840000D01*
X150395978Y-103310000D02*
X149520000Y-103307058D01*
X120431556Y-70076886D02*
G75*
G03*
X114031486Y-76477000I44J-6400114D01*
G01*
X116483456Y-116764113D02*
X117273699Y-116768716D01*
X148772942Y-102560000D02*
X149520000Y-103307058D01*
X128063037Y-70016963D02*
X161631486Y-70076895D01*
X116843212Y-115784446D02*
X116853699Y-112924445D01*
X136210000Y-95070029D02*
G75*
G03*
X138428425Y-92830000I0J2218529D01*
G01*
X117263698Y-112494005D02*
G75*
G03*
X116853700Y-112924445I-198J-410295D01*
G01*
X121005883Y-76300000D02*
G75*
G03*
X121746963Y-76300000I370540J0D01*
G01*
X151100000Y-102965978D02*
X150560000Y-102425978D01*
X133919100Y-89566963D02*
G75*
G03*
X134332062Y-89980000I413000J-37D01*
G01*
X134332062Y-85960025D02*
G75*
G03*
X133919025Y-86373037I-62J-412975D01*
G01*
X120450035Y-124410017D02*
X161649965Y-124409982D01*
X121440275Y-116200442D02*
G75*
G03*
X121440275Y-116774758I25J-287158D01*
G01*
X139007938Y-85220975D02*
X133582061Y-85219024D01*
X149830000Y-102425978D02*
X149514022Y-102110000D01*
X122213106Y-111698969D02*
X116444098Y-111681285D01*
X116444098Y-111681308D02*
G75*
G03*
X116034099Y-112111772I-98J-410392D01*
G01*
X121849756Y-115770000D02*
X121850243Y-112910000D01*
X148772942Y-99850000D02*
X148772942Y-102560000D01*
X121010975Y-70489967D02*
X121005883Y-76300000D01*
X121010970Y-70489967D02*
G75*
G03*
X120597938Y-70076930I-413070J-33D01*
G01*
X126903037Y-70403037D02*
X126898920Y-75336963D01*
X124690024Y-118024892D02*
G75*
G03*
X133983518Y-117967974I4596176J8285692D01*
G01*
X116069129Y-92950000D02*
X116068920Y-90660000D01*
X116069129Y-92950000D02*
G75*
G03*
X118880000Y-95760871I2810871J0D01*
G01*
X114049983Y-118009947D02*
G75*
G03*
X120450035Y-124410017I6400217J147D01*
G01*
X139817938Y-85960975D02*
G75*
G03*
X140230975Y-85547938I-38J413075D01*
G01*
X161649965Y-124410035D02*
G75*
G03*
X168050035Y-118009912I-65J6400135D01*
G01*
X121440275Y-116200461D02*
G75*
G03*
X121850273Y-115770000I25J410461D01*
G01*
X153115978Y-106030000D02*
G75*
G03*
X153640000Y-105505978I262011J262011D01*
G01*
X121746963Y-70403037D02*
X121746963Y-76300000D01*
M02*
