%TF.GenerationSoftware,KiCad,Pcbnew,7.0.1*%
%TF.CreationDate,2023-04-03T11:39:16+02:00*%
%TF.ProjectId,smart_power_socket-54x54x1.6mm_3Cu,736d6172-745f-4706-9f77-65725f736f63,rev?*%
%TF.SameCoordinates,Original*%
%TF.FileFunction,Copper,L2,Bot*%
%TF.FilePolarity,Positive*%
%FSLAX46Y46*%
G04 Gerber Fmt 4.6, Leading zero omitted, Abs format (unit mm)*
G04 Created by KiCad (PCBNEW 7.0.1) date 2023-04-03 11:39:16*
%MOMM*%
%LPD*%
G01*
G04 APERTURE LIST*
G04 Aperture macros list*
%AMRoundRect*
0 Rectangle with rounded corners*
0 $1 Rounding radius*
0 $2 $3 $4 $5 $6 $7 $8 $9 X,Y pos of 4 corners*
0 Add a 4 corners polygon primitive as box body*
4,1,4,$2,$3,$4,$5,$6,$7,$8,$9,$2,$3,0*
0 Add four circle primitives for the rounded corners*
1,1,$1+$1,$2,$3*
1,1,$1+$1,$4,$5*
1,1,$1+$1,$6,$7*
1,1,$1+$1,$8,$9*
0 Add four rect primitives between the rounded corners*
20,1,$1+$1,$2,$3,$4,$5,0*
20,1,$1+$1,$4,$5,$6,$7,0*
20,1,$1+$1,$6,$7,$8,$9,0*
20,1,$1+$1,$8,$9,$2,$3,0*%
G04 Aperture macros list end*
%TA.AperFunction,SMDPad,CuDef*%
%ADD10RoundRect,0.243750X0.456250X-0.243750X0.456250X0.243750X-0.456250X0.243750X-0.456250X-0.243750X0*%
%TD*%
%TA.AperFunction,SMDPad,CuDef*%
%ADD11RoundRect,0.225000X-0.225000X-0.250000X0.225000X-0.250000X0.225000X0.250000X-0.225000X0.250000X0*%
%TD*%
%TA.AperFunction,SMDPad,CuDef*%
%ADD12R,1.400000X2.100000*%
%TD*%
%TA.AperFunction,SMDPad,CuDef*%
%ADD13RoundRect,0.218750X-0.218750X-0.381250X0.218750X-0.381250X0.218750X0.381250X-0.218750X0.381250X0*%
%TD*%
%TA.AperFunction,SMDPad,CuDef*%
%ADD14RoundRect,0.150000X0.625000X-0.150000X0.625000X0.150000X-0.625000X0.150000X-0.625000X-0.150000X0*%
%TD*%
%TA.AperFunction,SMDPad,CuDef*%
%ADD15RoundRect,0.250000X0.650000X-0.350000X0.650000X0.350000X-0.650000X0.350000X-0.650000X-0.350000X0*%
%TD*%
%TA.AperFunction,SMDPad,CuDef*%
%ADD16RoundRect,0.200000X-0.275000X0.200000X-0.275000X-0.200000X0.275000X-0.200000X0.275000X0.200000X0*%
%TD*%
%TA.AperFunction,ComponentPad*%
%ADD17C,1.600000*%
%TD*%
%TA.AperFunction,ComponentPad*%
%ADD18C,3.000000*%
%TD*%
%TA.AperFunction,ComponentPad*%
%ADD19C,2.500000*%
%TD*%
%TA.AperFunction,SMDPad,CuDef*%
%ADD20RoundRect,0.200000X-0.200000X-0.600000X0.200000X-0.600000X0.200000X0.600000X-0.200000X0.600000X0*%
%TD*%
%TA.AperFunction,SMDPad,CuDef*%
%ADD21RoundRect,0.037100X0.227900X-0.317900X0.227900X0.317900X-0.227900X0.317900X-0.227900X-0.317900X0*%
%TD*%
%TA.AperFunction,ComponentPad*%
%ADD22C,2.010000*%
%TD*%
%TA.AperFunction,SMDPad,CuDef*%
%ADD23RoundRect,0.124800X0.475200X0.275200X-0.475200X0.275200X-0.475200X-0.275200X0.475200X-0.275200X0*%
%TD*%
%TA.AperFunction,ComponentPad*%
%ADD24R,2.743200X2.743200*%
%TD*%
%TA.AperFunction,ComponentPad*%
%ADD25C,2.743200*%
%TD*%
%TA.AperFunction,ComponentPad*%
%ADD26R,2.000000X2.000000*%
%TD*%
%TA.AperFunction,ComponentPad*%
%ADD27C,2.000000*%
%TD*%
%TA.AperFunction,SMDPad,CuDef*%
%ADD28R,1.100000X2.250000*%
%TD*%
%TA.AperFunction,SMDPad,CuDef*%
%ADD29R,1.050000X1.100000*%
%TD*%
%TA.AperFunction,ComponentPad*%
%ADD30R,2.300000X2.000000*%
%TD*%
%TA.AperFunction,ComponentPad*%
%ADD31C,2.300000*%
%TD*%
%TA.AperFunction,ComponentPad*%
%ADD32R,2.100000X2.100000*%
%TD*%
%TA.AperFunction,ComponentPad*%
%ADD33C,2.100000*%
%TD*%
%TA.AperFunction,SMDPad,CuDef*%
%ADD34RoundRect,0.225000X0.250000X-0.225000X0.250000X0.225000X-0.250000X0.225000X-0.250000X-0.225000X0*%
%TD*%
%TA.AperFunction,SMDPad,CuDef*%
%ADD35RoundRect,0.250000X0.450000X-0.262500X0.450000X0.262500X-0.450000X0.262500X-0.450000X-0.262500X0*%
%TD*%
%TA.AperFunction,ViaPad*%
%ADD36C,0.700000*%
%TD*%
%TA.AperFunction,ViaPad*%
%ADD37C,0.600000*%
%TD*%
%TA.AperFunction,ViaPad*%
%ADD38C,0.800000*%
%TD*%
%TA.AperFunction,Conductor*%
%ADD39C,0.510000*%
%TD*%
%TA.AperFunction,Conductor*%
%ADD40C,0.200000*%
%TD*%
%TA.AperFunction,Conductor*%
%ADD41C,0.250000*%
%TD*%
%TA.AperFunction,Conductor*%
%ADD42C,0.300000*%
%TD*%
%TA.AperFunction,Conductor*%
%ADD43C,0.150000*%
%TD*%
%TA.AperFunction,Conductor*%
%ADD44C,0.400000*%
%TD*%
%TA.AperFunction,Conductor*%
%ADD45C,0.320000*%
%TD*%
%TA.AperFunction,Conductor*%
%ADD46C,1.000000*%
%TD*%
%TA.AperFunction,Conductor*%
%ADD47C,2.800000*%
%TD*%
%TA.AperFunction,Profile*%
%ADD48C,0.100000*%
%TD*%
G04 APERTURE END LIST*
D10*
%TO.P,HLD2,1,K*%
%TO.N,GND*%
X154834924Y-96659500D03*
%TO.P,HLD2,2,A*%
%TO.N,Net-(HLD2-A)*%
X154834924Y-94784500D03*
%TD*%
D11*
%TO.P,EC6,1*%
%TO.N,Net-(ANT1-Pad1)*%
X129925000Y-121420000D03*
%TO.P,EC6,2*%
%TO.N,GND*%
X131475000Y-121420000D03*
%TD*%
D12*
%TO.P,ANT1,1,1*%
%TO.N,Net-(ANT1-Pad1)*%
X127400000Y-122130000D03*
%TO.P,ANT1,2,2*%
%TO.N,unconnected-(ANT1-Pad2)*%
X117900000Y-122130000D03*
%TD*%
D13*
%TO.P,EL1,1,1*%
%TO.N,Net-(ANT1-Pad1)*%
X129757500Y-123030000D03*
%TO.P,EL1,2,2*%
%TO.N,ESP_LNA_RF*%
X131882500Y-123030000D03*
%TD*%
D14*
%TO.P,J1,1,Pin_1*%
%TO.N,GND*%
X167080000Y-119030000D03*
%TO.P,J1,2,Pin_2*%
%TO.N,USB_5V0F*%
X167080000Y-118030000D03*
%TO.P,J1,3,Pin_3*%
%TO.N,3V3*%
X167080000Y-117030000D03*
%TO.P,J1,4,Pin_4*%
%TO.N,TXD0*%
X167080000Y-116030000D03*
%TO.P,J1,5,Pin_5*%
%TO.N,RXD0*%
X167080000Y-115030000D03*
%TO.P,J1,6,Pin_6*%
%TO.N,ESP_GPIO0_BOOT-DTR*%
X167080000Y-114030000D03*
%TO.P,J1,7,Pin_7*%
%TO.N,CHIP_EN*%
X167080000Y-113030000D03*
D15*
%TO.P,J1,MP*%
%TO.N,N/C*%
X163205000Y-120330000D03*
X163205000Y-111730000D03*
%TD*%
D16*
%TO.P,LR1,1*%
%TO.N,LED_R_IO35*%
X121660000Y-106855000D03*
%TO.P,LR1,2*%
%TO.N,Net-(LED1-RA)*%
X121660000Y-108505000D03*
%TD*%
D17*
%TO.P,HLV1,1*%
%TO.N,Net-(HLC2-Pad1)*%
X151019924Y-101002000D03*
%TO.P,HLV1,2*%
%TO.N,LINE_IN*%
X156019924Y-99702000D03*
%TD*%
D18*
%TO.P,Relay1,1*%
%TO.N,Net-(ACS1-IP--Pad3)*%
X124194924Y-71607000D03*
D19*
%TO.P,Relay1,2*%
%TO.N,GND*%
X130244924Y-73557000D03*
D18*
%TO.P,Relay1,3*%
%TO.N,LINE_OUT*%
X130244924Y-85757000D03*
%TO.P,Relay1,4*%
%TO.N,unconnected-(Relay1-Pad4)*%
X118194924Y-85807000D03*
D19*
%TO.P,Relay1,5*%
%TO.N,Net-(HLD3-K)*%
X118244924Y-73557000D03*
%TD*%
D20*
%TO.P,RST1,1,1*%
%TO.N,GND*%
X161095000Y-122445000D03*
%TO.P,RST1,2,2*%
%TO.N,CHIP_EN*%
X164435000Y-122445000D03*
%TD*%
D21*
%TO.P,U4,1,NC*%
%TO.N,unconnected-(U4-NC-Pad1)*%
X119940000Y-115320000D03*
%TO.P,U4,2,VDD*%
%TO.N,3V3*%
X118940000Y-115320000D03*
%TO.P,U4,3,SCL*%
%TO.N,GPIO9_I2C_SCL*%
X117940000Y-115320000D03*
%TO.P,U4,4,SDA*%
%TO.N,GPIO8_I2C_SDA*%
X117940000Y-113350000D03*
%TO.P,U4,5,GND*%
%TO.N,GND*%
X118940000Y-113350000D03*
%TO.P,U4,6,NC*%
%TO.N,unconnected-(U4-NC-Pad6)*%
X119940000Y-113350000D03*
%TD*%
D22*
%TO.P,PF1,1*%
%TO.N,Net-(HLC2-Pad1)*%
X151579924Y-96952000D03*
%TO.P,PF1,2*%
%TO.N,/AC_220_IN*%
X150379924Y-91852000D03*
%TD*%
D23*
%TO.P,LED1,1,GA*%
%TO.N,LED_G_IO38*%
X120040000Y-110950000D03*
%TO.P,LED1,2,BA*%
%TO.N,LED_B_IO34*%
X116860000Y-110960000D03*
%TO.P,LED1,3,RA*%
%TO.N,Net-(LED1-RA)*%
X120040000Y-109810000D03*
%TO.P,LED1,4,K*%
%TO.N,3V3*%
X116850000Y-109840000D03*
%TD*%
D24*
%TO.P,J3,01,01*%
%TO.N,/AC_220_IN*%
X143677924Y-92956000D03*
D25*
%TO.P,J3,02,02*%
%TO.N,LINE_IN*%
X135422924Y-92956000D03*
%TO.P,J3,03,03*%
%TO.N,LINE_OUT*%
X127167924Y-92956000D03*
%TO.P,J3,04,04*%
%TO.N,LINE_IN*%
X118912924Y-92956000D03*
%TD*%
D26*
%TO.P,HLL2,1,1*%
%TO.N,Net-(HiLink1-AC_N)*%
X166205549Y-101650750D03*
D27*
%TO.P,HLL2,2,2*%
%TO.N,Net-(HLC2-Pad1)*%
X159138049Y-101578250D03*
%TO.P,HLL2,3,3*%
%TO.N,Net-(HiLink1-AC_L)*%
X166135549Y-93522750D03*
%TO.P,HLL2,4,4*%
%TO.N,LINE_IN*%
X159088049Y-93445250D03*
%TD*%
D28*
%TO.P,J4,1,GND*%
%TO.N,GND*%
X146190000Y-121510000D03*
%TO.P,J4,2,GND*%
X143240000Y-121510000D03*
D29*
%TO.P,J4,3,SIG*%
%TO.N,ESP_LNA_RF*%
X144715000Y-123060000D03*
%TD*%
D30*
%TO.P,HiLink1,1,AC_N*%
%TO.N,Net-(HiLink1-AC_N)*%
X165422424Y-77622000D03*
D31*
%TO.P,HiLink1,2,AC_L*%
%TO.N,Net-(HiLink1-AC_L)*%
X165422424Y-82622000D03*
%TO.P,HiLink1,3,DC-*%
%TO.N,GND3*%
X136022424Y-72422000D03*
%TO.P,HiLink1,4,DC+*%
%TO.N,Net-(HiLink1-DC+)*%
X136022424Y-87822000D03*
%TD*%
D32*
%TO.P,TEMPDS1,1,Pin_1*%
%TO.N,3V3*%
X156040000Y-120890000D03*
D33*
%TO.P,TEMPDS1,2,Pin_2*%
%TO.N,DS_TEMP_IO01*%
X156040000Y-118350000D03*
%TO.P,TEMPDS1,3,Pin_3*%
%TO.N,GND*%
X156040000Y-115810000D03*
%TD*%
D34*
%TO.P,EC9,1*%
%TO.N,ESP_LNA_RF*%
X133260000Y-123055000D03*
%TO.P,EC9,2*%
%TO.N,GND*%
X133260000Y-121505000D03*
%TD*%
D35*
%TO.P,HLR1,1*%
%TO.N,Net-(HLD2-A)*%
X154854924Y-93334500D03*
%TO.P,HLR1,2*%
%TO.N,Net-(HiLink1-DC+)*%
X154854924Y-91509500D03*
%TD*%
D27*
%TO.P,HLC2,1*%
%TO.N,Net-(HLC2-Pad1)*%
X156390000Y-107740000D03*
%TO.P,HLC2,2*%
%TO.N,LINE_IN*%
X166390000Y-107740000D03*
%TD*%
D36*
%TO.N,3V3*%
X117830000Y-107680000D03*
D37*
X116840000Y-117665500D03*
X140938924Y-116158924D03*
D36*
X153135152Y-120314949D03*
X118930000Y-116300000D03*
D37*
X135620000Y-118014500D03*
D38*
X157399924Y-110152000D03*
X165000000Y-117090000D03*
D37*
X148670477Y-110897313D03*
D36*
X118210000Y-109890000D03*
X153429924Y-110617924D03*
D37*
X140190000Y-100520000D03*
X144915000Y-118715000D03*
D38*
%TO.N,GND*%
X165200000Y-119560000D03*
X147055152Y-113634949D03*
X146005152Y-112654949D03*
X145785152Y-114994949D03*
X155709924Y-82052000D03*
X144788924Y-113868924D03*
X133430000Y-98539500D03*
D37*
X151701933Y-120135449D03*
D38*
X118929924Y-100132000D03*
X143585152Y-112714949D03*
D37*
X114720000Y-95450000D03*
D38*
X148009924Y-77522000D03*
X153350000Y-99220000D03*
X143425000Y-115185000D03*
D36*
X120240000Y-118550000D03*
D38*
X117169924Y-102142000D03*
X144435152Y-116234949D03*
D37*
X154000000Y-122022000D03*
X141210000Y-119634500D03*
D38*
X144544924Y-77452000D03*
X128081944Y-99011944D03*
D37*
X141120000Y-99900000D03*
D38*
X144945152Y-111754949D03*
D37*
X142938924Y-101138924D03*
X162090000Y-122400000D03*
D38*
%TO.N,5V0*%
X153729924Y-86682000D03*
X153179924Y-83642000D03*
X120690000Y-99820000D03*
X142924924Y-79202000D03*
D37*
%TO.N,RXD0*%
X141190424Y-118450000D03*
%TO.N,TXD0*%
X139069924Y-119002000D03*
%TO.N,CHIP_EN*%
X150677708Y-120422292D03*
X165590000Y-113180000D03*
X165460000Y-121270000D03*
%TO.N,Net-(ESP32S1-GPIO16{slash}ADC2_CH5{slash}XTAL_32K_N)*%
X148435378Y-107730500D03*
X148034500Y-109282100D03*
%TO.N,Net-(ESP32S1-GPIO15{slash}ADC2_CH4{slash}XTAL_32K_P)*%
X147532059Y-107730500D03*
X148320477Y-110140000D03*
%TO.N,ESP_GPIO0_BOOT-DTR*%
X142463201Y-118275125D03*
X149781233Y-119278767D03*
X137300000Y-118014500D03*
%TO.N,GPIO8_I2C_SDA*%
X144946089Y-103593911D03*
X144940000Y-100010000D03*
D36*
X139930000Y-102300000D03*
D37*
X151850000Y-116430000D03*
%TO.N,GPIO9_I2C_SCL*%
X152052820Y-115477181D03*
X144951549Y-100909429D03*
X144523103Y-104395500D03*
D36*
X139100000Y-103530000D03*
D38*
%TO.N,LINE_IN*%
X135770000Y-78450000D03*
X134640000Y-76740000D03*
X136890000Y-78680000D03*
X136520000Y-77590000D03*
X135600000Y-76870000D03*
X135020000Y-77640000D03*
D37*
%TO.N,LED_B_IO34*%
X150297198Y-112135269D03*
%TO.N,LED_R_IO35*%
X150049652Y-110190000D03*
%TO.N,LED_G_IO38*%
X149475152Y-111134949D03*
D38*
%TO.N,Net-(HiLink1-DC+)*%
X143739924Y-86702000D03*
D37*
%TO.N,RELAY_EN_IO37*%
X150220000Y-112932685D03*
D36*
X129460000Y-99089500D03*
%TO.N,ACS_HALL_IO36*%
X130610000Y-99089500D03*
D38*
X138679924Y-95762000D03*
D37*
X150150000Y-113790000D03*
D38*
X140549924Y-76412000D03*
%TO.N,USB_5V0F*%
X163285000Y-117375000D03*
%TO.N,DS_TEMP_IO01*%
X155599924Y-112722000D03*
D37*
X150050000Y-117650000D03*
%TO.N,IMU_CS_IO06*%
X144805500Y-101808636D03*
X151000000Y-116050000D03*
D36*
%TO.N,BUZZER_IO07*%
X131650000Y-99089500D03*
D38*
X140070000Y-95990000D03*
D37*
X150000000Y-115960000D03*
D38*
X154629924Y-80792000D03*
%TO.N,ESP_LNA_RF*%
X147557952Y-122937952D03*
%TD*%
D39*
%TO.N,3V3*%
X141735152Y-112834949D02*
X141735152Y-115362696D01*
D40*
X148670477Y-110897313D02*
X148485152Y-111082638D01*
D41*
X153135152Y-120377228D02*
X153135152Y-120314949D01*
D42*
X155878000Y-121142000D02*
X153899924Y-121142000D01*
D43*
X116840000Y-117665500D02*
X116355500Y-117665500D01*
X135620000Y-118014500D02*
X137475576Y-116158924D01*
D39*
X147755000Y-112145000D02*
X147360000Y-111750000D01*
D40*
X153448924Y-110598924D02*
X156953000Y-110598924D01*
D44*
X134861752Y-97040000D02*
X127933274Y-97040000D01*
D43*
X118930000Y-116300000D02*
X118940000Y-116290000D01*
D40*
X147795000Y-112145000D02*
X147755000Y-112145000D01*
X153429924Y-110617924D02*
X153448924Y-110598924D01*
D39*
X146204949Y-110594949D02*
X143975152Y-110594949D01*
X149250000Y-103740000D02*
X150090000Y-103740000D01*
X149290000Y-118470000D02*
X146675051Y-115855050D01*
D42*
X153899924Y-121142000D02*
X153135152Y-120377228D01*
D44*
X119665000Y-106233248D02*
X118218248Y-107680000D01*
D39*
X153429924Y-110617924D02*
X153408924Y-110638924D01*
X153135152Y-120314949D02*
X153135152Y-120165152D01*
X150090000Y-103740000D02*
X153429924Y-107079924D01*
X147360000Y-111750000D02*
X146204949Y-110594949D01*
X140090000Y-97890000D02*
X146457924Y-97890000D01*
D42*
X116900000Y-109890000D02*
X116850000Y-109840000D01*
D39*
X144915000Y-117615000D02*
X144915000Y-118715000D01*
D44*
X127933274Y-97040000D02*
X125718274Y-99255000D01*
D43*
X137475576Y-116158924D02*
X140938924Y-116158924D01*
D42*
X118210000Y-109890000D02*
X116900000Y-109890000D01*
D39*
X145670000Y-116860000D02*
X148055000Y-114475000D01*
D43*
X115520000Y-110580000D02*
X116260000Y-109840000D01*
X116260000Y-109840000D02*
X116850000Y-109840000D01*
D39*
X146457924Y-97890000D02*
X147459924Y-98892000D01*
D44*
X140190000Y-100520000D02*
X140170000Y-100500000D01*
X140035000Y-97835000D02*
X135656752Y-97835000D01*
D39*
X145670000Y-116860000D02*
X144915000Y-117615000D01*
D40*
X148485152Y-111082638D02*
X148485152Y-111412696D01*
D44*
X119665000Y-104183353D02*
X119665000Y-106233248D01*
D39*
X151440000Y-118470000D02*
X149290000Y-118470000D01*
D44*
X135656752Y-97835000D02*
X134861752Y-97040000D01*
D39*
X148405000Y-112795000D02*
X148405000Y-114125000D01*
D41*
X156130000Y-120890000D02*
X155878000Y-121142000D01*
D39*
X141735152Y-115362696D02*
X140938924Y-116158924D01*
X143975152Y-110594949D02*
X141735152Y-112834949D01*
D44*
X140170000Y-100500000D02*
X140170000Y-97970000D01*
D42*
X166845000Y-117160000D02*
X165050000Y-117160000D01*
D43*
X118940000Y-116290000D02*
X118940000Y-115320000D01*
D39*
X147360000Y-111750000D02*
X148405000Y-112795000D01*
D43*
X115520000Y-116830000D02*
X115520000Y-110580000D01*
D39*
X147459924Y-101949924D02*
X149250000Y-103740000D01*
D44*
X140170000Y-97970000D02*
X140035000Y-97835000D01*
D43*
X116355500Y-117665500D02*
X115520000Y-116830000D01*
D40*
X156953000Y-110598924D02*
X157399924Y-110152000D01*
D44*
X118218248Y-107680000D02*
X117830000Y-107680000D01*
X124593351Y-99255000D02*
X119665000Y-104183353D01*
D40*
X148485152Y-111412696D02*
X147758924Y-112138924D01*
D42*
X165050000Y-117160000D02*
X165040000Y-117150000D01*
D40*
X147755000Y-112115000D02*
X147755000Y-112145000D01*
D39*
X148055000Y-114475000D02*
X148405000Y-114125000D01*
X147459924Y-98892000D02*
X147459924Y-101949924D01*
D44*
X125718274Y-99255000D02*
X124593351Y-99255000D01*
D39*
X153429924Y-107079924D02*
X153429924Y-110617924D01*
X153135152Y-120165152D02*
X151440000Y-118470000D01*
D43*
%TO.N,GND*%
X118940000Y-113990000D02*
X118940000Y-113350000D01*
X120240000Y-118550000D02*
X120830000Y-117960000D01*
D41*
X154000000Y-122022000D02*
X153339924Y-122022000D01*
D40*
X120240000Y-118550000D02*
X119640000Y-119150000D01*
X116120000Y-119150000D02*
X114445000Y-117475000D01*
D42*
X155919924Y-95574500D02*
X155919924Y-82262000D01*
D40*
X143425000Y-115185000D02*
X143425000Y-114995000D01*
X143881578Y-120437000D02*
X145521486Y-120437000D01*
D44*
X118929924Y-100132000D02*
X119077541Y-99984383D01*
X114720000Y-95450000D02*
X118929924Y-99659924D01*
D45*
X143425000Y-115335000D02*
X143425000Y-115185000D01*
X131200000Y-121380000D02*
X133095000Y-121380000D01*
D44*
X128081944Y-99011944D02*
X128476895Y-99011944D01*
D43*
X120830000Y-114645026D02*
X120374974Y-114190000D01*
D40*
X143488924Y-115108924D02*
X146088924Y-112508924D01*
X114445000Y-117475000D02*
X114445000Y-109425000D01*
X145703064Y-120618578D02*
X145703064Y-121810000D01*
X144614924Y-77522000D02*
X144544924Y-77452000D01*
D42*
X154360000Y-97134424D02*
X155919924Y-95574500D01*
D40*
X145703064Y-121810000D02*
X147990000Y-121810000D01*
D41*
X153339924Y-122022000D02*
X151701933Y-120384009D01*
D40*
X141120000Y-99900000D02*
X142590000Y-99900000D01*
D42*
X153350000Y-99220000D02*
X154360000Y-98210000D01*
D43*
X120830000Y-117960000D02*
X120830000Y-114645026D01*
D40*
X142590000Y-99900000D02*
X142938924Y-100248924D01*
D43*
X120374974Y-114190000D02*
X119140000Y-114190000D01*
D42*
X155919924Y-82262000D02*
X155709924Y-82052000D01*
D40*
X144915152Y-111494949D02*
X147055152Y-113634949D01*
D42*
X154360000Y-98210000D02*
X154360000Y-97134424D01*
D44*
X117169924Y-104360076D02*
X117169924Y-102142000D01*
D41*
X151701933Y-120384009D02*
X151701933Y-120135449D01*
D40*
X144665000Y-116215000D02*
X144305000Y-116215000D01*
D41*
X166845000Y-119160000D02*
X165600000Y-119160000D01*
X165600000Y-119160000D02*
X165200000Y-119560000D01*
D43*
X162090000Y-122400000D02*
X162045000Y-122445000D01*
D44*
X129148839Y-98340000D02*
X133230500Y-98340000D01*
D40*
X141210000Y-120320000D02*
X142700000Y-121810000D01*
X147990000Y-121810000D02*
X149090000Y-122910000D01*
X143225000Y-121810000D02*
X143700000Y-121335000D01*
X142700000Y-121810000D02*
X143225000Y-121810000D01*
D45*
X143988924Y-115958924D02*
X144048924Y-115958924D01*
D40*
X144665000Y-116405000D02*
X144665000Y-116215000D01*
X145521486Y-120437000D02*
X145703064Y-120618578D01*
D45*
X133095000Y-121380000D02*
X133160000Y-121445000D01*
D40*
X141210000Y-119634500D02*
X141210000Y-120320000D01*
D43*
X119140000Y-114190000D02*
X118940000Y-113990000D01*
D44*
X133230500Y-98340000D02*
X133430000Y-98539500D01*
D40*
X119640000Y-119150000D02*
X116120000Y-119150000D01*
X143700000Y-120618578D02*
X143881578Y-120437000D01*
X141210000Y-119634500D02*
X141210000Y-119871924D01*
D45*
X144048924Y-115958924D02*
X143425000Y-115335000D01*
D40*
X145815000Y-114965000D02*
X143385000Y-112535000D01*
X149090000Y-122910000D02*
X149090000Y-123340000D01*
X143700000Y-121335000D02*
X143700000Y-120618578D01*
D42*
X148009924Y-77522000D02*
X144614924Y-77522000D01*
D45*
X144305000Y-116215000D02*
X144048924Y-115958924D01*
D44*
X128476895Y-99011944D02*
X129148839Y-98340000D01*
D40*
X146045000Y-114965000D02*
X145815000Y-114965000D01*
D44*
X116030000Y-105500000D02*
X117169924Y-104360076D01*
D41*
X151701933Y-120135449D02*
X151565152Y-120272230D01*
D43*
X162045000Y-122445000D02*
X161095000Y-122445000D01*
D40*
X114445000Y-109425000D02*
X116030000Y-107840000D01*
X144885152Y-111494949D02*
X144915152Y-111494949D01*
X142938924Y-100248924D02*
X142938924Y-101148924D01*
D44*
X116030000Y-107840000D02*
X116030000Y-105500000D01*
X118929924Y-99659924D02*
X118929924Y-100132000D01*
D42*
%TO.N,5V0*%
X147319924Y-83642000D02*
X153179924Y-83642000D01*
X142924924Y-79202000D02*
X142924924Y-79247000D01*
X142924924Y-79247000D02*
X147319924Y-83642000D01*
D44*
X135110280Y-96440000D02*
X135905280Y-97235000D01*
X135905280Y-97235000D02*
X146486924Y-97235000D01*
X149179924Y-94542000D02*
X152549924Y-94542000D01*
X121040000Y-99820000D02*
X122210000Y-98650000D01*
X146486924Y-97235000D02*
X149179924Y-94542000D01*
X120690000Y-99820000D02*
X121040000Y-99820000D01*
X122210000Y-98650000D02*
X125474747Y-98650000D01*
X125474747Y-98650000D02*
X127684747Y-96440000D01*
X153729924Y-93362000D02*
X153729924Y-90082000D01*
X127684747Y-96440000D02*
X135110280Y-96440000D01*
X153729924Y-90062000D02*
X153729924Y-86682000D01*
X153729924Y-86682000D02*
X153739924Y-86672000D01*
X152549924Y-94542000D02*
X153729924Y-93362000D01*
D43*
%TO.N,RXD0*%
X161164974Y-115160000D02*
X166845000Y-115160000D01*
X159470000Y-122479948D02*
X159470000Y-116854974D01*
X158399948Y-123550000D02*
X159470000Y-122479948D01*
X152497976Y-123550000D02*
X158399948Y-123550000D01*
X159470000Y-116854974D02*
X161164974Y-115160000D01*
X142986974Y-119712000D02*
X148659976Y-119712000D01*
X148659976Y-119712000D02*
X152497976Y-123550000D01*
X141724974Y-118450000D02*
X142986974Y-119712000D01*
X141190424Y-118450000D02*
X141724974Y-118450000D01*
%TO.N,TXD0*%
X160659948Y-116160000D02*
X166845000Y-116160000D01*
X152353002Y-123900000D02*
X158544922Y-123900000D01*
X159820000Y-116999948D02*
X160659948Y-116160000D01*
X158544922Y-123900000D02*
X159820000Y-122624922D01*
X142842000Y-120062000D02*
X148515002Y-120062000D01*
X139127924Y-119060000D02*
X141840000Y-119060000D01*
X141840000Y-119060000D02*
X142842000Y-120062000D01*
X139069924Y-119002000D02*
X139127924Y-119060000D01*
X148515002Y-120062000D02*
X152353002Y-123900000D01*
X159820000Y-122624922D02*
X159820000Y-116999948D01*
X139069924Y-119002000D02*
X139189924Y-119122000D01*
%TO.N,CHIP_EN*%
X150677708Y-120422292D02*
X150677708Y-120739784D01*
X161690000Y-113160000D02*
X166845000Y-113160000D01*
X158110000Y-122850000D02*
X158770000Y-122190000D01*
X152787924Y-122850000D02*
X158110000Y-122850000D01*
X150677708Y-120739784D02*
X152787924Y-122850000D01*
X164435000Y-122445000D02*
X165440000Y-121440000D01*
X158770000Y-116080000D02*
X161690000Y-113160000D01*
X165440000Y-121440000D02*
X165440000Y-121340000D01*
X158770000Y-122190000D02*
X158770000Y-116080000D01*
%TO.N,Net-(ESP32S1-GPIO16{slash}ADC2_CH5{slash}XTAL_32K_N)*%
X148034500Y-108131378D02*
X148034500Y-109282100D01*
X148435378Y-107730500D02*
X148034500Y-108131378D01*
%TO.N,Net-(ESP32S1-GPIO15{slash}ADC2_CH4{slash}XTAL_32K_P)*%
X147460000Y-107802559D02*
X147460000Y-109770000D01*
X147460000Y-109770000D02*
X147830000Y-110140000D01*
X147532059Y-107730500D02*
X147460000Y-107802559D01*
X147830000Y-110140000D02*
X148320477Y-110140000D01*
%TO.N,ESP_GPIO0_BOOT-DTR*%
X137300000Y-118010000D02*
X137810000Y-117500000D01*
X152642950Y-123200000D02*
X158254974Y-123200000D01*
X148804950Y-119362000D02*
X148200000Y-119362000D01*
X137300000Y-118014500D02*
X137300000Y-118010000D01*
X137810000Y-117500000D02*
X141850000Y-117500000D01*
X141850000Y-117500000D02*
X143712000Y-119362000D01*
X148804950Y-119362000D02*
X152642950Y-123200000D01*
X143712000Y-119362000D02*
X148804950Y-119362000D01*
X159120000Y-116710000D02*
X161670000Y-114160000D01*
X159120000Y-122334974D02*
X159120000Y-116710000D01*
X161670000Y-114160000D02*
X166845000Y-114160000D01*
X149781233Y-119488767D02*
X149356475Y-119913525D01*
X158254974Y-123200000D02*
X159120000Y-122334974D01*
X149781233Y-119278767D02*
X149781233Y-119488767D01*
%TO.N,GPIO8_I2C_SDA*%
X151850000Y-116430000D02*
X152370000Y-116430000D01*
X124790103Y-99730000D02*
X120140000Y-104380104D01*
X145707678Y-104355500D02*
X144946089Y-103593911D01*
X114820000Y-109665026D02*
X114820000Y-117270000D01*
X145780000Y-100510000D02*
X145780000Y-102317848D01*
X139930000Y-102300000D02*
X139950000Y-102280000D01*
X138834974Y-102300000D02*
X134049974Y-97515000D01*
X120140000Y-106430000D02*
X117820000Y-108750000D01*
X114820000Y-117270000D02*
X116140000Y-118590000D01*
X142791924Y-102280000D02*
X143659924Y-101412000D01*
X117820000Y-108750000D02*
X115735026Y-108750000D01*
X143659924Y-101412000D02*
X143659924Y-100930076D01*
X143659924Y-100930076D02*
X144580000Y-100010000D01*
X139930000Y-102300000D02*
X138834974Y-102300000D01*
X144946089Y-103151759D02*
X144946089Y-103593911D01*
X118490000Y-114540000D02*
X117940000Y-113990000D01*
X139950000Y-102280000D02*
X142791924Y-102280000D01*
X145780000Y-102317848D02*
X144946089Y-103151759D01*
X125915026Y-99730000D02*
X124790103Y-99730000D01*
X144580000Y-100010000D02*
X145280000Y-100010000D01*
X120480000Y-114790000D02*
X120230000Y-114540000D01*
X120480000Y-116900000D02*
X120480000Y-114790000D01*
X152724652Y-116075348D02*
X152724652Y-107229729D01*
X117940000Y-113990000D02*
X117940000Y-113350000D01*
X116140000Y-118590000D02*
X118790000Y-118590000D01*
X115735026Y-108750000D02*
X114820000Y-109665026D01*
X145280000Y-100010000D02*
X145780000Y-100510000D01*
X120230000Y-114540000D02*
X118490000Y-114540000D01*
X120140000Y-104380104D02*
X120140000Y-106430000D01*
X134049974Y-97515000D02*
X128130025Y-97515000D01*
X118790000Y-118590000D02*
X120480000Y-116900000D01*
X128130025Y-97515000D02*
X125915026Y-99730000D01*
X149850422Y-104355500D02*
X145707678Y-104355500D01*
X152370000Y-116430000D02*
X152724652Y-116075348D01*
X152724652Y-107229729D02*
X149850422Y-104355500D01*
%TO.N,GPIO9_I2C_SCL*%
X144833103Y-104705500D02*
X149705448Y-104705500D01*
X145430000Y-102147848D02*
X145430000Y-101050000D01*
X144523103Y-104395500D02*
X144238924Y-104111321D01*
X117990000Y-109100000D02*
X115880000Y-109100000D01*
X152374652Y-115155349D02*
X152374652Y-107374704D01*
X117690000Y-118240000D02*
X118090000Y-117840000D01*
X128275000Y-97865000D02*
X126060000Y-100080000D01*
X126060000Y-100080000D02*
X124935077Y-100080000D01*
X149705448Y-104705500D02*
X152374652Y-107374704D01*
X144238924Y-104111321D02*
X144238924Y-103338924D01*
X145430000Y-101050000D02*
X145289429Y-100909429D01*
X115170000Y-109810000D02*
X115170000Y-117125026D01*
X120490000Y-106600000D02*
X117990000Y-109100000D01*
X139040000Y-103530000D02*
X138870000Y-103360000D01*
X145289429Y-100909429D02*
X144951549Y-100909429D01*
X142036898Y-103530000D02*
X139040000Y-103530000D01*
X115170000Y-117125026D02*
X116284974Y-118240000D01*
X138870000Y-102830000D02*
X133905000Y-97865000D01*
X118090000Y-115470000D02*
X117940000Y-115320000D01*
X138870000Y-103360000D02*
X138870000Y-102830000D01*
X115880000Y-109100000D02*
X115170000Y-109810000D01*
X120490000Y-104525078D02*
X120490000Y-106600000D01*
X118090000Y-117840000D02*
X118090000Y-115470000D01*
X116284974Y-118240000D02*
X117690000Y-118240000D01*
X144951549Y-100909429D02*
X144657469Y-100909429D01*
X144523103Y-104395500D02*
X144833103Y-104705500D01*
X144657469Y-100909429D02*
X142036898Y-103530000D01*
X124935077Y-100080000D02*
X120490000Y-104525078D01*
X144238924Y-103338924D02*
X145430000Y-102147848D01*
X133905000Y-97865000D02*
X128275000Y-97865000D01*
X152052820Y-115477181D02*
X152374652Y-115155349D01*
D46*
%TO.N,/AC_220_IN*%
X144263924Y-92482000D02*
X143642924Y-93103000D01*
X149889924Y-92482000D02*
X144263924Y-92482000D01*
X150444924Y-91927000D02*
X149889924Y-92482000D01*
%TO.N,Net-(HiLink1-AC_N)*%
X166164924Y-98497000D02*
X162074924Y-94407000D01*
X162074924Y-94407000D02*
X162074924Y-79397000D01*
X162074924Y-79397000D02*
X163849924Y-77622000D01*
X163849924Y-77622000D02*
X165422424Y-77622000D01*
X166164924Y-102042000D02*
X166164924Y-98497000D01*
%TO.N,Net-(HiLink1-AC_L)*%
X166135549Y-83335125D02*
X165422424Y-82622000D01*
X166135549Y-93522750D02*
X166135549Y-83335125D01*
D47*
%TO.N,LINE_IN*%
X123210924Y-88670000D02*
X118912924Y-92968000D01*
X123450000Y-88670000D02*
X123210924Y-88670000D01*
X135750000Y-77720000D02*
X132430000Y-77720000D01*
D46*
X166398924Y-107791000D02*
X162460000Y-103852076D01*
X156029924Y-103352000D02*
X159589924Y-106912000D01*
X165163924Y-106912000D02*
X166398924Y-108147000D01*
X166398924Y-108147000D02*
X166398924Y-107791000D01*
D47*
X123450000Y-81330000D02*
X123450000Y-88670000D01*
D46*
X156029924Y-99712000D02*
X156029924Y-103352000D01*
X162460000Y-103852076D02*
X162460000Y-98462076D01*
D47*
X127080000Y-77700000D02*
X123450000Y-81330000D01*
D46*
X162460000Y-98462076D02*
X159089924Y-95092000D01*
X159089924Y-95092000D02*
X159089924Y-93594500D01*
D47*
X132430000Y-77720000D02*
X132410000Y-77700000D01*
X132410000Y-77700000D02*
X127080000Y-77700000D01*
D46*
X159589924Y-106912000D02*
X165163924Y-106912000D01*
D47*
%TO.N,LINE_OUT*%
X127132924Y-92733000D02*
X130244924Y-89621000D01*
X130244924Y-89621000D02*
X130244924Y-85757000D01*
D43*
%TO.N,LED_B_IO34*%
X133185078Y-100430000D02*
X139210578Y-106455500D01*
X139210578Y-106455500D02*
X148963499Y-106455500D01*
X118920000Y-109450000D02*
X120840000Y-107530000D01*
X118460000Y-110960000D02*
X118920000Y-110500000D01*
X118920000Y-110500000D02*
X118920000Y-109450000D01*
X116580000Y-110960000D02*
X118460000Y-110960000D01*
X120840000Y-107530000D02*
X120840000Y-104670052D01*
X150624652Y-108116653D02*
X150624652Y-111807815D01*
X120840000Y-104670052D02*
X125080052Y-100430000D01*
X150624652Y-111807815D02*
X150297198Y-112135269D01*
X125080052Y-100430000D02*
X133185078Y-100430000D01*
X148963499Y-106455500D02*
X150624652Y-108116653D01*
%TO.N,LED_R_IO35*%
X139065604Y-106805500D02*
X148818526Y-106805500D01*
X121710000Y-106805000D02*
X121710000Y-104295026D01*
X150049652Y-108036627D02*
X150049652Y-110190000D01*
X121660000Y-106855000D02*
X121710000Y-106805000D01*
X133040104Y-100780000D02*
X139065604Y-106805500D01*
X121710000Y-104295026D02*
X125225026Y-100780000D01*
X125225026Y-100780000D02*
X133040104Y-100780000D01*
X148818526Y-106805500D02*
X150049652Y-108036627D01*
%TO.N,LED_G_IO38*%
X125310000Y-101190000D02*
X132955130Y-101190000D01*
X149475152Y-107957101D02*
X149475152Y-111134949D01*
X132955130Y-101190000D02*
X138920630Y-107155500D01*
X138920630Y-107155500D02*
X148673551Y-107155500D01*
X122950000Y-103550000D02*
X125310000Y-101190000D01*
X122950000Y-109820000D02*
X122950000Y-103550000D01*
X148673551Y-107155500D02*
X149475152Y-107957101D01*
X121820000Y-110950000D02*
X122950000Y-109820000D01*
X119760000Y-110950000D02*
X121820000Y-110950000D01*
D40*
%TO.N,Net-(HiLink1-DC+)*%
X154854924Y-91509500D02*
X154854924Y-86487000D01*
X154854924Y-86487000D02*
X153979924Y-85612000D01*
X153979924Y-85612000D02*
X144829924Y-85612000D01*
X144829924Y-85612000D02*
X143739924Y-86702000D01*
%TO.N,Net-(HLD2-A)*%
X154834924Y-94784500D02*
X154834924Y-93354500D01*
D43*
%TO.N,Net-(HLC2-Pad1)*%
X150595000Y-100115000D02*
X150595000Y-101585000D01*
D46*
X150564924Y-98477000D02*
X150564924Y-101077000D01*
X150564924Y-101077000D02*
X156398924Y-106911000D01*
X151644924Y-97027000D02*
X151644924Y-97397000D01*
D43*
X150595000Y-99985000D02*
X150595000Y-101585000D01*
D46*
X156398924Y-106911000D02*
X156398924Y-108147000D01*
X151644924Y-97397000D02*
X150564924Y-98477000D01*
D43*
%TO.N,Net-(LED1-RA)*%
X121120000Y-109810000D02*
X121660000Y-109270000D01*
X121660000Y-109270000D02*
X121660000Y-108505000D01*
X119760000Y-109810000D02*
X121120000Y-109810000D01*
%TO.N,RELAY_EN_IO37*%
X150312955Y-112932685D02*
X150220000Y-112932685D01*
X150974652Y-107971679D02*
X150974652Y-112270988D01*
X130450500Y-100080000D02*
X133330052Y-100080000D01*
X129460000Y-99089500D02*
X130450500Y-100080000D01*
X139355552Y-106105500D02*
X149108473Y-106105500D01*
X133330052Y-100080000D02*
X139355552Y-106105500D01*
X150974652Y-112270988D02*
X150312955Y-112932685D01*
X149108473Y-106105500D02*
X150974652Y-107971679D01*
%TO.N,ACS_HALL_IO36*%
X139500526Y-105755500D02*
X149253448Y-105755500D01*
X131250500Y-99730000D02*
X133475026Y-99730000D01*
X142139924Y-78049924D02*
X140549924Y-76459924D01*
X151324652Y-112641206D02*
X150175858Y-113790000D01*
X149253448Y-105755500D02*
X151324652Y-107826705D01*
X138679924Y-95762000D02*
X138728000Y-95762000D01*
X140140000Y-94350000D02*
X140140000Y-90905026D01*
X130610000Y-99089500D02*
X131250500Y-99730000D01*
X151324652Y-107826705D02*
X151324652Y-112641206D01*
X150175858Y-113790000D02*
X150150000Y-113790000D01*
X133475026Y-99730000D02*
X139500526Y-105755500D01*
X138728000Y-95762000D02*
X140140000Y-94350000D01*
X140549924Y-76459924D02*
X140549924Y-76412000D01*
X142139924Y-88905102D02*
X142139924Y-78049924D01*
X140140000Y-90905026D02*
X142139924Y-88905102D01*
D42*
%TO.N,USB_5V0F*%
X163285000Y-117375000D02*
X164070000Y-118160000D01*
X164070000Y-118160000D02*
X166845000Y-118160000D01*
D43*
%TO.N,DS_TEMP_IO01*%
X154847924Y-117940000D02*
X155257924Y-118350000D01*
X150340000Y-117940000D02*
X154847924Y-117940000D01*
D40*
X156072000Y-112722000D02*
X155599924Y-112722000D01*
D43*
X156319924Y-117642000D02*
X156319924Y-118160076D01*
D40*
X156130000Y-118350000D02*
X157830000Y-116650000D01*
X157830000Y-116650000D02*
X157830000Y-114480000D01*
X157830000Y-114480000D02*
X156072000Y-112722000D01*
D43*
X156319924Y-118160076D02*
X156130000Y-118350000D01*
X150050000Y-117650000D02*
X150340000Y-117940000D01*
%TO.N,IMU_CS_IO06*%
X144195500Y-105055500D02*
X149560474Y-105055500D01*
X143700000Y-103060000D02*
X143700000Y-104560000D01*
X152024652Y-113420322D02*
X151000000Y-114444974D01*
X151000000Y-114444974D02*
X151000000Y-116050000D01*
X144805500Y-101808636D02*
X144805500Y-101954500D01*
X143700000Y-104560000D02*
X144195500Y-105055500D01*
X152024652Y-107519678D02*
X152024652Y-113420322D01*
X144805500Y-101954500D02*
X143700000Y-103060000D01*
X149560474Y-105055500D02*
X152024652Y-107519678D01*
%TO.N,BUZZER_IO07*%
X139645500Y-105405500D02*
X133620000Y-99380000D01*
X150000000Y-114950000D02*
X151674652Y-113275348D01*
X149415500Y-105405500D02*
X139645500Y-105405500D01*
X151674652Y-113275348D02*
X151674652Y-107664652D01*
X143659924Y-85202000D02*
X154109924Y-85202000D01*
X154109924Y-85202000D02*
X154629924Y-84682000D01*
X140490000Y-95570000D02*
X140490000Y-91050000D01*
X150000000Y-115960000D02*
X150000000Y-114950000D01*
X131940500Y-99380000D02*
X131650000Y-99089500D01*
X140070000Y-95990000D02*
X140490000Y-95570000D01*
X140490000Y-91050000D02*
X142489924Y-89050076D01*
X133620000Y-99380000D02*
X131940500Y-99380000D01*
X142489924Y-86372000D02*
X143659924Y-85202000D01*
X142489924Y-89050076D02*
X142489924Y-86372000D01*
X151674652Y-107664652D02*
X149415500Y-105405500D01*
X154629924Y-84682000D02*
X154629924Y-80792000D01*
D42*
%TO.N,unconnected-(U4-NC-Pad1)*%
X119920000Y-115195000D02*
X119920000Y-116445000D01*
%TO.N,unconnected-(U4-NC-Pad6)*%
X119995000Y-113340000D02*
X121065000Y-113340000D01*
D45*
%TO.N,Net-(ANT1-Pad1)*%
X129650000Y-121380000D02*
X129650000Y-122980000D01*
X129440000Y-122590000D02*
X127120000Y-122590000D01*
X129650000Y-122980000D02*
X129600000Y-123030000D01*
X127260000Y-121990000D02*
X127260000Y-121850000D01*
%TO.N,ESP_LNA_RF*%
X134663553Y-123593553D02*
X134530893Y-123460893D01*
X133823786Y-123168000D02*
X132012576Y-123168000D01*
X146548797Y-123740000D02*
X135017107Y-123740000D01*
X147557952Y-122937952D02*
X146902350Y-123593554D01*
X134530900Y-123460886D02*
G75*
G03*
X133823786Y-123168000I-707100J-707114D01*
G01*
X134663550Y-123593556D02*
G75*
G03*
X135017107Y-123740000I353550J353556D01*
G01*
X146548797Y-123739998D02*
G75*
G03*
X146902350Y-123593554I3J499998D01*
G01*
%TD*%
%TA.AperFunction,Conductor*%
%TO.N,GND*%
G36*
X161548766Y-70077247D02*
G01*
X161549504Y-70077395D01*
X161627766Y-70077395D01*
X161635202Y-70077533D01*
X162102307Y-70095003D01*
X162117112Y-70096112D01*
X162577925Y-70148027D01*
X162592597Y-70150238D01*
X163048222Y-70236440D01*
X163062719Y-70239748D01*
X163510628Y-70359759D01*
X163524827Y-70364138D01*
X163962532Y-70517292D01*
X163976332Y-70522708D01*
X164401380Y-70708149D01*
X164414753Y-70714589D01*
X164767704Y-70901125D01*
X164824724Y-70931261D01*
X164837612Y-70938702D01*
X165230225Y-71185392D01*
X165242520Y-71193774D01*
X165615617Y-71469129D01*
X165627237Y-71478396D01*
X165960237Y-71764962D01*
X165978697Y-71780848D01*
X165989607Y-71790970D01*
X166317496Y-72118857D01*
X166327618Y-72129767D01*
X166630067Y-72481218D01*
X166639340Y-72492845D01*
X166914708Y-72865954D01*
X166923070Y-72878219D01*
X167169778Y-73270851D01*
X167177217Y-73283736D01*
X167351030Y-73612609D01*
X167393881Y-73693686D01*
X167400335Y-73707089D01*
X167424035Y-73761410D01*
X167585760Y-74132092D01*
X167591197Y-74145945D01*
X167744340Y-74583607D01*
X167748727Y-74597828D01*
X167868739Y-75045728D01*
X167872050Y-75060237D01*
X167958250Y-75515834D01*
X167960468Y-75530550D01*
X168012381Y-75991321D01*
X168013493Y-76006161D01*
X168030918Y-76471990D01*
X168031057Y-76479340D01*
X168038633Y-93507687D01*
X168035332Y-93522580D01*
X168038646Y-93537474D01*
X168041680Y-100357241D01*
X168026170Y-100434351D01*
X167981996Y-100499429D01*
X167916058Y-100542307D01*
X167838657Y-100556289D01*
X167761884Y-100539190D01*
X167697733Y-100493680D01*
X167656227Y-100426873D01*
X167649345Y-100408419D01*
X167563095Y-100293204D01*
X167447880Y-100206954D01*
X167313032Y-100156659D01*
X167294881Y-100149889D01*
X167227099Y-100107459D01*
X167181491Y-100041773D01*
X167165424Y-99963436D01*
X167165424Y-98512189D01*
X167165488Y-98507148D01*
X167167680Y-98420638D01*
X167167680Y-98420636D01*
X167157774Y-98365372D01*
X167155676Y-98350407D01*
X167155427Y-98347962D01*
X167149998Y-98294562D01*
X167142313Y-98270069D01*
X167136307Y-98245596D01*
X167131782Y-98220349D01*
X167131782Y-98220347D01*
X167110957Y-98168213D01*
X167105888Y-98153974D01*
X167089083Y-98100412D01*
X167080819Y-98085523D01*
X167076627Y-98077972D01*
X167065824Y-98055226D01*
X167056301Y-98031383D01*
X167037284Y-98002528D01*
X167025408Y-97984507D01*
X167017574Y-97971576D01*
X166990333Y-97922497D01*
X166973616Y-97903025D01*
X166958446Y-97882906D01*
X166956586Y-97880084D01*
X166944326Y-97861481D01*
X166904633Y-97821788D01*
X166894355Y-97810698D01*
X166873895Y-97786865D01*
X166857790Y-97768105D01*
X166845717Y-97758760D01*
X166837496Y-97752396D01*
X166818591Y-97735746D01*
X164978469Y-95895624D01*
X163133709Y-94050865D01*
X163090572Y-93986306D01*
X163075424Y-93910152D01*
X163075424Y-82622000D01*
X163766820Y-82622000D01*
X163787203Y-82881000D01*
X163847850Y-83133607D01*
X163947268Y-83373625D01*
X163947270Y-83373628D01*
X164083012Y-83595140D01*
X164251735Y-83792689D01*
X164449284Y-83961412D01*
X164670796Y-84097154D01*
X164910814Y-84196573D01*
X164944789Y-84204729D01*
X164982505Y-84213785D01*
X165061284Y-84252634D01*
X165115664Y-84321615D01*
X165135049Y-84407286D01*
X165135049Y-92316457D01*
X165121436Y-92388795D01*
X165082458Y-92451236D01*
X164947385Y-92597964D01*
X164811376Y-92806141D01*
X164711486Y-93033868D01*
X164650439Y-93274933D01*
X164629905Y-93522750D01*
X164650439Y-93770566D01*
X164711486Y-94011631D01*
X164811376Y-94239358D01*
X164947385Y-94447535D01*
X165115805Y-94630488D01*
X165312041Y-94783225D01*
X165402122Y-94831974D01*
X165530739Y-94901578D01*
X165765935Y-94982321D01*
X166011214Y-95023250D01*
X166259884Y-95023250D01*
X166505163Y-94982321D01*
X166740359Y-94901578D01*
X166959058Y-94783224D01*
X167155293Y-94630488D01*
X167323713Y-94447535D01*
X167459722Y-94239357D01*
X167559612Y-94011631D01*
X167620657Y-93770571D01*
X167620657Y-93770570D01*
X167620658Y-93770567D01*
X167628322Y-93678068D01*
X167641192Y-93522750D01*
X167629603Y-93382896D01*
X167620658Y-93274933D01*
X167590241Y-93154820D01*
X167559612Y-93033869D01*
X167459722Y-92806143D01*
X167434863Y-92768094D01*
X167378037Y-92681114D01*
X167323713Y-92597965D01*
X167269184Y-92538731D01*
X167188640Y-92451236D01*
X167149662Y-92388795D01*
X167136049Y-92316457D01*
X167136049Y-83350340D01*
X167136113Y-83345298D01*
X167138306Y-83258760D01*
X167128401Y-83203498D01*
X167126300Y-83188519D01*
X167120716Y-83133607D01*
X167120623Y-83132687D01*
X167112938Y-83108194D01*
X167106934Y-83083730D01*
X167102407Y-83058473D01*
X167081585Y-83006346D01*
X167076514Y-82992101D01*
X167065975Y-82958512D01*
X167057461Y-82883324D01*
X167057644Y-82880997D01*
X167057645Y-82880994D01*
X167078028Y-82622000D01*
X167057645Y-82363006D01*
X167057644Y-82363003D01*
X167057644Y-82362999D01*
X166996997Y-82110392D01*
X166996997Y-82110390D01*
X166897578Y-81870372D01*
X166761836Y-81648860D01*
X166593113Y-81451311D01*
X166395564Y-81282588D01*
X166174052Y-81146846D01*
X166174049Y-81146844D01*
X165985317Y-81068669D01*
X165934034Y-81047427D01*
X165934032Y-81047426D01*
X165934031Y-81047426D01*
X165681424Y-80986779D01*
X165422424Y-80966396D01*
X165163423Y-80986779D01*
X164910816Y-81047426D01*
X164670798Y-81146844D01*
X164449282Y-81282589D01*
X164251735Y-81451311D01*
X164083013Y-81648858D01*
X163947268Y-81870374D01*
X163847850Y-82110392D01*
X163787203Y-82362999D01*
X163766820Y-82622000D01*
X163075424Y-82622000D01*
X163075424Y-79893849D01*
X163090572Y-79817695D01*
X163133710Y-79753135D01*
X163438904Y-79447941D01*
X163788613Y-79098230D01*
X163846659Y-79057928D01*
X163915130Y-79040452D01*
X163985391Y-79048006D01*
X164002918Y-79056779D01*
X164003285Y-79055797D01*
X164030092Y-79065795D01*
X164030093Y-79065796D01*
X164164941Y-79116091D01*
X164224551Y-79122500D01*
X166620296Y-79122499D01*
X166679907Y-79116091D01*
X166814755Y-79065796D01*
X166929970Y-78979546D01*
X167016220Y-78864331D01*
X167066515Y-78729483D01*
X167072924Y-78669873D01*
X167072923Y-76574128D01*
X167066515Y-76514517D01*
X167016220Y-76379669D01*
X166929970Y-76264454D01*
X166814755Y-76178204D01*
X166814754Y-76178203D01*
X166679908Y-76127909D01*
X166665004Y-76126306D01*
X166620297Y-76121500D01*
X166620294Y-76121500D01*
X164224552Y-76121500D01*
X164164939Y-76127909D01*
X164030094Y-76178203D01*
X163914878Y-76264454D01*
X163828628Y-76379668D01*
X163777980Y-76515461D01*
X163748703Y-76567969D01*
X163705082Y-76609337D01*
X163651098Y-76635791D01*
X163622995Y-76644608D01*
X163598541Y-76650611D01*
X163573272Y-76655141D01*
X163521144Y-76675963D01*
X163506904Y-76681033D01*
X163453335Y-76697841D01*
X163430887Y-76710300D01*
X163408140Y-76721102D01*
X163384308Y-76730622D01*
X163337437Y-76761511D01*
X163324514Y-76769340D01*
X163275424Y-76796588D01*
X163255943Y-76813312D01*
X163235839Y-76828470D01*
X163214404Y-76842598D01*
X163174701Y-76882299D01*
X163163617Y-76892571D01*
X163121030Y-76929131D01*
X163105316Y-76949432D01*
X163088669Y-76968332D01*
X161378241Y-78678761D01*
X161374634Y-78682279D01*
X161311868Y-78741943D01*
X161279800Y-78788016D01*
X161270701Y-78800084D01*
X161235226Y-78843592D01*
X161223337Y-78866351D01*
X161210292Y-78887882D01*
X161195628Y-78908951D01*
X161173487Y-78960543D01*
X161167005Y-78974192D01*
X161141016Y-79023947D01*
X161133954Y-79048626D01*
X161125509Y-79072343D01*
X161115384Y-79095937D01*
X161104084Y-79150923D01*
X161100481Y-79165601D01*
X161085036Y-79219581D01*
X161083087Y-79245179D01*
X161079589Y-79270123D01*
X161074424Y-79295259D01*
X161074424Y-79351383D01*
X161073850Y-79366492D01*
X161069587Y-79422476D01*
X161072830Y-79447941D01*
X161074424Y-79473080D01*
X161074424Y-94391770D01*
X161074360Y-94396811D01*
X161072166Y-94483361D01*
X161074525Y-94496521D01*
X161081920Y-94537784D01*
X161082070Y-94538617D01*
X161084170Y-94553590D01*
X161089849Y-94609438D01*
X161097534Y-94633931D01*
X161103537Y-94658388D01*
X161108065Y-94683652D01*
X161128890Y-94735786D01*
X161133960Y-94750028D01*
X161150764Y-94803587D01*
X161163220Y-94826028D01*
X161174025Y-94848780D01*
X161183546Y-94872617D01*
X161202158Y-94900856D01*
X161214443Y-94919497D01*
X161222258Y-94932396D01*
X161249515Y-94981502D01*
X161263353Y-94997621D01*
X161266234Y-95000977D01*
X161281400Y-95021091D01*
X161295522Y-95042519D01*
X161335225Y-95082222D01*
X161345478Y-95093285D01*
X161382058Y-95135895D01*
X161382060Y-95135897D01*
X161402350Y-95151602D01*
X161421256Y-95168253D01*
X165106138Y-98853135D01*
X165149276Y-98917695D01*
X165164424Y-98993849D01*
X165164424Y-99993741D01*
X165148357Y-100072078D01*
X165102749Y-100137765D01*
X165034970Y-100180191D01*
X164963218Y-100206954D01*
X164963217Y-100206954D01*
X164963216Y-100206955D01*
X164848003Y-100293204D01*
X164761752Y-100408419D01*
X164711458Y-100543265D01*
X164705049Y-100602879D01*
X164705049Y-102698621D01*
X164711458Y-102758234D01*
X164747606Y-102855152D01*
X164761753Y-102893081D01*
X164848003Y-103008296D01*
X164963218Y-103094546D01*
X165098066Y-103144841D01*
X165157676Y-103151250D01*
X167253421Y-103151249D01*
X167313032Y-103144841D01*
X167447880Y-103094546D01*
X167563095Y-103008296D01*
X167649345Y-102893081D01*
X167657377Y-102871545D01*
X167698867Y-102804755D01*
X167762989Y-102759248D01*
X167839732Y-102742130D01*
X167917115Y-102756074D01*
X167983056Y-102798901D01*
X168027262Y-102863927D01*
X168042830Y-102940999D01*
X168044574Y-106860591D01*
X168026725Y-106943054D01*
X167976312Y-107010708D01*
X167902398Y-107051394D01*
X167818270Y-107057798D01*
X167739050Y-107028768D01*
X167678978Y-106969523D01*
X167640921Y-106911272D01*
X167578164Y-106815215D01*
X167409744Y-106632262D01*
X167363044Y-106595914D01*
X167213507Y-106479524D01*
X166994810Y-106361172D01*
X166759616Y-106280429D01*
X166514335Y-106239500D01*
X166344772Y-106239500D01*
X166268618Y-106224352D01*
X166204058Y-106181214D01*
X163518786Y-103495942D01*
X163475648Y-103431382D01*
X163460500Y-103355228D01*
X163460500Y-98477266D01*
X163460564Y-98472225D01*
X163462756Y-98385715D01*
X163460419Y-98372676D01*
X163452851Y-98330452D01*
X163450753Y-98315485D01*
X163448930Y-98297555D01*
X163445074Y-98259638D01*
X163437386Y-98235137D01*
X163431385Y-98210685D01*
X163426858Y-98185423D01*
X163406033Y-98133289D01*
X163400964Y-98119050D01*
X163384159Y-98065488D01*
X163371706Y-98043053D01*
X163360900Y-98020302D01*
X163351377Y-97996459D01*
X163339341Y-97978196D01*
X163320484Y-97949583D01*
X163312650Y-97936652D01*
X163285409Y-97887573D01*
X163268692Y-97868101D01*
X163253522Y-97847982D01*
X163239401Y-97826556D01*
X163199710Y-97786865D01*
X163189431Y-97775774D01*
X163182847Y-97768105D01*
X163152866Y-97733181D01*
X163132572Y-97717472D01*
X163113667Y-97700822D01*
X160174762Y-94761918D01*
X160132421Y-94699254D01*
X160116518Y-94625316D01*
X160129352Y-94550785D01*
X160169065Y-94486428D01*
X160276213Y-94370035D01*
X160412222Y-94161857D01*
X160512112Y-93934131D01*
X160573157Y-93693071D01*
X160573157Y-93693069D01*
X160573158Y-93693066D01*
X160593692Y-93445250D01*
X160573158Y-93197433D01*
X160551288Y-93111072D01*
X160512112Y-92956369D01*
X160412222Y-92728643D01*
X160386251Y-92688892D01*
X160326845Y-92597964D01*
X160276213Y-92520465D01*
X160107793Y-92337512D01*
X160107792Y-92337511D01*
X159911556Y-92184774D01*
X159692859Y-92066422D01*
X159457665Y-91985679D01*
X159212384Y-91944750D01*
X158963714Y-91944750D01*
X158718432Y-91985679D01*
X158483238Y-92066422D01*
X158264541Y-92184774D01*
X158068305Y-92337511D01*
X157899885Y-92520464D01*
X157763876Y-92728641D01*
X157663986Y-92956368D01*
X157602939Y-93197433D01*
X157582405Y-93445250D01*
X157602939Y-93693066D01*
X157663986Y-93934131D01*
X157763876Y-94161858D01*
X157863042Y-94313642D01*
X157899885Y-94370035D01*
X158035947Y-94517838D01*
X158036834Y-94518801D01*
X158075811Y-94581242D01*
X158089424Y-94653580D01*
X158089424Y-95076770D01*
X158089360Y-95081811D01*
X158087166Y-95168361D01*
X158090950Y-95189470D01*
X158096341Y-95219553D01*
X158097070Y-95223617D01*
X158099170Y-95238590D01*
X158104849Y-95294438D01*
X158112534Y-95318931D01*
X158118537Y-95343388D01*
X158123065Y-95368652D01*
X158143890Y-95420786D01*
X158148960Y-95435028D01*
X158165764Y-95488587D01*
X158178220Y-95511028D01*
X158189025Y-95533780D01*
X158198546Y-95557617D01*
X158209175Y-95573744D01*
X158229443Y-95604497D01*
X158237258Y-95617396D01*
X158264515Y-95666502D01*
X158264517Y-95666504D01*
X158281234Y-95685977D01*
X158296400Y-95706091D01*
X158310522Y-95727519D01*
X158350225Y-95767222D01*
X158360478Y-95778285D01*
X158397058Y-95820895D01*
X158405383Y-95827339D01*
X158417355Y-95836606D01*
X158436259Y-95853256D01*
X161401214Y-98818210D01*
X161444352Y-98882770D01*
X161459500Y-98958924D01*
X161459500Y-103836846D01*
X161459436Y-103841887D01*
X161457242Y-103928437D01*
X161467146Y-103983693D01*
X161469246Y-103998666D01*
X161474925Y-104054514D01*
X161482610Y-104079007D01*
X161488613Y-104103464D01*
X161493141Y-104128728D01*
X161513966Y-104180862D01*
X161519036Y-104195104D01*
X161535840Y-104248663D01*
X161548296Y-104271104D01*
X161559101Y-104293856D01*
X161568622Y-104317693D01*
X161588784Y-104348285D01*
X161599519Y-104364573D01*
X161607334Y-104377472D01*
X161634591Y-104426578D01*
X161634593Y-104426580D01*
X161651310Y-104446053D01*
X161666476Y-104466167D01*
X161680598Y-104487595D01*
X161720301Y-104527298D01*
X161730554Y-104538361D01*
X161749131Y-104560000D01*
X161767136Y-104580973D01*
X161787426Y-104596678D01*
X161806332Y-104613329D01*
X162764789Y-105571786D01*
X162807927Y-105636346D01*
X162823075Y-105712500D01*
X162807927Y-105788654D01*
X162764789Y-105853214D01*
X162700229Y-105896352D01*
X162624075Y-105911500D01*
X160086773Y-105911500D01*
X160010619Y-105896352D01*
X159946059Y-105853214D01*
X157088710Y-102995866D01*
X157045572Y-102931306D01*
X157030424Y-102855152D01*
X157030424Y-101578250D01*
X157632405Y-101578250D01*
X157652939Y-101826066D01*
X157713986Y-102067131D01*
X157813876Y-102294858D01*
X157949885Y-102503035D01*
X158118305Y-102685988D01*
X158314541Y-102838725D01*
X158414979Y-102893079D01*
X158533239Y-102957078D01*
X158768435Y-103037821D01*
X159013714Y-103078750D01*
X159262384Y-103078750D01*
X159507663Y-103037821D01*
X159742859Y-102957078D01*
X159961558Y-102838724D01*
X160157793Y-102685988D01*
X160326213Y-102503035D01*
X160462222Y-102294857D01*
X160562112Y-102067131D01*
X160623157Y-101826071D01*
X160623157Y-101826069D01*
X160623158Y-101826066D01*
X160643692Y-101578250D01*
X160623158Y-101330433D01*
X160601723Y-101245789D01*
X160562112Y-101089369D01*
X160462222Y-100861643D01*
X160326213Y-100653465D01*
X160157793Y-100470512D01*
X160146073Y-100461390D01*
X159961556Y-100317774D01*
X159742859Y-100199422D01*
X159507665Y-100118679D01*
X159262384Y-100077750D01*
X159013714Y-100077750D01*
X158768432Y-100118679D01*
X158533238Y-100199422D01*
X158314541Y-100317774D01*
X158118305Y-100470511D01*
X157949885Y-100653464D01*
X157813876Y-100861641D01*
X157713986Y-101089368D01*
X157652939Y-101330433D01*
X157632405Y-101578250D01*
X157030424Y-101578250D01*
X157030424Y-100588954D01*
X157039634Y-100529114D01*
X157066412Y-100474813D01*
X157069424Y-100470512D01*
X157150492Y-100354734D01*
X157246663Y-100148496D01*
X157305559Y-99928692D01*
X157325392Y-99702000D01*
X157305559Y-99475308D01*
X157246663Y-99255504D01*
X157150492Y-99049266D01*
X157019971Y-98862861D01*
X156859063Y-98701953D01*
X156672658Y-98571432D01*
X156466420Y-98475261D01*
X156466417Y-98475260D01*
X156246618Y-98416365D01*
X156019924Y-98396532D01*
X155793229Y-98416365D01*
X155573430Y-98475260D01*
X155367190Y-98571432D01*
X155180782Y-98701955D01*
X155019879Y-98862858D01*
X154889356Y-99049266D01*
X154793184Y-99255506D01*
X154734289Y-99475305D01*
X154714456Y-99702000D01*
X154734289Y-99928694D01*
X154793184Y-100148493D01*
X154793185Y-100148496D01*
X154889356Y-100354734D01*
X154993437Y-100503379D01*
X155020214Y-100557677D01*
X155029424Y-100617517D01*
X155029424Y-103336770D01*
X155029360Y-103341811D01*
X155027166Y-103428361D01*
X155037070Y-103483617D01*
X155039170Y-103498590D01*
X155044849Y-103554438D01*
X155052534Y-103578931D01*
X155058537Y-103603388D01*
X155066636Y-103648568D01*
X155063872Y-103649063D01*
X155071611Y-103690512D01*
X155055778Y-103766165D01*
X155012315Y-103830080D01*
X154947777Y-103872613D01*
X154871902Y-103887349D01*
X154796136Y-103872064D01*
X154731909Y-103829064D01*
X152350024Y-101447180D01*
X152310382Y-101390565D01*
X152292495Y-101323806D01*
X152298519Y-101254964D01*
X152305559Y-101228692D01*
X152325392Y-101002000D01*
X152305559Y-100775308D01*
X152246663Y-100555504D01*
X152150492Y-100349266D01*
X152019971Y-100162861D01*
X151859063Y-100001953D01*
X151800692Y-99961082D01*
X151658396Y-99861445D01*
X151659452Y-99859935D01*
X151619673Y-99831208D01*
X151579483Y-99768120D01*
X151565424Y-99694650D01*
X151565424Y-98973849D01*
X151580572Y-98897695D01*
X151623707Y-98833137D01*
X152056182Y-98400661D01*
X152120732Y-98357530D01*
X152265520Y-98297558D01*
X152467571Y-98173741D01*
X152647765Y-98019841D01*
X152801665Y-97839647D01*
X152925482Y-97637596D01*
X153016167Y-97418664D01*
X153071486Y-97188240D01*
X153090079Y-96952000D01*
X153087049Y-96913500D01*
X153626925Y-96913500D01*
X153626925Y-96953344D01*
X153637442Y-97056303D01*
X153692718Y-97223114D01*
X153784976Y-97372687D01*
X153909236Y-97496947D01*
X154058808Y-97589205D01*
X154225621Y-97644482D01*
X154328580Y-97655000D01*
X154580924Y-97655000D01*
X154580924Y-96913500D01*
X155088924Y-96913500D01*
X155088924Y-97654999D01*
X155341268Y-97654999D01*
X155444227Y-97644481D01*
X155611038Y-97589205D01*
X155760611Y-97496947D01*
X155884871Y-97372687D01*
X155977129Y-97223115D01*
X156032406Y-97056302D01*
X156042924Y-96953344D01*
X156042924Y-96913500D01*
X155088924Y-96913500D01*
X154580924Y-96913500D01*
X153626925Y-96913500D01*
X153087049Y-96913500D01*
X153071486Y-96715760D01*
X153016167Y-96485336D01*
X152925482Y-96266404D01*
X152801665Y-96064353D01*
X152647765Y-95884159D01*
X152467571Y-95730259D01*
X152463100Y-95727519D01*
X152273244Y-95611175D01*
X152211759Y-95552059D01*
X152180671Y-95472630D01*
X152185692Y-95387483D01*
X152225900Y-95312260D01*
X152293908Y-95260780D01*
X152377221Y-95242500D01*
X152522740Y-95242500D01*
X152534755Y-95242862D01*
X152592530Y-95246358D01*
X152649490Y-95235919D01*
X152661341Y-95234115D01*
X152718796Y-95227140D01*
X152721893Y-95225965D01*
X152756592Y-95216292D01*
X152759856Y-95215695D01*
X152812649Y-95191933D01*
X152823713Y-95187350D01*
X152877854Y-95166818D01*
X152880572Y-95164941D01*
X152911964Y-95147235D01*
X152914981Y-95145878D01*
X152960546Y-95110179D01*
X152970190Y-95103081D01*
X153017853Y-95070183D01*
X153056248Y-95026842D01*
X153064439Y-95018140D01*
X153294713Y-94787866D01*
X153359270Y-94744732D01*
X153435424Y-94729584D01*
X153511578Y-94744732D01*
X153576138Y-94787870D01*
X153619276Y-94852430D01*
X153634424Y-94928584D01*
X153634424Y-95077848D01*
X153635575Y-95089112D01*
X153644837Y-95179776D01*
X153699052Y-95343388D01*
X153699562Y-95344925D01*
X153788174Y-95488587D01*
X153790899Y-95493004D01*
X153873878Y-95575983D01*
X153917016Y-95640543D01*
X153932164Y-95716697D01*
X153917016Y-95792851D01*
X153873878Y-95857411D01*
X153784976Y-95946312D01*
X153692718Y-96095884D01*
X153637441Y-96262697D01*
X153626924Y-96365656D01*
X153626924Y-96405500D01*
X156042923Y-96405500D01*
X156042923Y-96365656D01*
X156032405Y-96262696D01*
X155977129Y-96095885D01*
X155884871Y-95946312D01*
X155795970Y-95857411D01*
X155752832Y-95792851D01*
X155737684Y-95716697D01*
X155752832Y-95640543D01*
X155795970Y-95575983D01*
X155837308Y-95534645D01*
X155878950Y-95493003D01*
X155970286Y-95344925D01*
X156025011Y-95179775D01*
X156035424Y-95077848D01*
X156035424Y-94491152D01*
X156025011Y-94389225D01*
X155970286Y-94224075D01*
X155949540Y-94190441D01*
X155923281Y-94122427D01*
X155923281Y-94049517D01*
X155949539Y-93981506D01*
X155989738Y-93916334D01*
X156044923Y-93749797D01*
X156055424Y-93647009D01*
X156055423Y-93021992D01*
X156044923Y-92919203D01*
X155989738Y-92752666D01*
X155897636Y-92603344D01*
X155857007Y-92562714D01*
X155813868Y-92498155D01*
X155798720Y-92422000D01*
X155813868Y-92345845D01*
X155857007Y-92281285D01*
X155873900Y-92264392D01*
X155897636Y-92240656D01*
X155989738Y-92091334D01*
X156044923Y-91924797D01*
X156055424Y-91822009D01*
X156055423Y-91196992D01*
X156044923Y-91094203D01*
X155989738Y-90927666D01*
X155940686Y-90848139D01*
X155897635Y-90778342D01*
X155773581Y-90654288D01*
X155624257Y-90562185D01*
X155591829Y-90551440D01*
X155520694Y-90509909D01*
X155472472Y-90443129D01*
X155455424Y-90362541D01*
X155455424Y-86539407D01*
X155457126Y-86513434D01*
X155459718Y-86493744D01*
X155460606Y-86487000D01*
X155439968Y-86330238D01*
X155379460Y-86184159D01*
X155350724Y-86146710D01*
X155283206Y-86058718D01*
X155262048Y-86042483D01*
X155242484Y-86025325D01*
X154812195Y-85595036D01*
X154769057Y-85530476D01*
X154753909Y-85454322D01*
X154769057Y-85378168D01*
X154812191Y-85313611D01*
X155000983Y-85124819D01*
X155020531Y-85107677D01*
X155040375Y-85092451D01*
X155043468Y-85088419D01*
X155043472Y-85088416D01*
X155063860Y-85061846D01*
X155132622Y-84972233D01*
X155142593Y-84948162D01*
X155190611Y-84832236D01*
X155205424Y-84719720D01*
X155205424Y-84719714D01*
X155210389Y-84682000D01*
X155207126Y-84657214D01*
X155205424Y-84631241D01*
X155205424Y-81575008D01*
X155218641Y-81503693D01*
X155256538Y-81441851D01*
X155343223Y-81345577D01*
X155362457Y-81324216D01*
X155457103Y-81160284D01*
X155515598Y-80980256D01*
X155535384Y-80792000D01*
X155515598Y-80603744D01*
X155461703Y-80437874D01*
X155457103Y-80423715D01*
X155362457Y-80259784D01*
X155235795Y-80119112D01*
X155212930Y-80102500D01*
X155082654Y-80007849D01*
X155082652Y-80007848D01*
X154909724Y-79930854D01*
X154724573Y-79891500D01*
X154724570Y-79891500D01*
X154535278Y-79891500D01*
X154535275Y-79891500D01*
X154350123Y-79930854D01*
X154177195Y-80007848D01*
X154024052Y-80119112D01*
X153897390Y-80259784D01*
X153802744Y-80423715D01*
X153744249Y-80603743D01*
X153724464Y-80792000D01*
X153744249Y-80980256D01*
X153802744Y-81160284D01*
X153897390Y-81324215D01*
X154003310Y-81441851D01*
X154041207Y-81503693D01*
X154054424Y-81575008D01*
X154054424Y-82773723D01*
X154035485Y-82858453D01*
X153982272Y-82927055D01*
X153904914Y-82966471D01*
X153818136Y-82969198D01*
X153738456Y-82934718D01*
X153632654Y-82857849D01*
X153632652Y-82857848D01*
X153459724Y-82780854D01*
X153274573Y-82741500D01*
X153274570Y-82741500D01*
X153085278Y-82741500D01*
X153085275Y-82741500D01*
X152900123Y-82780854D01*
X152727195Y-82857848D01*
X152695329Y-82881000D01*
X152595545Y-82953496D01*
X152540074Y-82981760D01*
X152478580Y-82991500D01*
X147671798Y-82991500D01*
X147595644Y-82976352D01*
X147531084Y-82933214D01*
X143883797Y-79285927D01*
X143844896Y-79230884D01*
X143826601Y-79166015D01*
X143810598Y-79013744D01*
X143799486Y-78979546D01*
X143752103Y-78833715D01*
X143657457Y-78669784D01*
X143530795Y-78529112D01*
X143479361Y-78491743D01*
X143377654Y-78417849D01*
X143377652Y-78417848D01*
X143204724Y-78340854D01*
X143019573Y-78301500D01*
X143019570Y-78301500D01*
X142914424Y-78301500D01*
X142838270Y-78286352D01*
X142773710Y-78243214D01*
X142730572Y-78178654D01*
X142715424Y-78102500D01*
X142715424Y-78100684D01*
X142717127Y-78074708D01*
X142720390Y-78049924D01*
X142704393Y-77928416D01*
X142704393Y-77928411D01*
X142700611Y-77899690D01*
X142700611Y-77899688D01*
X142659078Y-77799418D01*
X142642623Y-77759692D01*
X142573536Y-77669656D01*
X142565596Y-77659308D01*
X142565595Y-77659308D01*
X142565595Y-77659307D01*
X142550375Y-77639472D01*
X142530534Y-77624247D01*
X142510966Y-77607086D01*
X141509233Y-76605353D01*
X141462361Y-76531066D01*
X141452037Y-76443839D01*
X141455384Y-76412000D01*
X141435598Y-76223744D01*
X141431697Y-76211739D01*
X141377103Y-76043715D01*
X141282457Y-75879784D01*
X141155795Y-75739112D01*
X141139225Y-75727073D01*
X141002654Y-75627849D01*
X140977436Y-75616621D01*
X140829724Y-75550854D01*
X140644573Y-75511500D01*
X140644570Y-75511500D01*
X140455278Y-75511500D01*
X140455275Y-75511500D01*
X140270123Y-75550854D01*
X140097195Y-75627848D01*
X139944052Y-75739112D01*
X139817390Y-75879784D01*
X139722744Y-76043715D01*
X139664249Y-76223743D01*
X139644464Y-76412000D01*
X139664249Y-76600256D01*
X139722744Y-76780284D01*
X139817390Y-76944215D01*
X139822087Y-76949432D01*
X139944053Y-77084888D01*
X140097194Y-77196151D01*
X140235980Y-77257943D01*
X140270123Y-77273145D01*
X140455275Y-77312500D01*
X140455278Y-77312500D01*
X140506192Y-77312500D01*
X140582346Y-77327648D01*
X140646906Y-77370786D01*
X141506138Y-78230018D01*
X141549276Y-78294578D01*
X141564424Y-78370732D01*
X141564424Y-88584294D01*
X141549276Y-88660448D01*
X141506138Y-88725008D01*
X139768953Y-90462191D01*
X139749389Y-90479349D01*
X139729551Y-90494572D01*
X139729548Y-90494575D01*
X139729549Y-90494575D01*
X139706390Y-90524755D01*
X139706388Y-90524758D01*
X139685914Y-90551440D01*
X139643548Y-90606653D01*
X139637303Y-90614790D01*
X139579313Y-90754789D01*
X139575251Y-90785643D01*
X139567024Y-90848139D01*
X139562798Y-90880237D01*
X139562798Y-90880240D01*
X139559535Y-90905025D01*
X139562798Y-90929812D01*
X139564500Y-90955785D01*
X139564500Y-94029192D01*
X139549352Y-94105346D01*
X139506214Y-94169906D01*
X138872905Y-94803214D01*
X138808345Y-94846352D01*
X138732191Y-94861500D01*
X138664576Y-94861500D01*
X138578681Y-94842008D01*
X138509613Y-94787350D01*
X138470903Y-94708234D01*
X138470133Y-94620159D01*
X138507452Y-94540380D01*
X138524973Y-94517839D01*
X138694652Y-94239822D01*
X138831979Y-93944481D01*
X138935209Y-93635567D01*
X139003032Y-93317000D01*
X139034588Y-92992826D01*
X139032099Y-92831611D01*
X139032075Y-92828539D01*
X139032075Y-92782155D01*
X139002504Y-92691150D01*
X138946262Y-92613737D01*
X138868849Y-92557495D01*
X138777845Y-92527925D01*
X138777844Y-92527925D01*
X138682156Y-92527925D01*
X138682155Y-92527925D01*
X138591150Y-92557495D01*
X138513737Y-92613737D01*
X138457495Y-92691150D01*
X138427460Y-92783582D01*
X138427864Y-92823928D01*
X138427614Y-92836081D01*
X138414779Y-93087044D01*
X138412080Y-93111072D01*
X138369937Y-93352703D01*
X138364343Y-93376224D01*
X138293212Y-93610948D01*
X138284808Y-93633618D01*
X138282056Y-93639850D01*
X138185729Y-93857993D01*
X138174636Y-93879476D01*
X138049083Y-94090170D01*
X138035468Y-94110150D01*
X137885292Y-94304060D01*
X137869353Y-94322242D01*
X137696755Y-94496521D01*
X137678728Y-94512635D01*
X137486282Y-94664684D01*
X137466435Y-94678493D01*
X137256962Y-94806085D01*
X137235587Y-94817385D01*
X137012197Y-94918627D01*
X136989607Y-94927252D01*
X136755572Y-95000658D01*
X136732106Y-95006479D01*
X136490902Y-95050961D01*
X136466901Y-95053893D01*
X136230885Y-95068257D01*
X136151364Y-95056852D01*
X136082832Y-95014935D01*
X136036458Y-94949337D01*
X136019799Y-94870748D01*
X136035570Y-94791977D01*
X136081201Y-94725860D01*
X136149251Y-94683173D01*
X136202609Y-94663272D01*
X136437643Y-94534934D01*
X136652020Y-94374453D01*
X136841377Y-94185096D01*
X137001858Y-93970719D01*
X137130196Y-93735685D01*
X137223779Y-93484779D01*
X137280702Y-93223108D01*
X137299806Y-92956000D01*
X137280864Y-92691152D01*
X137280702Y-92688891D01*
X137223779Y-92427220D01*
X137146883Y-92221055D01*
X137130196Y-92176315D01*
X137001858Y-91941281D01*
X136841377Y-91726904D01*
X136652020Y-91537547D01*
X136437643Y-91377066D01*
X136202609Y-91248728D01*
X136202608Y-91248727D01*
X136202607Y-91248727D01*
X135951703Y-91155144D01*
X135718884Y-91104498D01*
X135643554Y-91070558D01*
X135588502Y-91008947D01*
X135563217Y-90930288D01*
X135572059Y-90848139D01*
X135613504Y-90776662D01*
X135680407Y-90728178D01*
X135761234Y-90711046D01*
X137059500Y-90711371D01*
X137060000Y-90711371D01*
X137060099Y-90711371D01*
X137099443Y-90711371D01*
X137099755Y-90711309D01*
X137113343Y-90711309D01*
X137215708Y-90681252D01*
X137305458Y-90623573D01*
X137375322Y-90542945D01*
X137419641Y-90445900D01*
X137434824Y-90340300D01*
X137419641Y-90234700D01*
X137375322Y-90137655D01*
X137375320Y-90137653D01*
X137375320Y-90137652D01*
X137305458Y-90057027D01*
X137215708Y-89999348D01*
X137113343Y-89969291D01*
X137060000Y-89969291D01*
X137059500Y-89969291D01*
X136979036Y-89969291D01*
X136977507Y-89969599D01*
X134345478Y-89979448D01*
X134318741Y-89977744D01*
X134251275Y-89968856D01*
X134201098Y-89955407D01*
X134150025Y-89934247D01*
X134105035Y-89908267D01*
X134061172Y-89874603D01*
X134024446Y-89837870D01*
X133990790Y-89794001D01*
X133964823Y-89749016D01*
X133943668Y-89697928D01*
X133930228Y-89647750D01*
X133921225Y-89579312D01*
X133919525Y-89553357D01*
X133919525Y-86386069D01*
X133921224Y-86360123D01*
X133930156Y-86292234D01*
X133943598Y-86242060D01*
X133964760Y-86190967D01*
X133990733Y-86145980D01*
X134024395Y-86102112D01*
X134061130Y-86065379D01*
X134105002Y-86031719D01*
X134149990Y-86005749D01*
X134201084Y-85984591D01*
X134251261Y-85971151D01*
X134319322Y-85962200D01*
X134345292Y-85960502D01*
X135202741Y-85960654D01*
X135278884Y-85975813D01*
X135343434Y-86018956D01*
X135386562Y-86083516D01*
X135401703Y-86159666D01*
X135386553Y-86235813D01*
X135343417Y-86300368D01*
X135278862Y-86343504D01*
X135270801Y-86346843D01*
X135049282Y-86482589D01*
X134851735Y-86651311D01*
X134683013Y-86848858D01*
X134547268Y-87070374D01*
X134447850Y-87310392D01*
X134387203Y-87562999D01*
X134366820Y-87822000D01*
X134387203Y-88081000D01*
X134447850Y-88333607D01*
X134547268Y-88573625D01*
X134547270Y-88573628D01*
X134683012Y-88795140D01*
X134851735Y-88992689D01*
X135049284Y-89161412D01*
X135270796Y-89297154D01*
X135510814Y-89396573D01*
X135615313Y-89421661D01*
X135763423Y-89457220D01*
X135763427Y-89457220D01*
X135763430Y-89457221D01*
X136022424Y-89477604D01*
X136281418Y-89457221D01*
X136281421Y-89457220D01*
X136281424Y-89457220D01*
X136393368Y-89430344D01*
X136534034Y-89396573D01*
X136774052Y-89297154D01*
X136995564Y-89161412D01*
X137193113Y-88992689D01*
X137361836Y-88795140D01*
X137497578Y-88573628D01*
X137596997Y-88333610D01*
X137657645Y-88080994D01*
X137678028Y-87822000D01*
X137657645Y-87563006D01*
X137657644Y-87563003D01*
X137657644Y-87562999D01*
X137622085Y-87414889D01*
X137596997Y-87310390D01*
X137497578Y-87070372D01*
X137361836Y-86848860D01*
X137193113Y-86651311D01*
X136995564Y-86482588D01*
X136774052Y-86346846D01*
X136774049Y-86346844D01*
X136766694Y-86343798D01*
X136702130Y-86300657D01*
X136658992Y-86236091D01*
X136643848Y-86159931D01*
X136659004Y-86083773D01*
X136702152Y-86019214D01*
X136766722Y-85976082D01*
X136842881Y-85960946D01*
X139814650Y-85961474D01*
X139821445Y-85961592D01*
X139866174Y-85963134D01*
X139872378Y-85961471D01*
X139872380Y-85961471D01*
X139977552Y-85933283D01*
X139977554Y-85933282D01*
X140071845Y-85878840D01*
X140148840Y-85801845D01*
X140203282Y-85707554D01*
X140220030Y-85645066D01*
X140231471Y-85602380D01*
X140231475Y-85547938D01*
X140231475Y-85547438D01*
X140230504Y-78868242D01*
X140232338Y-78855204D01*
X140231934Y-78851855D01*
X140231198Y-78839631D01*
X140225840Y-78828556D01*
X140224948Y-78826384D01*
X140217153Y-78816022D01*
X140208233Y-78800084D01*
X138516883Y-75777885D01*
X138515212Y-75772663D01*
X138471325Y-75696634D01*
X138448791Y-75657596D01*
X138371570Y-75583954D01*
X138371568Y-75583952D01*
X138371567Y-75583952D01*
X138276731Y-75535052D01*
X138171948Y-75514851D01*
X138065727Y-75524991D01*
X137966665Y-75564648D01*
X137928077Y-75594995D01*
X137882787Y-75630612D01*
X137882786Y-75630612D01*
X137882785Y-75630614D01*
X137820894Y-75717534D01*
X137785998Y-75818374D01*
X137780926Y-75924959D01*
X137792972Y-75974593D01*
X137806092Y-76028657D01*
X137832467Y-76074331D01*
X137833118Y-76075469D01*
X139413312Y-78854084D01*
X139432797Y-78901890D01*
X139439328Y-78953100D01*
X139420741Y-84725383D01*
X139420475Y-84726707D01*
X139420475Y-84794891D01*
X139418770Y-84820878D01*
X139417443Y-84830953D01*
X139409831Y-84888736D01*
X139396384Y-84938907D01*
X139375220Y-84989994D01*
X139349250Y-85034973D01*
X139315584Y-85078848D01*
X139278848Y-85115584D01*
X139234973Y-85149250D01*
X139189993Y-85175221D01*
X139138910Y-85196383D01*
X139088738Y-85209830D01*
X139020910Y-85218765D01*
X138994848Y-85220469D01*
X133582561Y-85218524D01*
X133582061Y-85218524D01*
X133581978Y-85218524D01*
X133581962Y-85218524D01*
X133581961Y-85218524D01*
X133527619Y-85218528D01*
X133422447Y-85246716D01*
X133328151Y-85301162D01*
X133251162Y-85378151D01*
X133207181Y-85454322D01*
X133196716Y-85472447D01*
X133168528Y-85577619D01*
X133168524Y-85631961D01*
X133168524Y-85631962D01*
X133166465Y-90293726D01*
X133166446Y-90335617D01*
X133166497Y-90335879D01*
X133166496Y-90351404D01*
X133194668Y-90456578D01*
X133244525Y-90542947D01*
X133249104Y-90550878D01*
X133326093Y-90627873D01*
X133420386Y-90682317D01*
X133420388Y-90682318D01*
X133525557Y-90710500D01*
X133579901Y-90710500D01*
X135085493Y-90710876D01*
X135166295Y-90728043D01*
X135233167Y-90776544D01*
X135274582Y-90848022D01*
X135283403Y-90930159D01*
X135258109Y-91008801D01*
X135203059Y-91070396D01*
X135127740Y-91104328D01*
X134894145Y-91155144D01*
X134643240Y-91248727D01*
X134408205Y-91377066D01*
X134193825Y-91537549D01*
X134004473Y-91726901D01*
X133843990Y-91941281D01*
X133715651Y-92176316D01*
X133622068Y-92427220D01*
X133565145Y-92688891D01*
X133546042Y-92955999D01*
X133565145Y-93223108D01*
X133622068Y-93484779D01*
X133713350Y-93729514D01*
X133715652Y-93735685D01*
X133843990Y-93970719D01*
X134004471Y-94185096D01*
X134193828Y-94374453D01*
X134408205Y-94534934D01*
X134643239Y-94663272D01*
X134683657Y-94678347D01*
X134698939Y-94684047D01*
X134765739Y-94725546D01*
X134811246Y-94789683D01*
X134828355Y-94866441D01*
X134814392Y-94943832D01*
X134771538Y-95009772D01*
X134706487Y-95053961D01*
X134629396Y-95069500D01*
X127961452Y-95069500D01*
X127884361Y-95053961D01*
X127819310Y-95009772D01*
X127776456Y-94943832D01*
X127762493Y-94866441D01*
X127779602Y-94789683D01*
X127825109Y-94725546D01*
X127891909Y-94684047D01*
X127894258Y-94683171D01*
X127947609Y-94663272D01*
X128182643Y-94534934D01*
X128397020Y-94374453D01*
X128586377Y-94185096D01*
X128746858Y-93970719D01*
X128875196Y-93735685D01*
X128894119Y-93684948D01*
X128939855Y-93613780D01*
X131520934Y-91032700D01*
X131534346Y-91020461D01*
X131548182Y-91008947D01*
X131567541Y-90992837D01*
X131622002Y-90932052D01*
X131629463Y-90924171D01*
X131637898Y-90915738D01*
X131670811Y-90877625D01*
X131673068Y-90875059D01*
X131753187Y-90785643D01*
X131755771Y-90781736D01*
X131771135Y-90761457D01*
X131774207Y-90757902D01*
X131838619Y-90656566D01*
X131840473Y-90653708D01*
X131906687Y-90553627D01*
X131908677Y-90549379D01*
X131920926Y-90527080D01*
X131923444Y-90523120D01*
X131972396Y-90413529D01*
X131973870Y-90410310D01*
X131974739Y-90408458D01*
X132020734Y-90310342D01*
X132024767Y-90301740D01*
X132024767Y-90301738D01*
X132024770Y-90301733D01*
X132026119Y-90297246D01*
X132034992Y-90273399D01*
X132036907Y-90269113D01*
X132069381Y-90153561D01*
X132070341Y-90150261D01*
X132104919Y-90035331D01*
X132105600Y-90030699D01*
X132110907Y-90005807D01*
X132112175Y-90001294D01*
X132112176Y-90001291D01*
X132127477Y-89882264D01*
X132127959Y-89878770D01*
X132145424Y-89760099D01*
X132145424Y-89755405D01*
X132147048Y-89730032D01*
X132147648Y-89725364D01*
X132145457Y-89605398D01*
X132145424Y-89601764D01*
X132145424Y-86421945D01*
X132157971Y-86352401D01*
X132160043Y-86346846D01*
X132169293Y-86322046D01*
X132225128Y-86065377D01*
X132230120Y-86042429D01*
X132235910Y-85961471D01*
X132250534Y-85757000D01*
X132230120Y-85471572D01*
X132225428Y-85450004D01*
X132185135Y-85264778D01*
X132169293Y-85191954D01*
X132069291Y-84923839D01*
X131932150Y-84672685D01*
X131760663Y-84443605D01*
X131558319Y-84241261D01*
X131329239Y-84069774D01*
X131078085Y-83932633D01*
X130809970Y-83832631D01*
X130809969Y-83832630D01*
X130809967Y-83832630D01*
X130530353Y-83771803D01*
X130244924Y-83751390D01*
X129959494Y-83771803D01*
X129679880Y-83832630D01*
X129411762Y-83932633D01*
X129160609Y-84069774D01*
X128931526Y-84241263D01*
X128729187Y-84443602D01*
X128557698Y-84672685D01*
X128420557Y-84923838D01*
X128320554Y-85191956D01*
X128259727Y-85471570D01*
X128239314Y-85757000D01*
X128259727Y-86042429D01*
X128314072Y-86292245D01*
X128320555Y-86322046D01*
X128328558Y-86343504D01*
X128331877Y-86352401D01*
X128344424Y-86421945D01*
X128344424Y-88751359D01*
X128329276Y-88827513D01*
X128286138Y-88892073D01*
X125739955Y-91438254D01*
X125603643Y-91596096D01*
X125454402Y-91830884D01*
X125340942Y-92084883D01*
X125265671Y-92352708D01*
X125230200Y-92628635D01*
X125235281Y-92906788D01*
X125280806Y-93181230D01*
X125340686Y-93367841D01*
X125345654Y-93386341D01*
X125367068Y-93484778D01*
X125444756Y-93693066D01*
X125460652Y-93735685D01*
X125588990Y-93970719D01*
X125749471Y-94185096D01*
X125938828Y-94374453D01*
X126153205Y-94534934D01*
X126388239Y-94663272D01*
X126428657Y-94678347D01*
X126443939Y-94684047D01*
X126510739Y-94725546D01*
X126556246Y-94789683D01*
X126573355Y-94866441D01*
X126559392Y-94943832D01*
X126516538Y-95009772D01*
X126451487Y-95053961D01*
X126374396Y-95069500D01*
X119807915Y-95069500D01*
X119722900Y-95050426D01*
X119654182Y-94996861D01*
X119614934Y-94919073D01*
X119612680Y-94831974D01*
X119647852Y-94752260D01*
X119713707Y-94695212D01*
X119805582Y-94645834D01*
X119935163Y-94576191D01*
X119943584Y-94569931D01*
X120060031Y-94483361D01*
X120158423Y-94410214D01*
X124089847Y-90478788D01*
X124152726Y-90436357D01*
X124158011Y-90434111D01*
X124164694Y-90431414D01*
X124258838Y-90395408D01*
X124279722Y-90383686D01*
X124299267Y-90374084D01*
X124321314Y-90364716D01*
X124407325Y-90312223D01*
X124413522Y-90308593D01*
X124501440Y-90259253D01*
X124520394Y-90244616D01*
X124538348Y-90232262D01*
X124542043Y-90230006D01*
X124558781Y-90219792D01*
X124636248Y-90155323D01*
X124641885Y-90150803D01*
X124721632Y-90089226D01*
X124738246Y-90071992D01*
X124754211Y-90057153D01*
X124772617Y-90041837D01*
X124839876Y-89966769D01*
X124844759Y-89961515D01*
X124914722Y-89888951D01*
X124928650Y-89869480D01*
X124942292Y-89852467D01*
X124958260Y-89834646D01*
X124958263Y-89834643D01*
X125013879Y-89750577D01*
X125017939Y-89744677D01*
X125076593Y-89662696D01*
X125087544Y-89641394D01*
X125098547Y-89622602D01*
X125111763Y-89602627D01*
X125154537Y-89511378D01*
X125157711Y-89504918D01*
X125203797Y-89415283D01*
X125211530Y-89392612D01*
X125219680Y-89372416D01*
X125229846Y-89350733D01*
X125258880Y-89254224D01*
X125261097Y-89247319D01*
X125277134Y-89200312D01*
X125293621Y-89151986D01*
X125297968Y-89128448D01*
X125303095Y-89107265D01*
X125304578Y-89102332D01*
X125309995Y-89084331D01*
X125324667Y-88984628D01*
X125325849Y-88977501D01*
X125344152Y-88878416D01*
X125345026Y-88854486D01*
X125347012Y-88832793D01*
X125350500Y-88809099D01*
X125350500Y-88708359D01*
X125350633Y-88701091D01*
X125354313Y-88600404D01*
X125351694Y-88576602D01*
X125350500Y-88554837D01*
X125350500Y-82199641D01*
X125365648Y-82123487D01*
X125408786Y-82058927D01*
X127808927Y-79658786D01*
X127873487Y-79615648D01*
X127949641Y-79600500D01*
X132140022Y-79600500D01*
X132165358Y-79602119D01*
X132168725Y-79602551D01*
X132172238Y-79603036D01*
X132290901Y-79620500D01*
X132295594Y-79620500D01*
X132320967Y-79622124D01*
X132321422Y-79622182D01*
X132325635Y-79622724D01*
X132445577Y-79620532D01*
X132449212Y-79620500D01*
X135819465Y-79620500D01*
X135923459Y-79612888D01*
X136027455Y-79605277D01*
X136298997Y-79544788D01*
X136393942Y-79508474D01*
X136470360Y-79495414D01*
X136545972Y-79512549D01*
X136610197Y-79541144D01*
X136795351Y-79580500D01*
X136795354Y-79580500D01*
X136984646Y-79580500D01*
X136984649Y-79580500D01*
X137169800Y-79541145D01*
X137169801Y-79541144D01*
X137169803Y-79541144D01*
X137342730Y-79464151D01*
X137495871Y-79352888D01*
X137622533Y-79212216D01*
X137717179Y-79048284D01*
X137775674Y-78868256D01*
X137795460Y-78680000D01*
X137775674Y-78491744D01*
X137726647Y-78340856D01*
X137717179Y-78311715D01*
X137644886Y-78186501D01*
X137621110Y-78120761D01*
X137621534Y-78050859D01*
X137644152Y-77928416D01*
X137654313Y-77650404D01*
X137623886Y-77373876D01*
X137553520Y-77104724D01*
X137444716Y-76848686D01*
X137299792Y-76611219D01*
X137121837Y-76397383D01*
X137097898Y-76375934D01*
X136973479Y-76264454D01*
X136914643Y-76211737D01*
X136682627Y-76058237D01*
X136430733Y-75940154D01*
X136380231Y-75924960D01*
X136164330Y-75860004D01*
X135889102Y-75819500D01*
X135889099Y-75819500D01*
X132699977Y-75819500D01*
X132674569Y-75817871D01*
X132673791Y-75817771D01*
X132671290Y-75817449D01*
X132667761Y-75816962D01*
X132549099Y-75799500D01*
X132549096Y-75799500D01*
X132544406Y-75799500D01*
X132519033Y-75797876D01*
X132514365Y-75797276D01*
X132394423Y-75799467D01*
X132390788Y-75799500D01*
X127777702Y-75799500D01*
X127695035Y-75781517D01*
X127627309Y-75730818D01*
X127586764Y-75656567D01*
X127580727Y-75572182D01*
X127610290Y-75492916D01*
X127610440Y-75492683D01*
X127640500Y-75390310D01*
X127640500Y-75336963D01*
X127641252Y-74967770D01*
X129193361Y-74967770D01*
X129193362Y-74967771D01*
X129363456Y-75083740D01*
X129600853Y-75198064D01*
X129852638Y-75275731D01*
X130113177Y-75315000D01*
X130376671Y-75315000D01*
X130637209Y-75275731D01*
X130888994Y-75198064D01*
X131126388Y-75083741D01*
X131296484Y-74967770D01*
X131296485Y-74967770D01*
X130244925Y-73916210D01*
X130244924Y-73916210D01*
X129193361Y-74967770D01*
X127641252Y-74967770D01*
X127644127Y-73557000D01*
X128481994Y-73557000D01*
X128501684Y-73819751D01*
X128560316Y-74076634D01*
X128656579Y-74321908D01*
X128788324Y-74550097D01*
X128834593Y-74608117D01*
X128834595Y-74608118D01*
X129885714Y-73557001D01*
X130604134Y-73557001D01*
X131655251Y-74608118D01*
X131655251Y-74608117D01*
X131701522Y-74550096D01*
X131833270Y-74321904D01*
X131929531Y-74076634D01*
X131988163Y-73819751D01*
X132007853Y-73557000D01*
X131988163Y-73294248D01*
X131929531Y-73037365D01*
X131833268Y-72792091D01*
X131701526Y-72563906D01*
X131655251Y-72505880D01*
X130604134Y-73557000D01*
X130604134Y-73557001D01*
X129885714Y-73557001D01*
X129885714Y-73556999D01*
X128834595Y-72505881D01*
X128834594Y-72505881D01*
X128788324Y-72563904D01*
X128656579Y-72792091D01*
X128560316Y-73037365D01*
X128501684Y-73294248D01*
X128481994Y-73557000D01*
X127644127Y-73557000D01*
X127647002Y-72146228D01*
X129193362Y-72146228D01*
X130244924Y-73197790D01*
X130244925Y-73197790D01*
X131020715Y-72421999D01*
X134366820Y-72421999D01*
X134387203Y-72681000D01*
X134447850Y-72933607D01*
X134547268Y-73173625D01*
X134547270Y-73173628D01*
X134683012Y-73395140D01*
X134851735Y-73592689D01*
X135049284Y-73761412D01*
X135270796Y-73897154D01*
X135510814Y-73996573D01*
X135615313Y-74021661D01*
X135763423Y-74057220D01*
X135763427Y-74057220D01*
X135763430Y-74057221D01*
X136022424Y-74077604D01*
X136281418Y-74057221D01*
X136281421Y-74057220D01*
X136281424Y-74057220D01*
X136377285Y-74034205D01*
X136534034Y-73996573D01*
X136774052Y-73897154D01*
X136995564Y-73761412D01*
X137193113Y-73592689D01*
X137361836Y-73395140D01*
X137497578Y-73173628D01*
X137596997Y-72933610D01*
X137634629Y-72776861D01*
X137657644Y-72681000D01*
X137657644Y-72680997D01*
X137657645Y-72680994D01*
X137678028Y-72422000D01*
X137657645Y-72163006D01*
X137657644Y-72163003D01*
X137657644Y-72162999D01*
X137606010Y-71947931D01*
X137596997Y-71910390D01*
X137497578Y-71670372D01*
X137361836Y-71448860D01*
X137193113Y-71251311D01*
X136995564Y-71082588D01*
X136774052Y-70946846D01*
X136774049Y-70946844D01*
X136592270Y-70871549D01*
X136534034Y-70847427D01*
X136534032Y-70847426D01*
X136534031Y-70847426D01*
X136281424Y-70786779D01*
X136059423Y-70769307D01*
X136022424Y-70766396D01*
X136022423Y-70766396D01*
X135763423Y-70786779D01*
X135510816Y-70847426D01*
X135270798Y-70946844D01*
X135049282Y-71082589D01*
X134851735Y-71251311D01*
X134683013Y-71448858D01*
X134547268Y-71670374D01*
X134447850Y-71910392D01*
X134387203Y-72162999D01*
X134366820Y-72421999D01*
X131020715Y-72421999D01*
X131296485Y-72146228D01*
X131126386Y-72030257D01*
X130888994Y-71915935D01*
X130637209Y-71838268D01*
X130376671Y-71799000D01*
X130113177Y-71799000D01*
X129852638Y-71838268D01*
X129600853Y-71915935D01*
X129363461Y-72030257D01*
X129193362Y-72146228D01*
X127647002Y-72146228D01*
X127650331Y-70512687D01*
X127650500Y-70511850D01*
X127650500Y-70443041D01*
X127652201Y-70417077D01*
X127661137Y-70349199D01*
X127674580Y-70299035D01*
X127695747Y-70247936D01*
X127721722Y-70202953D01*
X127755385Y-70159087D01*
X127792118Y-70122356D01*
X127835983Y-70088700D01*
X127880976Y-70062728D01*
X127883490Y-70061687D01*
X127932062Y-70041571D01*
X127982239Y-70028130D01*
X128050215Y-70019186D01*
X128076526Y-70017487D01*
X161548766Y-70077247D01*
G37*
%TD.AperFunction*%
%TA.AperFunction,Conductor*%
G36*
X122593780Y-70009682D02*
G01*
X122662590Y-70063531D01*
X122701701Y-70141664D01*
X122703572Y-70229020D01*
X122667845Y-70308753D01*
X122531816Y-70490467D01*
X122507698Y-70522685D01*
X122370557Y-70773838D01*
X122270554Y-71041956D01*
X122209727Y-71321570D01*
X122189314Y-71607000D01*
X122209727Y-71892429D01*
X122268587Y-72162999D01*
X122270555Y-72172046D01*
X122370557Y-72440161D01*
X122507698Y-72691315D01*
X122679185Y-72920395D01*
X122881529Y-73122739D01*
X123110609Y-73294226D01*
X123361763Y-73431367D01*
X123629878Y-73531369D01*
X123747698Y-73556999D01*
X123909494Y-73592196D01*
X123945212Y-73594750D01*
X124194924Y-73612610D01*
X124461301Y-73593558D01*
X124480353Y-73592196D01*
X124550256Y-73576989D01*
X124759970Y-73531369D01*
X125028085Y-73431367D01*
X125279239Y-73294226D01*
X125508319Y-73122739D01*
X125710663Y-72920395D01*
X125882150Y-72691315D01*
X126019291Y-72440161D01*
X126119293Y-72172046D01*
X126173483Y-71922937D01*
X126180120Y-71892429D01*
X126183469Y-71845602D01*
X126200534Y-71607000D01*
X126180254Y-71323439D01*
X126180120Y-71321570D01*
X126149706Y-71181762D01*
X126119293Y-71041954D01*
X126019291Y-70773839D01*
X125882150Y-70522685D01*
X125722002Y-70308753D01*
X125686276Y-70229020D01*
X125688147Y-70141664D01*
X125727258Y-70063531D01*
X125796068Y-70009682D01*
X125881312Y-69990500D01*
X126476959Y-69990500D01*
X126502921Y-69992201D01*
X126570800Y-70001137D01*
X126620966Y-70014580D01*
X126672059Y-70035745D01*
X126717046Y-70061722D01*
X126760912Y-70095385D01*
X126797644Y-70132120D01*
X126831297Y-70175982D01*
X126857271Y-70220976D01*
X126878426Y-70272058D01*
X126891869Y-70322242D01*
X126900825Y-70390313D01*
X126902525Y-70416437D01*
X126898420Y-75336463D01*
X126898420Y-75390309D01*
X126928480Y-75492684D01*
X126939619Y-75510016D01*
X126967753Y-75580678D01*
X126967324Y-75656733D01*
X126938393Y-75727073D01*
X126885187Y-75781422D01*
X126815478Y-75811841D01*
X126685524Y-75840790D01*
X126681971Y-75841548D01*
X126564418Y-75865490D01*
X126559986Y-75867093D01*
X126535599Y-75874187D01*
X126531006Y-75875210D01*
X126418973Y-75918058D01*
X126415571Y-75919323D01*
X126302808Y-75960108D01*
X126298659Y-75962338D01*
X126275567Y-75972907D01*
X126271159Y-75974593D01*
X126166519Y-76033318D01*
X126163338Y-76035066D01*
X126057756Y-76091811D01*
X126053987Y-76094614D01*
X126032671Y-76108439D01*
X126028562Y-76110744D01*
X125933624Y-76184052D01*
X125930732Y-76186243D01*
X125834500Y-76257785D01*
X125831169Y-76261117D01*
X125812099Y-76277892D01*
X125808369Y-76280772D01*
X125725084Y-76367155D01*
X125722539Y-76369746D01*
X122173988Y-79918297D01*
X122160571Y-79930542D01*
X122127385Y-79958159D01*
X122072946Y-80018917D01*
X122065467Y-80026818D01*
X122057024Y-80035262D01*
X122024163Y-80073312D01*
X122021767Y-80076036D01*
X121941735Y-80165358D01*
X121939139Y-80169283D01*
X121923798Y-80189530D01*
X121920719Y-80193095D01*
X121856375Y-80294320D01*
X121854400Y-80297366D01*
X121788234Y-80397376D01*
X121786233Y-80401646D01*
X121774011Y-80423897D01*
X121771484Y-80427873D01*
X121722570Y-80537371D01*
X121721060Y-80540670D01*
X121670155Y-80649262D01*
X121668801Y-80653764D01*
X121659939Y-80677583D01*
X121658017Y-80681884D01*
X121625567Y-80797345D01*
X121624553Y-80800831D01*
X121590004Y-80915669D01*
X121589320Y-80920320D01*
X121584019Y-80945183D01*
X121582746Y-80949709D01*
X121567453Y-81068669D01*
X121566958Y-81072266D01*
X121549500Y-81190902D01*
X121549500Y-81195594D01*
X121547876Y-81220967D01*
X121547276Y-81225634D01*
X121549467Y-81345577D01*
X121549500Y-81349212D01*
X121549500Y-87561283D01*
X121534352Y-87637437D01*
X121491214Y-87701997D01*
X117519955Y-91673254D01*
X117383643Y-91831096D01*
X117234402Y-92065884D01*
X117191196Y-92162610D01*
X117146871Y-92225427D01*
X117082041Y-92266754D01*
X117006384Y-92280423D01*
X116931192Y-92264392D01*
X116867688Y-92221055D01*
X116825351Y-92156881D01*
X116810500Y-92081447D01*
X116810500Y-90606653D01*
X116796370Y-90558532D01*
X116780440Y-90504280D01*
X116773838Y-90494007D01*
X116722757Y-90414521D01*
X116642124Y-90344653D01*
X116642122Y-90344652D01*
X116545069Y-90300329D01*
X116439460Y-90285145D01*
X116333851Y-90300329D01*
X116236795Y-90344653D01*
X116156162Y-90414521D01*
X116098480Y-90504278D01*
X116075053Y-90584064D01*
X116068420Y-90606653D01*
X116068420Y-90659901D01*
X116068629Y-92949500D01*
X116068629Y-92950000D01*
X116068629Y-93107883D01*
X116100833Y-93393706D01*
X116103983Y-93421664D01*
X116174247Y-93729512D01*
X116237456Y-93910152D01*
X116278539Y-94027560D01*
X116415545Y-94312056D01*
X116583543Y-94579423D01*
X116708238Y-94735786D01*
X116780422Y-94826302D01*
X117003697Y-95049577D01*
X117029934Y-95070500D01*
X117250577Y-95246457D01*
X117517944Y-95414455D01*
X117802440Y-95551461D01*
X118100486Y-95655752D01*
X118408336Y-95726017D01*
X118722117Y-95761371D01*
X118879901Y-95761371D01*
X118880000Y-95761371D01*
X118880500Y-95761371D01*
X126892290Y-95761371D01*
X126968444Y-95776519D01*
X127033004Y-95819657D01*
X127076142Y-95884217D01*
X127091290Y-95960371D01*
X127076142Y-96036525D01*
X127033004Y-96101085D01*
X125242876Y-97891214D01*
X125178316Y-97934352D01*
X125102162Y-97949500D01*
X122237184Y-97949500D01*
X122225168Y-97949137D01*
X122167392Y-97945641D01*
X122110450Y-97956076D01*
X122098572Y-97957884D01*
X122041122Y-97964860D01*
X122038017Y-97966038D01*
X122003346Y-97975703D01*
X122000072Y-97976303D01*
X121947278Y-98000063D01*
X121936177Y-98004661D01*
X121882068Y-98025182D01*
X121879329Y-98027073D01*
X121847974Y-98044757D01*
X121844942Y-98046121D01*
X121799384Y-98081813D01*
X121789710Y-98088931D01*
X121742073Y-98121814D01*
X121703692Y-98165137D01*
X121695454Y-98173887D01*
X120997285Y-98872056D01*
X120943807Y-98910202D01*
X120880824Y-98928859D01*
X120815198Y-98925994D01*
X120784646Y-98919500D01*
X120595354Y-98919500D01*
X120595351Y-98919500D01*
X120410199Y-98958854D01*
X120237271Y-99035848D01*
X120084128Y-99147112D01*
X120078840Y-99152984D01*
X114042157Y-99338607D01*
X114036136Y-85806999D01*
X116189314Y-85806999D01*
X116209727Y-86092429D01*
X116267958Y-86360110D01*
X116270555Y-86372046D01*
X116370557Y-86640161D01*
X116507698Y-86891315D01*
X116679185Y-87120395D01*
X116881529Y-87322739D01*
X117110609Y-87494226D01*
X117361763Y-87631367D01*
X117629878Y-87731369D01*
X117769686Y-87761782D01*
X117909494Y-87792196D01*
X117945212Y-87794750D01*
X118194924Y-87812610D01*
X118461301Y-87793558D01*
X118480353Y-87792196D01*
X118550256Y-87776989D01*
X118759970Y-87731369D01*
X119028085Y-87631367D01*
X119279239Y-87494226D01*
X119508319Y-87322739D01*
X119710663Y-87120395D01*
X119882150Y-86891315D01*
X120019291Y-86640161D01*
X120119293Y-86372046D01*
X120165493Y-86159666D01*
X120180120Y-86092429D01*
X120183718Y-86042124D01*
X120200534Y-85807000D01*
X120181970Y-85547438D01*
X120180120Y-85521570D01*
X120132173Y-85301162D01*
X120119293Y-85241954D01*
X120019291Y-84973839D01*
X119882150Y-84722685D01*
X119710663Y-84493605D01*
X119508319Y-84291261D01*
X119279239Y-84119774D01*
X119028085Y-83982633D01*
X118759970Y-83882631D01*
X118759969Y-83882630D01*
X118759967Y-83882630D01*
X118480353Y-83821803D01*
X118194924Y-83801390D01*
X117909494Y-83821803D01*
X117629880Y-83882630D01*
X117361762Y-83982633D01*
X117110609Y-84119774D01*
X116881526Y-84291263D01*
X116679187Y-84493602D01*
X116507698Y-84722685D01*
X116370557Y-84973838D01*
X116270554Y-85241956D01*
X116209727Y-85521570D01*
X116189314Y-85806999D01*
X114036136Y-85806999D01*
X114031987Y-76480732D01*
X114032125Y-76473274D01*
X114049602Y-76006185D01*
X114050711Y-75991374D01*
X114102632Y-75530573D01*
X114104845Y-75515889D01*
X114191059Y-75060237D01*
X114194358Y-75045783D01*
X114314372Y-74597881D01*
X114318758Y-74583664D01*
X114318778Y-74583607D01*
X114471909Y-74145981D01*
X114477331Y-74132164D01*
X114662770Y-73707133D01*
X114669224Y-73693734D01*
X114741489Y-73557000D01*
X116489516Y-73557000D01*
X116493683Y-73612609D01*
X116509122Y-73818630D01*
X116567504Y-74074417D01*
X116663356Y-74318644D01*
X116794537Y-74545856D01*
X116958121Y-74750983D01*
X117150439Y-74929428D01*
X117150441Y-74929429D01*
X117150445Y-74929433D01*
X117367220Y-75077228D01*
X117603601Y-75191063D01*
X117836901Y-75263026D01*
X117854312Y-75268397D01*
X118113740Y-75307500D01*
X118113742Y-75307500D01*
X118376106Y-75307500D01*
X118376108Y-75307500D01*
X118635535Y-75268397D01*
X118635537Y-75268396D01*
X118635539Y-75268396D01*
X118886247Y-75191063D01*
X119122628Y-75077228D01*
X119339403Y-74929433D01*
X119531729Y-74750981D01*
X119695310Y-74545857D01*
X119826492Y-74318643D01*
X119922344Y-74074416D01*
X119980726Y-73818630D01*
X120000332Y-73557000D01*
X119980726Y-73295370D01*
X119922344Y-73039584D01*
X119826492Y-72795357D01*
X119824606Y-72792091D01*
X119695310Y-72568143D01*
X119691931Y-72563906D01*
X119531729Y-72363019D01*
X119462730Y-72298997D01*
X119339408Y-72184571D01*
X119339405Y-72184569D01*
X119339403Y-72184567D01*
X119122628Y-72036772D01*
X118886247Y-71922937D01*
X118814282Y-71900738D01*
X118635535Y-71845602D01*
X118376108Y-71806500D01*
X118376106Y-71806500D01*
X118113742Y-71806500D01*
X118113740Y-71806500D01*
X117854312Y-71845602D01*
X117603601Y-71922937D01*
X117380749Y-72030257D01*
X117367220Y-72036772D01*
X117246824Y-72118857D01*
X117150439Y-72184571D01*
X116958121Y-72363016D01*
X116794537Y-72568143D01*
X116663356Y-72795355D01*
X116567504Y-73039582D01*
X116536909Y-73173628D01*
X116509122Y-73295370D01*
X116489516Y-73557000D01*
X114741489Y-73557000D01*
X114885895Y-73283769D01*
X114893315Y-73270917D01*
X115140018Y-72878288D01*
X115148401Y-72865994D01*
X115202944Y-72792091D01*
X115423750Y-72492907D01*
X115433022Y-72481282D01*
X115735480Y-72129816D01*
X115745589Y-72118919D01*
X116073489Y-71791017D01*
X116084370Y-71780921D01*
X116435849Y-71478446D01*
X116447474Y-71469177D01*
X116820558Y-71193826D01*
X116832835Y-71185454D01*
X117225488Y-70938731D01*
X117238323Y-70931321D01*
X117648330Y-70714624D01*
X117661676Y-70708196D01*
X118086732Y-70522744D01*
X118100538Y-70517326D01*
X118538238Y-70364165D01*
X118552411Y-70359793D01*
X119000347Y-70239766D01*
X119014791Y-70236469D01*
X119470461Y-70150248D01*
X119485122Y-70148039D01*
X119945929Y-70096116D01*
X119960745Y-70095005D01*
X120426664Y-70077568D01*
X120434106Y-70077430D01*
X120584890Y-70077430D01*
X120610867Y-70079133D01*
X120678743Y-70088074D01*
X120728898Y-70101517D01*
X120780000Y-70122687D01*
X120824974Y-70148655D01*
X120838543Y-70159067D01*
X120868849Y-70182322D01*
X120905578Y-70219051D01*
X120939245Y-70262926D01*
X120965216Y-70307907D01*
X120986381Y-70358998D01*
X120999828Y-70409173D01*
X121008759Y-70476982D01*
X121010463Y-70503142D01*
X121005456Y-76217172D01*
X121005383Y-76217541D01*
X121005383Y-76299500D01*
X121005383Y-76300000D01*
X121005383Y-76353347D01*
X121009814Y-76368437D01*
X121035443Y-76455721D01*
X121093125Y-76545478D01*
X121173758Y-76615346D01*
X121173759Y-76615346D01*
X121173761Y-76615348D01*
X121270814Y-76659671D01*
X121376423Y-76674855D01*
X121482032Y-76659671D01*
X121579085Y-76615348D01*
X121659720Y-76545478D01*
X121717403Y-76455720D01*
X121747463Y-76353347D01*
X121747463Y-76300000D01*
X121747463Y-76299500D01*
X121747463Y-70416075D01*
X121749163Y-70390118D01*
X121752915Y-70361594D01*
X121758094Y-70322230D01*
X121771535Y-70272053D01*
X121792696Y-70220956D01*
X121818667Y-70175968D01*
X121852331Y-70132090D01*
X121889059Y-70095358D01*
X121932942Y-70061683D01*
X121977924Y-70035713D01*
X122017818Y-70019187D01*
X122029017Y-70014547D01*
X122079197Y-70001100D01*
X122125627Y-69994987D01*
X122146779Y-69992203D01*
X122172754Y-69990500D01*
X122508536Y-69990500D01*
X122593780Y-70009682D01*
G37*
%TD.AperFunction*%
%TD*%
%TA.AperFunction,Conductor*%
%TO.N,GND*%
G36*
X115094132Y-118061172D02*
G01*
X115141733Y-118070975D01*
X115182086Y-118098070D01*
X115546121Y-118462105D01*
X115892950Y-118808934D01*
X115900375Y-118817037D01*
X115924934Y-118846305D01*
X115958027Y-118865411D01*
X115967283Y-118871308D01*
X115984487Y-118883354D01*
X115999522Y-118893881D01*
X116024454Y-118904208D01*
X116025563Y-118904403D01*
X116025566Y-118904405D01*
X116063207Y-118911041D01*
X116073914Y-118913415D01*
X116110840Y-118923310D01*
X116148312Y-118920031D01*
X116148915Y-118919979D01*
X116159896Y-118919500D01*
X118770118Y-118919500D01*
X118781099Y-118919979D01*
X118819160Y-118923310D01*
X118856094Y-118913412D01*
X118866796Y-118911040D01*
X118904434Y-118904405D01*
X118904435Y-118904404D01*
X118905542Y-118904209D01*
X118930480Y-118893880D01*
X118962707Y-118871314D01*
X118971969Y-118865412D01*
X119005066Y-118846305D01*
X119029645Y-118817011D01*
X119037050Y-118808931D01*
X119705656Y-118140326D01*
X119747051Y-118112801D01*
X119795874Y-118103430D01*
X124881463Y-118149138D01*
X124935725Y-118163447D01*
X124936258Y-118162333D01*
X124939684Y-118163971D01*
X124939690Y-118163975D01*
X125455325Y-118410611D01*
X125721043Y-118518548D01*
X125984884Y-118625723D01*
X125984887Y-118625724D01*
X126526450Y-118808531D01*
X127078046Y-118958367D01*
X127078052Y-118958368D01*
X127078055Y-118958369D01*
X127637672Y-119074688D01*
X127916553Y-119115307D01*
X128203285Y-119157070D01*
X128772839Y-119205215D01*
X129344258Y-119218947D01*
X129915466Y-119198217D01*
X130484387Y-119143099D01*
X131048952Y-119053795D01*
X131607109Y-118930629D01*
X132156828Y-118774048D01*
X132696111Y-118584622D01*
X133222998Y-118363039D01*
X133472612Y-118239865D01*
X133529492Y-118226864D01*
X134479765Y-118235405D01*
X134479765Y-122913398D01*
X134450742Y-122896642D01*
X134279435Y-122825687D01*
X134100330Y-122777699D01*
X134072323Y-122774012D01*
X134010294Y-122747667D01*
X133970714Y-122693122D01*
X133935175Y-122597837D01*
X133891093Y-122538951D01*
X133880104Y-122524271D01*
X133855471Y-122459965D01*
X133868325Y-122392312D01*
X133914826Y-122341521D01*
X133967730Y-122308889D01*
X134088888Y-122187731D01*
X134178847Y-122041885D01*
X134232743Y-121879239D01*
X134243000Y-121778839D01*
X134243000Y-121759000D01*
X132363000Y-121759000D01*
X132300000Y-121742119D01*
X132253881Y-121696000D01*
X132252006Y-121689005D01*
X132237001Y-121674000D01*
X131347000Y-121674000D01*
X131284000Y-121657119D01*
X131237881Y-121611000D01*
X131221000Y-121548000D01*
X131221000Y-120437000D01*
X131729000Y-120437000D01*
X131729000Y-121166000D01*
X132347000Y-121166000D01*
X132410000Y-121182881D01*
X132456119Y-121229000D01*
X132457993Y-121235994D01*
X132472999Y-121251000D01*
X133006000Y-121251000D01*
X133006000Y-120547000D01*
X133514000Y-120547000D01*
X133514000Y-121251000D01*
X134243000Y-121251000D01*
X134243000Y-121231161D01*
X134232743Y-121130760D01*
X134178847Y-120968114D01*
X134088888Y-120822268D01*
X133967731Y-120701111D01*
X133821885Y-120611152D01*
X133659239Y-120557256D01*
X133558839Y-120547000D01*
X133514000Y-120547000D01*
X133006000Y-120547000D01*
X132961161Y-120547000D01*
X132860760Y-120557256D01*
X132698114Y-120611152D01*
X132552270Y-120701110D01*
X132491605Y-120761775D01*
X132443877Y-120791695D01*
X132387881Y-120797827D01*
X132334809Y-120778946D01*
X132295269Y-120738825D01*
X132278889Y-120712269D01*
X132157731Y-120591111D01*
X132011885Y-120501152D01*
X131849239Y-120447256D01*
X131748839Y-120437000D01*
X131729000Y-120437000D01*
X131221000Y-120437000D01*
X131201161Y-120437000D01*
X131100760Y-120447256D01*
X130938114Y-120501152D01*
X130792268Y-120591111D01*
X130671109Y-120712270D01*
X130638477Y-120765175D01*
X130587686Y-120811675D01*
X130520034Y-120824528D01*
X130455728Y-120799895D01*
X130382163Y-120744825D01*
X130366076Y-120738825D01*
X130252973Y-120696640D01*
X130195864Y-120690500D01*
X129654136Y-120690500D01*
X129597027Y-120696639D01*
X129597027Y-120696640D01*
X129467836Y-120744825D01*
X129357455Y-120827455D01*
X129274825Y-120937836D01*
X129226640Y-121067027D01*
X129220500Y-121124137D01*
X129220500Y-121715863D01*
X129226640Y-121772974D01*
X129227556Y-121775429D01*
X129235500Y-121819460D01*
X129235500Y-122049500D01*
X129218619Y-122112500D01*
X129172500Y-122158619D01*
X129109500Y-122175500D01*
X128761804Y-122175500D01*
X128699063Y-122158768D01*
X128652985Y-122113017D01*
X128635807Y-122050396D01*
X128635801Y-122049500D01*
X128619765Y-119795405D01*
X128619764Y-119795404D01*
X115689766Y-119725404D01*
X115689764Y-119725406D01*
X115682233Y-121934504D01*
X115667471Y-121993254D01*
X115626999Y-122038325D01*
X115570170Y-122059301D01*
X115510120Y-122051332D01*
X115460729Y-122016261D01*
X115449781Y-122003539D01*
X115443907Y-121996173D01*
X115165323Y-121618706D01*
X115160015Y-121610922D01*
X114924428Y-121235994D01*
X114910404Y-121213675D01*
X114905705Y-121205535D01*
X114686471Y-120790733D01*
X114682400Y-120782280D01*
X114494776Y-120352253D01*
X114491347Y-120343515D01*
X114415015Y-120125378D01*
X114336385Y-119900675D01*
X114333608Y-119891672D01*
X114289054Y-119725404D01*
X114212175Y-119438505D01*
X114210088Y-119429363D01*
X114122854Y-118968364D01*
X114121451Y-118959052D01*
X114116994Y-118919500D01*
X114068914Y-118492853D01*
X114068212Y-118483504D01*
X114056988Y-118183699D01*
X114072424Y-118118397D01*
X114119194Y-118070278D01*
X114184028Y-118052992D01*
X115094132Y-118061172D01*
G37*
%TD.AperFunction*%
%TD*%
%TA.AperFunction,Conductor*%
%TO.N,GND*%
G36*
X124305510Y-97144880D02*
G01*
X124300510Y-98049500D01*
X122257619Y-98049500D01*
X122241173Y-98048422D01*
X122210000Y-98044318D01*
X122170639Y-98049500D01*
X122053238Y-98064955D01*
X121907157Y-98125464D01*
X121781719Y-98221716D01*
X121762574Y-98246666D01*
X121751708Y-98259055D01*
X121004410Y-99006353D01*
X120943353Y-99040099D01*
X120873701Y-99036188D01*
X120869255Y-99034632D01*
X120690000Y-99014435D01*
X120510742Y-99034632D01*
X120340478Y-99094210D01*
X120187736Y-99190184D01*
X120060184Y-99317736D01*
X119964210Y-99470478D01*
X119904632Y-99640742D01*
X119884435Y-99820000D01*
X119904632Y-99999257D01*
X119964210Y-100169521D01*
X120060184Y-100322263D01*
X120187736Y-100449815D01*
X120255055Y-100492114D01*
X120340478Y-100545789D01*
X120510745Y-100605368D01*
X120690000Y-100625565D01*
X120869255Y-100605368D01*
X121039522Y-100545789D01*
X121192262Y-100449816D01*
X121247789Y-100394287D01*
X121288662Y-100366977D01*
X121342841Y-100344536D01*
X121371869Y-100322262D01*
X121468282Y-100248282D01*
X121487424Y-100223334D01*
X121498283Y-100210950D01*
X122421830Y-99287404D01*
X122462708Y-99260091D01*
X122510926Y-99250500D01*
X123444426Y-99250500D01*
X123501629Y-99264233D01*
X123546362Y-99302439D01*
X123568875Y-99356789D01*
X123564259Y-99415436D01*
X123533521Y-99465595D01*
X119274055Y-103725061D01*
X119261666Y-103735927D01*
X119236716Y-103755072D01*
X119187259Y-103819526D01*
X119187260Y-103819526D01*
X119140463Y-103880512D01*
X119079955Y-104026591D01*
X119059318Y-104183353D01*
X119063422Y-104214526D01*
X119064500Y-104230972D01*
X119064500Y-105932323D01*
X119054909Y-105980541D01*
X119027597Y-106021415D01*
X118696854Y-106352159D01*
X118133502Y-106915510D01*
X118072446Y-106949255D01*
X118002794Y-106945344D01*
X118001024Y-106944724D01*
X117998060Y-106943687D01*
X117914029Y-106934219D01*
X117830000Y-106924751D01*
X117829999Y-106924751D01*
X117661938Y-106943687D01*
X117502310Y-106999543D01*
X117359108Y-107089523D01*
X117239523Y-107209108D01*
X117149543Y-107352310D01*
X117093687Y-107511938D01*
X117074751Y-107679999D01*
X117093687Y-107848061D01*
X117149543Y-108007689D01*
X117195900Y-108081464D01*
X117215163Y-108144966D01*
X117199491Y-108209448D01*
X117153231Y-108257025D01*
X117089213Y-108274500D01*
X115799700Y-108274500D01*
X115772916Y-108271620D01*
X115771543Y-108271321D01*
X115769295Y-108270832D01*
X115722521Y-108274179D01*
X115713530Y-108274500D01*
X115701011Y-108274500D01*
X115688619Y-108276281D01*
X115679688Y-108277242D01*
X115632906Y-108280589D01*
X115629438Y-108281883D01*
X115603352Y-108288541D01*
X115599682Y-108289068D01*
X115557032Y-108308546D01*
X115548725Y-108311987D01*
X115504798Y-108328371D01*
X115501822Y-108330599D01*
X115478680Y-108344329D01*
X115475310Y-108345868D01*
X115439872Y-108376574D01*
X115432875Y-108382212D01*
X115422845Y-108389720D01*
X115413984Y-108398581D01*
X115407409Y-108404703D01*
X115371969Y-108435412D01*
X115369964Y-108438533D01*
X115353066Y-108459499D01*
X114841085Y-108971480D01*
X114800186Y-108998803D01*
X114751942Y-109008385D01*
X114219544Y-109008182D01*
X114207192Y-109007570D01*
X114160001Y-109002903D01*
X114102387Y-108982272D01*
X114061289Y-108936929D01*
X114046401Y-108877574D01*
X114041147Y-97067556D01*
X124305510Y-97144880D01*
G37*
%TD.AperFunction*%
%TD*%
%TA.AperFunction,Conductor*%
%TO.N,GND*%
G36*
X148374547Y-120401091D02*
G01*
X148415424Y-120428405D01*
X151967238Y-123980220D01*
X151997991Y-124030425D01*
X152002577Y-124089121D01*
X151979994Y-124143493D01*
X151935174Y-124181669D01*
X151877903Y-124195315D01*
X147189613Y-124186374D01*
X147128983Y-124170696D01*
X147083390Y-124127765D01*
X147064096Y-124068188D01*
X147075866Y-124006680D01*
X147115793Y-123958438D01*
X147144552Y-123937544D01*
X147172376Y-123909719D01*
X147172378Y-123909718D01*
X147452741Y-123629354D01*
X147493616Y-123602043D01*
X147541834Y-123592452D01*
X147637421Y-123592452D01*
X147637423Y-123592452D01*
X147791745Y-123554415D01*
X147932481Y-123480551D01*
X148051450Y-123375153D01*
X148141739Y-123244347D01*
X148198101Y-123095734D01*
X148217259Y-122937952D01*
X148198101Y-122780170D01*
X148141739Y-122631557D01*
X148051450Y-122500751D01*
X147932481Y-122395353D01*
X147791745Y-122321489D01*
X147637423Y-122283452D01*
X147478481Y-122283452D01*
X147478480Y-122283452D01*
X147442700Y-122292271D01*
X147404153Y-122301772D01*
X147347556Y-122302628D01*
X147296294Y-122278619D01*
X147260715Y-122234593D01*
X147248000Y-122179434D01*
X147248000Y-121764000D01*
X146062000Y-121764000D01*
X145999000Y-121747119D01*
X145952881Y-121701000D01*
X145936000Y-121638000D01*
X145936000Y-121382000D01*
X145952881Y-121319000D01*
X145999000Y-121272881D01*
X146062000Y-121256000D01*
X147248000Y-121256000D01*
X147248000Y-120517500D01*
X147264881Y-120454500D01*
X147311000Y-120408381D01*
X147374000Y-120391500D01*
X148326329Y-120391500D01*
X148374547Y-120401091D01*
G37*
%TD.AperFunction*%
%TA.AperFunction,Conductor*%
G36*
X134333055Y-103053425D02*
G01*
X134383356Y-103084209D01*
X138673569Y-107374422D01*
X138680996Y-107382526D01*
X138705564Y-107411805D01*
X138738652Y-107430908D01*
X138747924Y-107436815D01*
X138779229Y-107458735D01*
X138779230Y-107458735D01*
X138780151Y-107459380D01*
X138805086Y-107469709D01*
X138806195Y-107469904D01*
X138806196Y-107469905D01*
X138843837Y-107476541D01*
X138854544Y-107478915D01*
X138891470Y-107488810D01*
X138891470Y-107488809D01*
X138891471Y-107488810D01*
X138911610Y-107487047D01*
X138929530Y-107485479D01*
X138940512Y-107485000D01*
X146861419Y-107485000D01*
X146929119Y-107504733D01*
X146975614Y-107557750D01*
X146986341Y-107627446D01*
X146972774Y-107730499D01*
X146991830Y-107875253D01*
X147047703Y-108010142D01*
X147047704Y-108010143D01*
X147104463Y-108084112D01*
X147123813Y-108120313D01*
X147130500Y-108160815D01*
X147130500Y-109750118D01*
X147130020Y-109761101D01*
X147126689Y-109799160D01*
X147136579Y-109836071D01*
X147138957Y-109846797D01*
X147145789Y-109885541D01*
X147156121Y-109910481D01*
X147178681Y-109942700D01*
X147184586Y-109951970D01*
X147203693Y-109985064D01*
X147203694Y-109985065D01*
X147203695Y-109985066D01*
X147232981Y-110009640D01*
X147241072Y-110017055D01*
X147582939Y-110358922D01*
X147590366Y-110367026D01*
X147614934Y-110396305D01*
X147635546Y-110408205D01*
X147648022Y-110415408D01*
X147657294Y-110421315D01*
X147688599Y-110443235D01*
X147688600Y-110443235D01*
X147689521Y-110443880D01*
X147714456Y-110454209D01*
X147715565Y-110454404D01*
X147715566Y-110454405D01*
X147753207Y-110461041D01*
X147763914Y-110463415D01*
X147800840Y-110473310D01*
X147803627Y-110473066D01*
X147865355Y-110483256D01*
X147914572Y-110521880D01*
X147925003Y-110535474D01*
X148016532Y-110605707D01*
X148040834Y-110624355D01*
X148052306Y-110629107D01*
X148096985Y-110660391D01*
X148124256Y-110707626D01*
X148129010Y-110761961D01*
X148111191Y-110897313D01*
X148127210Y-111018992D01*
X148128180Y-111030227D01*
X148130544Y-111087350D01*
X148130652Y-111092560D01*
X148130652Y-111213666D01*
X148121061Y-111261885D01*
X148093747Y-111302762D01*
X147952619Y-111443888D01*
X147896135Y-111476499D01*
X147830913Y-111476499D01*
X147774429Y-111443887D01*
X147712230Y-111381688D01*
X147712229Y-111381686D01*
X147444583Y-111114040D01*
X146613527Y-110282985D01*
X146596629Y-110262016D01*
X146593962Y-110257866D01*
X146555751Y-110224755D01*
X146549170Y-110218627D01*
X146539459Y-110208916D01*
X146539455Y-110208913D01*
X146528448Y-110200673D01*
X146521448Y-110195033D01*
X146483237Y-110161922D01*
X146478751Y-110159874D01*
X146455580Y-110146126D01*
X146451634Y-110143172D01*
X146404257Y-110125500D01*
X146395952Y-110122060D01*
X146349968Y-110101060D01*
X146345083Y-110100358D01*
X146318992Y-110093698D01*
X146314366Y-110091972D01*
X146263935Y-110088366D01*
X146254995Y-110087405D01*
X146241388Y-110085449D01*
X146241386Y-110085449D01*
X146227638Y-110085449D01*
X146218650Y-110085128D01*
X146168228Y-110081522D01*
X146168227Y-110081522D01*
X146163415Y-110082569D01*
X146136631Y-110085449D01*
X144043469Y-110085449D01*
X144016686Y-110082569D01*
X144011873Y-110081522D01*
X143961454Y-110085128D01*
X143952466Y-110085449D01*
X143938715Y-110085449D01*
X143925098Y-110087406D01*
X143916167Y-110088366D01*
X143865731Y-110091974D01*
X143861105Y-110093700D01*
X143835020Y-110100358D01*
X143830132Y-110101060D01*
X143784134Y-110122066D01*
X143775831Y-110125505D01*
X143728463Y-110143173D01*
X143724510Y-110146133D01*
X143701361Y-110159868D01*
X143696863Y-110161922D01*
X143658641Y-110195042D01*
X143651638Y-110200685D01*
X143640645Y-110208914D01*
X143630925Y-110218633D01*
X143624350Y-110224754D01*
X143586137Y-110257867D01*
X143583466Y-110262023D01*
X143566568Y-110282990D01*
X141423191Y-112426366D01*
X141402225Y-112443264D01*
X141398069Y-112445935D01*
X141364962Y-112484141D01*
X141358844Y-112490713D01*
X141349114Y-112500444D01*
X141340879Y-112511445D01*
X141335238Y-112518445D01*
X141302125Y-112556660D01*
X141300075Y-112561149D01*
X141286335Y-112584308D01*
X141283377Y-112588258D01*
X141265705Y-112635635D01*
X141262267Y-112643934D01*
X141241263Y-112689931D01*
X141240561Y-112694815D01*
X141233902Y-112720904D01*
X141232175Y-112725532D01*
X141228569Y-112775964D01*
X141227608Y-112784904D01*
X141225652Y-112798511D01*
X141225652Y-112812260D01*
X141225331Y-112821248D01*
X141221725Y-112871670D01*
X141222772Y-112876483D01*
X141225652Y-112903267D01*
X141225652Y-115099464D01*
X141216061Y-115147682D01*
X141188747Y-115188560D01*
X140751185Y-115626119D01*
X140710311Y-115653431D01*
X140659283Y-115674568D01*
X140543449Y-115763451D01*
X140530652Y-115780129D01*
X140486418Y-115816430D01*
X140430690Y-115829424D01*
X137495458Y-115829424D01*
X137484476Y-115828944D01*
X137481483Y-115828682D01*
X137446415Y-115825613D01*
X137409505Y-115835503D01*
X137398779Y-115837881D01*
X137360039Y-115844712D01*
X137335092Y-115855046D01*
X137302864Y-115877611D01*
X137293601Y-115883513D01*
X137260508Y-115902620D01*
X137235947Y-115931890D01*
X137228522Y-115939992D01*
X135746383Y-117422131D01*
X135697791Y-117452349D01*
X135640845Y-117457959D01*
X135628104Y-117456281D01*
X135620000Y-117455215D01*
X135619999Y-117455215D01*
X135475246Y-117474271D01*
X135340356Y-117530145D01*
X135224525Y-117619025D01*
X135135645Y-117734856D01*
X135079771Y-117869746D01*
X135060715Y-118014499D01*
X135060715Y-118014500D01*
X135062141Y-118025329D01*
X135079771Y-118159253D01*
X135135644Y-118294142D01*
X135135645Y-118294143D01*
X135224526Y-118409974D01*
X135340357Y-118498855D01*
X135475246Y-118554728D01*
X135620000Y-118573785D01*
X135764754Y-118554728D01*
X135899643Y-118498855D01*
X136015474Y-118409974D01*
X136104355Y-118294143D01*
X136160228Y-118159254D01*
X136179285Y-118014500D01*
X136176540Y-117993654D01*
X136182148Y-117936710D01*
X136212365Y-117888116D01*
X137575155Y-116525328D01*
X137616033Y-116498015D01*
X137664251Y-116488424D01*
X140430690Y-116488424D01*
X140486418Y-116501418D01*
X140530651Y-116537718D01*
X140543450Y-116554398D01*
X140659281Y-116643279D01*
X140794170Y-116699152D01*
X140938924Y-116718209D01*
X141083678Y-116699152D01*
X141218567Y-116643279D01*
X141334398Y-116554398D01*
X141423279Y-116438567D01*
X141444416Y-116387536D01*
X141471727Y-116346661D01*
X142047113Y-115771274D01*
X142068087Y-115754374D01*
X142072234Y-115751710D01*
X142105366Y-115713472D01*
X142111455Y-115706933D01*
X142121187Y-115697202D01*
X142129427Y-115686192D01*
X142135063Y-115679200D01*
X142139077Y-115674568D01*
X142168178Y-115640985D01*
X142170227Y-115636495D01*
X142183971Y-115613332D01*
X142186927Y-115609384D01*
X142204599Y-115562001D01*
X142208028Y-115553723D01*
X142229040Y-115507715D01*
X142229740Y-115502843D01*
X142236403Y-115476730D01*
X142238127Y-115472112D01*
X142241733Y-115421677D01*
X142242695Y-115412738D01*
X142244652Y-115399133D01*
X142244652Y-115385382D01*
X142244973Y-115376394D01*
X142245222Y-115372902D01*
X142248579Y-115325975D01*
X142247531Y-115321161D01*
X142244652Y-115294379D01*
X142244652Y-113098181D01*
X142254243Y-113049963D01*
X142281557Y-113009086D01*
X144149288Y-111141354D01*
X144190165Y-111114040D01*
X144238383Y-111104449D01*
X145941717Y-111104449D01*
X145989935Y-111114040D01*
X146030812Y-111141354D01*
X147858595Y-112969137D01*
X147885909Y-113010014D01*
X147895500Y-113058232D01*
X147895500Y-113861767D01*
X147885909Y-113909985D01*
X147858595Y-113950863D01*
X147702771Y-114106685D01*
X147702768Y-114106689D01*
X145335494Y-116473964D01*
X144603036Y-117206420D01*
X144582070Y-117223317D01*
X144577917Y-117225986D01*
X144544810Y-117264192D01*
X144538692Y-117270764D01*
X144528962Y-117280495D01*
X144520727Y-117291496D01*
X144515086Y-117298496D01*
X144481973Y-117336711D01*
X144479923Y-117341200D01*
X144466183Y-117364359D01*
X144463225Y-117368309D01*
X144445553Y-117415686D01*
X144442115Y-117423985D01*
X144421111Y-117469982D01*
X144420409Y-117474866D01*
X144413750Y-117500955D01*
X144412023Y-117505583D01*
X144408417Y-117556015D01*
X144407456Y-117564955D01*
X144405500Y-117578562D01*
X144405500Y-117592311D01*
X144405179Y-117601299D01*
X144401573Y-117651721D01*
X144402620Y-117656534D01*
X144405500Y-117683318D01*
X144405500Y-118470999D01*
X144395909Y-118519218D01*
X144374771Y-118570247D01*
X144360164Y-118681204D01*
X144355715Y-118715000D01*
X144356684Y-118722358D01*
X144376937Y-118876201D01*
X144376822Y-118876216D01*
X144383146Y-118918851D01*
X144362518Y-118976502D01*
X144317149Y-119017622D01*
X144257753Y-119032500D01*
X143900674Y-119032500D01*
X143852456Y-119022909D01*
X143811579Y-118995595D01*
X143042326Y-118226342D01*
X143018415Y-118192974D01*
X143006499Y-118153691D01*
X143003429Y-118130371D01*
X142972013Y-118054526D01*
X142947556Y-117995483D01*
X142947555Y-117995482D01*
X142947555Y-117995481D01*
X142858676Y-117879652D01*
X142856825Y-117878232D01*
X142793987Y-117830014D01*
X142742843Y-117790769D01*
X142607954Y-117734896D01*
X142584628Y-117731825D01*
X142545348Y-117719908D01*
X142511983Y-117695999D01*
X142097054Y-117281071D01*
X142089627Y-117272966D01*
X142065064Y-117243693D01*
X142031970Y-117224586D01*
X142022700Y-117218681D01*
X142018805Y-117215954D01*
X141991401Y-117196765D01*
X141991400Y-117196764D01*
X141990481Y-117196121D01*
X141965541Y-117185789D01*
X141926797Y-117178957D01*
X141916071Y-117176579D01*
X141879160Y-117166689D01*
X141843849Y-117169779D01*
X141841099Y-117170020D01*
X141830118Y-117170500D01*
X137829882Y-117170500D01*
X137818900Y-117170020D01*
X137815907Y-117169758D01*
X137780839Y-117166689D01*
X137743929Y-117176579D01*
X137733203Y-117178957D01*
X137694463Y-117185788D01*
X137669516Y-117196122D01*
X137637288Y-117218687D01*
X137628025Y-117224589D01*
X137594933Y-117243695D01*
X137570370Y-117272968D01*
X137562945Y-117281069D01*
X137422406Y-117421608D01*
X137373813Y-117451826D01*
X137316867Y-117457435D01*
X137300000Y-117455214D01*
X137155246Y-117474271D01*
X137020356Y-117530145D01*
X136904525Y-117619025D01*
X136815645Y-117734856D01*
X136759771Y-117869746D01*
X136740715Y-118014499D01*
X136740715Y-118014500D01*
X136742141Y-118025329D01*
X136759771Y-118159253D01*
X136815644Y-118294142D01*
X136815645Y-118294143D01*
X136904526Y-118409974D01*
X137020357Y-118498855D01*
X137155246Y-118554728D01*
X137300000Y-118573785D01*
X137444754Y-118554728D01*
X137579643Y-118498855D01*
X137695474Y-118409974D01*
X137784355Y-118294143D01*
X137840228Y-118159254D01*
X137859285Y-118014500D01*
X137856017Y-117989679D01*
X137861626Y-117932732D01*
X137891846Y-117884137D01*
X137897752Y-117878232D01*
X137909580Y-117866402D01*
X137950459Y-117839090D01*
X137998675Y-117829500D01*
X140717026Y-117829500D01*
X140777148Y-117844769D01*
X140822698Y-117886875D01*
X140842638Y-117945614D01*
X140832133Y-118006748D01*
X140804920Y-118041268D01*
X140805048Y-118041366D01*
X140706069Y-118170356D01*
X140650195Y-118305246D01*
X140633188Y-118434436D01*
X140631139Y-118450000D01*
X140646970Y-118570247D01*
X140649314Y-118588054D01*
X140638587Y-118657750D01*
X140592092Y-118710767D01*
X140524392Y-118730500D01*
X139622663Y-118730500D01*
X139566935Y-118717506D01*
X139522701Y-118681204D01*
X139465399Y-118606527D01*
X139465396Y-118606525D01*
X139349567Y-118517645D01*
X139349566Y-118517644D01*
X139214677Y-118461771D01*
X139069924Y-118442715D01*
X138925170Y-118461771D01*
X138790280Y-118517645D01*
X138674449Y-118606525D01*
X138585569Y-118722356D01*
X138529695Y-118857246D01*
X138510639Y-119002000D01*
X138529695Y-119146753D01*
X138585568Y-119281642D01*
X138585569Y-119281643D01*
X138674450Y-119397474D01*
X138790281Y-119486355D01*
X138925170Y-119542228D01*
X139069924Y-119561285D01*
X139214678Y-119542228D01*
X139349567Y-119486355D01*
X139441858Y-119415536D01*
X139478059Y-119396187D01*
X139518561Y-119389500D01*
X141651327Y-119389500D01*
X141699545Y-119399091D01*
X141740422Y-119426405D01*
X142253754Y-119939737D01*
X142284676Y-119990466D01*
X142288915Y-120049726D01*
X142265528Y-120104340D01*
X142239554Y-120139037D01*
X142188505Y-120275906D01*
X142182000Y-120336411D01*
X142182000Y-121256000D01*
X143368000Y-121256000D01*
X143431000Y-121272881D01*
X143477119Y-121319000D01*
X143494000Y-121382000D01*
X143494000Y-121638000D01*
X143477119Y-121701000D01*
X143431000Y-121747119D01*
X143368000Y-121764000D01*
X142182000Y-121764000D01*
X142182000Y-122683589D01*
X142188505Y-122744093D01*
X142239554Y-122880962D01*
X142327095Y-122997904D01*
X142458541Y-123096303D01*
X142456732Y-123098719D01*
X142489057Y-123122560D01*
X142514647Y-123186927D01*
X142502348Y-123255095D01*
X142455876Y-123306460D01*
X142389276Y-123325500D01*
X135033883Y-123325500D01*
X134985665Y-123315909D01*
X134944788Y-123288595D01*
X134865283Y-123209090D01*
X134865262Y-123209056D01*
X134758433Y-123102229D01*
X134611329Y-122989355D01*
X134450742Y-122896642D01*
X134285038Y-122828008D01*
X134168264Y-103174046D01*
X134181724Y-103116635D01*
X134219837Y-103071633D01*
X134274255Y-103048902D01*
X134333055Y-103053425D01*
G37*
%TD.AperFunction*%
%TA.AperFunction,Conductor*%
G36*
X151224986Y-118989091D02*
G01*
X151265863Y-119016405D01*
X152489283Y-120239825D01*
X152513194Y-120273191D01*
X152525110Y-120312473D01*
X152546212Y-120472755D01*
X152607120Y-120619805D01*
X152607122Y-120619807D01*
X152704018Y-120746083D01*
X152806460Y-120824690D01*
X152830295Y-120842980D01*
X152977345Y-120903889D01*
X153008923Y-120908046D01*
X153064403Y-120915350D01*
X153103684Y-120927266D01*
X153137048Y-120951174D01*
X153441874Y-121256000D01*
X153645231Y-121459357D01*
X153645236Y-121459361D01*
X153659201Y-121473326D01*
X153678011Y-121482909D01*
X153679077Y-121483453D01*
X153695937Y-121493785D01*
X153703974Y-121499624D01*
X153713995Y-121506905D01*
X153735222Y-121513801D01*
X153753484Y-121521365D01*
X153773369Y-121531498D01*
X153795409Y-121534988D01*
X153814631Y-121539603D01*
X153835858Y-121546500D01*
X153868090Y-121546500D01*
X153963990Y-121546500D01*
X154391858Y-121546500D01*
X154454829Y-121563364D01*
X154500943Y-121609441D01*
X154517858Y-121672399D01*
X154518438Y-122394401D01*
X154501592Y-122457441D01*
X154455468Y-122503602D01*
X154392439Y-122520500D01*
X152976597Y-122520500D01*
X152928379Y-122510909D01*
X152887502Y-122483595D01*
X151205127Y-120801220D01*
X151177813Y-120760343D01*
X151168222Y-120712124D01*
X151177812Y-120663912D01*
X151217936Y-120567046D01*
X151236993Y-120422292D01*
X151217936Y-120277538D01*
X151162063Y-120142650D01*
X151162062Y-120142649D01*
X151162062Y-120142648D01*
X151073183Y-120026819D01*
X151025807Y-119990466D01*
X150957351Y-119937937D01*
X150957350Y-119937936D01*
X150822461Y-119882063D01*
X150677708Y-119863007D01*
X150532954Y-119882063D01*
X150398064Y-119937937D01*
X150282235Y-120026816D01*
X150219263Y-120108883D01*
X150162395Y-120150579D01*
X150092029Y-120155191D01*
X150030206Y-120121273D01*
X149919279Y-120010346D01*
X149887800Y-119957827D01*
X149884795Y-119896670D01*
X149910975Y-119841318D01*
X149960156Y-119804842D01*
X150002494Y-119787304D01*
X150060876Y-119763122D01*
X150176707Y-119674241D01*
X150265588Y-119558410D01*
X150321461Y-119423521D01*
X150340518Y-119278767D01*
X150326152Y-119169647D01*
X150319873Y-119121946D01*
X150330600Y-119052250D01*
X150377095Y-118999233D01*
X150444795Y-118979500D01*
X151176768Y-118979500D01*
X151224986Y-118989091D01*
G37*
%TD.AperFunction*%
%TA.AperFunction,Conductor*%
G36*
X146682022Y-98848239D02*
G01*
X146722960Y-98875578D01*
X146913519Y-99066137D01*
X146940833Y-99107014D01*
X146950424Y-99155232D01*
X146950424Y-101881606D01*
X146947544Y-101908390D01*
X146946497Y-101913202D01*
X146950103Y-101963625D01*
X146950424Y-101972613D01*
X146950424Y-101986363D01*
X146952380Y-101999970D01*
X146953341Y-102008910D01*
X146956947Y-102059341D01*
X146958673Y-102063967D01*
X146965333Y-102090058D01*
X146966035Y-102094943D01*
X146987035Y-102140927D01*
X146990475Y-102149232D01*
X147008147Y-102196609D01*
X147011101Y-102200555D01*
X147024849Y-102223726D01*
X147026897Y-102228212D01*
X147060008Y-102266423D01*
X147065648Y-102273423D01*
X147073888Y-102284430D01*
X147073891Y-102284434D01*
X147083602Y-102294145D01*
X147089730Y-102300726D01*
X147122841Y-102338937D01*
X147122842Y-102338938D01*
X147126993Y-102341605D01*
X147147965Y-102358507D01*
X148600363Y-103810905D01*
X148631101Y-103861064D01*
X148635717Y-103919711D01*
X148613204Y-103974061D01*
X148568471Y-104012267D01*
X148511268Y-104026000D01*
X145896351Y-104026000D01*
X145848133Y-104016409D01*
X145807256Y-103989095D01*
X145538456Y-103720295D01*
X145508237Y-103671700D01*
X145502629Y-103614756D01*
X145505374Y-103593911D01*
X145486317Y-103449157D01*
X145430444Y-103314269D01*
X145430443Y-103314268D01*
X145430443Y-103314267D01*
X145419176Y-103299583D01*
X145395053Y-103244759D01*
X145398971Y-103184991D01*
X145430042Y-103133787D01*
X145998936Y-102564893D01*
X146007006Y-102557497D01*
X146036305Y-102532914D01*
X146055422Y-102499800D01*
X146061301Y-102490572D01*
X146083235Y-102459249D01*
X146083236Y-102459244D01*
X146083883Y-102458321D01*
X146094209Y-102433395D01*
X146101041Y-102394644D01*
X146103417Y-102383924D01*
X146113309Y-102347009D01*
X146109978Y-102308944D01*
X146109500Y-102297965D01*
X146109500Y-100529882D01*
X146109980Y-100518899D01*
X146113310Y-100480841D01*
X146108836Y-100464145D01*
X146103415Y-100443914D01*
X146101041Y-100433207D01*
X146094405Y-100395566D01*
X146094403Y-100395563D01*
X146094208Y-100394454D01*
X146083880Y-100369519D01*
X146061311Y-100337286D01*
X146055406Y-100328017D01*
X146036305Y-100294934D01*
X146007037Y-100270375D01*
X145998933Y-100262949D01*
X145527053Y-99791070D01*
X145519626Y-99782965D01*
X145495066Y-99753695D01*
X145495065Y-99753694D01*
X145495064Y-99753693D01*
X145461970Y-99734586D01*
X145452700Y-99728681D01*
X145404545Y-99694962D01*
X145376853Y-99668452D01*
X145335473Y-99614525D01*
X145219644Y-99525645D01*
X145084753Y-99469771D01*
X144940000Y-99450715D01*
X144795246Y-99469771D01*
X144660356Y-99525645D01*
X144544527Y-99614524D01*
X144510900Y-99658348D01*
X144473926Y-99690769D01*
X144467171Y-99694668D01*
X144439516Y-99706122D01*
X144407295Y-99728683D01*
X144398031Y-99734585D01*
X144364935Y-99753694D01*
X144340364Y-99782975D01*
X144332940Y-99791075D01*
X143441003Y-100683012D01*
X143432902Y-100690436D01*
X143403618Y-100715009D01*
X143384509Y-100748106D01*
X143378607Y-100757371D01*
X143356046Y-100789592D01*
X143345713Y-100814538D01*
X143338881Y-100853279D01*
X143336503Y-100864005D01*
X143326613Y-100900915D01*
X143329944Y-100938975D01*
X143330424Y-100949958D01*
X143330424Y-101223327D01*
X143320833Y-101271545D01*
X143293519Y-101312422D01*
X142692346Y-101913595D01*
X142651469Y-101940909D01*
X142603251Y-101950500D01*
X140485911Y-101950500D01*
X140430184Y-101937506D01*
X140385950Y-101901206D01*
X140370910Y-101881606D01*
X140361134Y-101868866D01*
X140249669Y-101783335D01*
X140234856Y-101771968D01*
X140087806Y-101711059D01*
X139930000Y-101690284D01*
X139772193Y-101711059D01*
X139625143Y-101771968D01*
X139498866Y-101868865D01*
X139498866Y-101868866D01*
X139474051Y-101901206D01*
X139458705Y-101921205D01*
X139414471Y-101957506D01*
X139358743Y-101970500D01*
X139023648Y-101970500D01*
X138975430Y-101960909D01*
X138934553Y-101933595D01*
X137500207Y-100499249D01*
X136065752Y-99064795D01*
X136035023Y-99014662D01*
X136030391Y-98956043D01*
X136052865Y-98901704D01*
X136097551Y-98863482D01*
X136154715Y-98849701D01*
X139589367Y-98846087D01*
X139652423Y-98862924D01*
X139698597Y-98909049D01*
X139715500Y-98972087D01*
X139715500Y-100191504D01*
X139705908Y-100239723D01*
X139649771Y-100375244D01*
X139638068Y-100464145D01*
X139630715Y-100520000D01*
X139632016Y-100529882D01*
X139649771Y-100664753D01*
X139705644Y-100799642D01*
X139726323Y-100826591D01*
X139794526Y-100915474D01*
X139910357Y-101004355D01*
X140045246Y-101060228D01*
X140190000Y-101079285D01*
X140334754Y-101060228D01*
X140469643Y-101004355D01*
X140585474Y-100915474D01*
X140674355Y-100799643D01*
X140730228Y-100664754D01*
X140749285Y-100520000D01*
X140730228Y-100375246D01*
X140674355Y-100240358D01*
X140650536Y-100209317D01*
X140631187Y-100173117D01*
X140624500Y-100132615D01*
X140624500Y-98970865D01*
X140641359Y-98907903D01*
X140687423Y-98861790D01*
X140750367Y-98844865D01*
X145505971Y-98839859D01*
X146633732Y-98838673D01*
X146682022Y-98848239D01*
G37*
%TD.AperFunction*%
%TA.AperFunction,Conductor*%
G36*
X154503621Y-103948673D02*
G01*
X152043792Y-101488844D01*
X152010663Y-101430364D01*
X152012313Y-101363173D01*
X152059166Y-101208718D01*
X152068742Y-101111491D01*
X152079526Y-101002000D01*
X152059166Y-100795282D01*
X151998869Y-100596508D01*
X151900951Y-100413317D01*
X151869707Y-100375246D01*
X151769176Y-100252747D01*
X151608606Y-100120972D01*
X151425418Y-100023056D01*
X151425417Y-100023055D01*
X151425416Y-100023055D01*
X151408844Y-100018028D01*
X151362347Y-99992187D01*
X151330655Y-99949456D01*
X151319424Y-99897455D01*
X151319424Y-98841715D01*
X151321010Y-98833740D01*
X154499510Y-98830395D01*
X154503621Y-103948673D01*
G37*
%TD.AperFunction*%
%TD*%
D48*
X116034099Y-112111772D02*
X116052969Y-116354114D01*
X116053012Y-116354114D02*
G75*
G03*
X116483456Y-116764113I410688J214D01*
G01*
X122643533Y-112108968D02*
G75*
G03*
X122213106Y-111698969I-410133J368D01*
G01*
X133166963Y-90296963D02*
X133169024Y-85632061D01*
X149514022Y-102110000D02*
X149514022Y-99850000D01*
X133983518Y-104398103D02*
X133983518Y-117967975D01*
X138475031Y-75704054D02*
G75*
G03*
X137833206Y-76074610I-320931J-185246D01*
G01*
X121850193Y-112910000D02*
G75*
G03*
X121419756Y-112500002I-410293J200D01*
G01*
X118920000Y-95070000D02*
X136210000Y-95070000D01*
X133580000Y-90710000D02*
X137060000Y-90710871D01*
X114049965Y-118009947D02*
X114031486Y-76477000D01*
X139031575Y-92830000D02*
G75*
G03*
X138428425Y-92830000I-301575J0D01*
G01*
X124690000Y-104455063D02*
X124690000Y-118024935D01*
X117263698Y-112493958D02*
X121419756Y-112500001D01*
X116810000Y-92960000D02*
X116810000Y-90660000D01*
X116843168Y-115784446D02*
G75*
G03*
X117273699Y-116194445I410532J46D01*
G01*
X128063037Y-70017000D02*
G75*
G03*
X127650000Y-70430000I-37J-413000D01*
G01*
X153640000Y-105505978D02*
X151100000Y-102965978D01*
X122240273Y-116774315D02*
X121440275Y-116774758D01*
X133983533Y-104398077D02*
G75*
G03*
X124690000Y-104455064I-4596133J-8285823D01*
G01*
X150395978Y-103310000D02*
X153115978Y-106030000D01*
X137060000Y-90710809D02*
G75*
G03*
X137060000Y-89969791I0J370509D01*
G01*
X139007938Y-85220975D02*
G75*
G03*
X139420975Y-84807938I-38J413075D01*
G01*
X117273699Y-116768755D02*
G75*
G03*
X117273699Y-116194445I1J287155D01*
G01*
X150560000Y-102425978D02*
X149830000Y-102425978D01*
X134332062Y-85960000D02*
X139817938Y-85960975D01*
X126898920Y-75336963D02*
G75*
G03*
X127640000Y-75336963I370540J0D01*
G01*
X134332062Y-89980000D02*
X137060000Y-89969791D01*
X140230000Y-78840000D02*
X138475001Y-75704071D01*
X133582061Y-85219024D02*
G75*
G03*
X133169024Y-85632061I39J-413076D01*
G01*
X133919025Y-89566963D02*
X133919025Y-86373037D01*
X116810000Y-90660000D02*
G75*
G03*
X116068920Y-90660000I-370540J0D01*
G01*
X126903000Y-70403037D02*
G75*
G03*
X126490000Y-69990000I-413000J37D01*
G01*
X149514022Y-99850000D02*
G75*
G03*
X148772942Y-99850000I-370540J0D01*
G01*
X139420975Y-84807938D02*
X139440000Y-78900000D01*
X168031605Y-76476965D02*
G75*
G03*
X161631486Y-70076895I-6400005J65D01*
G01*
X139440000Y-78900000D02*
X137833206Y-76074610D01*
X120431556Y-70076930D02*
X120597938Y-70076930D01*
X136170000Y-95760833D02*
G75*
G03*
X139031574Y-92830000I-23700J2885533D01*
G01*
X122240273Y-116774368D02*
G75*
G03*
X122650272Y-116343828I127J410368D01*
G01*
X126490000Y-69990000D02*
X122160000Y-69990000D01*
X127650000Y-70430000D02*
X127640000Y-75336963D01*
X116810000Y-92960000D02*
G75*
G03*
X118920000Y-95070000I2110000J0D01*
G01*
X168050035Y-118009912D02*
X168031556Y-76476965D01*
X133167000Y-90296963D02*
G75*
G03*
X133580000Y-90710000I413000J-37D01*
G01*
X122649754Y-116343828D02*
X122643593Y-112108968D01*
X118880000Y-95760871D02*
X136170000Y-95760871D01*
X122160000Y-69989963D02*
G75*
G03*
X121746963Y-70403037I0J-413037D01*
G01*
X140230975Y-85547938D02*
X140230000Y-78840000D01*
X150395978Y-103310000D02*
X149520000Y-103307058D01*
X120431556Y-70076886D02*
G75*
G03*
X114031486Y-76477000I44J-6400114D01*
G01*
X116483456Y-116764113D02*
X117273699Y-116768716D01*
X148772942Y-102560000D02*
X149520000Y-103307058D01*
X128063037Y-70016963D02*
X161631486Y-70076895D01*
X116843212Y-115784446D02*
X116853699Y-112924445D01*
X136210000Y-95070029D02*
G75*
G03*
X138428425Y-92830000I0J2218529D01*
G01*
X117263698Y-112494005D02*
G75*
G03*
X116853700Y-112924445I-198J-410295D01*
G01*
X121005883Y-76300000D02*
G75*
G03*
X121746963Y-76300000I370540J0D01*
G01*
X151100000Y-102965978D02*
X150560000Y-102425978D01*
X133919100Y-89566963D02*
G75*
G03*
X134332062Y-89980000I413000J-37D01*
G01*
X134332062Y-85960025D02*
G75*
G03*
X133919025Y-86373037I-62J-412975D01*
G01*
X120450035Y-124410017D02*
X161649965Y-124409982D01*
X121440275Y-116200442D02*
G75*
G03*
X121440275Y-116774758I25J-287158D01*
G01*
X139007938Y-85220975D02*
X133582061Y-85219024D01*
X149830000Y-102425978D02*
X149514022Y-102110000D01*
X122213106Y-111698969D02*
X116444098Y-111681285D01*
X116444098Y-111681308D02*
G75*
G03*
X116034099Y-112111772I-98J-410392D01*
G01*
X121849756Y-115770000D02*
X121850243Y-112910000D01*
X148772942Y-99850000D02*
X148772942Y-102560000D01*
X121010975Y-70489967D02*
X121005883Y-76300000D01*
X121010970Y-70489967D02*
G75*
G03*
X120597938Y-70076930I-413070J-33D01*
G01*
X126903037Y-70403037D02*
X126898920Y-75336963D01*
X124690024Y-118024892D02*
G75*
G03*
X133983518Y-117967974I4596176J8285692D01*
G01*
X116069129Y-92950000D02*
X116068920Y-90660000D01*
X116069129Y-92950000D02*
G75*
G03*
X118880000Y-95760871I2810871J0D01*
G01*
X114049983Y-118009947D02*
G75*
G03*
X120450035Y-124410017I6400217J147D01*
G01*
X139817938Y-85960975D02*
G75*
G03*
X140230975Y-85547938I-38J413075D01*
G01*
X161649965Y-124410035D02*
G75*
G03*
X168050035Y-118009912I-65J6400135D01*
G01*
X121440275Y-116200461D02*
G75*
G03*
X121850273Y-115770000I25J410461D01*
G01*
X153115978Y-106030000D02*
G75*
G03*
X153640000Y-105505978I262011J262011D01*
G01*
X121746963Y-70403037D02*
X121746963Y-76300000D01*
M02*
