%TF.GenerationSoftware,KiCad,Pcbnew,7.0.1*%
%TF.CreationDate,2023-04-03T11:39:16+02:00*%
%TF.ProjectId,smart_power_socket-54x54x1.6mm_3Cu,736d6172-745f-4706-9f77-65725f736f63,rev?*%
%TF.SameCoordinates,Original*%
%TF.FileFunction,Copper,L1,Top*%
%TF.FilePolarity,Positive*%
%FSLAX46Y46*%
G04 Gerber Fmt 4.6, Leading zero omitted, Abs format (unit mm)*
G04 Created by KiCad (PCBNEW 7.0.1) date 2023-04-03 11:39:16*
%MOMM*%
%LPD*%
G01*
G04 APERTURE LIST*
G04 Aperture macros list*
%AMRoundRect*
0 Rectangle with rounded corners*
0 $1 Rounding radius*
0 $2 $3 $4 $5 $6 $7 $8 $9 X,Y pos of 4 corners*
0 Add a 4 corners polygon primitive as box body*
4,1,4,$2,$3,$4,$5,$6,$7,$8,$9,$2,$3,0*
0 Add four circle primitives for the rounded corners*
1,1,$1+$1,$2,$3*
1,1,$1+$1,$4,$5*
1,1,$1+$1,$6,$7*
1,1,$1+$1,$8,$9*
0 Add four rect primitives between the rounded corners*
20,1,$1+$1,$2,$3,$4,$5,0*
20,1,$1+$1,$4,$5,$6,$7,0*
20,1,$1+$1,$6,$7,$8,$9,0*
20,1,$1+$1,$8,$9,$2,$3,0*%
%AMRotRect*
0 Rectangle, with rotation*
0 The origin of the aperture is its center*
0 $1 length*
0 $2 width*
0 $3 Rotation angle, in degrees counterclockwise*
0 Add horizontal line*
21,1,$1,$2,0,0,$3*%
G04 Aperture macros list end*
%TA.AperFunction,SMDPad,CuDef*%
%ADD10RoundRect,0.218750X0.218750X0.381250X-0.218750X0.381250X-0.218750X-0.381250X0.218750X-0.381250X0*%
%TD*%
%TA.AperFunction,SMDPad,CuDef*%
%ADD11RoundRect,0.200000X-0.200000X-0.275000X0.200000X-0.275000X0.200000X0.275000X-0.200000X0.275000X0*%
%TD*%
%TA.AperFunction,SMDPad,CuDef*%
%ADD12RoundRect,0.250000X-0.450000X0.262500X-0.450000X-0.262500X0.450000X-0.262500X0.450000X0.262500X0*%
%TD*%
%TA.AperFunction,SMDPad,CuDef*%
%ADD13RoundRect,0.225000X-0.250000X0.225000X-0.250000X-0.225000X0.250000X-0.225000X0.250000X0.225000X0*%
%TD*%
%TA.AperFunction,SMDPad,CuDef*%
%ADD14RoundRect,0.250000X1.075000X-0.375000X1.075000X0.375000X-1.075000X0.375000X-1.075000X-0.375000X0*%
%TD*%
%TA.AperFunction,SMDPad,CuDef*%
%ADD15RoundRect,0.250000X0.475000X-0.250000X0.475000X0.250000X-0.475000X0.250000X-0.475000X-0.250000X0*%
%TD*%
%TA.AperFunction,SMDPad,CuDef*%
%ADD16C,1.000000*%
%TD*%
%TA.AperFunction,SMDPad,CuDef*%
%ADD17RoundRect,0.200000X-0.275000X0.200000X-0.275000X-0.200000X0.275000X-0.200000X0.275000X0.200000X0*%
%TD*%
%TA.AperFunction,SMDPad,CuDef*%
%ADD18RoundRect,0.150000X-0.512500X-0.150000X0.512500X-0.150000X0.512500X0.150000X-0.512500X0.150000X0*%
%TD*%
%TA.AperFunction,SMDPad,CuDef*%
%ADD19RoundRect,0.225000X0.225000X0.250000X-0.225000X0.250000X-0.225000X-0.250000X0.225000X-0.250000X0*%
%TD*%
%TA.AperFunction,SMDPad,CuDef*%
%ADD20RoundRect,0.200000X0.275000X-0.200000X0.275000X0.200000X-0.275000X0.200000X-0.275000X-0.200000X0*%
%TD*%
%TA.AperFunction,SMDPad,CuDef*%
%ADD21RoundRect,0.250000X0.250000X0.475000X-0.250000X0.475000X-0.250000X-0.475000X0.250000X-0.475000X0*%
%TD*%
%TA.AperFunction,SMDPad,CuDef*%
%ADD22RoundRect,0.250001X0.462499X0.624999X-0.462499X0.624999X-0.462499X-0.624999X0.462499X-0.624999X0*%
%TD*%
%TA.AperFunction,SMDPad,CuDef*%
%ADD23RoundRect,0.250000X0.450000X-0.262500X0.450000X0.262500X-0.450000X0.262500X-0.450000X-0.262500X0*%
%TD*%
%TA.AperFunction,SMDPad,CuDef*%
%ADD24R,0.840000X0.420000*%
%TD*%
%TA.AperFunction,SMDPad,CuDef*%
%ADD25R,1.600000X2.500000*%
%TD*%
%TA.AperFunction,SMDPad,CuDef*%
%ADD26RoundRect,0.225000X-0.225000X-0.250000X0.225000X-0.250000X0.225000X0.250000X-0.225000X0.250000X0*%
%TD*%
%TA.AperFunction,SMDPad,CuDef*%
%ADD27RoundRect,0.225000X0.250000X-0.225000X0.250000X0.225000X-0.250000X0.225000X-0.250000X-0.225000X0*%
%TD*%
%TA.AperFunction,SMDPad,CuDef*%
%ADD28RoundRect,0.250001X-0.624999X0.462499X-0.624999X-0.462499X0.624999X-0.462499X0.624999X0.462499X0*%
%TD*%
%TA.AperFunction,SMDPad,CuDef*%
%ADD29RoundRect,0.150000X-0.825000X-0.150000X0.825000X-0.150000X0.825000X0.150000X-0.825000X0.150000X0*%
%TD*%
%TA.AperFunction,SMDPad,CuDef*%
%ADD30R,1.200000X1.400000*%
%TD*%
%TA.AperFunction,SMDPad,CuDef*%
%ADD31RoundRect,0.041300X-0.253700X0.948700X-0.253700X-0.948700X0.253700X-0.948700X0.253700X0.948700X0*%
%TD*%
%TA.AperFunction,SMDPad,CuDef*%
%ADD32RoundRect,0.050000X0.309359X-0.238649X-0.238649X0.309359X-0.309359X0.238649X0.238649X-0.309359X0*%
%TD*%
%TA.AperFunction,SMDPad,CuDef*%
%ADD33RoundRect,0.050000X0.309359X0.238649X0.238649X0.309359X-0.309359X-0.238649X-0.238649X-0.309359X0*%
%TD*%
%TA.AperFunction,SMDPad,CuDef*%
%ADD34RotRect,5.600000X5.600000X135.000000*%
%TD*%
%TA.AperFunction,SMDPad,CuDef*%
%ADD35RoundRect,0.250000X0.262500X0.450000X-0.262500X0.450000X-0.262500X-0.450000X0.262500X-0.450000X0*%
%TD*%
%TA.AperFunction,SMDPad,CuDef*%
%ADD36R,0.400000X21.500000*%
%TD*%
%TA.AperFunction,SMDPad,CuDef*%
%ADD37R,0.400000X25.400000*%
%TD*%
%TA.AperFunction,SMDPad,CuDef*%
%ADD38R,2.195000X2.195000*%
%TD*%
%TA.AperFunction,SMDPad,CuDef*%
%ADD39RoundRect,0.250000X0.375000X1.075000X-0.375000X1.075000X-0.375000X-1.075000X0.375000X-1.075000X0*%
%TD*%
%TA.AperFunction,SMDPad,CuDef*%
%ADD40R,14.000000X0.400000*%
%TD*%
%TA.AperFunction,SMDPad,CuDef*%
%ADD41R,5.700000X0.400000*%
%TD*%
%TA.AperFunction,SMDPad,CuDef*%
%ADD42RoundRect,0.250000X-0.250000X-0.475000X0.250000X-0.475000X0.250000X0.475000X-0.250000X0.475000X0*%
%TD*%
%TA.AperFunction,SMDPad,CuDef*%
%ADD43RoundRect,0.087500X-0.087500X0.225000X-0.087500X-0.225000X0.087500X-0.225000X0.087500X0.225000X0*%
%TD*%
%TA.AperFunction,SMDPad,CuDef*%
%ADD44RoundRect,0.087500X-0.225000X0.087500X-0.225000X-0.087500X0.225000X-0.087500X0.225000X0.087500X0*%
%TD*%
%TA.AperFunction,SMDPad,CuDef*%
%ADD45R,13.300000X0.400000*%
%TD*%
%TA.AperFunction,ComponentPad*%
%ADD46C,1.600000*%
%TD*%
%TA.AperFunction,ComponentPad*%
%ADD47C,3.000000*%
%TD*%
%TA.AperFunction,ComponentPad*%
%ADD48C,2.500000*%
%TD*%
%TA.AperFunction,ComponentPad*%
%ADD49C,2.010000*%
%TD*%
%TA.AperFunction,ComponentPad*%
%ADD50R,2.743200X2.743200*%
%TD*%
%TA.AperFunction,ComponentPad*%
%ADD51C,2.743200*%
%TD*%
%TA.AperFunction,ComponentPad*%
%ADD52R,2.000000X2.000000*%
%TD*%
%TA.AperFunction,ComponentPad*%
%ADD53C,2.000000*%
%TD*%
%TA.AperFunction,ComponentPad*%
%ADD54R,2.300000X2.000000*%
%TD*%
%TA.AperFunction,ComponentPad*%
%ADD55C,2.300000*%
%TD*%
%TA.AperFunction,ComponentPad*%
%ADD56R,2.100000X2.100000*%
%TD*%
%TA.AperFunction,ComponentPad*%
%ADD57C,2.100000*%
%TD*%
%TA.AperFunction,ViaPad*%
%ADD58C,0.700000*%
%TD*%
%TA.AperFunction,ViaPad*%
%ADD59C,0.600000*%
%TD*%
%TA.AperFunction,ViaPad*%
%ADD60C,0.800000*%
%TD*%
%TA.AperFunction,Conductor*%
%ADD61C,0.200000*%
%TD*%
%TA.AperFunction,Conductor*%
%ADD62C,0.300000*%
%TD*%
%TA.AperFunction,Conductor*%
%ADD63C,0.150000*%
%TD*%
%TA.AperFunction,Conductor*%
%ADD64C,0.510000*%
%TD*%
%TA.AperFunction,Conductor*%
%ADD65C,0.250000*%
%TD*%
%TA.AperFunction,Conductor*%
%ADD66C,0.400000*%
%TD*%
%TA.AperFunction,Conductor*%
%ADD67C,0.180000*%
%TD*%
%TA.AperFunction,Conductor*%
%ADD68C,0.320000*%
%TD*%
%TA.AperFunction,Conductor*%
%ADD69C,2.000000*%
%TD*%
%TA.AperFunction,Conductor*%
%ADD70C,1.000000*%
%TD*%
%TA.AperFunction,Conductor*%
%ADD71C,2.500000*%
%TD*%
%TA.AperFunction,Profile*%
%ADD72C,0.100000*%
%TD*%
G04 APERTURE END LIST*
D10*
%TO.P,L1,1,1*%
%TO.N,3V3*%
X151640000Y-121300000D03*
%TO.P,L1,2,2*%
%TO.N,Net-(EC10-Pad1)*%
X149515000Y-121300000D03*
%TD*%
D11*
%TO.P,ER2,1*%
%TO.N,TXD0*%
X138574924Y-118422000D03*
%TO.P,ER2,2*%
%TO.N,Net-(ESP32S1-U0TXD{slash}PROG{slash}GPIO43)*%
X140224924Y-118422000D03*
%TD*%
D12*
%TO.P,AR1,1*%
%TO.N,Net-(AU1-FB)*%
X117849924Y-97509500D03*
%TO.P,AR1,2*%
%TO.N,GND*%
X117849924Y-99334500D03*
%TD*%
D13*
%TO.P,EC15,1*%
%TO.N,Net-(ESP32S1-XTAL_P)*%
X142670000Y-120765000D03*
%TO.P,EC15,2*%
%TO.N,GND*%
X142670000Y-122315000D03*
%TD*%
D14*
%TO.P,AL1,1,1*%
%TO.N,3V3*%
X116259924Y-107830000D03*
%TO.P,AL1,2,2*%
%TO.N,Net-(AU1-SW)*%
X116259924Y-105030000D03*
%TD*%
D15*
%TO.P,AC1,1*%
%TO.N,3V3*%
X119320000Y-107650000D03*
%TO.P,AC1,2*%
%TO.N,GND*%
X119320000Y-105750000D03*
%TD*%
D16*
%TO.P,TP3,1,1*%
%TO.N,5V0*%
X121710000Y-103190000D03*
%TD*%
D17*
%TO.P,ER5,1*%
%TO.N,GND*%
X141629924Y-74172000D03*
%TO.P,ER5,2*%
%TO.N,ACS_HALL_IO36*%
X141629924Y-75822000D03*
%TD*%
D18*
%TO.P,RQ1,1,E*%
%TO.N,Net-(RQ1-E)*%
X115952500Y-77850000D03*
%TO.P,RQ1,2,B*%
%TO.N,3V3*%
X115952500Y-79750000D03*
%TO.P,RQ1,3,C*%
%TO.N,Net-(HLD3-K)*%
X118227500Y-78800000D03*
%TD*%
D19*
%TO.P,EC19,1*%
%TO.N,GND*%
X143214924Y-85547000D03*
%TO.P,EC19,2*%
%TO.N,Net-(ACS1-FILTER)*%
X141664924Y-85547000D03*
%TD*%
%TO.P,ATH20_C1,1*%
%TO.N,GND*%
X120120000Y-114650000D03*
%TO.P,ATH20_C1,2*%
%TO.N,3V3*%
X118570000Y-114650000D03*
%TD*%
D20*
%TO.P,ER1,1*%
%TO.N,3V3*%
X152529924Y-119337000D03*
%TO.P,ER1,2*%
%TO.N,CHIP_EN*%
X152529924Y-117687000D03*
%TD*%
D21*
%TO.P,EC3,1*%
%TO.N,3V3*%
X153199924Y-111902000D03*
%TO.P,EC3,2*%
%TO.N,GND*%
X151299924Y-111902000D03*
%TD*%
D20*
%TO.P,ER4,1*%
%TO.N,Net-(ACS1-VIOUT)*%
X141599924Y-78672000D03*
%TO.P,ER4,2*%
%TO.N,ACS_HALL_IO36*%
X141599924Y-77022000D03*
%TD*%
D19*
%TO.P,IMUC1,1*%
%TO.N,GND*%
X143654924Y-103812000D03*
%TO.P,IMUC1,2*%
%TO.N,3V3*%
X142104924Y-103812000D03*
%TD*%
D22*
%TO.P,HLD1,1,K*%
%TO.N,5V0*%
X151617424Y-82492000D03*
%TO.P,HLD1,2,A*%
%TO.N,PROBE_5V0*%
X148642424Y-82492000D03*
%TD*%
D23*
%TO.P,AR2,1*%
%TO.N,3V3*%
X115670000Y-99272500D03*
%TO.P,AR2,2*%
%TO.N,Net-(AU1-FB)*%
X115670000Y-97447500D03*
%TD*%
D24*
%TO.P,AU1,1,FB*%
%TO.N,Net-(AU1-FB)*%
X115734924Y-101192000D03*
%TO.P,AU1,2,GND*%
%TO.N,GND*%
X115734924Y-102142000D03*
%TO.P,AU1,3,SW*%
%TO.N,Net-(AU1-SW)*%
X115734924Y-103092000D03*
%TO.P,AU1,4,VIN_SW*%
%TO.N,5V0*%
X118604924Y-103092000D03*
%TO.P,AU1,5,VIN_A*%
X118604924Y-102142000D03*
%TO.P,AU1,6,EN*%
X118604924Y-101192000D03*
D25*
%TO.P,AU1,7*%
%TO.N,N/C*%
X117169924Y-102142000D03*
%TD*%
D26*
%TO.P,EC10,1*%
%TO.N,Net-(EC10-Pad1)*%
X149995000Y-122810000D03*
%TO.P,EC10,2*%
%TO.N,GND*%
X151545000Y-122810000D03*
%TD*%
D27*
%TO.P,EC1,1*%
%TO.N,GND*%
X151159924Y-119277000D03*
%TO.P,EC1,2*%
%TO.N,CHIP_EN*%
X151159924Y-117727000D03*
%TD*%
%TO.P,AUC1,1*%
%TO.N,GND*%
X140689924Y-105547000D03*
%TO.P,AUC1,2*%
%TO.N,3V3*%
X140689924Y-103997000D03*
%TD*%
D28*
%TO.P,PWR_FUSE1,1*%
%TO.N,USB_5V0*%
X156370000Y-83650000D03*
%TO.P,PWR_FUSE1,2*%
%TO.N,USB_5V0F*%
X156370000Y-86625000D03*
%TD*%
D29*
%TO.P,ACS1,1,IP+*%
%TO.N,LINE_IN*%
X137604924Y-80132000D03*
%TO.P,ACS1,2,IP+*%
X137604924Y-81402000D03*
%TO.P,ACS1,3,IP-*%
%TO.N,Net-(ACS1-IP--Pad3)*%
X137604924Y-82672000D03*
%TO.P,ACS1,4,IP-*%
X137604924Y-83942000D03*
%TO.P,ACS1,5,GND*%
%TO.N,GND*%
X142554924Y-83942000D03*
%TO.P,ACS1,6,FILTER*%
%TO.N,Net-(ACS1-FILTER)*%
X142554924Y-82672000D03*
%TO.P,ACS1,7,VIOUT*%
%TO.N,Net-(ACS1-VIOUT)*%
X142554924Y-81402000D03*
%TO.P,ACS1,8,VCC*%
%TO.N,5V0*%
X142554924Y-80132000D03*
%TD*%
D30*
%TO.P,ECY1,1,1*%
%TO.N,Net-(ESP32S1-GPIO16{slash}ADC2_CH5{slash}XTAL_32K_N)*%
X146089924Y-102062000D03*
%TO.P,ECY1,2,2*%
%TO.N,GND*%
X146089924Y-104262000D03*
%TO.P,ECY1,3,3*%
%TO.N,Net-(ESP32S1-GPIO15{slash}ADC2_CH4{slash}XTAL_32K_P)*%
X147789924Y-104262000D03*
%TO.P,ECY1,4,4*%
%TO.N,GND*%
X147789924Y-102062000D03*
%TD*%
D15*
%TO.P,EC4,1*%
%TO.N,GND*%
X144210000Y-121800000D03*
%TO.P,EC4,2*%
%TO.N,3V3*%
X144210000Y-119900000D03*
%TD*%
%TO.P,HLC1,1*%
%TO.N,PROBE_5V0*%
X146189924Y-83532000D03*
%TO.P,HLC1,2*%
%TO.N,GND3*%
X146189924Y-81632000D03*
%TD*%
D30*
%TO.P,ECY2,1,1*%
%TO.N,Net-(ESP32S1-XTAL_P)*%
X140759924Y-122512000D03*
%TO.P,ECY2,2,2*%
%TO.N,GND*%
X140759924Y-120312000D03*
%TO.P,ECY2,3,3*%
%TO.N,Net-(ESP32S1-XTAL_N)*%
X139059924Y-120312000D03*
%TO.P,ECY2,4,4*%
%TO.N,GND*%
X139059924Y-122512000D03*
%TD*%
D11*
%TO.P,RR1,1*%
%TO.N,RELAY_EN_IO37*%
X116395000Y-80990000D03*
%TO.P,RR1,2*%
%TO.N,Net-(RQ1-E)*%
X118045000Y-80990000D03*
%TD*%
D16*
%TO.P,TP2,1,1*%
%TO.N,GND*%
X121790000Y-105970000D03*
%TD*%
D13*
%TO.P,EC18,1*%
%TO.N,GND*%
X143039924Y-76582000D03*
%TO.P,EC18,2*%
%TO.N,5V0*%
X143039924Y-78132000D03*
%TD*%
D22*
%TO.P,HLD3,1,K*%
%TO.N,Net-(HLD3-K)*%
X118145000Y-76180000D03*
%TO.P,HLD3,2,A*%
%TO.N,GND*%
X115170000Y-76180000D03*
%TD*%
D31*
%TO.P,U1,1*%
%TO.N,N/C*%
X139284924Y-100719500D03*
%TO.P,U1,2*%
X138014924Y-100719500D03*
%TO.P,U1,3*%
X136744924Y-100719500D03*
%TO.P,U1,4,GND*%
%TO.N,GND*%
X135474924Y-100719500D03*
%TO.P,U1,5,SDA*%
%TO.N,GPIO8_I2C_SDA*%
X135474924Y-105659500D03*
%TO.P,U1,6,SCL*%
%TO.N,GPIO9_I2C_SCL*%
X136744924Y-105659500D03*
%TO.P,U1,7*%
%TO.N,N/C*%
X138014924Y-105659500D03*
%TO.P,U1,8,VCC*%
%TO.N,3V3*%
X139284924Y-105659500D03*
%TD*%
D19*
%TO.P,EC17,1*%
%TO.N,Net-(ESP32S1-XTAL_N)*%
X137200000Y-120480000D03*
%TO.P,EC17,2*%
%TO.N,GND*%
X135650000Y-120480000D03*
%TD*%
D32*
%TO.P,ESP32S1,1,LNA_IN/RF*%
%TO.N,ESP_LNA_RF*%
X145687126Y-118216208D03*
%TO.P,ESP32S1,2,VDD3P3*%
%TO.N,Net-(EC10-Pad1)*%
X145969969Y-117933365D03*
%TO.P,ESP32S1,3,VDD3P3*%
X146252811Y-117650523D03*
%TO.P,ESP32S1,4,CHIP_PU/RESET*%
%TO.N,CHIP_EN*%
X146535654Y-117367680D03*
%TO.P,ESP32S1,5,GPIO0/BOOT*%
%TO.N,ESP_GPIO0_BOOT-DTR*%
X146818497Y-117084837D03*
%TO.P,ESP32S1,6,GPIO1/ADC1_CH0*%
%TO.N,DS_TEMP_IO01*%
X147101339Y-116801995D03*
%TO.P,ESP32S1,7,GPIO2/ADC1_CH1*%
%TO.N,unconnected-(ESP32S1-GPIO2{slash}ADC1_CH1-Pad7)*%
X147384182Y-116519152D03*
%TO.P,ESP32S1,8,GPIO3/ADC1_CH2*%
%TO.N,GND*%
X147667025Y-116236309D03*
%TO.P,ESP32S1,9,GPIO4/ADC1_CH3*%
%TO.N,unconnected-(ESP32S1-GPIO4{slash}ADC1_CH3-Pad9)*%
X147949868Y-115953466D03*
%TO.P,ESP32S1,10,GPIO5/ADC1_CH4*%
%TO.N,unconnected-(ESP32S1-GPIO5{slash}ADC1_CH4-Pad10)*%
X148232710Y-115670624D03*
%TO.P,ESP32S1,11,GPIO6/ADC1_CH5*%
%TO.N,IMU_CS_IO06*%
X148515553Y-115387781D03*
%TO.P,ESP32S1,12,GPIO7/ADC1_CH6*%
%TO.N,BUZZER_IO07*%
X148798396Y-115104938D03*
%TO.P,ESP32S1,13,GPIO8/ADC1_CH7*%
%TO.N,GPIO8_I2C_SDA*%
X149081238Y-114822096D03*
%TO.P,ESP32S1,14,GPIO9/ADC1_CH8*%
%TO.N,GPIO9_I2C_SCL*%
X149364081Y-114539253D03*
D33*
%TO.P,ESP32S1,15,GPIO10/ADC1_CH9*%
%TO.N,ACS_HALL_IO36*%
X149364081Y-113354849D03*
%TO.P,ESP32S1,16,GPIO11/ADC2_CH0*%
%TO.N,RELAY_EN_IO37*%
X149081238Y-113072006D03*
%TO.P,ESP32S1,17,GPIO12/ADC2_CH1*%
%TO.N,LED_B_IO34*%
X148798396Y-112789164D03*
%TO.P,ESP32S1,18,GPIO13/ADC2_CH2*%
%TO.N,LED_R_IO35*%
X148515553Y-112506321D03*
%TO.P,ESP32S1,19,GPIO14/ADC2_CH3*%
%TO.N,LED_G_IO38*%
X148232710Y-112223478D03*
%TO.P,ESP32S1,20,VDD3P3_RTC*%
%TO.N,3V3*%
X147949868Y-111940636D03*
%TO.P,ESP32S1,21,GPIO15/ADC2_CH4/XTAL_32K_P*%
%TO.N,Net-(ESP32S1-GPIO15{slash}ADC2_CH4{slash}XTAL_32K_P)*%
X147667025Y-111657793D03*
%TO.P,ESP32S1,22,GPIO16/ADC2_CH5/XTAL_32K_N*%
%TO.N,Net-(ESP32S1-GPIO16{slash}ADC2_CH5{slash}XTAL_32K_N)*%
X147384182Y-111374950D03*
%TO.P,ESP32S1,23,GPIO17/ADC2_CH6/DAC_2*%
%TO.N,unconnected-(ESP32S1-GPIO17{slash}ADC2_CH6{slash}DAC_2-Pad23)*%
X147101339Y-111092107D03*
%TO.P,ESP32S1,24,GPIO18/ADC2_CH7/DAC_1*%
%TO.N,unconnected-(ESP32S1-GPIO18{slash}ADC2_CH7{slash}DAC_1-Pad24)*%
X146818497Y-110809265D03*
%TO.P,ESP32S1,25,GPIO19/USB_D-/ADC2_CH8*%
%TO.N,unconnected-(ESP32S1-GPIO19{slash}USB_D-{slash}ADC2_CH8-Pad25)*%
X146535654Y-110526422D03*
%TO.P,ESP32S1,26,GPIO20/USB_D+/ADC2_CH9*%
%TO.N,unconnected-(ESP32S1-GPIO20{slash}USB_D+{slash}ADC2_CH9-Pad26)*%
X146252811Y-110243579D03*
%TO.P,ESP32S1,27,GPIO21*%
%TO.N,unconnected-(ESP32S1-GPIO21-Pad27)*%
X145969969Y-109960737D03*
%TO.P,ESP32S1,28,SPI_CS1/GPIO26*%
%TO.N,SPICS1*%
X145687126Y-109677894D03*
D32*
%TO.P,ESP32S1,29,VDD_SPI*%
%TO.N,VDD_SPI*%
X144502722Y-109677894D03*
%TO.P,ESP32S1,30,SPIHD/GPIO27*%
%TO.N,SPIHD*%
X144219879Y-109960737D03*
%TO.P,ESP32S1,31,SPIWP/GPIO28*%
%TO.N,SPIWP*%
X143937037Y-110243579D03*
%TO.P,ESP32S1,32,SPICS0/GPIO29*%
%TO.N,SPICS0*%
X143654194Y-110526422D03*
%TO.P,ESP32S1,33,SPICLK/GPIO30*%
%TO.N,SPICLK*%
X143371351Y-110809265D03*
%TO.P,ESP32S1,34,SPIQ/GPIO31*%
%TO.N,SPIQ*%
X143088509Y-111092107D03*
%TO.P,ESP32S1,35,SPID/GPIO32*%
%TO.N,SPID*%
X142805666Y-111374950D03*
%TO.P,ESP32S1,36,SPICLK_N/GPIO48*%
%TO.N,unconnected-(ESP32S1-SPICLK_N{slash}GPIO48-Pad36)*%
X142522823Y-111657793D03*
%TO.P,ESP32S1,37,SPICLK_P/GPIO47*%
%TO.N,unconnected-(ESP32S1-SPICLK_P{slash}GPIO47-Pad37)*%
X142239980Y-111940636D03*
%TO.P,ESP32S1,38,GPIO33*%
%TO.N,unconnected-(ESP32S1-GPIO33-Pad38)*%
X141957138Y-112223478D03*
%TO.P,ESP32S1,39,GPIO34*%
%TO.N,unconnected-(ESP32S1-GPIO34-Pad39)*%
X141674295Y-112506321D03*
%TO.P,ESP32S1,40,GPIO35*%
%TO.N,unconnected-(ESP32S1-GPIO35-Pad40)*%
X141391452Y-112789164D03*
%TO.P,ESP32S1,41,GPIO36*%
%TO.N,unconnected-(ESP32S1-GPIO36-Pad41)*%
X141108610Y-113072006D03*
%TO.P,ESP32S1,42,GPIO37*%
%TO.N,unconnected-(ESP32S1-GPIO37-Pad42)*%
X140825767Y-113354849D03*
D33*
%TO.P,ESP32S1,43,GPIO38*%
%TO.N,unconnected-(ESP32S1-GPIO38-Pad43)*%
X140825767Y-114539253D03*
%TO.P,ESP32S1,44,MTCK/JTAG/GPIO39*%
%TO.N,unconnected-(ESP32S1-MTCK{slash}JTAG{slash}GPIO39-Pad44)*%
X141108610Y-114822096D03*
%TO.P,ESP32S1,45,MTDO/JTAG/GPIO40*%
%TO.N,unconnected-(ESP32S1-MTDO{slash}JTAG{slash}GPIO40-Pad45)*%
X141391452Y-115104938D03*
%TO.P,ESP32S1,46,VDD3P3_CPU*%
%TO.N,3V3*%
X141674295Y-115387781D03*
%TO.P,ESP32S1,47,MTDI/JTAG/GPIO41*%
%TO.N,unconnected-(ESP32S1-MTDI{slash}JTAG{slash}GPIO41-Pad47)*%
X141957138Y-115670624D03*
%TO.P,ESP32S1,48,MTMS/JTAG/GPIO42*%
%TO.N,unconnected-(ESP32S1-MTMS{slash}JTAG{slash}GPIO42-Pad48)*%
X142239980Y-115953466D03*
%TO.P,ESP32S1,49,U0TXD/PROG/GPIO43*%
%TO.N,Net-(ESP32S1-U0TXD{slash}PROG{slash}GPIO43)*%
X142522823Y-116236309D03*
%TO.P,ESP32S1,50,U0RXD/PROG/GPIO44*%
%TO.N,RXD0*%
X142805666Y-116519152D03*
%TO.P,ESP32S1,51,GPIO45*%
%TO.N,GND*%
X143088509Y-116801995D03*
%TO.P,ESP32S1,52,GPIO46*%
%TO.N,ESP_GPIO0_BOOT-DTR*%
X143371351Y-117084837D03*
%TO.P,ESP32S1,53,XTAL_N*%
%TO.N,Net-(ESP32S1-XTAL_N)*%
X143654194Y-117367680D03*
%TO.P,ESP32S1,54,XTAL_P*%
%TO.N,Net-(ESP32S1-XTAL_P)*%
X143937037Y-117650523D03*
%TO.P,ESP32S1,55,VDDA*%
%TO.N,3V3*%
X144219879Y-117933365D03*
%TO.P,ESP32S1,56,VDDA*%
X144502722Y-118216208D03*
D34*
%TO.P,ESP32S1,57,GND*%
%TO.N,GND*%
X145094924Y-113947051D03*
%TD*%
D11*
%TO.P,ER3,1*%
%TO.N,3V3*%
X135570000Y-119000000D03*
%TO.P,ER3,2*%
%TO.N,ESP_GPIO0_BOOT-DTR*%
X137220000Y-119000000D03*
%TD*%
D35*
%TO.P,DS1,1*%
%TO.N,3V3*%
X157422424Y-111422000D03*
%TO.P,DS1,2*%
%TO.N,DS_TEMP_IO01*%
X155597424Y-111422000D03*
%TD*%
D19*
%TO.P,EC11,1*%
%TO.N,3V3*%
X140210000Y-116930000D03*
%TO.P,EC11,2*%
%TO.N,GND*%
X138660000Y-116930000D03*
%TD*%
D13*
%TO.P,EC7,1*%
%TO.N,3V3*%
X153010000Y-121347000D03*
%TO.P,EC7,2*%
%TO.N,GND*%
X153010000Y-122897000D03*
%TD*%
D15*
%TO.P,AC2,1*%
%TO.N,5V0*%
X122369924Y-100372000D03*
%TO.P,AC2,2*%
%TO.N,GND*%
X122369924Y-98472000D03*
%TD*%
D36*
%TO.P,,1*%
%TO.N,GND*%
X154280000Y-113210000D03*
%TD*%
D37*
%TO.P,,1*%
%TO.N,GND*%
X134245000Y-111505000D03*
%TD*%
D15*
%TO.P,EC2,1*%
%TO.N,GND*%
X146030000Y-122890000D03*
%TO.P,EC2,2*%
%TO.N,3V3*%
X146030000Y-120990000D03*
%TD*%
D38*
%TO.P,BZ1,1,-*%
%TO.N,BUZZER_IO07*%
X157574924Y-79547000D03*
%TO.P,BZ1,2,+*%
%TO.N,GND*%
X157574924Y-72147000D03*
%TO.P,BZ1,3*%
%TO.N,N/C*%
X150174924Y-72147000D03*
%TD*%
D11*
%TO.P,IMR2,1*%
%TO.N,3V3*%
X142080000Y-105362000D03*
%TO.P,IMR2,2*%
%TO.N,GPIO9_I2C_SCL*%
X143730000Y-105362000D03*
%TD*%
%TO.P,IMR1,1*%
%TO.N,3V3*%
X142124924Y-106982000D03*
%TO.P,IMR1,2*%
%TO.N,GPIO8_I2C_SDA*%
X143774924Y-106982000D03*
%TD*%
D19*
%TO.P,EC13,1*%
%TO.N,VDD_SPI*%
X146584924Y-107422000D03*
%TO.P,EC13,2*%
%TO.N,GND*%
X145034924Y-107422000D03*
%TD*%
D39*
%TO.P,HLL1,1,1*%
%TO.N,PROBE_5V0*%
X147859924Y-85792000D03*
%TO.P,HLL1,2,2*%
%TO.N,Net-(HiLink1-DC+)*%
X145059924Y-85792000D03*
%TD*%
D26*
%TO.P,EC12,1*%
%TO.N,Net-(ESP32S1-GPIO16{slash}ADC2_CH5{slash}XTAL_32K_N)*%
X146164924Y-100392000D03*
%TO.P,EC12,2*%
%TO.N,GND*%
X147714924Y-100392000D03*
%TD*%
D35*
%TO.P,HLR2,1*%
%TO.N,GND3*%
X146432424Y-79482000D03*
%TO.P,HLR2,2*%
%TO.N,GND*%
X144607424Y-79482000D03*
%TD*%
D40*
%TO.P,REF\u002A\u002A,1*%
%TO.N,GND*%
X141050000Y-98980000D03*
%TD*%
D16*
%TO.P,TP1,1,1*%
%TO.N,3V3*%
X121780000Y-109170000D03*
%TD*%
D41*
%TO.P,,1*%
%TO.N,GND*%
X151615000Y-123965000D03*
%TD*%
D19*
%TO.P,EC14,1*%
%TO.N,Net-(ESP32S1-GPIO15{slash}ADC2_CH4{slash}XTAL_32K_P)*%
X147604924Y-105962000D03*
%TO.P,EC14,2*%
%TO.N,GND*%
X146054924Y-105962000D03*
%TD*%
D42*
%TO.P,EC16,1*%
%TO.N,VDD_SPI*%
X149589924Y-107422000D03*
%TO.P,EC16,2*%
%TO.N,GND*%
X151489924Y-107422000D03*
%TD*%
D43*
%TO.P,U3,1,SDO/SA0*%
%TO.N,unconnected-(U3-SDO{slash}SA0-Pad1)*%
X143679924Y-99959500D03*
%TO.P,U3,2,SDX*%
%TO.N,unconnected-(U3-SDX-Pad2)*%
X143179924Y-99959500D03*
%TO.P,U3,3,SCX*%
%TO.N,unconnected-(U3-SCX-Pad3)*%
X142679924Y-99959500D03*
%TO.P,U3,4,INT1*%
%TO.N,unconnected-(U3-INT1-Pad4)*%
X142179924Y-99959500D03*
D44*
%TO.P,U3,5,VDDIO*%
%TO.N,3V3*%
X142017424Y-100622000D03*
%TO.P,U3,6,GND*%
%TO.N,GND*%
X142017424Y-101122000D03*
%TO.P,U3,7,GND*%
X142017424Y-101622000D03*
D43*
%TO.P,U3,8,VDD*%
%TO.N,3V3*%
X142179924Y-102284500D03*
%TO.P,U3,9,INT2*%
%TO.N,unconnected-(U3-INT2-Pad9)*%
X142679924Y-102284500D03*
%TO.P,U3,10,NC*%
%TO.N,unconnected-(U3-NC-Pad10)*%
X143179924Y-102284500D03*
%TO.P,U3,11,NC*%
%TO.N,unconnected-(U3-NC-Pad11)*%
X143679924Y-102284500D03*
D44*
%TO.P,U3,12,CS*%
%TO.N,IMU_CS_IO06*%
X143842424Y-101622000D03*
%TO.P,U3,13,SCL*%
%TO.N,GPIO9_I2C_SCL*%
X143842424Y-101122000D03*
%TO.P,U3,14,SDA*%
%TO.N,GPIO8_I2C_SDA*%
X143842424Y-100622000D03*
%TD*%
D45*
%TO.P,REF\u002A\u002A,1*%
%TO.N,GND*%
X140715152Y-124004949D03*
%TD*%
D26*
%TO.P,EC8,1*%
%TO.N,3V3*%
X149794924Y-109102000D03*
%TO.P,EC8,2*%
%TO.N,GND*%
X151344924Y-109102000D03*
%TD*%
D21*
%TO.P,EC5,1*%
%TO.N,3V3*%
X153159924Y-113772000D03*
%TO.P,EC5,2*%
%TO.N,GND*%
X151259924Y-113772000D03*
%TD*%
D46*
%TO.P,HLV1,1*%
%TO.N,Net-(HLC2-Pad1)*%
X151019924Y-101002000D03*
%TO.P,HLV1,2*%
%TO.N,LINE_IN*%
X156019924Y-99702000D03*
%TD*%
D47*
%TO.P,Relay1,1*%
%TO.N,Net-(ACS1-IP--Pad3)*%
X124194924Y-71607000D03*
D48*
%TO.P,Relay1,2*%
%TO.N,GND*%
X130244924Y-73557000D03*
D47*
%TO.P,Relay1,3*%
%TO.N,LINE_OUT*%
X130244924Y-85757000D03*
%TO.P,Relay1,4*%
%TO.N,unconnected-(Relay1-Pad4)*%
X118194924Y-85807000D03*
D48*
%TO.P,Relay1,5*%
%TO.N,Net-(HLD3-K)*%
X118244924Y-73557000D03*
%TD*%
D49*
%TO.P,PF1,1*%
%TO.N,Net-(HLC2-Pad1)*%
X151579924Y-96952000D03*
%TO.P,PF1,2*%
%TO.N,/AC_220_IN*%
X150379924Y-91852000D03*
%TD*%
D50*
%TO.P,J3,01,01*%
%TO.N,/AC_220_IN*%
X143677924Y-92956000D03*
D51*
%TO.P,J3,02,02*%
%TO.N,LINE_IN*%
X135422924Y-92956000D03*
%TO.P,J3,03,03*%
%TO.N,LINE_OUT*%
X127167924Y-92956000D03*
%TO.P,J3,04,04*%
%TO.N,LINE_IN*%
X118912924Y-92956000D03*
%TD*%
D52*
%TO.P,HLL2,1,1*%
%TO.N,Net-(HiLink1-AC_N)*%
X166205549Y-101650750D03*
D53*
%TO.P,HLL2,2,2*%
%TO.N,Net-(HLC2-Pad1)*%
X159138049Y-101578250D03*
%TO.P,HLL2,3,3*%
%TO.N,Net-(HiLink1-AC_L)*%
X166135549Y-93522750D03*
%TO.P,HLL2,4,4*%
%TO.N,LINE_IN*%
X159088049Y-93445250D03*
%TD*%
D54*
%TO.P,HiLink1,1,AC_N*%
%TO.N,Net-(HiLink1-AC_N)*%
X165422424Y-77622000D03*
D55*
%TO.P,HiLink1,2,AC_L*%
%TO.N,Net-(HiLink1-AC_L)*%
X165422424Y-82622000D03*
%TO.P,HiLink1,3,DC-*%
%TO.N,GND3*%
X136022424Y-72422000D03*
%TO.P,HiLink1,4,DC+*%
%TO.N,Net-(HiLink1-DC+)*%
X136022424Y-87822000D03*
%TD*%
D56*
%TO.P,TEMPDS1,1,Pin_1*%
%TO.N,3V3*%
X156040000Y-120890000D03*
D57*
%TO.P,TEMPDS1,2,Pin_2*%
%TO.N,DS_TEMP_IO01*%
X156040000Y-118350000D03*
%TO.P,TEMPDS1,3,Pin_3*%
%TO.N,GND*%
X156040000Y-115810000D03*
%TD*%
D53*
%TO.P,HLC2,1*%
%TO.N,Net-(HLC2-Pad1)*%
X156390000Y-107740000D03*
%TO.P,HLC2,2*%
%TO.N,LINE_IN*%
X166390000Y-107740000D03*
%TD*%
D58*
%TO.N,3V3*%
X117830000Y-107680000D03*
D59*
X116840000Y-117665500D03*
X140938924Y-116158924D03*
D58*
X153135152Y-120314949D03*
X118930000Y-116300000D03*
D59*
X135620000Y-118014500D03*
D60*
X157399924Y-110152000D03*
X165000000Y-117090000D03*
D59*
X148670477Y-110897313D03*
D58*
X118210000Y-109890000D03*
X153429924Y-110617924D03*
D59*
X140190000Y-100520000D03*
X144915000Y-118715000D03*
D60*
%TO.N,GND*%
X165200000Y-119560000D03*
X147055152Y-113634949D03*
X146005152Y-112654949D03*
X145785152Y-114994949D03*
X155709924Y-82052000D03*
X144788924Y-113868924D03*
X133430000Y-98539500D03*
D59*
X151701933Y-120135449D03*
D60*
X118929924Y-100132000D03*
X143585152Y-112714949D03*
D59*
X114720000Y-95450000D03*
D60*
X148009924Y-77522000D03*
X153350000Y-99220000D03*
X143425000Y-115185000D03*
D58*
X120240000Y-118550000D03*
D60*
X117169924Y-102142000D03*
X144435152Y-116234949D03*
D59*
X154000000Y-122022000D03*
X141210000Y-119634500D03*
D60*
X144544924Y-77452000D03*
X128081944Y-99011944D03*
D59*
X141120000Y-99900000D03*
D60*
X144945152Y-111754949D03*
D59*
X142938924Y-101138924D03*
X162090000Y-122400000D03*
D60*
%TO.N,5V0*%
X153729924Y-86682000D03*
X153179924Y-83642000D03*
X120690000Y-99820000D03*
X142924924Y-79202000D03*
D59*
%TO.N,RXD0*%
X141190424Y-118450000D03*
%TO.N,TXD0*%
X139069924Y-119002000D03*
%TO.N,CHIP_EN*%
X150677708Y-120422292D03*
X165590000Y-113180000D03*
X165460000Y-121270000D03*
%TO.N,Net-(ESP32S1-GPIO16{slash}ADC2_CH5{slash}XTAL_32K_N)*%
X148435378Y-107730500D03*
X148034500Y-109282100D03*
%TO.N,Net-(ESP32S1-GPIO15{slash}ADC2_CH4{slash}XTAL_32K_P)*%
X147532059Y-107730500D03*
X148320477Y-110140000D03*
%TO.N,ESP_GPIO0_BOOT-DTR*%
X142463201Y-118275125D03*
X149781233Y-119278767D03*
X137300000Y-118014500D03*
%TO.N,GPIO8_I2C_SDA*%
X144946089Y-103593911D03*
X144940000Y-100010000D03*
D58*
X139930000Y-102300000D03*
D59*
X151850000Y-116430000D03*
%TO.N,GPIO9_I2C_SCL*%
X152052820Y-115477181D03*
X144951549Y-100909429D03*
X144523103Y-104395500D03*
D58*
X139100000Y-103530000D03*
D60*
%TO.N,LINE_IN*%
X135770000Y-78450000D03*
X134640000Y-76740000D03*
X136890000Y-78680000D03*
X136520000Y-77590000D03*
X135600000Y-76870000D03*
X135020000Y-77640000D03*
D59*
%TO.N,LED_B_IO34*%
X150297198Y-112135269D03*
%TO.N,LED_R_IO35*%
X150049652Y-110190000D03*
%TO.N,LED_G_IO38*%
X149475152Y-111134949D03*
D60*
%TO.N,Net-(HiLink1-DC+)*%
X143739924Y-86702000D03*
D59*
%TO.N,RELAY_EN_IO37*%
X150220000Y-112932685D03*
D58*
X129460000Y-99089500D03*
%TO.N,ACS_HALL_IO36*%
X130610000Y-99089500D03*
D60*
X138679924Y-95762000D03*
D59*
X150150000Y-113790000D03*
D60*
X140549924Y-76412000D03*
%TO.N,USB_5V0F*%
X163285000Y-117375000D03*
%TO.N,DS_TEMP_IO01*%
X155599924Y-112722000D03*
D59*
X150050000Y-117650000D03*
%TO.N,IMU_CS_IO06*%
X144805500Y-101808636D03*
X151000000Y-116050000D03*
D58*
%TO.N,BUZZER_IO07*%
X131650000Y-99089500D03*
D60*
X140070000Y-95990000D03*
D59*
X150000000Y-115960000D03*
D60*
X154629924Y-80792000D03*
%TO.N,ESP_LNA_RF*%
X147557952Y-122937952D03*
%TD*%
D61*
%TO.N,RELAY_EN_IO37*%
X115320000Y-81640000D02*
X115970000Y-80990000D01*
X115320000Y-94274314D02*
X115320000Y-81640000D01*
X117645686Y-96600000D02*
X115320000Y-94274314D01*
X127290000Y-96600000D02*
X117645686Y-96600000D01*
X129460000Y-98770000D02*
X127290000Y-96600000D01*
X115970000Y-80990000D02*
X116395000Y-80990000D01*
X129460000Y-99089500D02*
X129460000Y-98770000D01*
%TO.N,3V3*%
X114550000Y-96730000D02*
X114975000Y-96305000D01*
X114550000Y-100859924D02*
X114550000Y-96730000D01*
X114429924Y-100980000D02*
X114550000Y-100859924D01*
X115490000Y-95790000D02*
X114975000Y-96305000D01*
X115490000Y-95010000D02*
X115490000Y-95790000D01*
X114920000Y-94440000D02*
X115490000Y-95010000D01*
X115420000Y-79750000D02*
X114920000Y-80250000D01*
X115952500Y-79750000D02*
X115420000Y-79750000D01*
X114920000Y-80250000D02*
X114920000Y-94440000D01*
D62*
X114974924Y-107827000D02*
X116784924Y-107827000D01*
X115264924Y-99895076D02*
X115264924Y-99317000D01*
X114429924Y-100980000D02*
X114429924Y-107282000D01*
X114429924Y-107282000D02*
X114974924Y-107827000D01*
X114429924Y-100730076D02*
X115264924Y-99895076D01*
X114429924Y-100980000D02*
X114429924Y-100730076D01*
D63*
%TO.N,Net-(AU1-FB)*%
X116510000Y-100400000D02*
X116770000Y-100140000D01*
X116000000Y-100400000D02*
X116510000Y-100400000D01*
X116770000Y-100140000D02*
X116770000Y-97509500D01*
X115734924Y-100665076D02*
X116000000Y-100400000D01*
X115734924Y-101192000D02*
X115734924Y-100665076D01*
D61*
%TO.N,3V3*%
X144524309Y-118214106D02*
X144915000Y-118604797D01*
D64*
X144540000Y-119810000D02*
X145720000Y-120990000D01*
D61*
X144905152Y-118964949D02*
X144915000Y-118955101D01*
D65*
X144024949Y-118964949D02*
X144905152Y-118964949D01*
D63*
X140818924Y-103868000D02*
X140818924Y-101788924D01*
D61*
X139284924Y-104795076D02*
X139284924Y-105659500D01*
D62*
X135620000Y-119110000D02*
X135570000Y-119160000D01*
D63*
X141528924Y-102358924D02*
X141298924Y-102128924D01*
D64*
X153263000Y-111838924D02*
X153278924Y-111838924D01*
D63*
X142188924Y-103538924D02*
X141948924Y-103778924D01*
D62*
X118839924Y-108950000D02*
X118839924Y-108130076D01*
D63*
X141298924Y-102128924D02*
X141298924Y-100878924D01*
D64*
X153388924Y-111808924D02*
X153388924Y-110728924D01*
D62*
X156382000Y-121142000D02*
X156130000Y-120890000D01*
D66*
X148670477Y-110897313D02*
X148670477Y-110869523D01*
D61*
X140938924Y-116123152D02*
X141674295Y-115387781D01*
D67*
X148670477Y-110897313D02*
X148460977Y-111106813D01*
D63*
X140190000Y-100520000D02*
X140818924Y-101148924D01*
D64*
X153589924Y-114832000D02*
X153199924Y-114442000D01*
D65*
X141966424Y-103950500D02*
X142104924Y-103812000D01*
X152585152Y-119589949D02*
X152585152Y-119764949D01*
D63*
X121780000Y-109170000D02*
X119059924Y-109170000D01*
D64*
X153010000Y-120984797D02*
X153010000Y-120440101D01*
X151527652Y-121174949D02*
X151477652Y-121124949D01*
X153199924Y-114442000D02*
X153199924Y-111902000D01*
D61*
X143885152Y-118268092D02*
X144219879Y-117933365D01*
X157422424Y-111422000D02*
X157422424Y-110174500D01*
D67*
X148460977Y-111106813D02*
X148460977Y-111439023D01*
D61*
X142188924Y-102331424D02*
X142188924Y-103538924D01*
D68*
X141730848Y-103997000D02*
X141948924Y-103778924D01*
D63*
X140689924Y-103997000D02*
X140818924Y-103868000D01*
D66*
X116749924Y-107712000D02*
X119019924Y-107712000D01*
D63*
X119059924Y-109170000D02*
X118839924Y-108950000D01*
D64*
X144915000Y-118715000D02*
X144915000Y-118955101D01*
X153589924Y-119860177D02*
X153589924Y-114832000D01*
D61*
X114975000Y-96305000D02*
X114640000Y-96640000D01*
D64*
X144915000Y-118955101D02*
X144915000Y-119435000D01*
D68*
X140689924Y-103997000D02*
X141730848Y-103997000D01*
D62*
X165000000Y-117090000D02*
X164950000Y-117090000D01*
D63*
X140818924Y-102208924D02*
X140818924Y-101788924D01*
D62*
X118790000Y-114955000D02*
X118790000Y-116185000D01*
D63*
X140818924Y-101148924D02*
X140818924Y-101788924D01*
D62*
X118839924Y-108130076D02*
X119320000Y-107650000D01*
D66*
X149140000Y-110400000D02*
X149140000Y-109635101D01*
D61*
X144915000Y-118604797D02*
X144915000Y-118715000D01*
D64*
X153199924Y-111902000D02*
X153263000Y-111838924D01*
D63*
X141528924Y-100648924D02*
X142006424Y-100648924D01*
X141298924Y-100878924D02*
X141528924Y-100648924D01*
D61*
X143990000Y-118930000D02*
X143885152Y-118825152D01*
D67*
X148460977Y-111439023D02*
X148016101Y-111883899D01*
D61*
X157422424Y-110174500D02*
X157399924Y-110152000D01*
D64*
X153010000Y-120440101D02*
X153135152Y-120314949D01*
D65*
X141966424Y-106823500D02*
X141966424Y-103950500D01*
D62*
X160898000Y-121142000D02*
X156382000Y-121142000D01*
D63*
X116840000Y-117665500D02*
X118194500Y-117665500D01*
X140428924Y-117288924D02*
X140428924Y-116668924D01*
D65*
X152585152Y-119764949D02*
X153135152Y-120314949D01*
D64*
X153135152Y-120314949D02*
X153589924Y-119860177D01*
D62*
X135620000Y-118014500D02*
X135620000Y-119110000D01*
D66*
X149140000Y-109635101D02*
X149670152Y-109104949D01*
D64*
X152990000Y-121340000D02*
X151427500Y-121340000D01*
D61*
X140938924Y-116158924D02*
X140938924Y-116123152D01*
D62*
X118210000Y-109890000D02*
X118839924Y-109260076D01*
D63*
X118194500Y-117665500D02*
X118790000Y-117070000D01*
D64*
X145720000Y-120990000D02*
X146030000Y-120990000D01*
D65*
X142124924Y-106982000D02*
X141966424Y-106823500D01*
D66*
X140413924Y-116733924D02*
X140923924Y-116223924D01*
D63*
X118570000Y-114680000D02*
X118790000Y-114900000D01*
X142161424Y-102358924D02*
X141528924Y-102358924D01*
D61*
X143885152Y-118825152D02*
X143885152Y-118268092D01*
D64*
X144915000Y-119435000D02*
X144540000Y-119810000D01*
D63*
X118790000Y-117070000D02*
X118790000Y-116022322D01*
D66*
X148670477Y-110869523D02*
X149140000Y-110400000D01*
D62*
X164950000Y-117090000D02*
X160898000Y-121142000D01*
X118839924Y-109260076D02*
X118839924Y-108950000D01*
D61*
X140689924Y-103997000D02*
X140083000Y-103997000D01*
X140083000Y-103997000D02*
X139284924Y-104795076D01*
%TO.N,GND*%
X141789924Y-118100580D02*
X141789924Y-119054576D01*
X142935000Y-116955000D02*
X144939944Y-114950056D01*
D62*
X154305000Y-123935000D02*
X154325000Y-123955000D01*
D68*
X134245000Y-115555000D02*
X134245000Y-111505000D01*
D62*
X153370000Y-101320000D02*
X154280000Y-102230000D01*
D68*
X134245000Y-115555000D02*
X134245000Y-102135000D01*
D63*
X133569924Y-123662000D02*
X132729924Y-123662000D01*
D62*
X154089924Y-82052000D02*
X153534924Y-81497000D01*
D63*
X120200000Y-114760000D02*
X120200000Y-118510000D01*
X134335000Y-116970000D02*
X138345000Y-116970000D01*
D62*
X154305000Y-118815000D02*
X154305000Y-119725000D01*
X155709924Y-82052000D02*
X154089924Y-82052000D01*
X157574924Y-72147000D02*
X157324924Y-72147000D01*
D61*
X134265000Y-120225000D02*
X134185000Y-120305000D01*
D66*
X118929924Y-99410076D02*
X119868000Y-98472000D01*
D61*
X134225000Y-121295000D02*
X134225000Y-121895000D01*
D63*
X134245000Y-111505000D02*
X134245000Y-117015000D01*
D62*
X154275000Y-119695000D02*
X154305000Y-119725000D01*
D61*
X134335000Y-123935000D02*
X139615000Y-123935000D01*
D66*
X119320000Y-105440000D02*
X117322424Y-103442424D01*
D61*
X134225000Y-121385000D02*
X134245000Y-121405000D01*
D63*
X134245000Y-122986924D02*
X133569924Y-123662000D01*
D62*
X144210000Y-121800000D02*
X144975000Y-122565000D01*
D61*
X134422674Y-124022674D02*
X139068924Y-124022674D01*
X140689924Y-107540000D02*
X140689924Y-105547000D01*
D66*
X133869424Y-98978924D02*
X141048924Y-98978924D01*
D61*
X142938924Y-101161177D02*
X142938924Y-101138924D01*
D65*
X151814924Y-122867000D02*
X151814924Y-123765076D01*
D62*
X154305000Y-117767076D02*
X154305000Y-111465000D01*
D63*
X134278924Y-116868924D02*
X134185000Y-116775000D01*
D62*
X134185000Y-118995000D02*
X134185000Y-120305000D01*
D63*
X134245000Y-111505000D02*
X134245000Y-100687076D01*
X134245000Y-100687076D02*
X134154924Y-100597000D01*
D62*
X154305000Y-120635000D02*
X154305000Y-123415000D01*
D65*
X148945000Y-123965000D02*
X148925000Y-123985000D01*
D66*
X118929924Y-100132000D02*
X118929924Y-99312000D01*
D61*
X140679924Y-107550000D02*
X134200000Y-107550000D01*
X140949924Y-119894576D02*
X140949924Y-120352000D01*
D62*
X134195000Y-98935000D02*
X136025000Y-98935000D01*
D65*
X144544924Y-77452000D02*
X144544924Y-82982000D01*
D62*
X153370000Y-99240000D02*
X153370000Y-101320000D01*
D61*
X140689924Y-105547000D02*
X140594924Y-105547000D01*
D62*
X154265000Y-116065000D02*
X154305000Y-116105000D01*
X154305000Y-109527076D02*
X154305000Y-111465000D01*
X134185000Y-117715000D02*
X134185000Y-118995000D01*
D65*
X148009924Y-77522000D02*
X141067924Y-70580000D01*
D62*
X153174924Y-81137000D02*
X153174924Y-77427000D01*
X151972848Y-123955000D02*
X150105000Y-123955000D01*
D61*
X115170000Y-76180000D02*
X115170000Y-76840000D01*
D62*
X136025000Y-98935000D02*
X139495000Y-98935000D01*
D61*
X140689924Y-107540000D02*
X140679924Y-107530000D01*
D62*
X153174924Y-76297000D02*
X153174924Y-77427000D01*
X151359924Y-109012000D02*
X151359924Y-107572000D01*
D65*
X147192858Y-120615856D02*
X147189417Y-120611244D01*
X151961856Y-123912008D02*
X151972848Y-123912008D01*
X143674924Y-76582000D02*
X144544924Y-77452000D01*
X154000000Y-122022000D02*
X154305000Y-121717000D01*
D66*
X117322424Y-103442424D02*
X117322424Y-102287006D01*
D61*
X134245000Y-109702848D02*
X134333924Y-109613924D01*
D63*
X141950152Y-101624949D02*
X142475152Y-101624949D01*
D61*
X140895000Y-123995000D02*
X141255000Y-123995000D01*
D62*
X154305000Y-123415000D02*
X154305000Y-123935000D01*
D66*
X119868000Y-98472000D02*
X122369924Y-98472000D01*
D62*
X134288924Y-99018924D02*
X134288924Y-102778924D01*
D61*
X145040000Y-102840000D02*
X146089924Y-103889924D01*
D68*
X148947706Y-124030000D02*
X147072294Y-124030000D01*
D63*
X142475152Y-101624949D02*
X142938924Y-101161177D01*
D65*
X144544924Y-82982000D02*
X143584924Y-83942000D01*
D61*
X140689924Y-107540000D02*
X140679924Y-107550000D01*
X142805000Y-123995000D02*
X142865000Y-123935000D01*
D65*
X154305000Y-121717000D02*
X154305000Y-111465000D01*
D62*
X154305000Y-118815000D02*
X154305000Y-109465000D01*
D66*
X115954924Y-102152000D02*
X117204924Y-102152000D01*
D62*
X164930000Y-119560000D02*
X165200000Y-119560000D01*
D63*
X135450000Y-120450000D02*
X134250000Y-120450000D01*
D65*
X145074924Y-107422000D02*
X144486475Y-108010449D01*
D63*
X151220152Y-107619949D02*
X151335152Y-107504949D01*
D68*
X148460000Y-121170000D02*
X148460000Y-120410000D01*
D65*
X143584924Y-83942000D02*
X142554924Y-83942000D01*
D62*
X152814924Y-122882000D02*
X152982924Y-123050000D01*
X134185000Y-122782848D02*
X134185000Y-123785000D01*
D65*
X147230000Y-120684120D02*
X147192858Y-120615856D01*
D61*
X134155000Y-118965000D02*
X134185000Y-118995000D01*
D66*
X128081944Y-99011944D02*
X127542000Y-98472000D01*
D63*
X147640000Y-119699528D02*
X147770197Y-119834481D01*
D62*
X139085152Y-122457449D02*
X139085152Y-123944949D01*
D65*
X146089924Y-105992000D02*
X146089924Y-104262000D01*
X147189417Y-120611244D02*
X145585356Y-119007183D01*
D66*
X119320000Y-105750000D02*
X119320000Y-105440000D01*
D65*
X152069924Y-122867000D02*
X151814924Y-122867000D01*
D62*
X134185000Y-122415000D02*
X134185000Y-122615000D01*
D61*
X114520000Y-95250000D02*
X114720000Y-95450000D01*
X147845000Y-116405000D02*
X145562899Y-114122899D01*
X134315000Y-123915000D02*
X134422674Y-124022674D01*
D63*
X120200000Y-118510000D02*
X120240000Y-118550000D01*
D62*
X140005000Y-98935000D02*
X144195000Y-98935000D01*
D65*
X146030000Y-122890000D02*
X146400000Y-122890000D01*
D68*
X148460000Y-121170000D02*
X148460000Y-124010000D01*
D62*
X151469851Y-109062000D02*
X154249996Y-109062000D01*
X161440000Y-123050000D02*
X164930000Y-119560000D01*
X134185000Y-123785000D02*
X134315000Y-123915000D01*
D61*
X134165000Y-117695000D02*
X134185000Y-117715000D01*
D62*
X149699924Y-77522000D02*
X148009924Y-77522000D01*
D65*
X151988924Y-123938924D02*
X151972848Y-123955000D01*
D61*
X142955000Y-124025000D02*
X142865000Y-123935000D01*
D62*
X138735000Y-123955000D02*
X137892848Y-123955000D01*
D61*
X142554924Y-83942000D02*
X142969924Y-84357000D01*
D62*
X154280000Y-102230000D02*
X154280000Y-113210000D01*
D61*
X147689924Y-100104500D02*
X147689924Y-98959500D01*
D65*
X151814924Y-122867000D02*
X151179924Y-122867000D01*
D61*
X134245000Y-111505000D02*
X134245000Y-109972848D01*
D63*
X148545640Y-121084360D02*
X148460000Y-121170000D01*
D65*
X152004924Y-122870000D02*
X152954924Y-122870000D01*
D62*
X151405152Y-109289949D02*
X151405152Y-111964949D01*
X144975000Y-122565000D02*
X146525000Y-122565000D01*
D61*
X141120000Y-99900000D02*
X141120000Y-99050000D01*
D65*
X151235152Y-119594949D02*
X151235152Y-119219949D01*
D66*
X119077541Y-99984383D02*
X118929924Y-99836766D01*
X118929924Y-99312000D02*
X117739924Y-99312000D01*
D65*
X141160373Y-108010449D02*
X140689924Y-107540000D01*
D61*
X134155000Y-111595000D02*
X134245000Y-111505000D01*
X115170000Y-76840000D02*
X114520000Y-77490000D01*
X146089924Y-103889924D02*
X146089924Y-104262000D01*
D62*
X154299924Y-111459924D02*
X154299924Y-107238827D01*
D61*
X121670000Y-105850000D02*
X121790000Y-105970000D01*
D62*
X144195000Y-98935000D02*
X146275000Y-98935000D01*
D63*
X148545640Y-120609924D02*
X148545640Y-121084360D01*
D65*
X133221924Y-70580000D02*
X130244924Y-73557000D01*
X142769924Y-76312000D02*
X142769924Y-75052000D01*
D61*
X134195000Y-102085000D02*
X134175000Y-102065000D01*
X134195000Y-112115000D02*
X134195000Y-109922848D01*
D62*
X139635000Y-123955000D02*
X138735000Y-123955000D01*
D61*
X134155000Y-115575000D02*
X134155000Y-111595000D01*
D63*
X151405152Y-111964949D02*
X151405152Y-111774949D01*
D62*
X154305000Y-111465000D02*
X154299924Y-111459924D01*
X154305000Y-109235000D02*
X154305000Y-108675000D01*
D65*
X143039924Y-76582000D02*
X142769924Y-76312000D01*
X151615000Y-123965000D02*
X148945000Y-123965000D01*
D61*
X143088509Y-116801995D02*
X141789924Y-118100580D01*
D68*
X148460000Y-124010000D02*
X148480000Y-124030000D01*
D61*
X147115000Y-123955000D02*
X147135000Y-123935000D01*
X142969924Y-85302000D02*
X143214924Y-85547000D01*
D62*
X150299924Y-77522000D02*
X150289924Y-77522000D01*
X154305000Y-109465000D02*
X154305000Y-109235000D01*
X134185000Y-120305000D02*
X134185000Y-122415000D01*
D61*
X143673924Y-103216076D02*
X144050000Y-102840000D01*
X147135000Y-123935000D02*
X134335000Y-123935000D01*
X134245000Y-111505000D02*
X134245000Y-109702848D01*
D65*
X143039924Y-76582000D02*
X143674924Y-76582000D01*
X151701933Y-120135449D02*
X151701933Y-120061730D01*
D62*
X156100000Y-115780000D02*
X156130000Y-115810000D01*
X140695000Y-123955000D02*
X139635000Y-123955000D01*
X139495000Y-98935000D02*
X140005000Y-98935000D01*
D61*
X134335000Y-123935000D02*
X134315000Y-123915000D01*
D62*
X153350000Y-99220000D02*
X153370000Y-99240000D01*
X154305000Y-116105000D02*
X154305000Y-116915000D01*
D65*
X141067924Y-70580000D02*
X133221924Y-70580000D01*
D62*
X154305000Y-119725000D02*
X154305000Y-120635000D01*
D61*
X134245000Y-109972848D02*
X134195000Y-109922848D01*
D62*
X149699924Y-77522000D02*
X153079924Y-77522000D01*
D63*
X147770197Y-119834481D02*
X146635716Y-118700000D01*
D65*
X141889924Y-74172000D02*
X141629924Y-74172000D01*
D66*
X133430000Y-98539500D02*
X133869424Y-98978924D01*
D65*
X147230000Y-122060000D02*
X147230000Y-120684120D01*
X146400000Y-122890000D02*
X147230000Y-122060000D01*
D61*
X139615000Y-123935000D02*
X139635000Y-123955000D01*
X134155000Y-117175000D02*
X134155000Y-115575000D01*
X147508924Y-100378924D02*
X147568924Y-100318924D01*
D66*
X134277424Y-100719500D02*
X135474924Y-100719500D01*
D62*
X134185000Y-116525000D02*
X134185000Y-116775000D01*
X154325000Y-123955000D02*
X151972848Y-123955000D01*
D61*
X142969924Y-84357000D02*
X142969924Y-85302000D01*
D63*
X120120000Y-114680000D02*
X120200000Y-114760000D01*
D62*
X134185000Y-116775000D02*
X134185000Y-117715000D01*
D61*
X119579000Y-105850000D02*
X121670000Y-105850000D01*
D66*
X141048924Y-98978924D02*
X141050000Y-98980000D01*
D61*
X134195000Y-117245000D02*
X134195000Y-112115000D01*
X134145000Y-121815000D02*
X134225000Y-121895000D01*
X134225000Y-123825000D02*
X134315000Y-123915000D01*
D62*
X152982924Y-123050000D02*
X161440000Y-123050000D01*
D65*
X154305000Y-109585000D02*
X154305000Y-111465000D01*
D61*
X134225000Y-121895000D02*
X134225000Y-123825000D01*
D65*
X144486475Y-108010449D02*
X141160373Y-108010449D01*
D61*
X144050000Y-102840000D02*
X145040000Y-102840000D01*
D62*
X137892848Y-123955000D02*
X134605000Y-123955000D01*
D61*
X134245000Y-105236924D02*
X134245000Y-111505000D01*
D66*
X127542000Y-98472000D02*
X122369924Y-98472000D01*
D65*
X151814924Y-123765076D02*
X151961856Y-123912008D01*
D63*
X134208924Y-122758924D02*
X134185000Y-122782848D01*
D62*
X153534924Y-81497000D02*
X153174924Y-81137000D01*
X150105000Y-123955000D02*
X149445000Y-123955000D01*
D63*
X151220152Y-107664949D02*
X151220152Y-107619949D01*
D61*
X154355000Y-116865000D02*
X154305000Y-116915000D01*
D62*
X140695000Y-123955000D02*
X134505000Y-123955000D01*
D61*
X114520000Y-77490000D02*
X114520000Y-95250000D01*
X134225000Y-121295000D02*
X134225000Y-121385000D01*
X142390000Y-122495000D02*
X142390000Y-123945000D01*
X141789924Y-119054576D02*
X140949924Y-119894576D01*
D62*
X154339927Y-115780000D02*
X156100000Y-115780000D01*
D61*
X146070152Y-104760152D02*
X145708924Y-104398924D01*
D63*
X146825152Y-124084949D02*
X146935152Y-124084949D01*
D62*
X153079924Y-77522000D02*
X153174924Y-77427000D01*
D66*
X118929924Y-99836766D02*
X118929924Y-99410076D01*
D63*
X134245000Y-111505000D02*
X134245000Y-122986924D01*
D65*
X151701933Y-120061730D02*
X151235152Y-119594949D01*
D62*
X150289924Y-77522000D02*
X149699924Y-77522000D01*
D61*
X147729924Y-102192000D02*
X147729924Y-100372000D01*
X141255000Y-123995000D02*
X142805000Y-123995000D01*
D63*
X142206424Y-101138924D02*
X142938924Y-101138924D01*
D61*
X141120000Y-99050000D02*
X141050000Y-98980000D01*
X143673924Y-103778924D02*
X143673924Y-103216076D01*
D62*
X157324924Y-72147000D02*
X153174924Y-76297000D01*
D65*
X142769924Y-75052000D02*
X141889924Y-74172000D01*
X151378924Y-111838924D02*
X151378924Y-113728924D01*
X145074924Y-107007000D02*
X146089924Y-105992000D01*
D62*
X134185000Y-122615000D02*
X134185000Y-122782848D01*
D68*
X148460000Y-120410000D02*
X147842278Y-119792278D01*
D62*
%TO.N,5V0*%
X143039924Y-79087000D02*
X142924924Y-79202000D01*
D66*
X120047424Y-102229500D02*
X119959924Y-102142000D01*
D62*
X143039924Y-78132000D02*
X143039924Y-79087000D01*
D68*
X120930337Y-101640337D02*
X121710000Y-102420000D01*
D66*
X120047424Y-101964500D02*
X120047424Y-102229500D01*
X122342424Y-100372000D02*
X122369924Y-100399500D01*
X120047424Y-102229500D02*
X120047424Y-102654500D01*
X118769924Y-103112000D02*
X118749924Y-103092000D01*
D68*
X121710000Y-102420000D02*
X121710000Y-103190000D01*
D66*
X119589924Y-103112000D02*
X118769924Y-103112000D01*
X156549924Y-83642000D02*
X153179924Y-83642000D01*
X153699924Y-86712000D02*
X154564924Y-85847000D01*
X154564924Y-85847000D02*
X154564924Y-83777000D01*
X120047424Y-102654500D02*
X119589924Y-103112000D01*
X120418674Y-102152000D02*
X119899924Y-102152000D01*
X152767424Y-83642000D02*
X151617424Y-82492000D01*
X120042424Y-101959500D02*
X120047424Y-101964500D01*
D62*
X142554924Y-79572000D02*
X142554924Y-80132000D01*
D66*
X120690000Y-99820000D02*
X121242000Y-100372000D01*
X119579924Y-101192000D02*
X118749924Y-101192000D01*
X121839924Y-100730750D02*
X120418674Y-102152000D01*
X120042424Y-101959500D02*
X120042424Y-101654500D01*
X120042424Y-101654500D02*
X119579924Y-101192000D01*
X153179924Y-83642000D02*
X152767424Y-83642000D01*
X119959924Y-102142000D02*
X118739924Y-102142000D01*
X121242000Y-100372000D02*
X122342424Y-100372000D01*
X156569924Y-83662000D02*
X156549924Y-83642000D01*
D62*
X142924924Y-79202000D02*
X142554924Y-79572000D01*
D66*
%TO.N,Net-(ACS1-IP--Pad3)*%
X124049924Y-71752000D02*
X124194924Y-71607000D01*
D69*
X133530000Y-81720000D02*
X135182000Y-83372000D01*
D70*
X137569924Y-82897000D02*
X137569924Y-83627000D01*
D69*
X135182000Y-83372000D02*
X137554924Y-83372000D01*
X124194924Y-78584924D02*
X127330000Y-81720000D01*
X127330000Y-81720000D02*
X133530000Y-81720000D01*
X124194924Y-71607000D02*
X124194924Y-78584924D01*
D61*
%TO.N,Net-(ACS1-FILTER)*%
X141079924Y-83232000D02*
X141079924Y-84962000D01*
X142554924Y-82672000D02*
X141639924Y-82672000D01*
X141639924Y-82672000D02*
X141079924Y-83232000D01*
X141079924Y-84962000D02*
X141664924Y-85547000D01*
D63*
%TO.N,RXD0*%
X141190424Y-118450000D02*
X141190424Y-118149576D01*
X141190424Y-118149576D02*
X142815742Y-116524258D01*
%TO.N,TXD0*%
X138529924Y-118462000D02*
X138508529Y-118462000D01*
X139069924Y-119002000D02*
X138529924Y-118462000D01*
%TO.N,CHIP_EN*%
X166530000Y-114110000D02*
X165600000Y-113180000D01*
X166530000Y-120200000D02*
X166530000Y-114110000D01*
X150390000Y-120134584D02*
X150390000Y-118360000D01*
X150390000Y-118360000D02*
X150988000Y-117762000D01*
X150390000Y-120134584D02*
X149824584Y-120134584D01*
X147925000Y-118785000D02*
X146522327Y-117382327D01*
X148475000Y-118785000D02*
X147925000Y-118785000D01*
X150988000Y-117762000D02*
X151213563Y-117762000D01*
D65*
X151289924Y-117682000D02*
X152369924Y-117682000D01*
D63*
X165460000Y-121270000D02*
X166530000Y-120200000D01*
X149824584Y-120134584D02*
X148475000Y-118785000D01*
X150677708Y-120422292D02*
X150390000Y-120134584D01*
D61*
%TO.N,Net-(ACS1-VIOUT)*%
X141559924Y-81402000D02*
X141169924Y-81012000D01*
X141559924Y-78807000D02*
X141559924Y-78792000D01*
X141174924Y-79192000D02*
X141559924Y-78807000D01*
X141169924Y-79197000D02*
X141174924Y-79192000D01*
X142554924Y-81402000D02*
X141559924Y-81402000D01*
X141599924Y-78767000D02*
X141599924Y-78672000D01*
X141169924Y-81012000D02*
X141169924Y-79197000D01*
X141174924Y-79192000D02*
X141599924Y-78767000D01*
%TO.N,Net-(EC10-Pad1)*%
X145981466Y-117931263D02*
X146255152Y-118204949D01*
D63*
X146766756Y-118230000D02*
X146646756Y-118350000D01*
D66*
X149995000Y-122545000D02*
X149995000Y-122810000D01*
D63*
X146420203Y-118350000D02*
X146131888Y-118061685D01*
D66*
X149265152Y-121014949D02*
X149515000Y-121264797D01*
D62*
X149372652Y-120342652D02*
X149372652Y-121234949D01*
D66*
X149515000Y-122065000D02*
X149995000Y-122545000D01*
D62*
X147746756Y-119210000D02*
X148240000Y-119210000D01*
D63*
X146766756Y-118230000D02*
X146766756Y-118146553D01*
D62*
X148240000Y-119210000D02*
X149372652Y-120342652D01*
D61*
X145980045Y-117931263D02*
X145981466Y-117931263D01*
D66*
X149515000Y-121264797D02*
X149515000Y-122065000D01*
D63*
X146646756Y-118350000D02*
X146420203Y-118350000D01*
X146766756Y-118146553D02*
X146565152Y-117944949D01*
D62*
X146766756Y-118230000D02*
X147746756Y-119210000D01*
%TO.N,Net-(AU1-SW)*%
X115519924Y-104487000D02*
X115519924Y-103272000D01*
D61*
%TO.N,VDD_SPI*%
X144854208Y-109675792D02*
X146624924Y-107905076D01*
D66*
X148850000Y-108430000D02*
X149290152Y-107989848D01*
X146584924Y-107773315D02*
X147241609Y-108430000D01*
X146584924Y-107422000D02*
X146584924Y-107773315D01*
X146624924Y-107422000D02*
X146584924Y-107422000D01*
D61*
X144512798Y-109675792D02*
X144854208Y-109675792D01*
X146624924Y-107905076D02*
X146624924Y-107422000D01*
D66*
X147241609Y-108430000D02*
X148850000Y-108430000D01*
X149290152Y-107989848D02*
X149290152Y-107674949D01*
D62*
%TO.N,Net-(AU1-FB)*%
X117849924Y-97509500D02*
X115429924Y-97509500D01*
X115429924Y-97509500D02*
X115359924Y-97439500D01*
D63*
%TO.N,Net-(ESP32S1-GPIO16{slash}ADC2_CH5{slash}XTAL_32K_N)*%
X148470000Y-106340000D02*
X148950000Y-105860000D01*
X148470000Y-107695878D02*
X148470000Y-106340000D01*
X148950000Y-103572076D02*
X148467924Y-103090000D01*
X146533962Y-103090000D02*
X145708924Y-102264962D01*
X148034500Y-109282100D02*
X147745977Y-109570623D01*
X148467924Y-103090000D02*
X146533962Y-103090000D01*
D61*
X146109924Y-100332000D02*
X146109924Y-102172000D01*
D63*
X148950000Y-105860000D02*
X148950000Y-103572076D01*
X147745977Y-109570623D02*
X147745977Y-111014023D01*
D61*
X145668924Y-102158924D02*
X145708924Y-102198924D01*
D63*
X148435378Y-107730500D02*
X148470000Y-107695878D01*
X145708924Y-102264962D02*
X145708924Y-102198924D01*
X147745977Y-111014023D02*
X147414258Y-111345742D01*
D61*
%TO.N,Net-(ESP32S1-GPIO15{slash}ADC2_CH4{slash}XTAL_32K_P)*%
X147604924Y-104494924D02*
X147508924Y-104398924D01*
D63*
X148095977Y-111234023D02*
X147684258Y-111645742D01*
D61*
X147604924Y-107657635D02*
X147604924Y-104494924D01*
D63*
X148095977Y-110364500D02*
X148095977Y-111234023D01*
D61*
X147532059Y-107730500D02*
X147604924Y-107657635D01*
D63*
X148320477Y-110140000D02*
X148095977Y-110364500D01*
D61*
%TO.N,ESP_GPIO0_BOOT-DTR*%
X142445000Y-118015000D02*
X142445000Y-118405000D01*
X143381427Y-117082735D02*
X143377265Y-117082735D01*
D63*
X137300000Y-118014500D02*
X137300000Y-119080000D01*
X148069974Y-118435000D02*
X147170013Y-117535039D01*
X147170013Y-117535039D02*
X147170013Y-117430013D01*
X148619975Y-118435000D02*
X148069974Y-118435000D01*
X149463741Y-119278767D02*
X148619975Y-118435000D01*
X149781233Y-119278767D02*
X149463741Y-119278767D01*
X137300000Y-119080000D02*
X137220000Y-119160000D01*
X147170013Y-117430013D02*
X146828573Y-117088573D01*
D61*
X143377265Y-117082735D02*
X142445000Y-118015000D01*
D63*
%TO.N,GPIO8_I2C_SDA*%
X151058122Y-115294949D02*
X149554949Y-115294949D01*
D61*
X135474924Y-103145076D02*
X135474924Y-105659500D01*
D63*
X144940000Y-100030000D02*
X144940000Y-100010000D01*
D61*
X136320000Y-102300000D02*
X135474924Y-103145076D01*
D63*
X151850000Y-116430000D02*
X151850000Y-116086827D01*
X144946089Y-103593911D02*
X145101113Y-103748935D01*
X151850000Y-116086827D02*
X151058122Y-115294949D01*
X149554949Y-115294949D02*
X149091314Y-114831314D01*
X145101113Y-105518887D02*
X143905174Y-106714826D01*
X144348000Y-100622000D02*
X144940000Y-100030000D01*
X143905174Y-106714826D02*
X143905174Y-107222674D01*
X145101113Y-103748935D02*
X145101113Y-105518887D01*
X143842424Y-100622000D02*
X144348000Y-100622000D01*
D61*
X139930000Y-102300000D02*
X136320000Y-102300000D01*
D63*
%TO.N,GPIO9_I2C_SCL*%
X149364081Y-114539253D02*
X149366183Y-114537151D01*
X143791424Y-105127179D02*
X143791424Y-105471424D01*
D61*
X137820000Y-103530000D02*
X136744924Y-104605076D01*
D63*
X152052820Y-115477181D02*
X151520588Y-114944949D01*
X143842424Y-101122000D02*
X144738978Y-101122000D01*
D61*
X139100000Y-103530000D02*
X137820000Y-103530000D01*
D63*
X144523103Y-104395500D02*
X143791424Y-105127179D01*
X144738978Y-101122000D02*
X144951549Y-100909429D01*
X151520588Y-114944949D02*
X149769777Y-114944949D01*
X149769777Y-114944949D02*
X149364081Y-114539253D01*
D61*
X136744924Y-104605076D02*
X136744924Y-105659500D01*
D63*
X149366183Y-114537151D02*
X149374157Y-114537151D01*
D61*
%TO.N,Net-(ESP32S1-XTAL_P)*%
X142730610Y-120837000D02*
X141055610Y-122512000D01*
X142809924Y-120837000D02*
X142730610Y-120837000D01*
X143485000Y-118102560D02*
X143485000Y-118800686D01*
X142550000Y-119735686D02*
X142550000Y-120577076D01*
X143937037Y-117650523D02*
X143485000Y-118102560D01*
X141055610Y-122512000D02*
X140759924Y-122512000D01*
X143485000Y-118800686D02*
X142550000Y-119735686D01*
X142550000Y-120577076D02*
X142809924Y-120837000D01*
%TO.N,Net-(ESP32S1-XTAL_N)*%
X141769924Y-119950076D02*
X141769924Y-121232000D01*
X143085000Y-117944848D02*
X143085000Y-118635000D01*
X139007924Y-121424000D02*
X138367924Y-121424000D01*
X143090289Y-117931635D02*
X143669559Y-117352365D01*
X141769924Y-121232000D02*
X141577924Y-121424000D01*
X139059924Y-120312000D02*
X139059924Y-121372000D01*
X137423924Y-120480000D02*
X137200000Y-120480000D01*
X138367924Y-121424000D02*
X137423924Y-120480000D01*
X141577924Y-121424000D02*
X139007924Y-121424000D01*
X139059924Y-121372000D02*
X139007924Y-121424000D01*
X143085000Y-118635000D02*
X141769924Y-119950076D01*
%TO.N,Net-(ESP32S1-U0TXD{slash}PROG{slash}GPIO43)*%
X142145000Y-116625000D02*
X142142848Y-116625000D01*
X142532899Y-116237101D02*
X142145000Y-116625000D01*
D63*
X142142848Y-116625000D02*
X140158924Y-118608924D01*
%TO.N,unconnected-(ESP32S1-GPIO18{slash}ADC2_CH7{slash}DAC_1-Pad24)*%
X146592938Y-111027163D02*
X147355152Y-110264949D01*
%TO.N,SPICS1*%
X146220251Y-109147597D02*
X145697202Y-109670646D01*
%TO.N,SPIHD*%
X143442274Y-109170954D02*
X144229955Y-109958635D01*
%TO.N,SPIWP*%
X143048924Y-109348924D02*
X143941477Y-110241477D01*
%TO.N,SPICS0*%
X143811477Y-110671477D02*
X142838924Y-109698924D01*
%TO.N,SPICLK*%
X143611477Y-111051477D02*
X142608924Y-110048924D01*
%TO.N,SPIQ*%
X143341477Y-111321477D02*
X142418924Y-110398924D01*
%TO.N,SPID*%
X142188924Y-110748924D02*
X143051477Y-111611477D01*
%TO.N,unconnected-(ESP32S1-GPIO19{slash}USB_D-{slash}ADC2_CH8-Pad25)*%
X146300466Y-110759635D02*
X147209837Y-109850264D01*
%TO.N,unconnected-(ESP32S1-GPIO20{slash}USB_D+{slash}ADC2_CH9-Pad26)*%
X146042887Y-110467214D02*
X146795152Y-109714949D01*
%TO.N,unconnected-(ESP32S1-GPIO21-Pad27)*%
X145980045Y-109958635D02*
X145981466Y-109958635D01*
X145931466Y-110018635D02*
X146435152Y-109514949D01*
%TO.N,unconnected-(ESP32S1-SPICLK_N{slash}GPIO48-Pad36)*%
X142532899Y-111652696D02*
X141985152Y-111104949D01*
%TO.N,unconnected-(ESP32S1-SPICLK_P{slash}GPIO47-Pad37)*%
X142187747Y-111887747D02*
X141640000Y-111340000D01*
%TO.N,unconnected-(ESP32S1-MTCK{slash}JTAG{slash}GPIO39-Pad44)*%
X141090107Y-114819994D02*
X139995152Y-115914949D01*
D66*
%TO.N,GND3*%
X146537424Y-77179500D02*
X146537424Y-81284500D01*
X136044924Y-72677000D02*
X136284924Y-72437000D01*
X146537424Y-81284500D02*
X146189924Y-81632000D01*
X141794924Y-72437000D02*
X146537424Y-77179500D01*
X136284924Y-72437000D02*
X141794924Y-72437000D01*
D63*
%TO.N,unconnected-(ESP32S1-MTDO{slash}JTAG{slash}GPIO40-Pad45)*%
X141401528Y-115102836D02*
X141401528Y-115108573D01*
X141401528Y-115108573D02*
X140935152Y-115574949D01*
D66*
%TO.N,PROBE_5V0*%
X147739924Y-84362000D02*
X146909924Y-83532000D01*
X147579924Y-83532000D02*
X148619924Y-82492000D01*
X146909924Y-83532000D02*
X146189924Y-83532000D01*
X148619924Y-82492000D02*
X148642424Y-82492000D01*
X147739924Y-86072000D02*
X147739924Y-84362000D01*
X146189924Y-83532000D02*
X147579924Y-83532000D01*
D61*
%TO.N,unconnected-(ESP32S1-MTDI{slash}JTAG{slash}GPIO41-Pad47)*%
X141538924Y-116088838D02*
X141538924Y-116091076D01*
X141957138Y-115670624D02*
X141538924Y-116088838D01*
D63*
%TO.N,unconnected-(ESP32S1-MTMS{slash}JTAG{slash}GPIO42-Pad48)*%
X142250056Y-115960045D02*
X141395152Y-116814949D01*
D71*
%TO.N,LINE_IN*%
X128410000Y-89220000D02*
X122660924Y-89220000D01*
D69*
X137474924Y-79544924D02*
X137474924Y-80702000D01*
D70*
X156019924Y-95872000D02*
X154589924Y-94442000D01*
D71*
X132202000Y-93012000D02*
X128410000Y-89220000D01*
D70*
X148549924Y-88622000D02*
X140728000Y-88622000D01*
X154589924Y-90952000D02*
X152259924Y-88622000D01*
D69*
X135330000Y-77400000D02*
X137474924Y-79544924D01*
D70*
X140728000Y-88622000D02*
X136382000Y-92968000D01*
X156019924Y-99702000D02*
X156019924Y-95872000D01*
X152259924Y-88622000D02*
X148549924Y-88622000D01*
X148549924Y-88622000D02*
X140840000Y-88622000D01*
D71*
X135378924Y-93012000D02*
X132202000Y-93012000D01*
X122660924Y-89220000D02*
X118912924Y-92968000D01*
D70*
X136382000Y-92968000D02*
X135422924Y-92968000D01*
X154589924Y-94442000D02*
X154589924Y-90952000D01*
D71*
X135422924Y-92968000D02*
X135378924Y-93012000D01*
D63*
%TO.N,LED_B_IO34*%
X149470468Y-112135269D02*
X150297198Y-112135269D01*
X148808675Y-112797062D02*
X149470468Y-112135269D01*
%TO.N,LED_R_IO35*%
X150049652Y-110190000D02*
X150190000Y-110330348D01*
X149850000Y-111770000D02*
X149250101Y-111770000D01*
X150190000Y-110330348D02*
X150190000Y-111430000D01*
X149250101Y-111770000D02*
X148540427Y-112479674D01*
X150190000Y-111430000D02*
X149850000Y-111770000D01*
%TO.N,LED_G_IO38*%
X149475152Y-111134949D02*
X149345152Y-111134949D01*
X149345152Y-111134949D02*
X148135289Y-112344812D01*
D66*
%TO.N,Net-(HiLink1-DC+)*%
X144149924Y-86702000D02*
X145059924Y-85792000D01*
X136214924Y-88077000D02*
X136044924Y-88077000D01*
X143739924Y-86702000D02*
X137589924Y-86702000D01*
X137589924Y-86702000D02*
X136214924Y-88077000D01*
X143739924Y-86702000D02*
X144149924Y-86702000D01*
D70*
%TO.N,Net-(HLC2-Pad1)*%
X156398924Y-107603000D02*
X159104924Y-104897000D01*
X159104924Y-101792500D02*
X159039924Y-101727500D01*
X156398924Y-108147000D02*
X156398924Y-107603000D01*
X159104924Y-104897000D02*
X159104924Y-101792500D01*
D61*
%TO.N,Net-(HLD3-K)*%
X118145000Y-76180000D02*
X118244924Y-76080076D01*
X118244924Y-76080076D02*
X118244924Y-73557000D01*
X118227500Y-76262500D02*
X118145000Y-76180000D01*
X118227500Y-78800000D02*
X118227500Y-76262500D01*
%TO.N,Net-(RQ1-E)*%
X118045000Y-80225000D02*
X115952500Y-78132500D01*
X115952500Y-78132500D02*
X115952500Y-77850000D01*
X118045000Y-80990000D02*
X118045000Y-80225000D01*
D63*
%TO.N,RELAY_EN_IO37*%
X150220000Y-112932685D02*
X150007805Y-112720490D01*
X150007805Y-112720490D02*
X149450931Y-112720490D01*
X149450931Y-112720490D02*
X149091517Y-113079904D01*
D61*
%TO.N,ACS_HALL_IO36*%
X140549924Y-76412000D02*
X140554924Y-76417000D01*
D63*
X130610000Y-99020000D02*
X132908000Y-96722000D01*
X150150000Y-113790000D02*
X149810753Y-113790000D01*
X138679924Y-95762000D02*
X138679924Y-95872000D01*
X149810753Y-113790000D02*
X149370427Y-113349674D01*
X130610000Y-99089500D02*
X130610000Y-99020000D01*
X132908000Y-96722000D02*
X133199924Y-96722000D01*
D61*
X140554924Y-76417000D02*
X141599924Y-76417000D01*
D63*
X137829924Y-96722000D02*
X133119924Y-96722000D01*
X138679924Y-95872000D02*
X137829924Y-96722000D01*
D61*
X141599924Y-77022000D02*
X141599924Y-76417000D01*
X141599924Y-75852000D02*
X141629924Y-75822000D01*
X141599924Y-76417000D02*
X141599924Y-75852000D01*
D62*
%TO.N,USB_5V0F*%
X162649924Y-91462000D02*
X157649924Y-86462000D01*
X157649924Y-86462000D02*
X156569924Y-86462000D01*
X162649924Y-116739924D02*
X162649924Y-91462000D01*
X163285000Y-117375000D02*
X162649924Y-116739924D01*
D63*
%TO.N,DS_TEMP_IO01*%
X147151314Y-116841314D02*
X147990000Y-117680000D01*
X150020000Y-117680000D02*
X150050000Y-117650000D01*
D61*
X155599924Y-111424500D02*
X155599924Y-112722000D01*
D63*
X147990000Y-117680000D02*
X150020000Y-117680000D01*
D61*
X155597424Y-111422000D02*
X155599924Y-111424500D01*
D63*
%TO.N,unconnected-(ESP32S1-GPIO4{slash}ADC1_CH3-Pad9)*%
X149050000Y-117040000D02*
X147731723Y-115721723D01*
%TO.N,unconnected-(ESP32S1-GPIO5{slash}ADC1_CH4-Pad10)*%
X149390000Y-116810000D02*
X148024522Y-115444522D01*
%TO.N,unconnected-(ESP32S1-GPIO33-Pad38)*%
X141931579Y-112221376D02*
X141080000Y-111369797D01*
%TO.N,unconnected-(ESP32S1-GPIO34-Pad39)*%
X141481280Y-112301280D02*
X140788924Y-111608924D01*
%TO.N,unconnected-(ESP32S1-GPIO35-Pad40)*%
X141383635Y-112763635D02*
X140560000Y-111940000D01*
%TO.N,unconnected-(ESP32S1-GPIO36-Pad41)*%
X141173635Y-113113635D02*
X140240000Y-112180000D01*
%TO.N,unconnected-(ESP32S1-GPIO38-Pad43)*%
X140741497Y-114655000D02*
X140705000Y-114655000D01*
X140705000Y-114655000D02*
X140100000Y-115260000D01*
X140835843Y-114537151D02*
X140747994Y-114625000D01*
X140835843Y-114537151D02*
X140627994Y-114745000D01*
%TO.N,IMU_CS_IO06*%
X149720000Y-116570000D02*
X148302302Y-115152302D01*
X151000000Y-116050000D02*
X150480000Y-116570000D01*
D61*
X144805500Y-101808636D02*
X144716864Y-101720000D01*
D63*
X150480000Y-116570000D02*
X149720000Y-116570000D01*
X143842424Y-101622000D02*
X144618864Y-101622000D01*
X144618864Y-101622000D02*
X144805500Y-101808636D01*
%TO.N,unconnected-(ESP32S1-GPIO2{slash}ADC1_CH1-Pad7)*%
X147451314Y-116561314D02*
X148170000Y-117280000D01*
%TO.N,unconnected-(ESP32S1-GPIO37-Pad42)*%
X140802747Y-113352747D02*
X140060000Y-112610000D01*
X140835843Y-113352747D02*
X140802747Y-113352747D01*
%TO.N,BUZZER_IO07*%
X138983000Y-97077000D02*
X133223000Y-97077000D01*
X133223000Y-97077000D02*
X131650000Y-98650000D01*
D61*
X154629924Y-80432000D02*
X155259924Y-79802000D01*
X155259924Y-79802000D02*
X157319924Y-79802000D01*
D63*
X140070000Y-95990000D02*
X138983000Y-97077000D01*
X131650000Y-98650000D02*
X131650000Y-99089500D01*
X150000000Y-115960000D02*
X149660000Y-115960000D01*
X149660000Y-115960000D02*
X148609264Y-114909264D01*
D61*
X154629924Y-80792000D02*
X154629924Y-80432000D01*
X157319924Y-79802000D02*
X157574924Y-79547000D01*
D68*
%TO.N,ESP_LNA_RF*%
X147917929Y-122370868D02*
X147917929Y-121299470D01*
D61*
X146154924Y-118687000D02*
X146154924Y-118837000D01*
D68*
X147334138Y-120016214D02*
X146168426Y-118850502D01*
D61*
X145686025Y-118218101D02*
X146154924Y-118687000D01*
D68*
X147557952Y-122937952D02*
X147771483Y-122724421D01*
X147771505Y-122724443D02*
G75*
G03*
X147917929Y-122370868I-353605J353543D01*
G01*
X147917911Y-121299471D02*
G75*
G03*
X147334138Y-120016214I-2013211J-141429D01*
G01*
%TD*%
%TA.AperFunction,Conductor*%
%TO.N,GND*%
G36*
X145679068Y-118712483D02*
G01*
X145717021Y-118750436D01*
X145744335Y-118791313D01*
X145753926Y-118839531D01*
X145753926Y-118916153D01*
X145794500Y-119041027D01*
X145852260Y-119120528D01*
X145852261Y-119120529D01*
X145852262Y-119120530D01*
X146778482Y-120046750D01*
X146811691Y-120105556D01*
X146809763Y-120173065D01*
X146773250Y-120229880D01*
X146712643Y-120259679D01*
X146645354Y-120253900D01*
X146613342Y-120241960D01*
X146553255Y-120235500D01*
X145738232Y-120235500D01*
X145690014Y-120225909D01*
X145649137Y-120198595D01*
X145345465Y-119894923D01*
X145313663Y-119841324D01*
X145311441Y-119779040D01*
X145339339Y-119723313D01*
X145348026Y-119713289D01*
X145350074Y-119708803D01*
X145363823Y-119685630D01*
X145366775Y-119681688D01*
X145384454Y-119634286D01*
X145387872Y-119626036D01*
X145408888Y-119580019D01*
X145409588Y-119575145D01*
X145416250Y-119549041D01*
X145417976Y-119544416D01*
X145421581Y-119493986D01*
X145422543Y-119485040D01*
X145424500Y-119471434D01*
X145424500Y-119457689D01*
X145424821Y-119448701D01*
X145428427Y-119398279D01*
X145427380Y-119393466D01*
X145424500Y-119366682D01*
X145424500Y-118959001D01*
X145434091Y-118910783D01*
X145455228Y-118859753D01*
X145457890Y-118839531D01*
X145465052Y-118785129D01*
X145492573Y-118721645D01*
X145549471Y-118682265D01*
X145618584Y-118678869D01*
X145679068Y-118712483D01*
G37*
%TD.AperFunction*%
%TD*%
%TA.AperFunction,Conductor*%
%TO.N,GND*%
G36*
X126502921Y-69992201D02*
G01*
X126570800Y-70001137D01*
X126620966Y-70014580D01*
X126672059Y-70035745D01*
X126717046Y-70061722D01*
X126760912Y-70095385D01*
X126797644Y-70132120D01*
X126831297Y-70175982D01*
X126857271Y-70220976D01*
X126878426Y-70272058D01*
X126891869Y-70322242D01*
X126900825Y-70390313D01*
X126902525Y-70416437D01*
X126898645Y-75066528D01*
X126898420Y-75336463D01*
X126898420Y-75336963D01*
X126898420Y-75390310D01*
X126901912Y-75402203D01*
X126928480Y-75492684D01*
X126986162Y-75582441D01*
X127066795Y-75652309D01*
X127066796Y-75652309D01*
X127066798Y-75652311D01*
X127163851Y-75696634D01*
X127269460Y-75711818D01*
X127375069Y-75696634D01*
X127472122Y-75652311D01*
X127552757Y-75582441D01*
X127610440Y-75492683D01*
X127640500Y-75390310D01*
X127640500Y-75336963D01*
X127641252Y-74967770D01*
X129193361Y-74967770D01*
X129193362Y-74967771D01*
X129363456Y-75083740D01*
X129600853Y-75198064D01*
X129852638Y-75275731D01*
X130113177Y-75315000D01*
X130376671Y-75315000D01*
X130637209Y-75275731D01*
X130888994Y-75198064D01*
X131126388Y-75083741D01*
X131296484Y-74967770D01*
X131296485Y-74967770D01*
X130244925Y-73916210D01*
X130244924Y-73916210D01*
X129193361Y-74967770D01*
X127641252Y-74967770D01*
X127644127Y-73557000D01*
X128481994Y-73557000D01*
X128501684Y-73819751D01*
X128560316Y-74076634D01*
X128656579Y-74321908D01*
X128788324Y-74550097D01*
X128834593Y-74608117D01*
X128834595Y-74608118D01*
X129885714Y-73557001D01*
X130604134Y-73557001D01*
X131655251Y-74608118D01*
X131655251Y-74608117D01*
X131701522Y-74550096D01*
X131833270Y-74321904D01*
X131929531Y-74076634D01*
X131988163Y-73819751D01*
X132007853Y-73557000D01*
X131988163Y-73294248D01*
X131929531Y-73037365D01*
X131833268Y-72792091D01*
X131701526Y-72563906D01*
X131655251Y-72505880D01*
X130604134Y-73557000D01*
X130604134Y-73557001D01*
X129885714Y-73557001D01*
X129885714Y-73556999D01*
X128834595Y-72505881D01*
X128834594Y-72505881D01*
X128788324Y-72563904D01*
X128656579Y-72792091D01*
X128560316Y-73037365D01*
X128501684Y-73294248D01*
X128481994Y-73557000D01*
X127644127Y-73557000D01*
X127647002Y-72146228D01*
X129193362Y-72146228D01*
X130244924Y-73197790D01*
X130244925Y-73197790D01*
X131296485Y-72146228D01*
X131126386Y-72030257D01*
X130888994Y-71915935D01*
X130637209Y-71838268D01*
X130376671Y-71799000D01*
X130113177Y-71799000D01*
X129852638Y-71838268D01*
X129600853Y-71915935D01*
X129363461Y-72030257D01*
X129193362Y-72146228D01*
X127647002Y-72146228D01*
X127650331Y-70512687D01*
X127650500Y-70511850D01*
X127650500Y-70443041D01*
X127652201Y-70417077D01*
X127661137Y-70349199D01*
X127674580Y-70299035D01*
X127695747Y-70247936D01*
X127721722Y-70202953D01*
X127755385Y-70159087D01*
X127792118Y-70122356D01*
X127835983Y-70088700D01*
X127880976Y-70062728D01*
X127883490Y-70061687D01*
X127932062Y-70041571D01*
X127982239Y-70028130D01*
X128050215Y-70019186D01*
X128076526Y-70017487D01*
X161548766Y-70077247D01*
X161549504Y-70077395D01*
X161627766Y-70077395D01*
X161635202Y-70077533D01*
X162102307Y-70095003D01*
X162117112Y-70096112D01*
X162577925Y-70148027D01*
X162592597Y-70150238D01*
X163048222Y-70236440D01*
X163062719Y-70239748D01*
X163510628Y-70359759D01*
X163524827Y-70364138D01*
X163962532Y-70517292D01*
X163976332Y-70522708D01*
X164401380Y-70708149D01*
X164414753Y-70714589D01*
X164767704Y-70901125D01*
X164824724Y-70931261D01*
X164837612Y-70938702D01*
X165230225Y-71185392D01*
X165242520Y-71193774D01*
X165615617Y-71469129D01*
X165627237Y-71478396D01*
X165945011Y-71751859D01*
X165978697Y-71780848D01*
X165989607Y-71790970D01*
X166317496Y-72118857D01*
X166327618Y-72129767D01*
X166630067Y-72481218D01*
X166639340Y-72492845D01*
X166914708Y-72865954D01*
X166923070Y-72878219D01*
X167145695Y-73232523D01*
X167169778Y-73270851D01*
X167177217Y-73283736D01*
X167340502Y-73592689D01*
X167393881Y-73693686D01*
X167400335Y-73707089D01*
X167416876Y-73745000D01*
X167585760Y-74132092D01*
X167591197Y-74145945D01*
X167744340Y-74583607D01*
X167748727Y-74597828D01*
X167868739Y-75045728D01*
X167872050Y-75060237D01*
X167958250Y-75515834D01*
X167960468Y-75530550D01*
X168012381Y-75991321D01*
X168013493Y-76006161D01*
X168030918Y-76471990D01*
X168031057Y-76479340D01*
X168038633Y-93507689D01*
X168035333Y-93522580D01*
X168038646Y-93537472D01*
X168041680Y-100357241D01*
X168026170Y-100434351D01*
X167981996Y-100499429D01*
X167916058Y-100542307D01*
X167838657Y-100556289D01*
X167761884Y-100539190D01*
X167697733Y-100493680D01*
X167656227Y-100426873D01*
X167649345Y-100408419D01*
X167563095Y-100293204D01*
X167447880Y-100206954D01*
X167447879Y-100206953D01*
X167313033Y-100156659D01*
X167298129Y-100155056D01*
X167253422Y-100150250D01*
X167253419Y-100150250D01*
X165157677Y-100150250D01*
X165098064Y-100156659D01*
X164963219Y-100206953D01*
X164848003Y-100293204D01*
X164761752Y-100408419D01*
X164711458Y-100543265D01*
X164710142Y-100555504D01*
X164706636Y-100588122D01*
X164705049Y-100602879D01*
X164705049Y-102698621D01*
X164711458Y-102758234D01*
X164743214Y-102843376D01*
X164761753Y-102893081D01*
X164848003Y-103008296D01*
X164963218Y-103094546D01*
X165098066Y-103144841D01*
X165157676Y-103151250D01*
X167253421Y-103151249D01*
X167313032Y-103144841D01*
X167447880Y-103094546D01*
X167563095Y-103008296D01*
X167649345Y-102893081D01*
X167657378Y-102871541D01*
X167698866Y-102804755D01*
X167762988Y-102759248D01*
X167839731Y-102742129D01*
X167917114Y-102756072D01*
X167983056Y-102798900D01*
X168027262Y-102863926D01*
X168042830Y-102940998D01*
X168044574Y-106860591D01*
X168026725Y-106943054D01*
X167976312Y-107010708D01*
X167902398Y-107051394D01*
X167818270Y-107057798D01*
X167739050Y-107028768D01*
X167678978Y-106969523D01*
X167656946Y-106935801D01*
X167578164Y-106815215D01*
X167409744Y-106632262D01*
X167403839Y-106627666D01*
X167213507Y-106479524D01*
X166994810Y-106361172D01*
X166759616Y-106280429D01*
X166514335Y-106239500D01*
X166265665Y-106239500D01*
X166020383Y-106280429D01*
X165785189Y-106361172D01*
X165566492Y-106479524D01*
X165370256Y-106632261D01*
X165201836Y-106815214D01*
X165065827Y-107023391D01*
X164965937Y-107251118D01*
X164904890Y-107492183D01*
X164884356Y-107740000D01*
X164904890Y-107987816D01*
X164965937Y-108228881D01*
X165065827Y-108456608D01*
X165201836Y-108664785D01*
X165370256Y-108847738D01*
X165566492Y-109000475D01*
X165644442Y-109042659D01*
X165785190Y-109118828D01*
X166020386Y-109199571D01*
X166265665Y-109240500D01*
X166514335Y-109240500D01*
X166759614Y-109199571D01*
X166994810Y-109118828D01*
X167213509Y-109000474D01*
X167409744Y-108847738D01*
X167578164Y-108664785D01*
X167679760Y-108509279D01*
X167739806Y-108450050D01*
X167818993Y-108421012D01*
X167903095Y-108427382D01*
X167977005Y-108468016D01*
X168027446Y-108535614D01*
X168045356Y-108618033D01*
X168046576Y-111360911D01*
X168031453Y-111437093D01*
X167988322Y-111501683D01*
X167923750Y-111544844D01*
X167847576Y-111560000D01*
X163499424Y-111560000D01*
X163423270Y-111544852D01*
X163358710Y-111501714D01*
X163315572Y-111437154D01*
X163300424Y-111361000D01*
X163300424Y-93522750D01*
X164629905Y-93522750D01*
X164650439Y-93770566D01*
X164711486Y-94011631D01*
X164811376Y-94239358D01*
X164947385Y-94447535D01*
X165115805Y-94630488D01*
X165312041Y-94783225D01*
X165403800Y-94832882D01*
X165530739Y-94901578D01*
X165765935Y-94982321D01*
X166011214Y-95023250D01*
X166259884Y-95023250D01*
X166505163Y-94982321D01*
X166740359Y-94901578D01*
X166959058Y-94783224D01*
X167155293Y-94630488D01*
X167323713Y-94447535D01*
X167459722Y-94239357D01*
X167559612Y-94011631D01*
X167620657Y-93770571D01*
X167620657Y-93770569D01*
X167620658Y-93770566D01*
X167627524Y-93687693D01*
X167641192Y-93522750D01*
X167626344Y-93343561D01*
X167620658Y-93274933D01*
X167590241Y-93154820D01*
X167559612Y-93033869D01*
X167459722Y-92806143D01*
X167434863Y-92768094D01*
X167363892Y-92659464D01*
X167323713Y-92597965D01*
X167155293Y-92415012D01*
X167142531Y-92405079D01*
X166959056Y-92262274D01*
X166740359Y-92143922D01*
X166505165Y-92063179D01*
X166259884Y-92022250D01*
X166011214Y-92022250D01*
X165765932Y-92063179D01*
X165530738Y-92143922D01*
X165312041Y-92262274D01*
X165115805Y-92415011D01*
X164947385Y-92597964D01*
X164811376Y-92806141D01*
X164711486Y-93033868D01*
X164650439Y-93274933D01*
X164629905Y-93522750D01*
X163300424Y-93522750D01*
X163300424Y-91555783D01*
X163302967Y-91532742D01*
X163302683Y-91523707D01*
X163302684Y-91523704D01*
X163300522Y-91454901D01*
X163300424Y-91448652D01*
X163300424Y-91421071D01*
X163300316Y-91420216D01*
X163298844Y-91401520D01*
X163297522Y-91359431D01*
X163293247Y-91344720D01*
X163286914Y-91314139D01*
X163284995Y-91298942D01*
X163269488Y-91259778D01*
X163263418Y-91242046D01*
X163251668Y-91201602D01*
X163243872Y-91188420D01*
X163230128Y-91160366D01*
X163228061Y-91155145D01*
X163224492Y-91146129D01*
X163220477Y-91140603D01*
X163199733Y-91112050D01*
X163189450Y-91096397D01*
X163168005Y-91060135D01*
X163157171Y-91049300D01*
X163136890Y-91025555D01*
X163127887Y-91013163D01*
X163095427Y-90986309D01*
X163081569Y-90973699D01*
X158176212Y-86068342D01*
X158161718Y-86050251D01*
X158155126Y-86044061D01*
X158155126Y-86044060D01*
X158104943Y-85996935D01*
X158100485Y-85992615D01*
X158080959Y-85973089D01*
X158080958Y-85973088D01*
X158080954Y-85973084D01*
X158080269Y-85972553D01*
X158066018Y-85960381D01*
X158035316Y-85931550D01*
X158021886Y-85924167D01*
X157995788Y-85907024D01*
X157983960Y-85897849D01*
X157983688Y-85897638D01*
X157983687Y-85897637D01*
X157983685Y-85897636D01*
X157945028Y-85880907D01*
X157928204Y-85872665D01*
X157891292Y-85852373D01*
X157876437Y-85848558D01*
X157846909Y-85838448D01*
X157840565Y-85835703D01*
X157832846Y-85832363D01*
X157791251Y-85825775D01*
X157772895Y-85821974D01*
X157724511Y-85809551D01*
X157656004Y-85777046D01*
X157604630Y-85721275D01*
X157587711Y-85693845D01*
X157463655Y-85569789D01*
X157314334Y-85477686D01*
X157314333Y-85477685D01*
X157314332Y-85477685D01*
X157147799Y-85422501D01*
X157106681Y-85418300D01*
X157045008Y-85412000D01*
X155694992Y-85412000D01*
X155643597Y-85417250D01*
X155592200Y-85422501D01*
X155527019Y-85444100D01*
X155452853Y-85453864D01*
X155380323Y-85435556D01*
X155319677Y-85391763D01*
X155279484Y-85328673D01*
X155265424Y-85255201D01*
X155265424Y-85019799D01*
X155279484Y-84946327D01*
X155319677Y-84883237D01*
X155380323Y-84839444D01*
X155452853Y-84821136D01*
X155527019Y-84830900D01*
X155591765Y-84852354D01*
X155592203Y-84852499D01*
X155694992Y-84863000D01*
X157045005Y-84863000D01*
X157045008Y-84863000D01*
X157147797Y-84852499D01*
X157314334Y-84797314D01*
X157463655Y-84705211D01*
X157587711Y-84581155D01*
X157679814Y-84431834D01*
X157734999Y-84265297D01*
X157745500Y-84162508D01*
X157745500Y-83137492D01*
X157734999Y-83034703D01*
X157679814Y-82868166D01*
X157587711Y-82718845D01*
X157490866Y-82622000D01*
X163766820Y-82622000D01*
X163787203Y-82881000D01*
X163847850Y-83133607D01*
X163947268Y-83373625D01*
X163947270Y-83373628D01*
X164083012Y-83595140D01*
X164251735Y-83792689D01*
X164449284Y-83961412D01*
X164670796Y-84097154D01*
X164910814Y-84196573D01*
X165011810Y-84220820D01*
X165163423Y-84257220D01*
X165163427Y-84257220D01*
X165163430Y-84257221D01*
X165422424Y-84277604D01*
X165681418Y-84257221D01*
X165681421Y-84257220D01*
X165681424Y-84257220D01*
X165792552Y-84230540D01*
X165934034Y-84196573D01*
X166174052Y-84097154D01*
X166395564Y-83961412D01*
X166593113Y-83792689D01*
X166761836Y-83595140D01*
X166897578Y-83373628D01*
X166996997Y-83133610D01*
X167038037Y-82962666D01*
X167057644Y-82881000D01*
X167057644Y-82880997D01*
X167057645Y-82880994D01*
X167078028Y-82622000D01*
X167057645Y-82363006D01*
X167057644Y-82363003D01*
X167057644Y-82362999D01*
X167018831Y-82201333D01*
X166996997Y-82110390D01*
X166897578Y-81870372D01*
X166761836Y-81648860D01*
X166593113Y-81451311D01*
X166395564Y-81282588D01*
X166181405Y-81151352D01*
X166174049Y-81146844D01*
X165970824Y-81062666D01*
X165934034Y-81047427D01*
X165934032Y-81047426D01*
X165934031Y-81047426D01*
X165681424Y-80986779D01*
X165422424Y-80966396D01*
X165163423Y-80986779D01*
X164910816Y-81047426D01*
X164670798Y-81146844D01*
X164449282Y-81282589D01*
X164251735Y-81451311D01*
X164083013Y-81648858D01*
X163947268Y-81870374D01*
X163847850Y-82110392D01*
X163787203Y-82362999D01*
X163766820Y-82622000D01*
X157490866Y-82622000D01*
X157463655Y-82594789D01*
X157314334Y-82502686D01*
X157314333Y-82502685D01*
X157314332Y-82502685D01*
X157147799Y-82447501D01*
X157086961Y-82441286D01*
X157045008Y-82437000D01*
X155694992Y-82437000D01*
X155653039Y-82441286D01*
X155592200Y-82447501D01*
X155425667Y-82502685D01*
X155276343Y-82594790D01*
X155152290Y-82718843D01*
X155136417Y-82744578D01*
X155073257Y-82846973D01*
X155028822Y-82897395D01*
X154970134Y-82930150D01*
X154903888Y-82941500D01*
X153812449Y-82941500D01*
X153750955Y-82931760D01*
X153695481Y-82903495D01*
X153632655Y-82857849D01*
X153459724Y-82780854D01*
X153274573Y-82741500D01*
X153274570Y-82741500D01*
X153085278Y-82741500D01*
X153070797Y-82744578D01*
X152982967Y-82743427D01*
X152904189Y-82704578D01*
X152849809Y-82635597D01*
X152830424Y-82549926D01*
X152830424Y-81816995D01*
X152830038Y-81813214D01*
X152819923Y-81714203D01*
X152764738Y-81547666D01*
X152672635Y-81398345D01*
X152548579Y-81274289D01*
X152399258Y-81182186D01*
X152399257Y-81182185D01*
X152399256Y-81182185D01*
X152232723Y-81127001D01*
X152191605Y-81122800D01*
X152129932Y-81116500D01*
X151104916Y-81116500D01*
X151053521Y-81121750D01*
X151002124Y-81127001D01*
X150835591Y-81182185D01*
X150686267Y-81274290D01*
X150562214Y-81398343D01*
X150470109Y-81547667D01*
X150414925Y-81714200D01*
X150410151Y-81760937D01*
X150404424Y-81816992D01*
X150404424Y-83167008D01*
X150409627Y-83217937D01*
X150414925Y-83269799D01*
X150465938Y-83423744D01*
X150470110Y-83436334D01*
X150562213Y-83585655D01*
X150686269Y-83709711D01*
X150835590Y-83801814D01*
X151002127Y-83856999D01*
X151104916Y-83867500D01*
X151919840Y-83867500D01*
X151995994Y-83882648D01*
X152060554Y-83925786D01*
X152252868Y-84118100D01*
X152261108Y-84126854D01*
X152299492Y-84170181D01*
X152299495Y-84170183D01*
X152347134Y-84203066D01*
X152356810Y-84210185D01*
X152402368Y-84245878D01*
X152405385Y-84247236D01*
X152436758Y-84264929D01*
X152439494Y-84266818D01*
X152493625Y-84287346D01*
X152504685Y-84291927D01*
X152557493Y-84315695D01*
X152557496Y-84315695D01*
X152579531Y-84325613D01*
X152577779Y-84329503D01*
X152617722Y-84346616D01*
X152727192Y-84426150D01*
X152727193Y-84426150D01*
X152727194Y-84426151D01*
X152785622Y-84452165D01*
X152900123Y-84503145D01*
X153085275Y-84542500D01*
X153085278Y-84542500D01*
X153274570Y-84542500D01*
X153274573Y-84542500D01*
X153413437Y-84512982D01*
X153459727Y-84503144D01*
X153518671Y-84476900D01*
X153584483Y-84447599D01*
X153661256Y-84430438D01*
X153738680Y-84444368D01*
X153804657Y-84487214D01*
X153848875Y-84552278D01*
X153864424Y-84629394D01*
X153864424Y-85474415D01*
X153849276Y-85550569D01*
X153806140Y-85615126D01*
X153742360Y-85678907D01*
X153682660Y-85738607D01*
X153636900Y-85772777D01*
X153583320Y-85792543D01*
X153450124Y-85820854D01*
X153277195Y-85897848D01*
X153124052Y-86009112D01*
X152997390Y-86149784D01*
X152902744Y-86313715D01*
X152844249Y-86493743D01*
X152824464Y-86682000D01*
X152844249Y-86870256D01*
X152902744Y-87050284D01*
X152997390Y-87214215D01*
X153083988Y-87310392D01*
X153124053Y-87354888D01*
X153277194Y-87466151D01*
X153399649Y-87520672D01*
X153450123Y-87543145D01*
X153635275Y-87582500D01*
X153635278Y-87582500D01*
X153824570Y-87582500D01*
X153824573Y-87582500D01*
X154009724Y-87543145D01*
X154009725Y-87543144D01*
X154009727Y-87543144D01*
X154182654Y-87466151D01*
X154335795Y-87354888D01*
X154462457Y-87214216D01*
X154557103Y-87050284D01*
X154600407Y-86917009D01*
X154606240Y-86899058D01*
X154645639Y-86829623D01*
X154709157Y-86781260D01*
X154786572Y-86761753D01*
X154865424Y-86774242D01*
X154933022Y-86816717D01*
X154978486Y-86882341D01*
X154994500Y-86960553D01*
X154994500Y-87137505D01*
X155005001Y-87240299D01*
X155056960Y-87397100D01*
X155060186Y-87406834D01*
X155152289Y-87556155D01*
X155276345Y-87680211D01*
X155425666Y-87772314D01*
X155592203Y-87827499D01*
X155694992Y-87838000D01*
X157045005Y-87838000D01*
X157045008Y-87838000D01*
X157147797Y-87827499D01*
X157314334Y-87772314D01*
X157463655Y-87680211D01*
X157565207Y-87578658D01*
X157629768Y-87535520D01*
X157705922Y-87520372D01*
X157782076Y-87535520D01*
X157846636Y-87578658D01*
X161941138Y-91673159D01*
X161984276Y-91737719D01*
X161999424Y-91813873D01*
X161999424Y-111361000D01*
X161984276Y-111437154D01*
X161941138Y-111501714D01*
X161876578Y-111544852D01*
X161800424Y-111560000D01*
X158634424Y-111560000D01*
X158558270Y-111544852D01*
X158493710Y-111501714D01*
X158450572Y-111437154D01*
X158435424Y-111361000D01*
X158435423Y-110921994D01*
X158435423Y-110921991D01*
X158424923Y-110819203D01*
X158369738Y-110652666D01*
X158296488Y-110533908D01*
X158268274Y-110453113D01*
X158276601Y-110367942D01*
X158285598Y-110340256D01*
X158305384Y-110152000D01*
X158285598Y-109963744D01*
X158264460Y-109898689D01*
X158227103Y-109783715D01*
X158132457Y-109619784D01*
X158005795Y-109479112D01*
X157879474Y-109387335D01*
X157852654Y-109367849D01*
X157848798Y-109366132D01*
X157679724Y-109290854D01*
X157494573Y-109251500D01*
X157494570Y-109251500D01*
X157470658Y-109251500D01*
X157390721Y-109234739D01*
X157324249Y-109187279D01*
X157282440Y-109117115D01*
X157272338Y-109036067D01*
X157295643Y-108957786D01*
X157348430Y-108895461D01*
X157367279Y-108880789D01*
X157409744Y-108847738D01*
X157578164Y-108664785D01*
X157714173Y-108456607D01*
X157814063Y-108228881D01*
X157875108Y-107987821D01*
X157875108Y-107987819D01*
X157875109Y-107987816D01*
X157895643Y-107740000D01*
X157886517Y-107629868D01*
X157897995Y-107544943D01*
X157944121Y-107472722D01*
X159801641Y-105615201D01*
X159805170Y-105611760D01*
X159867977Y-105552059D01*
X159900047Y-105505982D01*
X159909155Y-105493902D01*
X159944622Y-105450407D01*
X159956500Y-105427666D01*
X159969552Y-105406119D01*
X159984219Y-105385049D01*
X160006355Y-105333464D01*
X160012837Y-105319813D01*
X160038833Y-105270049D01*
X160045892Y-105245378D01*
X160054344Y-105221638D01*
X160064464Y-105198058D01*
X160075764Y-105143066D01*
X160079366Y-105128392D01*
X160094811Y-105074418D01*
X160096760Y-105048811D01*
X160100258Y-105023874D01*
X160105424Y-104998741D01*
X160105424Y-104942617D01*
X160105998Y-104927508D01*
X160106265Y-104923988D01*
X160110261Y-104871524D01*
X160107018Y-104846059D01*
X160105424Y-104820920D01*
X160105424Y-102820526D01*
X160119037Y-102748188D01*
X160158015Y-102685747D01*
X160185042Y-102656388D01*
X160326213Y-102503035D01*
X160462222Y-102294857D01*
X160562112Y-102067131D01*
X160623157Y-101826071D01*
X160623157Y-101826069D01*
X160623158Y-101826066D01*
X160643692Y-101578250D01*
X160623158Y-101330433D01*
X160597394Y-101228694D01*
X160562112Y-101089369D01*
X160462222Y-100861643D01*
X160454835Y-100850337D01*
X160370009Y-100720500D01*
X160326213Y-100653465D01*
X160157793Y-100470512D01*
X160120655Y-100441606D01*
X159961556Y-100317774D01*
X159742859Y-100199422D01*
X159507665Y-100118679D01*
X159262384Y-100077750D01*
X159013714Y-100077750D01*
X158768432Y-100118679D01*
X158533238Y-100199422D01*
X158314541Y-100317774D01*
X158118305Y-100470511D01*
X157949885Y-100653464D01*
X157813876Y-100861641D01*
X157713986Y-101089368D01*
X157652939Y-101330433D01*
X157632405Y-101578250D01*
X157652939Y-101826066D01*
X157713986Y-102067131D01*
X157813876Y-102294858D01*
X157949885Y-102503035D01*
X158051833Y-102613780D01*
X158090811Y-102676221D01*
X158104424Y-102748559D01*
X158104424Y-104400151D01*
X158089276Y-104476305D01*
X158046138Y-104540865D01*
X156405790Y-106181214D01*
X156341230Y-106224352D01*
X156281826Y-106236168D01*
X156281930Y-106236786D01*
X156020383Y-106280429D01*
X155785189Y-106361172D01*
X155566492Y-106479524D01*
X155370256Y-106632261D01*
X155333409Y-106672288D01*
X155269440Y-106718629D01*
X155192483Y-106736433D01*
X155114662Y-106722896D01*
X155048238Y-106680149D01*
X155003677Y-106614928D01*
X154988000Y-106537509D01*
X154988000Y-102411412D01*
X154981494Y-102350906D01*
X154930445Y-102214038D01*
X154842903Y-102097096D01*
X154725961Y-102009554D01*
X154589093Y-101958505D01*
X154528588Y-101952000D01*
X154480000Y-101952000D01*
X154480000Y-109994687D01*
X154464181Y-110072441D01*
X154419239Y-110137833D01*
X154352320Y-110180468D01*
X154274062Y-110193566D01*
X154196907Y-110175046D01*
X154133121Y-110127851D01*
X154131121Y-110125630D01*
X154093219Y-110063786D01*
X154080000Y-109992466D01*
X154080000Y-101952000D01*
X154031412Y-101952000D01*
X153970906Y-101958505D01*
X153834038Y-102009554D01*
X153717096Y-102097096D01*
X153629554Y-102214038D01*
X153578505Y-102350906D01*
X153572000Y-102411412D01*
X153572000Y-103691000D01*
X153556852Y-103767154D01*
X153513714Y-103831714D01*
X153449154Y-103874852D01*
X153373000Y-103890000D01*
X152107158Y-103890000D01*
X152031004Y-103874852D01*
X151966444Y-103831714D01*
X151077450Y-102942720D01*
X151077447Y-102942718D01*
X150833350Y-102698621D01*
X150773413Y-102638684D01*
X150729189Y-102571444D01*
X150715213Y-102492184D01*
X150733774Y-102413871D01*
X150781835Y-102349314D01*
X150851535Y-102309073D01*
X150931470Y-102299729D01*
X151019924Y-102307468D01*
X151246616Y-102287635D01*
X151466420Y-102228739D01*
X151672658Y-102132568D01*
X151859063Y-102002047D01*
X152019971Y-101841139D01*
X152150492Y-101654734D01*
X152246663Y-101448496D01*
X152305559Y-101228692D01*
X152325392Y-101002000D01*
X152305559Y-100775308D01*
X152246663Y-100555504D01*
X152150492Y-100349266D01*
X152019971Y-100162861D01*
X151859063Y-100001953D01*
X151672658Y-99871432D01*
X151466420Y-99775261D01*
X151466417Y-99775260D01*
X151246618Y-99716365D01*
X151019924Y-99696532D01*
X150793229Y-99716365D01*
X150573430Y-99775260D01*
X150367190Y-99871432D01*
X150180782Y-100001955D01*
X150019879Y-100162858D01*
X150009473Y-100177720D01*
X149889356Y-100349266D01*
X149889354Y-100349268D01*
X149879371Y-100363527D01*
X149877421Y-100362161D01*
X149848877Y-100401347D01*
X149783910Y-100441606D01*
X149708561Y-100454408D01*
X149633944Y-100437866D01*
X149571065Y-100394419D01*
X149529199Y-100330477D01*
X149514522Y-100255470D01*
X149514522Y-99796654D01*
X149513805Y-99794211D01*
X149484462Y-99694280D01*
X149481041Y-99688956D01*
X149426779Y-99604521D01*
X149346144Y-99534651D01*
X149316331Y-99521036D01*
X149254976Y-99477345D01*
X149214255Y-99413980D01*
X149200000Y-99340020D01*
X149200000Y-98500000D01*
X148574577Y-98500000D01*
X148513984Y-98490551D01*
X148459146Y-98463101D01*
X148415269Y-98420256D01*
X148412903Y-98417096D01*
X148295961Y-98329554D01*
X148159093Y-98278505D01*
X148098588Y-98272000D01*
X141250000Y-98272000D01*
X141250000Y-98623982D01*
X140850000Y-98631624D01*
X140850000Y-98272000D01*
X134445000Y-98272000D01*
X134445000Y-98753982D01*
X134130000Y-98760000D01*
X134045000Y-98762614D01*
X134045000Y-98272000D01*
X134001412Y-98272000D01*
X133940906Y-98278505D01*
X133804038Y-98329554D01*
X133687096Y-98417096D01*
X133599552Y-98534040D01*
X133554858Y-98653868D01*
X133513828Y-98720167D01*
X133450474Y-98765612D01*
X133374522Y-98783229D01*
X132799415Y-98800913D01*
X132721879Y-98787749D01*
X132655498Y-98745575D01*
X132610639Y-98680978D01*
X132594309Y-98604046D01*
X132609059Y-98526796D01*
X132652582Y-98461296D01*
X133403093Y-97710786D01*
X133467654Y-97667648D01*
X133543808Y-97652500D01*
X138932241Y-97652500D01*
X138958214Y-97654202D01*
X138983000Y-97657465D01*
X139020714Y-97652500D01*
X139020720Y-97652500D01*
X139133236Y-97637687D01*
X139273233Y-97579698D01*
X139284303Y-97571204D01*
X139363268Y-97510612D01*
X139363268Y-97510611D01*
X139389418Y-97490546D01*
X139389425Y-97490540D01*
X139393451Y-97487451D01*
X139408677Y-97467607D01*
X139425819Y-97448059D01*
X139921879Y-96952000D01*
X150069769Y-96952000D01*
X150088362Y-97188241D01*
X150143680Y-97418662D01*
X150143681Y-97418664D01*
X150206865Y-97571204D01*
X150234368Y-97637600D01*
X150347374Y-97822009D01*
X150358183Y-97839647D01*
X150512083Y-98019841D01*
X150692277Y-98173741D01*
X150894328Y-98297558D01*
X151113260Y-98388243D01*
X151343684Y-98443562D01*
X151579924Y-98462155D01*
X151816164Y-98443562D01*
X152046588Y-98388243D01*
X152265520Y-98297558D01*
X152467571Y-98173741D01*
X152647765Y-98019841D01*
X152801665Y-97839647D01*
X152925482Y-97637596D01*
X153016167Y-97418664D01*
X153071486Y-97188240D01*
X153090079Y-96952000D01*
X153071486Y-96715760D01*
X153016167Y-96485336D01*
X152925482Y-96266404D01*
X152801665Y-96064353D01*
X152647765Y-95884159D01*
X152467571Y-95730259D01*
X152460649Y-95726017D01*
X152265524Y-95606444D01*
X152265521Y-95606443D01*
X152265520Y-95606442D01*
X152112892Y-95543221D01*
X152046586Y-95515756D01*
X151816165Y-95460438D01*
X151579924Y-95441845D01*
X151343682Y-95460438D01*
X151113261Y-95515756D01*
X150894323Y-95606444D01*
X150692279Y-95730257D01*
X150512083Y-95884159D01*
X150358181Y-96064355D01*
X150234368Y-96266399D01*
X150143680Y-96485337D01*
X150088362Y-96715758D01*
X150069769Y-96952000D01*
X139921879Y-96952000D01*
X139925096Y-96948783D01*
X139989654Y-96905648D01*
X140065808Y-96890500D01*
X140164649Y-96890500D01*
X140349800Y-96851145D01*
X140349801Y-96851144D01*
X140349803Y-96851144D01*
X140522730Y-96774151D01*
X140675871Y-96662888D01*
X140802533Y-96522216D01*
X140897179Y-96358284D01*
X140955674Y-96178256D01*
X140975460Y-95990000D01*
X140955674Y-95801744D01*
X140953689Y-95795636D01*
X140897179Y-95621715D01*
X140802533Y-95457784D01*
X140675871Y-95317112D01*
X140654182Y-95301354D01*
X140522730Y-95205849D01*
X140522728Y-95205848D01*
X140349800Y-95128854D01*
X140164649Y-95089500D01*
X140164646Y-95089500D01*
X139975354Y-95089500D01*
X139975351Y-95089500D01*
X139790199Y-95128854D01*
X139662529Y-95185698D01*
X139617273Y-95205848D01*
X139598164Y-95214356D01*
X139597642Y-95213185D01*
X139559920Y-95231178D01*
X139487614Y-95236868D01*
X139418072Y-95216268D01*
X139360531Y-95172115D01*
X139359434Y-95170897D01*
X139285795Y-95089112D01*
X139132654Y-94977849D01*
X139121065Y-94972689D01*
X138959724Y-94900854D01*
X138774573Y-94861500D01*
X138774570Y-94861500D01*
X138664576Y-94861500D01*
X138578681Y-94842008D01*
X138509613Y-94787350D01*
X138470903Y-94708234D01*
X138470133Y-94620159D01*
X138507452Y-94540380D01*
X138524973Y-94517839D01*
X138611863Y-94375471D01*
X141805824Y-94375471D01*
X141812233Y-94435084D01*
X141860310Y-94563984D01*
X141862528Y-94569931D01*
X141948778Y-94685146D01*
X142063993Y-94771396D01*
X142198841Y-94821691D01*
X142258451Y-94828100D01*
X145097396Y-94828099D01*
X145157007Y-94821691D01*
X145291855Y-94771396D01*
X145407070Y-94685146D01*
X145493320Y-94569931D01*
X145543615Y-94435083D01*
X145550024Y-94375473D01*
X145550023Y-91852000D01*
X148869769Y-91852000D01*
X148888362Y-92088241D01*
X148943680Y-92318662D01*
X148943681Y-92318664D01*
X149032816Y-92533855D01*
X149034368Y-92537600D01*
X149151440Y-92728643D01*
X149158183Y-92739647D01*
X149312083Y-92919841D01*
X149492277Y-93073741D01*
X149694328Y-93197558D01*
X149913260Y-93288243D01*
X150143684Y-93343562D01*
X150379924Y-93362155D01*
X150616164Y-93343562D01*
X150846588Y-93288243D01*
X151065520Y-93197558D01*
X151267571Y-93073741D01*
X151447765Y-92919841D01*
X151601665Y-92739647D01*
X151725482Y-92537596D01*
X151816167Y-92318664D01*
X151871486Y-92088240D01*
X151890079Y-91852000D01*
X151871486Y-91615760D01*
X151816167Y-91385336D01*
X151725482Y-91166404D01*
X151718582Y-91155145D01*
X151671993Y-91079118D01*
X151601665Y-90964353D01*
X151447765Y-90784159D01*
X151267571Y-90630259D01*
X151267568Y-90630257D01*
X151065524Y-90506444D01*
X151065521Y-90506443D01*
X151065520Y-90506442D01*
X150872700Y-90426573D01*
X150846586Y-90415756D01*
X150616165Y-90360438D01*
X150379924Y-90341845D01*
X150143682Y-90360438D01*
X149913261Y-90415756D01*
X149694323Y-90506444D01*
X149492279Y-90630257D01*
X149312083Y-90784159D01*
X149158181Y-90964355D01*
X149034368Y-91166399D01*
X148943680Y-91385337D01*
X148888362Y-91615758D01*
X148869769Y-91852000D01*
X145550023Y-91852000D01*
X145550023Y-91536528D01*
X145543615Y-91476917D01*
X145493320Y-91342069D01*
X145407070Y-91226854D01*
X145311278Y-91155144D01*
X145291854Y-91140603D01*
X145157008Y-91090309D01*
X145142104Y-91088706D01*
X145097397Y-91083900D01*
X145097394Y-91083900D01*
X142258452Y-91083900D01*
X142198839Y-91090309D01*
X142063994Y-91140603D01*
X141948778Y-91226854D01*
X141862527Y-91342069D01*
X141812233Y-91476915D01*
X141805824Y-91536529D01*
X141805824Y-94375471D01*
X138611863Y-94375471D01*
X138694652Y-94239822D01*
X138831979Y-93944481D01*
X138935209Y-93635567D01*
X139003032Y-93317000D01*
X139034588Y-92992826D01*
X139032099Y-92831611D01*
X139032075Y-92828539D01*
X139032075Y-92782155D01*
X139002504Y-92691150D01*
X138946262Y-92613737D01*
X138868849Y-92557495D01*
X138777845Y-92527925D01*
X138777844Y-92527925D01*
X138717423Y-92527925D01*
X138641269Y-92512777D01*
X138576709Y-92469639D01*
X138533571Y-92405079D01*
X138518423Y-92328925D01*
X138533571Y-92252771D01*
X138576709Y-92188211D01*
X141084134Y-89680786D01*
X141148694Y-89637648D01*
X141224848Y-89622500D01*
X148448183Y-89622500D01*
X148600666Y-89622500D01*
X151763075Y-89622500D01*
X151839229Y-89637648D01*
X151903789Y-89680786D01*
X153531138Y-91308135D01*
X153574276Y-91372695D01*
X153589424Y-91448849D01*
X153589424Y-94426770D01*
X153589360Y-94431811D01*
X153587166Y-94518361D01*
X153597070Y-94573617D01*
X153599170Y-94588590D01*
X153604849Y-94644438D01*
X153612534Y-94668931D01*
X153618537Y-94693388D01*
X153623065Y-94718652D01*
X153643890Y-94770786D01*
X153648960Y-94785028D01*
X153665764Y-94838587D01*
X153678220Y-94861028D01*
X153689025Y-94883780D01*
X153698546Y-94907617D01*
X153711487Y-94927252D01*
X153729443Y-94954497D01*
X153737258Y-94967396D01*
X153764515Y-95016502D01*
X153764517Y-95016504D01*
X153781234Y-95035977D01*
X153796400Y-95056091D01*
X153810522Y-95077519D01*
X153850225Y-95117222D01*
X153860478Y-95128285D01*
X153882301Y-95153705D01*
X153897060Y-95170897D01*
X153917350Y-95186602D01*
X153936256Y-95203253D01*
X154961138Y-96228135D01*
X155004276Y-96292695D01*
X155019424Y-96368849D01*
X155019424Y-98800764D01*
X155010214Y-98860604D01*
X154983436Y-98914903D01*
X154901742Y-99031577D01*
X154889356Y-99049266D01*
X154793184Y-99255506D01*
X154734289Y-99475305D01*
X154714456Y-99702000D01*
X154734289Y-99928694D01*
X154792577Y-100146226D01*
X154793185Y-100148496D01*
X154889356Y-100354734D01*
X155019877Y-100541139D01*
X155180785Y-100702047D01*
X155367190Y-100832568D01*
X155573428Y-100928739D01*
X155793232Y-100987635D01*
X156019924Y-101007468D01*
X156246616Y-100987635D01*
X156466420Y-100928739D01*
X156672658Y-100832568D01*
X156859063Y-100702047D01*
X157019971Y-100541139D01*
X157150492Y-100354734D01*
X157246663Y-100148496D01*
X157305559Y-99928692D01*
X157325392Y-99702000D01*
X157305559Y-99475308D01*
X157246663Y-99255504D01*
X157150492Y-99049266D01*
X157056411Y-98914903D01*
X157029634Y-98860604D01*
X157020424Y-98800764D01*
X157020424Y-95887189D01*
X157020488Y-95882148D01*
X157022680Y-95795638D01*
X157022680Y-95795636D01*
X157012774Y-95740372D01*
X157010676Y-95725407D01*
X157004998Y-95669563D01*
X156997313Y-95645069D01*
X156991307Y-95620596D01*
X156988093Y-95602662D01*
X156986782Y-95595347D01*
X156965957Y-95543213D01*
X156960888Y-95528974D01*
X156944083Y-95475412D01*
X156931627Y-95452972D01*
X156920824Y-95430226D01*
X156911301Y-95406383D01*
X156900700Y-95390298D01*
X156880408Y-95359507D01*
X156872574Y-95346576D01*
X156845333Y-95297497D01*
X156828616Y-95278025D01*
X156813446Y-95257906D01*
X156799326Y-95236481D01*
X156759634Y-95196789D01*
X156749355Y-95185698D01*
X156712789Y-95143104D01*
X156692496Y-95127396D01*
X156673591Y-95110746D01*
X156183004Y-94620159D01*
X155648709Y-94085865D01*
X155605572Y-94021306D01*
X155590424Y-93945152D01*
X155590424Y-93445250D01*
X157582405Y-93445250D01*
X157602939Y-93693066D01*
X157663986Y-93934131D01*
X157763876Y-94161858D01*
X157899885Y-94370035D01*
X158068305Y-94552988D01*
X158264541Y-94705725D01*
X158342293Y-94747802D01*
X158483239Y-94824078D01*
X158718435Y-94904821D01*
X158963714Y-94945750D01*
X159212384Y-94945750D01*
X159457663Y-94904821D01*
X159692859Y-94824078D01*
X159911558Y-94705724D01*
X160107793Y-94552988D01*
X160276213Y-94370035D01*
X160412222Y-94161857D01*
X160512112Y-93934131D01*
X160573157Y-93693071D01*
X160573157Y-93693069D01*
X160573158Y-93693066D01*
X160593692Y-93445250D01*
X160573158Y-93197433D01*
X160551288Y-93111072D01*
X160512112Y-92956369D01*
X160412222Y-92728643D01*
X160386251Y-92688892D01*
X160300406Y-92557495D01*
X160276213Y-92520465D01*
X160107793Y-92337512D01*
X160100371Y-92331735D01*
X159911556Y-92184774D01*
X159692859Y-92066422D01*
X159457665Y-91985679D01*
X159212384Y-91944750D01*
X158963714Y-91944750D01*
X158718432Y-91985679D01*
X158483238Y-92066422D01*
X158264541Y-92184774D01*
X158068305Y-92337511D01*
X157899885Y-92520464D01*
X157763876Y-92728641D01*
X157663986Y-92956368D01*
X157602939Y-93197433D01*
X157582405Y-93445250D01*
X155590424Y-93445250D01*
X155590424Y-90967230D01*
X155590488Y-90962189D01*
X155592681Y-90875640D01*
X155592680Y-90875639D01*
X155592681Y-90875637D01*
X155582771Y-90820349D01*
X155580678Y-90805421D01*
X155574998Y-90749562D01*
X155567311Y-90725064D01*
X155561309Y-90700612D01*
X155556782Y-90675348D01*
X155537819Y-90627873D01*
X155535960Y-90623219D01*
X155530889Y-90608976D01*
X155514083Y-90555412D01*
X155501631Y-90532978D01*
X155490825Y-90510224D01*
X155481302Y-90486383D01*
X155450408Y-90439507D01*
X155442572Y-90426573D01*
X155415333Y-90377498D01*
X155398611Y-90358019D01*
X155383445Y-90337904D01*
X155369328Y-90316484D01*
X155349807Y-90296963D01*
X155329627Y-90276783D01*
X155319360Y-90265704D01*
X155287608Y-90228718D01*
X155282790Y-90223105D01*
X155262486Y-90207388D01*
X155243583Y-90190739D01*
X152978164Y-87925320D01*
X152974645Y-87921711D01*
X152914982Y-87858946D01*
X152868911Y-87826880D01*
X152856836Y-87817775D01*
X152813334Y-87782303D01*
X152790581Y-87770418D01*
X152769040Y-87757367D01*
X152747973Y-87742704D01*
X152696386Y-87720566D01*
X152682732Y-87714082D01*
X152632974Y-87688091D01*
X152620842Y-87684619D01*
X152608298Y-87681030D01*
X152584571Y-87672583D01*
X152560979Y-87662458D01*
X152505995Y-87651159D01*
X152491312Y-87647555D01*
X152437341Y-87632112D01*
X152411745Y-87630163D01*
X152386800Y-87626665D01*
X152361665Y-87621500D01*
X152305541Y-87621500D01*
X152290432Y-87620926D01*
X152263188Y-87618851D01*
X152234448Y-87616663D01*
X152234447Y-87616663D01*
X152208983Y-87619906D01*
X152183844Y-87621500D01*
X149007880Y-87621500D01*
X148925883Y-87603822D01*
X148858455Y-87553928D01*
X148817576Y-87480683D01*
X148810508Y-87397100D01*
X148838507Y-87318031D01*
X148843220Y-87310390D01*
X148919738Y-87186334D01*
X148974923Y-87019797D01*
X148985424Y-86917009D01*
X148985423Y-84666992D01*
X148974923Y-84564203D01*
X148919738Y-84397666D01*
X148854529Y-84291945D01*
X148827635Y-84248342D01*
X148786507Y-84207214D01*
X148743369Y-84142654D01*
X148728221Y-84066500D01*
X148743369Y-83990346D01*
X148786507Y-83925786D01*
X148851067Y-83882648D01*
X148927221Y-83867500D01*
X149154929Y-83867500D01*
X149154932Y-83867500D01*
X149257721Y-83856999D01*
X149424258Y-83801814D01*
X149573579Y-83709711D01*
X149697635Y-83585655D01*
X149789738Y-83436334D01*
X149844923Y-83269797D01*
X149855424Y-83167008D01*
X149855424Y-81816992D01*
X149844923Y-81714203D01*
X149789738Y-81547666D01*
X149697635Y-81398345D01*
X149573579Y-81274289D01*
X149424258Y-81182186D01*
X149424257Y-81182185D01*
X149424256Y-81182185D01*
X149257723Y-81127001D01*
X149216605Y-81122800D01*
X149154932Y-81116500D01*
X148129916Y-81116500D01*
X148078521Y-81121750D01*
X148027124Y-81127001D01*
X147860591Y-81182185D01*
X147853910Y-81186306D01*
X147711269Y-81274289D01*
X147711267Y-81274290D01*
X147691473Y-81286500D01*
X147690438Y-81284822D01*
X147653271Y-81309264D01*
X147574013Y-81323236D01*
X147495703Y-81304673D01*
X147431150Y-81256613D01*
X147390910Y-81186915D01*
X147389343Y-81182185D01*
X147349738Y-81062666D01*
X147280132Y-80949816D01*
X147267551Y-80929418D01*
X147245474Y-80879243D01*
X147237924Y-80824949D01*
X147237924Y-80792000D01*
X153724464Y-80792000D01*
X153744249Y-80980256D01*
X153802744Y-81160284D01*
X153897390Y-81324215D01*
X154023659Y-81464451D01*
X154024053Y-81464888D01*
X154177194Y-81576151D01*
X154270489Y-81617689D01*
X154350123Y-81653145D01*
X154535275Y-81692500D01*
X154535278Y-81692500D01*
X154724570Y-81692500D01*
X154724573Y-81692500D01*
X154909724Y-81653145D01*
X154909725Y-81653144D01*
X154909727Y-81653144D01*
X155082654Y-81576151D01*
X155235795Y-81464888D01*
X155362457Y-81324216D01*
X155457103Y-81160284D01*
X155515598Y-80980256D01*
X155535384Y-80792000D01*
X155523316Y-80677179D01*
X155517549Y-80622300D01*
X155526199Y-80540005D01*
X155567574Y-80468342D01*
X155634519Y-80419704D01*
X155715459Y-80402500D01*
X155777925Y-80402500D01*
X155854079Y-80417648D01*
X155918639Y-80460786D01*
X155961777Y-80525346D01*
X155976925Y-80601500D01*
X155976925Y-80692372D01*
X155977473Y-80697471D01*
X155983333Y-80751984D01*
X156030798Y-80879243D01*
X156033628Y-80886831D01*
X156119878Y-81002046D01*
X156235093Y-81088296D01*
X156369941Y-81138591D01*
X156429551Y-81145000D01*
X158720296Y-81144999D01*
X158779907Y-81138591D01*
X158914755Y-81088296D01*
X159029970Y-81002046D01*
X159116220Y-80886831D01*
X159166515Y-80751983D01*
X159172924Y-80692373D01*
X159172923Y-78669871D01*
X163771924Y-78669871D01*
X163778333Y-78729484D01*
X163828627Y-78864329D01*
X163828628Y-78864331D01*
X163914878Y-78979546D01*
X164030093Y-79065796D01*
X164164941Y-79116091D01*
X164224551Y-79122500D01*
X166620296Y-79122499D01*
X166679907Y-79116091D01*
X166814755Y-79065796D01*
X166929970Y-78979546D01*
X167016220Y-78864331D01*
X167066515Y-78729483D01*
X167072924Y-78669873D01*
X167072923Y-76574128D01*
X167066515Y-76514517D01*
X167016220Y-76379669D01*
X166929970Y-76264454D01*
X166814755Y-76178204D01*
X166814754Y-76178203D01*
X166679908Y-76127909D01*
X166665004Y-76126306D01*
X166620297Y-76121500D01*
X166620294Y-76121500D01*
X164224552Y-76121500D01*
X164164939Y-76127909D01*
X164030094Y-76178203D01*
X163914878Y-76264454D01*
X163828627Y-76379669D01*
X163778333Y-76514515D01*
X163778332Y-76514517D01*
X163778333Y-76514517D01*
X163773655Y-76558032D01*
X163771924Y-76574129D01*
X163771924Y-78669871D01*
X159172923Y-78669871D01*
X159172923Y-78401628D01*
X159166515Y-78342017D01*
X159116220Y-78207169D01*
X159029970Y-78091954D01*
X158914755Y-78005704D01*
X158914754Y-78005703D01*
X158779908Y-77955409D01*
X158765004Y-77953806D01*
X158720297Y-77949000D01*
X158720294Y-77949000D01*
X156429552Y-77949000D01*
X156369939Y-77955409D01*
X156235094Y-78005703D01*
X156119878Y-78091954D01*
X156033627Y-78207169D01*
X155983333Y-78342015D01*
X155976924Y-78401630D01*
X155976924Y-79002500D01*
X155961776Y-79078654D01*
X155918638Y-79143214D01*
X155854078Y-79186352D01*
X155777924Y-79201500D01*
X155312332Y-79201500D01*
X155286356Y-79199797D01*
X155259923Y-79196316D01*
X155038801Y-79225428D01*
X154971418Y-79271526D01*
X154957080Y-79277465D01*
X154831643Y-79373716D01*
X154815408Y-79394874D01*
X154798246Y-79414442D01*
X154253106Y-79959581D01*
X154193341Y-80000659D01*
X154177194Y-80007848D01*
X154024054Y-80119110D01*
X153897390Y-80259784D01*
X153802744Y-80423715D01*
X153744249Y-80603743D01*
X153724464Y-80792000D01*
X147237924Y-80792000D01*
X147237924Y-80532797D01*
X147253072Y-80456643D01*
X147276719Y-80421252D01*
X147275425Y-80420454D01*
X147347199Y-80304088D01*
X147379738Y-80251334D01*
X147434923Y-80084797D01*
X147445424Y-79982009D01*
X147445423Y-78981992D01*
X147434923Y-78879203D01*
X147379738Y-78712666D01*
X147353341Y-78669870D01*
X147275425Y-78543546D01*
X147276719Y-78542747D01*
X147253072Y-78507357D01*
X147237924Y-78431203D01*
X147237924Y-77206684D01*
X147238287Y-77194668D01*
X147241782Y-77136894D01*
X147231343Y-77079933D01*
X147229538Y-77068067D01*
X147222565Y-77010632D01*
X147222564Y-77010630D01*
X147222564Y-77010628D01*
X147221388Y-77007529D01*
X147211716Y-76972829D01*
X147211119Y-76969571D01*
X147211119Y-76969569D01*
X147187351Y-76916761D01*
X147182767Y-76905692D01*
X147162242Y-76851570D01*
X147160356Y-76848838D01*
X147142662Y-76817466D01*
X147141302Y-76814444D01*
X147114540Y-76780284D01*
X147105604Y-76768877D01*
X147098484Y-76759200D01*
X147065607Y-76711571D01*
X147022285Y-76673191D01*
X147013533Y-76664952D01*
X143640952Y-73292371D01*
X148576924Y-73292371D01*
X148583333Y-73351984D01*
X148630041Y-73477214D01*
X148633628Y-73486831D01*
X148719878Y-73602046D01*
X148835093Y-73688296D01*
X148969941Y-73738591D01*
X149029551Y-73745000D01*
X151320296Y-73744999D01*
X151379907Y-73738591D01*
X151514755Y-73688296D01*
X151629970Y-73602046D01*
X151716220Y-73486831D01*
X151766515Y-73351983D01*
X151772924Y-73292373D01*
X151772923Y-72401000D01*
X155969424Y-72401000D01*
X155969424Y-73293088D01*
X155975929Y-73353593D01*
X156026978Y-73490461D01*
X156114520Y-73607403D01*
X156231462Y-73694945D01*
X156368330Y-73745994D01*
X156428836Y-73752500D01*
X157320924Y-73752500D01*
X157320924Y-72401000D01*
X157828924Y-72401000D01*
X157828924Y-73752500D01*
X158721012Y-73752500D01*
X158781517Y-73745994D01*
X158918385Y-73694945D01*
X159035327Y-73607403D01*
X159122869Y-73490461D01*
X159173918Y-73353593D01*
X159180424Y-73293088D01*
X159180424Y-72401000D01*
X157828924Y-72401000D01*
X157320924Y-72401000D01*
X155969424Y-72401000D01*
X151772923Y-72401000D01*
X151772923Y-71893000D01*
X155969424Y-71893000D01*
X157320924Y-71893000D01*
X157320924Y-70541500D01*
X157828924Y-70541500D01*
X157828924Y-71893000D01*
X159180424Y-71893000D01*
X159180424Y-71000912D01*
X159173918Y-70940406D01*
X159122869Y-70803538D01*
X159035327Y-70686596D01*
X158918385Y-70599054D01*
X158781517Y-70548005D01*
X158721012Y-70541500D01*
X157828924Y-70541500D01*
X157320924Y-70541500D01*
X156428836Y-70541500D01*
X156368330Y-70548005D01*
X156231462Y-70599054D01*
X156114520Y-70686596D01*
X156026978Y-70803538D01*
X155975929Y-70940406D01*
X155969424Y-71000912D01*
X155969424Y-71893000D01*
X151772923Y-71893000D01*
X151772923Y-71001628D01*
X151766515Y-70942017D01*
X151716220Y-70807169D01*
X151629970Y-70691954D01*
X151514755Y-70605704D01*
X151514754Y-70605703D01*
X151379908Y-70555409D01*
X151365004Y-70553806D01*
X151320297Y-70549000D01*
X151320294Y-70549000D01*
X149029552Y-70549000D01*
X148969939Y-70555409D01*
X148835094Y-70605703D01*
X148719878Y-70691954D01*
X148633627Y-70807169D01*
X148583333Y-70942015D01*
X148576924Y-71001629D01*
X148576924Y-73292371D01*
X143640952Y-73292371D01*
X142309471Y-71960890D01*
X142301231Y-71952137D01*
X142264248Y-71910392D01*
X142262853Y-71908817D01*
X142262852Y-71908816D01*
X142262851Y-71908815D01*
X142215224Y-71875940D01*
X142205546Y-71868819D01*
X142159980Y-71833121D01*
X142156955Y-71831760D01*
X142125581Y-71814064D01*
X142122855Y-71812182D01*
X142089298Y-71799456D01*
X142068730Y-71791655D01*
X142057663Y-71787071D01*
X142004856Y-71763305D01*
X142004855Y-71763304D01*
X142004851Y-71763303D01*
X142001579Y-71762704D01*
X141966897Y-71753036D01*
X141963794Y-71751859D01*
X141906349Y-71744883D01*
X141894474Y-71743076D01*
X141837531Y-71732641D01*
X141779756Y-71736137D01*
X141767740Y-71736500D01*
X137649547Y-71736500D01*
X137583119Y-71725086D01*
X137524312Y-71692152D01*
X137479872Y-71641477D01*
X137361837Y-71448862D01*
X137361836Y-71448860D01*
X137193113Y-71251311D01*
X136995564Y-71082588D01*
X136774052Y-70946846D01*
X136774049Y-70946844D01*
X136592270Y-70871549D01*
X136534034Y-70847427D01*
X136534032Y-70847426D01*
X136534031Y-70847426D01*
X136281424Y-70786779D01*
X136059423Y-70769307D01*
X136022424Y-70766396D01*
X136022423Y-70766396D01*
X135763423Y-70786779D01*
X135510816Y-70847426D01*
X135270798Y-70946844D01*
X135049282Y-71082589D01*
X134851735Y-71251311D01*
X134683013Y-71448858D01*
X134547268Y-71670374D01*
X134447850Y-71910392D01*
X134387203Y-72162999D01*
X134366820Y-72421999D01*
X134387203Y-72681000D01*
X134444678Y-72920395D01*
X134447851Y-72933610D01*
X134452213Y-72944141D01*
X134547268Y-73173625D01*
X134547270Y-73173628D01*
X134683012Y-73395140D01*
X134851735Y-73592689D01*
X135049284Y-73761412D01*
X135270796Y-73897154D01*
X135510814Y-73996573D01*
X135615313Y-74021661D01*
X135763423Y-74057220D01*
X135763427Y-74057220D01*
X135763430Y-74057221D01*
X136022424Y-74077604D01*
X136281418Y-74057221D01*
X136281421Y-74057220D01*
X136281424Y-74057220D01*
X136377285Y-74034205D01*
X136534034Y-73996573D01*
X136774052Y-73897154D01*
X136995564Y-73761412D01*
X137193113Y-73592689D01*
X137361836Y-73395140D01*
X137422975Y-73295370D01*
X137461488Y-73232523D01*
X137505928Y-73181848D01*
X137564735Y-73148914D01*
X137631163Y-73137500D01*
X140707733Y-73137500D01*
X140783887Y-73152648D01*
X140848447Y-73195786D01*
X140891585Y-73260346D01*
X140906733Y-73336500D01*
X140891585Y-73412654D01*
X140848447Y-73477214D01*
X140793504Y-73532156D01*
X140704556Y-73679293D01*
X140653405Y-73843441D01*
X140646924Y-73914770D01*
X140646924Y-73918000D01*
X141684924Y-73918000D01*
X141761078Y-73933148D01*
X141825638Y-73976286D01*
X141868776Y-74040846D01*
X141883924Y-74117000D01*
X141883924Y-74227000D01*
X141868776Y-74303154D01*
X141825638Y-74367714D01*
X141761078Y-74410852D01*
X141684924Y-74426000D01*
X140646925Y-74426000D01*
X140646925Y-74429222D01*
X140653406Y-74500560D01*
X140704556Y-74664707D01*
X140793504Y-74811843D01*
X140843249Y-74861588D01*
X140886387Y-74926148D01*
X140901535Y-75002301D01*
X140886387Y-75078455D01*
X140843250Y-75143015D01*
X140799451Y-75186814D01*
X140711446Y-75332391D01*
X140699198Y-75371701D01*
X140658163Y-75444460D01*
X140590881Y-75493968D01*
X140509208Y-75511500D01*
X140455275Y-75511500D01*
X140270123Y-75550854D01*
X140097195Y-75627848D01*
X139944052Y-75739112D01*
X139817390Y-75879784D01*
X139722744Y-76043715D01*
X139664249Y-76223743D01*
X139644464Y-76412000D01*
X139664249Y-76600256D01*
X139722744Y-76780284D01*
X139817390Y-76944215D01*
X139934283Y-77074038D01*
X139944053Y-77084888D01*
X140097194Y-77196151D01*
X140206903Y-77244997D01*
X140270123Y-77273145D01*
X140455275Y-77312500D01*
X140455278Y-77312500D01*
X140472976Y-77312500D01*
X140554649Y-77330032D01*
X140621931Y-77379540D01*
X140662965Y-77452297D01*
X140670329Y-77475931D01*
X140681446Y-77511608D01*
X140769451Y-77657185D01*
X140818552Y-77706286D01*
X140861690Y-77770846D01*
X140876838Y-77847000D01*
X140861690Y-77923154D01*
X140818552Y-77987714D01*
X140769451Y-78036814D01*
X140681447Y-78182390D01*
X140630837Y-78344806D01*
X140624424Y-78415380D01*
X140624424Y-78790144D01*
X140609324Y-78866183D01*
X140566314Y-78930682D01*
X140501923Y-78973853D01*
X140425922Y-78989143D01*
X140349846Y-78974233D01*
X140285239Y-78931386D01*
X140241907Y-78867103D01*
X140241738Y-78866700D01*
X140238500Y-78854122D01*
X140236395Y-78850371D01*
X140225840Y-78828556D01*
X140224948Y-78826384D01*
X140217153Y-78816022D01*
X138516883Y-75777885D01*
X138515212Y-75772663D01*
X138471325Y-75696633D01*
X138448791Y-75657596D01*
X138371570Y-75583954D01*
X138371568Y-75583952D01*
X138371567Y-75583952D01*
X138276731Y-75535052D01*
X138171948Y-75514851D01*
X138065727Y-75524991D01*
X137966665Y-75564648D01*
X137928077Y-75594995D01*
X137882787Y-75630612D01*
X137882786Y-75630612D01*
X137882785Y-75630614D01*
X137820894Y-75717534D01*
X137785998Y-75818374D01*
X137780926Y-75924959D01*
X137789180Y-75958970D01*
X137806092Y-76028657D01*
X137828298Y-76067112D01*
X137832467Y-76074331D01*
X137833118Y-76075469D01*
X139413312Y-78854084D01*
X139432797Y-78901890D01*
X139439328Y-78953100D01*
X139436863Y-79718689D01*
X139420278Y-79797584D01*
X139373755Y-79863426D01*
X139304928Y-79905407D01*
X139225095Y-79916638D01*
X139147357Y-79895275D01*
X139084474Y-79844825D01*
X139046766Y-79773568D01*
X139031668Y-79721603D01*
X139031668Y-79721602D01*
X139005904Y-79678038D01*
X138986372Y-79633205D01*
X138978363Y-79584966D01*
X138975594Y-79517999D01*
X138975424Y-79509777D01*
X138975424Y-79482864D01*
X138975424Y-79482857D01*
X138973196Y-79455979D01*
X138972692Y-79447852D01*
X138969005Y-79358687D01*
X138965139Y-79340253D01*
X138961586Y-79315862D01*
X138960032Y-79297103D01*
X138960031Y-79297100D01*
X138960031Y-79297096D01*
X138938137Y-79210640D01*
X138936282Y-79202626D01*
X138935689Y-79199797D01*
X138917974Y-79115310D01*
X138911129Y-79097770D01*
X138903606Y-79074286D01*
X138898987Y-79056043D01*
X138863156Y-78974357D01*
X138860008Y-78966757D01*
X138846206Y-78931386D01*
X138827580Y-78883651D01*
X138817937Y-78867468D01*
X138806660Y-78845559D01*
X138799097Y-78828317D01*
X138773793Y-78789587D01*
X138750312Y-78753646D01*
X138745955Y-78746666D01*
X138700292Y-78670033D01*
X138700291Y-78670032D01*
X138700290Y-78670030D01*
X138688122Y-78655664D01*
X138673379Y-78635891D01*
X138663089Y-78620141D01*
X138663088Y-78620139D01*
X138602648Y-78554483D01*
X138597234Y-78548353D01*
X138579826Y-78527799D01*
X138560797Y-78508770D01*
X138555102Y-78502835D01*
X138494668Y-78437186D01*
X138479802Y-78425615D01*
X138461318Y-78409291D01*
X137932995Y-77880968D01*
X137416302Y-77364274D01*
X137387344Y-77327541D01*
X137367761Y-77285063D01*
X137347179Y-77221716D01*
X137275899Y-77098256D01*
X137252533Y-77057784D01*
X137125871Y-76917112D01*
X137110153Y-76905692D01*
X136972730Y-76805849D01*
X136824833Y-76740000D01*
X136799390Y-76728672D01*
X136739618Y-76687591D01*
X136552086Y-76500059D01*
X136347126Y-76295098D01*
X136204894Y-76174634D01*
X135991274Y-76047344D01*
X135877980Y-76003137D01*
X135759610Y-75956949D01*
X135516239Y-75905918D01*
X135276919Y-75896021D01*
X135267779Y-75895643D01*
X135267778Y-75895643D01*
X135080328Y-75919007D01*
X135026481Y-75918376D01*
X134974775Y-75903331D01*
X134919800Y-75878854D01*
X134734649Y-75839500D01*
X134734646Y-75839500D01*
X134545354Y-75839500D01*
X134545351Y-75839500D01*
X134360199Y-75878854D01*
X134187271Y-75955848D01*
X134034128Y-76067112D01*
X133907466Y-76207784D01*
X133812820Y-76371715D01*
X133754325Y-76551743D01*
X133734540Y-76739999D01*
X133754325Y-76928256D01*
X133812821Y-77108284D01*
X133813502Y-77109464D01*
X133836201Y-77169465D01*
X133838631Y-77233570D01*
X133825643Y-77337777D01*
X133835918Y-77586239D01*
X133886949Y-77829610D01*
X133923450Y-77923154D01*
X133977344Y-78061274D01*
X134104634Y-78274894D01*
X134225098Y-78417126D01*
X135092266Y-79284294D01*
X135916138Y-80108165D01*
X135959276Y-80172725D01*
X135974424Y-80248879D01*
X135974424Y-80764072D01*
X135989814Y-80949816D01*
X136050861Y-81190881D01*
X136112663Y-81331775D01*
X136129424Y-81411713D01*
X136129424Y-81617694D01*
X136132326Y-81654569D01*
X136132326Y-81654571D01*
X136132509Y-81656887D01*
X136122138Y-81737699D01*
X136080252Y-81807581D01*
X136013871Y-81854821D01*
X135934122Y-81871500D01*
X135885956Y-81871500D01*
X135809802Y-81856352D01*
X135745242Y-81813214D01*
X134665625Y-80733597D01*
X134649299Y-80715109D01*
X134637739Y-80700257D01*
X134629171Y-80692370D01*
X134572098Y-80639830D01*
X134566162Y-80634134D01*
X134547123Y-80615094D01*
X134526560Y-80597678D01*
X134520412Y-80592250D01*
X134454785Y-80531836D01*
X134439024Y-80521539D01*
X134419262Y-80506802D01*
X134404899Y-80494638D01*
X134404898Y-80494637D01*
X134404894Y-80494634D01*
X134328248Y-80448962D01*
X134321288Y-80444617D01*
X134253998Y-80400656D01*
X134246607Y-80395827D01*
X134229370Y-80388266D01*
X134207453Y-80376984D01*
X134191274Y-80367344D01*
X134191272Y-80367343D01*
X134191270Y-80367342D01*
X134108161Y-80334913D01*
X134100584Y-80331774D01*
X134018881Y-80295937D01*
X134018329Y-80295797D01*
X134000628Y-80291314D01*
X133977150Y-80283793D01*
X133959612Y-80276950D01*
X133872320Y-80258646D01*
X133864310Y-80256793D01*
X133777821Y-80234892D01*
X133759060Y-80233337D01*
X133734663Y-80229782D01*
X133716236Y-80225918D01*
X133627109Y-80222232D01*
X133618906Y-80221723D01*
X133592068Y-80219500D01*
X133592067Y-80219500D01*
X133565147Y-80219500D01*
X133556925Y-80219330D01*
X133467779Y-80215643D01*
X133467778Y-80215643D01*
X133449093Y-80217972D01*
X133424481Y-80219500D01*
X128033956Y-80219500D01*
X127957802Y-80204352D01*
X127893242Y-80161214D01*
X125753710Y-78021682D01*
X125710572Y-77957122D01*
X125695424Y-77880968D01*
X125695424Y-73006985D01*
X125705608Y-72944141D01*
X125735116Y-72887729D01*
X125742182Y-72878290D01*
X125882150Y-72691315D01*
X126019291Y-72440161D01*
X126119293Y-72172046D01*
X126173483Y-71922937D01*
X126180120Y-71892429D01*
X126183469Y-71845602D01*
X126200534Y-71607000D01*
X126180254Y-71323439D01*
X126180120Y-71321570D01*
X126149706Y-71181762D01*
X126119293Y-71041954D01*
X126019291Y-70773839D01*
X125882150Y-70522685D01*
X125722002Y-70308753D01*
X125686276Y-70229020D01*
X125688147Y-70141664D01*
X125727258Y-70063531D01*
X125796068Y-70009682D01*
X125881312Y-69990500D01*
X126476959Y-69990500D01*
X126502921Y-69992201D01*
G37*
%TD.AperFunction*%
%TA.AperFunction,Conductor*%
G36*
X121488687Y-97218739D02*
G01*
X121556657Y-97270113D01*
X121596911Y-97345205D01*
X121602071Y-97430250D01*
X121571191Y-97509658D01*
X121509931Y-97568873D01*
X121421582Y-97623366D01*
X121296289Y-97748659D01*
X121203265Y-97899475D01*
X121147530Y-98067674D01*
X121136924Y-98171495D01*
X121136924Y-98218000D01*
X123602924Y-98218000D01*
X123602924Y-98171495D01*
X123592317Y-98067674D01*
X123536582Y-97899475D01*
X123443558Y-97748659D01*
X123318265Y-97623366D01*
X123229917Y-97568873D01*
X123168657Y-97509658D01*
X123137777Y-97430250D01*
X123142937Y-97345205D01*
X123183191Y-97270113D01*
X123251161Y-97218739D01*
X123334387Y-97200500D01*
X126958837Y-97200500D01*
X127034991Y-97215648D01*
X127099551Y-97258786D01*
X128440238Y-98599473D01*
X128482983Y-98663092D01*
X128498514Y-98738148D01*
X128484525Y-98813506D01*
X128443092Y-98877988D01*
X128380362Y-98922028D01*
X128305640Y-98939093D01*
X123798218Y-99077694D01*
X123715507Y-99062457D01*
X123646477Y-99014414D01*
X123603458Y-98942147D01*
X123594132Y-98858563D01*
X123602924Y-98772504D01*
X123602924Y-98726000D01*
X121136924Y-98726000D01*
X121136924Y-98748634D01*
X121117539Y-98834306D01*
X121063159Y-98903286D01*
X120984380Y-98942136D01*
X120896550Y-98943285D01*
X120784649Y-98919500D01*
X120784646Y-98919500D01*
X120595354Y-98919500D01*
X120595351Y-98919500D01*
X120410199Y-98958854D01*
X120237268Y-99035850D01*
X120069347Y-99157850D01*
X120016774Y-99185148D01*
X119958496Y-99195761D01*
X119347765Y-99214542D01*
X119263039Y-99217147D01*
X119185029Y-99203801D01*
X119118389Y-99161103D01*
X119073663Y-99095807D01*
X119060595Y-99031409D01*
X119058954Y-99031577D01*
X119047317Y-98917674D01*
X118991582Y-98749475D01*
X118898558Y-98598659D01*
X118857310Y-98557411D01*
X118814172Y-98492851D01*
X118799024Y-98416697D01*
X118814172Y-98340543D01*
X118857310Y-98275983D01*
X118892635Y-98240657D01*
X118893657Y-98239000D01*
X118984738Y-98091334D01*
X119039923Y-97924797D01*
X119050424Y-97822009D01*
X119050423Y-97399498D01*
X119065571Y-97323346D01*
X119108709Y-97258786D01*
X119173269Y-97215648D01*
X119249423Y-97200500D01*
X121405461Y-97200500D01*
X121488687Y-97218739D01*
G37*
%TD.AperFunction*%
%TA.AperFunction,Conductor*%
G36*
X114334871Y-94691568D02*
G01*
X114397044Y-94744901D01*
X114486514Y-94861500D01*
X114491718Y-94868282D01*
X114510104Y-94882390D01*
X114512871Y-94884513D01*
X114532442Y-94901677D01*
X114831214Y-95200449D01*
X114874352Y-95265009D01*
X114889500Y-95341163D01*
X114889500Y-95458837D01*
X114874352Y-95534991D01*
X114831216Y-95599548D01*
X114578214Y-95852550D01*
X114484193Y-95946570D01*
X114484191Y-95946574D01*
X114380345Y-96050419D01*
X114315798Y-96093551D01*
X114239660Y-96108704D01*
X114163517Y-96093573D01*
X114098958Y-96050460D01*
X114055807Y-95985926D01*
X114040631Y-95909795D01*
X114040167Y-94866130D01*
X114056990Y-94785965D01*
X114104681Y-94719366D01*
X114175159Y-94677619D01*
X114256482Y-94667799D01*
X114334871Y-94691568D01*
G37*
%TD.AperFunction*%
%TA.AperFunction,Conductor*%
G36*
X122593780Y-70009682D02*
G01*
X122662590Y-70063531D01*
X122701701Y-70141664D01*
X122703572Y-70229020D01*
X122667845Y-70308753D01*
X122531816Y-70490467D01*
X122507698Y-70522685D01*
X122370557Y-70773838D01*
X122270554Y-71041956D01*
X122209727Y-71321570D01*
X122189314Y-71607000D01*
X122209727Y-71892429D01*
X122268587Y-72162999D01*
X122270555Y-72172046D01*
X122370557Y-72440161D01*
X122507698Y-72691315D01*
X122647666Y-72878290D01*
X122654732Y-72887729D01*
X122684240Y-72944141D01*
X122694424Y-73006985D01*
X122694424Y-78479405D01*
X122692896Y-78504017D01*
X122690567Y-78522701D01*
X122694254Y-78611848D01*
X122694424Y-78620071D01*
X122694424Y-78646992D01*
X122696647Y-78673830D01*
X122697156Y-78682033D01*
X122700842Y-78771160D01*
X122704706Y-78789587D01*
X122708261Y-78813984D01*
X122709816Y-78832745D01*
X122731717Y-78919234D01*
X122733570Y-78927244D01*
X122751874Y-79014536D01*
X122758717Y-79032074D01*
X122766238Y-79055552D01*
X122768833Y-79065796D01*
X122770861Y-79073805D01*
X122806698Y-79155508D01*
X122809837Y-79163085D01*
X122838429Y-79236361D01*
X122842268Y-79246198D01*
X122851908Y-79262377D01*
X122863190Y-79284294D01*
X122870751Y-79301531D01*
X122870752Y-79301532D01*
X122919541Y-79376212D01*
X122923886Y-79383172D01*
X122969558Y-79459818D01*
X122969561Y-79459822D01*
X122969562Y-79459823D01*
X122981726Y-79474186D01*
X122996463Y-79493948D01*
X123006760Y-79509709D01*
X123067174Y-79575336D01*
X123072602Y-79581484D01*
X123090018Y-79602047D01*
X123109058Y-79621086D01*
X123114756Y-79627024D01*
X123175181Y-79692663D01*
X123190033Y-79704223D01*
X123208521Y-79720549D01*
X126194374Y-82706402D01*
X126210700Y-82724889D01*
X126222259Y-82739741D01*
X126222261Y-82739743D01*
X126222262Y-82739744D01*
X126287926Y-82800192D01*
X126293836Y-82805864D01*
X126312871Y-82824900D01*
X126333424Y-82842307D01*
X126339579Y-82847741D01*
X126405215Y-82908164D01*
X126420967Y-82918455D01*
X126440740Y-82933198D01*
X126455106Y-82945366D01*
X126455108Y-82945367D01*
X126455109Y-82945368D01*
X126531733Y-82991026D01*
X126538703Y-82995376D01*
X126613393Y-83044173D01*
X126621422Y-83047694D01*
X126630621Y-83051730D01*
X126652550Y-83063017D01*
X126668726Y-83072656D01*
X126751859Y-83105094D01*
X126759403Y-83108219D01*
X126841119Y-83144063D01*
X126859370Y-83148684D01*
X126882847Y-83156205D01*
X126900386Y-83163049D01*
X126987705Y-83181358D01*
X126995698Y-83183207D01*
X127082179Y-83205108D01*
X127100940Y-83206662D01*
X127125337Y-83210217D01*
X127143763Y-83214081D01*
X127232928Y-83217768D01*
X127241055Y-83218272D01*
X127267933Y-83220500D01*
X127294853Y-83220500D01*
X127303074Y-83220669D01*
X127392221Y-83224357D01*
X127407679Y-83222430D01*
X127410907Y-83222028D01*
X127435519Y-83220500D01*
X132826044Y-83220500D01*
X132902198Y-83235648D01*
X132966758Y-83278786D01*
X134046374Y-84358402D01*
X134062700Y-84376889D01*
X134074259Y-84391741D01*
X134074261Y-84391743D01*
X134074262Y-84391744D01*
X134139926Y-84452192D01*
X134145836Y-84457864D01*
X134164871Y-84476900D01*
X134185424Y-84494307D01*
X134191579Y-84499741D01*
X134257215Y-84560164D01*
X134272967Y-84570455D01*
X134292740Y-84585198D01*
X134307106Y-84597366D01*
X134307108Y-84597367D01*
X134307109Y-84597368D01*
X134383742Y-84643031D01*
X134390722Y-84647388D01*
X134462510Y-84694290D01*
X134465393Y-84696173D01*
X134482635Y-84703736D01*
X134504544Y-84715013D01*
X134520727Y-84724656D01*
X134598393Y-84754961D01*
X134603833Y-84757084D01*
X134611433Y-84760232D01*
X134693119Y-84796063D01*
X134711362Y-84800682D01*
X134734846Y-84808205D01*
X134752386Y-84815050D01*
X134752389Y-84815050D01*
X134752390Y-84815051D01*
X134800709Y-84825183D01*
X134876468Y-84858684D01*
X134932024Y-84920127D01*
X134957750Y-84998866D01*
X134949190Y-85081257D01*
X134907826Y-85153026D01*
X134840826Y-85201736D01*
X134759798Y-85218947D01*
X133582561Y-85218524D01*
X133582061Y-85218524D01*
X133581978Y-85218524D01*
X133581962Y-85218524D01*
X133581961Y-85218524D01*
X133527619Y-85218528D01*
X133422447Y-85246716D01*
X133328151Y-85301162D01*
X133251162Y-85378151D01*
X133207446Y-85453864D01*
X133196716Y-85472447D01*
X133168528Y-85577619D01*
X133168524Y-85631961D01*
X133168524Y-85631962D01*
X133166465Y-90293726D01*
X133166446Y-90335617D01*
X133166497Y-90335879D01*
X133166496Y-90351404D01*
X133194668Y-90456578D01*
X133244524Y-90542945D01*
X133249104Y-90550878D01*
X133326093Y-90627873D01*
X133420386Y-90682317D01*
X133420388Y-90682318D01*
X133525557Y-90710500D01*
X133579901Y-90710500D01*
X135085493Y-90710876D01*
X135166295Y-90728043D01*
X135233167Y-90776544D01*
X135274582Y-90848022D01*
X135283403Y-90930159D01*
X135258109Y-91008801D01*
X135203059Y-91070396D01*
X135127740Y-91104328D01*
X134894147Y-91155144D01*
X134805392Y-91188248D01*
X134643239Y-91248728D01*
X134643236Y-91248729D01*
X134642637Y-91248953D01*
X134573093Y-91261500D01*
X133009509Y-91261500D01*
X132933355Y-91246352D01*
X132868795Y-91203214D01*
X129733619Y-88068038D01*
X129687880Y-87996867D01*
X129675840Y-87913127D01*
X129699675Y-87831953D01*
X129755078Y-87768016D01*
X129832034Y-87732872D01*
X129916634Y-87732872D01*
X129959496Y-87742196D01*
X130244924Y-87762610D01*
X130511301Y-87743558D01*
X130530353Y-87742196D01*
X130600256Y-87726989D01*
X130809970Y-87681369D01*
X131078085Y-87581367D01*
X131329239Y-87444226D01*
X131558319Y-87272739D01*
X131760663Y-87070395D01*
X131932150Y-86841315D01*
X132069291Y-86590161D01*
X132169293Y-86322046D01*
X132230120Y-86042428D01*
X132250534Y-85757000D01*
X132230120Y-85471572D01*
X132225428Y-85450004D01*
X132187316Y-85274805D01*
X132169293Y-85191954D01*
X132069291Y-84923839D01*
X131932150Y-84672685D01*
X131760663Y-84443605D01*
X131558319Y-84241261D01*
X131329239Y-84069774D01*
X131078085Y-83932633D01*
X130809970Y-83832631D01*
X130809969Y-83832630D01*
X130809967Y-83832630D01*
X130530353Y-83771803D01*
X130244924Y-83751390D01*
X129959494Y-83771803D01*
X129679880Y-83832630D01*
X129411762Y-83932633D01*
X129160609Y-84069774D01*
X128931526Y-84241263D01*
X128729187Y-84443602D01*
X128557698Y-84672685D01*
X128420557Y-84923838D01*
X128320554Y-85191956D01*
X128259727Y-85471570D01*
X128239314Y-85757000D01*
X128259727Y-86042429D01*
X128318743Y-86313716D01*
X128320555Y-86322046D01*
X128420557Y-86590161D01*
X128557698Y-86841315D01*
X128729185Y-87070395D01*
X128729186Y-87070396D01*
X128729187Y-87070397D01*
X128801935Y-87143145D01*
X128846008Y-87210003D01*
X128860159Y-87288820D01*
X128842097Y-87366835D01*
X128794746Y-87431413D01*
X128725774Y-87472098D01*
X128646349Y-87482302D01*
X128577164Y-87477117D01*
X128569758Y-87476423D01*
X128475637Y-87465819D01*
X128475636Y-87465819D01*
X128437520Y-87467245D01*
X128380982Y-87469361D01*
X128373542Y-87469500D01*
X122697364Y-87469500D01*
X122689924Y-87469361D01*
X122660817Y-87468271D01*
X122595287Y-87465820D01*
X122595286Y-87465820D01*
X122501181Y-87476422D01*
X122493777Y-87477116D01*
X122399294Y-87484197D01*
X122378128Y-87489028D01*
X122356138Y-87492764D01*
X122334576Y-87495193D01*
X122243066Y-87519713D01*
X122235847Y-87521503D01*
X122143506Y-87542580D01*
X122123298Y-87550511D01*
X122102118Y-87557480D01*
X122088954Y-87561008D01*
X122081144Y-87563101D01*
X121994337Y-87600975D01*
X121987463Y-87603822D01*
X121899280Y-87638431D01*
X121880480Y-87649285D01*
X121860574Y-87659334D01*
X121840676Y-87668016D01*
X121760486Y-87718402D01*
X121754117Y-87722240D01*
X121672068Y-87769612D01*
X121655093Y-87783149D01*
X121636909Y-87796051D01*
X121618529Y-87807601D01*
X121546721Y-87869394D01*
X121540998Y-87874136D01*
X121466942Y-87933195D01*
X121402500Y-88002646D01*
X121397339Y-88008003D01*
X118201129Y-91204212D01*
X118144884Y-91240361D01*
X118145729Y-91241908D01*
X117898205Y-91377066D01*
X117683825Y-91537549D01*
X117494473Y-91726901D01*
X117333990Y-91941281D01*
X117205651Y-92176316D01*
X117195953Y-92202319D01*
X117154454Y-92269119D01*
X117090317Y-92314626D01*
X117013559Y-92331735D01*
X116936168Y-92317772D01*
X116870228Y-92274918D01*
X116826039Y-92209867D01*
X116810500Y-92132776D01*
X116810500Y-90606654D01*
X116803438Y-90582604D01*
X116780440Y-90504280D01*
X116773838Y-90494007D01*
X116722757Y-90414521D01*
X116642124Y-90344653D01*
X116642122Y-90344652D01*
X116545069Y-90300329D01*
X116439460Y-90285145D01*
X116333851Y-90300329D01*
X116242945Y-90341845D01*
X116210772Y-90356538D01*
X116210546Y-90356043D01*
X116184582Y-90371033D01*
X116110028Y-90381750D01*
X116036830Y-90363992D01*
X115975476Y-90320300D01*
X115934754Y-90256936D01*
X115920500Y-90182976D01*
X115920500Y-86536495D01*
X115936039Y-86459404D01*
X115980228Y-86394353D01*
X116046168Y-86351499D01*
X116123559Y-86337536D01*
X116200317Y-86354644D01*
X116264453Y-86400152D01*
X116305952Y-86466950D01*
X116370557Y-86640161D01*
X116507698Y-86891315D01*
X116679185Y-87120395D01*
X116881529Y-87322739D01*
X117110609Y-87494226D01*
X117361763Y-87631367D01*
X117629878Y-87731369D01*
X117769686Y-87761782D01*
X117909494Y-87792196D01*
X117945212Y-87794750D01*
X118194924Y-87812610D01*
X118461301Y-87793558D01*
X118480353Y-87792196D01*
X118584169Y-87769612D01*
X118759970Y-87731369D01*
X119028085Y-87631367D01*
X119279239Y-87494226D01*
X119508319Y-87322739D01*
X119710663Y-87120395D01*
X119882150Y-86891315D01*
X120019291Y-86640161D01*
X120119293Y-86372046D01*
X120174314Y-86119117D01*
X120180120Y-86092429D01*
X120182954Y-86052807D01*
X120200534Y-85807000D01*
X120181194Y-85536591D01*
X120180120Y-85521570D01*
X120140701Y-85340365D01*
X120119293Y-85241954D01*
X120019291Y-84973839D01*
X119882150Y-84722685D01*
X119710663Y-84493605D01*
X119508319Y-84291261D01*
X119279239Y-84119774D01*
X119028085Y-83982633D01*
X118759970Y-83882631D01*
X118759969Y-83882630D01*
X118759967Y-83882630D01*
X118480353Y-83821803D01*
X118194924Y-83801390D01*
X117909494Y-83821803D01*
X117629880Y-83882630D01*
X117361762Y-83982633D01*
X117110609Y-84119774D01*
X116881526Y-84291263D01*
X116679187Y-84493602D01*
X116507698Y-84722685D01*
X116370557Y-84973838D01*
X116305953Y-85147049D01*
X116264453Y-85213848D01*
X116200317Y-85259356D01*
X116123559Y-85276464D01*
X116046168Y-85262501D01*
X115980228Y-85219647D01*
X115936039Y-85154596D01*
X115920500Y-85077505D01*
X115920500Y-82163604D01*
X115937420Y-82083305D01*
X115985304Y-82016660D01*
X116056008Y-81975004D01*
X116129360Y-81966379D01*
X116129360Y-81965500D01*
X116136837Y-81965500D01*
X116137509Y-81965421D01*
X116138378Y-81965500D01*
X116138384Y-81965500D01*
X116651616Y-81965500D01*
X116651620Y-81965500D01*
X116691947Y-81961834D01*
X116722196Y-81959086D01*
X116884606Y-81908478D01*
X117030185Y-81820472D01*
X117051874Y-81798783D01*
X117079286Y-81771372D01*
X117143846Y-81728234D01*
X117220000Y-81713086D01*
X117296154Y-81728234D01*
X117360714Y-81771372D01*
X117409814Y-81820472D01*
X117555390Y-81908476D01*
X117555391Y-81908476D01*
X117555394Y-81908478D01*
X117717804Y-81959086D01*
X117741330Y-81961224D01*
X117788380Y-81965500D01*
X117788384Y-81965500D01*
X118301616Y-81965500D01*
X118301620Y-81965500D01*
X118341947Y-81961834D01*
X118372196Y-81959086D01*
X118534606Y-81908478D01*
X118680185Y-81820472D01*
X118800472Y-81700185D01*
X118888478Y-81554606D01*
X118939086Y-81392196D01*
X118945500Y-81321616D01*
X118945500Y-80658384D01*
X118943602Y-80637502D01*
X118940956Y-80608385D01*
X118939086Y-80587804D01*
X118888478Y-80425394D01*
X118885492Y-80420454D01*
X118800472Y-80279814D01*
X118684049Y-80163391D01*
X118646285Y-80110693D01*
X118640673Y-80092193D01*
X118640070Y-80092443D01*
X118569536Y-79922159D01*
X118568375Y-79920646D01*
X118531599Y-79840877D01*
X118532748Y-79753046D01*
X118571597Y-79674266D01*
X118640578Y-79619886D01*
X118726250Y-79600500D01*
X118805689Y-79600500D01*
X118805694Y-79600500D01*
X118842569Y-79597598D01*
X119000398Y-79551744D01*
X119141865Y-79468081D01*
X119258081Y-79351865D01*
X119341744Y-79210398D01*
X119387598Y-79052569D01*
X119390500Y-79015694D01*
X119390500Y-78584306D01*
X119387598Y-78547431D01*
X119378975Y-78517752D01*
X119341744Y-78389602D01*
X119258080Y-78248133D01*
X119141866Y-78131919D01*
X119000399Y-78048256D01*
X118984714Y-78043699D01*
X118971480Y-78039854D01*
X118896969Y-77999398D01*
X118846062Y-77931596D01*
X118828000Y-77848756D01*
X118828000Y-77661841D01*
X118839350Y-77595596D01*
X118872105Y-77536907D01*
X118922529Y-77492469D01*
X118926832Y-77489814D01*
X118926834Y-77489814D01*
X119076155Y-77397711D01*
X119200211Y-77273655D01*
X119292314Y-77124334D01*
X119347499Y-76957797D01*
X119358000Y-76855008D01*
X119358000Y-75504992D01*
X119347499Y-75402203D01*
X119292314Y-75235666D01*
X119273085Y-75204492D01*
X119246373Y-75133965D01*
X119247824Y-75058562D01*
X119277228Y-74989114D01*
X119330358Y-74935599D01*
X119339403Y-74929433D01*
X119531729Y-74750981D01*
X119695310Y-74545857D01*
X119826492Y-74318643D01*
X119922344Y-74074416D01*
X119980726Y-73818630D01*
X120000332Y-73557000D01*
X119980726Y-73295370D01*
X119922344Y-73039584D01*
X119826492Y-72795357D01*
X119824606Y-72792091D01*
X119695310Y-72568143D01*
X119691931Y-72563906D01*
X119531729Y-72363019D01*
X119462730Y-72298997D01*
X119339408Y-72184571D01*
X119339405Y-72184569D01*
X119339403Y-72184567D01*
X119122628Y-72036772D01*
X118886247Y-71922937D01*
X118814282Y-71900738D01*
X118635535Y-71845602D01*
X118376108Y-71806500D01*
X118376106Y-71806500D01*
X118113742Y-71806500D01*
X118113740Y-71806500D01*
X117854312Y-71845602D01*
X117603601Y-71922937D01*
X117380749Y-72030257D01*
X117367220Y-72036772D01*
X117246824Y-72118857D01*
X117150439Y-72184571D01*
X116958121Y-72363016D01*
X116794537Y-72568143D01*
X116663356Y-72795355D01*
X116567504Y-73039582D01*
X116509122Y-73295369D01*
X116504879Y-73351983D01*
X116489516Y-73557000D01*
X116492892Y-73602045D01*
X116509122Y-73818630D01*
X116567504Y-74074417D01*
X116663356Y-74318644D01*
X116794537Y-74545856D01*
X116889318Y-74664708D01*
X116958119Y-74750981D01*
X117053579Y-74839554D01*
X117094833Y-74893725D01*
X117115411Y-74958635D01*
X117112900Y-75026683D01*
X117087595Y-75089900D01*
X116997686Y-75235664D01*
X116942501Y-75402200D01*
X116938184Y-75444460D01*
X116933258Y-75492684D01*
X116932000Y-75504995D01*
X116932000Y-76855007D01*
X116933927Y-76873871D01*
X116926689Y-76950859D01*
X116890652Y-77019276D01*
X116831257Y-77068791D01*
X116757472Y-77091928D01*
X116680439Y-77085193D01*
X116547991Y-77046714D01*
X116548218Y-77045930D01*
X116502660Y-77033565D01*
X116443372Y-76989597D01*
X116404189Y-76927044D01*
X116390500Y-76854513D01*
X116390500Y-76434000D01*
X114240180Y-76434000D01*
X114162310Y-76418132D01*
X114096859Y-76373058D01*
X114054264Y-76305968D01*
X114041319Y-76227559D01*
X114045435Y-76117559D01*
X114062652Y-76043719D01*
X114106238Y-75981679D01*
X114169864Y-75940444D01*
X114244296Y-75926000D01*
X114916000Y-75926000D01*
X114916000Y-74797001D01*
X114656995Y-74797001D01*
X114540261Y-74808925D01*
X114461222Y-74801064D01*
X114453800Y-74797000D01*
X115424000Y-74797000D01*
X115424000Y-75926000D01*
X116390499Y-75926000D01*
X116390499Y-75504496D01*
X116379893Y-75400674D01*
X116324158Y-75232476D01*
X116231132Y-75081659D01*
X116105840Y-74956367D01*
X115955023Y-74863341D01*
X115786825Y-74807606D01*
X115683004Y-74797000D01*
X115424000Y-74797000D01*
X114453800Y-74797000D01*
X114391554Y-74762917D01*
X114342354Y-74700561D01*
X114321462Y-74623929D01*
X114332205Y-74545233D01*
X114471909Y-74145981D01*
X114477331Y-74132164D01*
X114662770Y-73707133D01*
X114669224Y-73693734D01*
X114885895Y-73283769D01*
X114893315Y-73270917D01*
X115140018Y-72878288D01*
X115148401Y-72865994D01*
X115202944Y-72792091D01*
X115423750Y-72492907D01*
X115433022Y-72481282D01*
X115735480Y-72129816D01*
X115745589Y-72118919D01*
X116073489Y-71791017D01*
X116084370Y-71780921D01*
X116435849Y-71478446D01*
X116447474Y-71469177D01*
X116820558Y-71193826D01*
X116832835Y-71185454D01*
X117225488Y-70938731D01*
X117238323Y-70931321D01*
X117648330Y-70714624D01*
X117661676Y-70708196D01*
X118086732Y-70522744D01*
X118100538Y-70517326D01*
X118538238Y-70364165D01*
X118552411Y-70359793D01*
X119000347Y-70239766D01*
X119014791Y-70236469D01*
X119470461Y-70150248D01*
X119485122Y-70148039D01*
X119945929Y-70096116D01*
X119960745Y-70095005D01*
X120426664Y-70077568D01*
X120434106Y-70077430D01*
X120584890Y-70077430D01*
X120610867Y-70079133D01*
X120678743Y-70088074D01*
X120728898Y-70101517D01*
X120780000Y-70122687D01*
X120824974Y-70148655D01*
X120838543Y-70159067D01*
X120868849Y-70182322D01*
X120905578Y-70219051D01*
X120939245Y-70262926D01*
X120965216Y-70307907D01*
X120986381Y-70358998D01*
X120999828Y-70409173D01*
X121008759Y-70476982D01*
X121010463Y-70503142D01*
X121005456Y-76217172D01*
X121005383Y-76217541D01*
X121005383Y-76299500D01*
X121005383Y-76300000D01*
X121005383Y-76353347D01*
X121010777Y-76371716D01*
X121035443Y-76455721D01*
X121093125Y-76545478D01*
X121173758Y-76615346D01*
X121173759Y-76615346D01*
X121173761Y-76615348D01*
X121270814Y-76659671D01*
X121376423Y-76674855D01*
X121482032Y-76659671D01*
X121579085Y-76615348D01*
X121659720Y-76545478D01*
X121717403Y-76455720D01*
X121747463Y-76353347D01*
X121747463Y-76300000D01*
X121747463Y-76299500D01*
X121747463Y-70416075D01*
X121749163Y-70390118D01*
X121752915Y-70361594D01*
X121758094Y-70322230D01*
X121771535Y-70272053D01*
X121792696Y-70220956D01*
X121818667Y-70175968D01*
X121852331Y-70132090D01*
X121889059Y-70095358D01*
X121932942Y-70061683D01*
X121977924Y-70035713D01*
X122017818Y-70019187D01*
X122029017Y-70014547D01*
X122079197Y-70001100D01*
X122125627Y-69994987D01*
X122146779Y-69992203D01*
X122172754Y-69990500D01*
X122508536Y-69990500D01*
X122593780Y-70009682D01*
G37*
%TD.AperFunction*%
%TA.AperFunction,Conductor*%
G36*
X142833405Y-74489555D02*
G01*
X142901310Y-74534043D01*
X143686500Y-75319233D01*
X143733436Y-75393701D01*
X143743655Y-75481132D01*
X143715158Y-75564417D01*
X143653521Y-75627262D01*
X143570804Y-75657368D01*
X143483191Y-75648846D01*
X143439161Y-75634256D01*
X143338765Y-75624000D01*
X143293924Y-75624000D01*
X143293924Y-76328000D01*
X144022924Y-76328000D01*
X144022924Y-76308159D01*
X144012668Y-76207766D01*
X143998077Y-76163734D01*
X143989555Y-76076121D01*
X144019661Y-75993403D01*
X144082505Y-75931765D01*
X144165790Y-75903268D01*
X144253221Y-75913487D01*
X144327690Y-75960423D01*
X145778638Y-77411371D01*
X145821776Y-77475931D01*
X145836924Y-77552085D01*
X145836924Y-78244548D01*
X145825574Y-78310794D01*
X145792819Y-78369482D01*
X145742395Y-78413920D01*
X145701266Y-78439288D01*
X145665941Y-78474614D01*
X145601381Y-78517752D01*
X145525227Y-78532900D01*
X145449073Y-78517752D01*
X145384513Y-78474614D01*
X145343264Y-78433365D01*
X145192448Y-78340341D01*
X145024249Y-78284606D01*
X144920429Y-78274000D01*
X144861424Y-78274000D01*
X144861424Y-80690000D01*
X144903418Y-80690000D01*
X144985415Y-80707678D01*
X145052843Y-80757572D01*
X145093722Y-80830817D01*
X145100790Y-80914400D01*
X145072791Y-80993468D01*
X145062254Y-81010550D01*
X145030110Y-81062665D01*
X144974924Y-81229202D01*
X144969071Y-81286500D01*
X144965219Y-81324215D01*
X144964424Y-81331993D01*
X144964424Y-81932006D01*
X144974925Y-82034798D01*
X145030109Y-82201333D01*
X145122212Y-82350657D01*
X145212841Y-82441286D01*
X145255979Y-82505846D01*
X145271127Y-82582000D01*
X145255979Y-82658154D01*
X145212841Y-82722714D01*
X145122212Y-82813342D01*
X145030110Y-82962665D01*
X144974924Y-83129202D01*
X144964424Y-83231994D01*
X144964424Y-83767500D01*
X144949276Y-83843654D01*
X144906139Y-83908214D01*
X144841579Y-83951352D01*
X144765425Y-83966500D01*
X144634918Y-83966500D01*
X144532125Y-83977001D01*
X144365590Y-84032185D01*
X144216266Y-84124288D01*
X144202841Y-84137714D01*
X144138281Y-84180852D01*
X144062127Y-84196000D01*
X142499924Y-84196000D01*
X142423770Y-84180852D01*
X142359210Y-84137714D01*
X142316072Y-84073154D01*
X142300924Y-83997000D01*
X142300924Y-83887000D01*
X142316072Y-83810846D01*
X142359210Y-83746286D01*
X142423770Y-83703148D01*
X142499924Y-83688000D01*
X144034916Y-83688000D01*
X144034917Y-83687999D01*
X143988607Y-83528601D01*
X143913103Y-83400931D01*
X143888536Y-83334871D01*
X143888536Y-83264391D01*
X143913101Y-83198338D01*
X143981668Y-83082398D01*
X143987299Y-83063018D01*
X144016454Y-82962665D01*
X144027522Y-82924569D01*
X144030424Y-82887694D01*
X144030424Y-82456306D01*
X144027522Y-82419431D01*
X143981668Y-82261602D01*
X143908746Y-82138298D01*
X143884180Y-82072240D01*
X143884180Y-82001760D01*
X143908747Y-81935701D01*
X143981668Y-81812398D01*
X144027522Y-81654569D01*
X144030424Y-81617694D01*
X144030424Y-81186306D01*
X144027522Y-81149431D01*
X144026771Y-81146846D01*
X143981669Y-80991603D01*
X143971562Y-80974514D01*
X143945526Y-80898998D01*
X143951282Y-80819329D01*
X143987903Y-80748340D01*
X144049488Y-80697471D01*
X144126115Y-80674917D01*
X144168634Y-80679952D01*
X144168918Y-80677179D01*
X144294419Y-80690000D01*
X144353424Y-80690000D01*
X144353424Y-78274000D01*
X144294418Y-78274000D01*
X144234647Y-78280106D01*
X144152515Y-78271261D01*
X144081050Y-78229827D01*
X144032568Y-78162944D01*
X144015423Y-78082136D01*
X144015423Y-77858658D01*
X144015423Y-77858656D01*
X144005273Y-77759292D01*
X143951927Y-77598303D01*
X143871931Y-77468611D01*
X143845672Y-77400598D01*
X143845672Y-77327688D01*
X143871932Y-77259672D01*
X143958770Y-77118886D01*
X144012667Y-76956237D01*
X144022924Y-76855841D01*
X144022924Y-76836000D01*
X142984924Y-76836000D01*
X142908770Y-76820852D01*
X142844210Y-76777714D01*
X142801072Y-76713154D01*
X142785924Y-76637000D01*
X142785924Y-75624000D01*
X142785696Y-75624000D01*
X142704023Y-75606468D01*
X142636742Y-75556961D01*
X142595706Y-75484202D01*
X142548402Y-75332394D01*
X142542558Y-75322727D01*
X142460396Y-75186814D01*
X142416598Y-75143016D01*
X142373460Y-75078456D01*
X142358312Y-75002301D01*
X142373460Y-74926147D01*
X142416599Y-74861587D01*
X142466344Y-74811842D01*
X142555290Y-74664708D01*
X142570606Y-74615556D01*
X142610057Y-74544606D01*
X142674561Y-74495316D01*
X142753383Y-74475888D01*
X142833405Y-74489555D01*
G37*
%TD.AperFunction*%
%TA.AperFunction,Conductor*%
G36*
X114335972Y-77466432D02*
G01*
X114384976Y-77496658D01*
X114553174Y-77552393D01*
X114610724Y-77558273D01*
X114680456Y-77578736D01*
X114738192Y-77622871D01*
X114776230Y-77684792D01*
X114789500Y-77756243D01*
X114789500Y-78065689D01*
X114792402Y-78102572D01*
X114838255Y-78260397D01*
X114921919Y-78401866D01*
X115038133Y-78518080D01*
X115179603Y-78601745D01*
X115204237Y-78608902D01*
X115278748Y-78649358D01*
X115329655Y-78717160D01*
X115347717Y-78800000D01*
X115329655Y-78882840D01*
X115278748Y-78950642D01*
X115204237Y-78991098D01*
X115179603Y-78998254D01*
X115038133Y-79081919D01*
X114921919Y-79198133D01*
X114838255Y-79339603D01*
X114793990Y-79491963D01*
X114774180Y-79537742D01*
X114743606Y-79577157D01*
X114532441Y-79788322D01*
X114512875Y-79805482D01*
X114491719Y-79821716D01*
X114438173Y-79891500D01*
X114438171Y-79891502D01*
X114390354Y-79953817D01*
X114328206Y-80007134D01*
X114249850Y-80030912D01*
X114168552Y-80021125D01*
X114098079Y-79979430D01*
X114050361Y-79912886D01*
X114033478Y-79832765D01*
X114032501Y-77635890D01*
X114050150Y-77553871D01*
X114100034Y-77486414D01*
X114173286Y-77445510D01*
X114256885Y-77438430D01*
X114335972Y-77466432D01*
G37*
%TD.AperFunction*%
%TD*%
%TA.AperFunction,Conductor*%
%TO.N,GND*%
G36*
X137880818Y-121489751D02*
G01*
X137928673Y-121499469D01*
X137969240Y-121526654D01*
X138082012Y-121639426D01*
X138098400Y-121659606D01*
X138103501Y-121667414D01*
X138103502Y-121667415D01*
X138103503Y-121667416D01*
X138126657Y-121685438D01*
X138137801Y-121695280D01*
X138138028Y-121695442D01*
X138153851Y-121706739D01*
X138158005Y-121709836D01*
X138196868Y-121740085D01*
X138196869Y-121740085D01*
X138202833Y-121744727D01*
X138210074Y-121746882D01*
X138210076Y-121746884D01*
X138257269Y-121760933D01*
X138262218Y-121762520D01*
X138315916Y-121780954D01*
X138323467Y-121780641D01*
X138323468Y-121780642D01*
X138372647Y-121778608D01*
X138377855Y-121778500D01*
X138948768Y-121778500D01*
X138958090Y-121778500D01*
X138983946Y-121781181D01*
X138993071Y-121783095D01*
X139022170Y-121779467D01*
X139037754Y-121778500D01*
X139779424Y-121778500D01*
X139842424Y-121795381D01*
X139888543Y-121841500D01*
X139905424Y-121904500D01*
X139905424Y-123237068D01*
X139920189Y-123311300D01*
X139976439Y-123395484D01*
X140032688Y-123433068D01*
X140060623Y-123451734D01*
X140134857Y-123466500D01*
X141384990Y-123466499D01*
X141384992Y-123466499D01*
X141434480Y-123456655D01*
X141459225Y-123451734D01*
X141543408Y-123395484D01*
X141599658Y-123311301D01*
X141614424Y-123237067D01*
X141614423Y-122506714D01*
X141624014Y-122458497D01*
X141651324Y-122417623D01*
X142517142Y-121551805D01*
X142558325Y-121524367D01*
X142606898Y-121514906D01*
X145078041Y-121528060D01*
X145134065Y-121541535D01*
X145178234Y-121578548D01*
X145194594Y-121600403D01*
X145310731Y-121687341D01*
X145310732Y-121687341D01*
X145310733Y-121687342D01*
X145446658Y-121738040D01*
X145506745Y-121744500D01*
X146553254Y-121744499D01*
X146553257Y-121744499D01*
X146579005Y-121741730D01*
X146613342Y-121738040D01*
X146749267Y-121687342D01*
X146865404Y-121600404D01*
X146874203Y-121588649D01*
X146918968Y-121551337D01*
X146975736Y-121538160D01*
X147258976Y-121539668D01*
X147378100Y-121540303D01*
X147440816Y-121557406D01*
X147486660Y-121603495D01*
X147503429Y-121666301D01*
X147503429Y-122178588D01*
X147491264Y-122232603D01*
X147457118Y-122276188D01*
X147407584Y-122300926D01*
X147324159Y-122321488D01*
X147183424Y-122395352D01*
X147064453Y-122500751D01*
X146974164Y-122631557D01*
X146917802Y-122780171D01*
X146898645Y-122937951D01*
X146917802Y-123095732D01*
X146974164Y-123244346D01*
X146974165Y-123244347D01*
X147064454Y-123375153D01*
X147183423Y-123480551D01*
X147324159Y-123554415D01*
X147478481Y-123592452D01*
X147637421Y-123592452D01*
X147637423Y-123592452D01*
X147791745Y-123554415D01*
X147932481Y-123480551D01*
X148051450Y-123375153D01*
X148141739Y-123244347D01*
X148198101Y-123095734D01*
X148217259Y-122937952D01*
X148209981Y-122878015D01*
X148210990Y-122840874D01*
X148222789Y-122805642D01*
X148265454Y-122721893D01*
X148309926Y-122584989D01*
X148332434Y-122442814D01*
X148332429Y-122370841D01*
X148332429Y-122367630D01*
X148332429Y-121672054D01*
X148349422Y-121608860D01*
X148395817Y-121562712D01*
X148459098Y-121546056D01*
X148697671Y-121547326D01*
X148760387Y-121564429D01*
X148806231Y-121610518D01*
X148823000Y-121673324D01*
X148823000Y-121726522D01*
X148829059Y-121782881D01*
X148864727Y-121878510D01*
X148876617Y-121910388D01*
X148958169Y-122019329D01*
X149018586Y-122064556D01*
X149051220Y-122100761D01*
X149067670Y-122146643D01*
X149076704Y-122206576D01*
X149078276Y-122211352D01*
X149081158Y-122216806D01*
X149081159Y-122216807D01*
X149108105Y-122267792D01*
X149110216Y-122271975D01*
X149137909Y-122329480D01*
X149140818Y-122333579D01*
X149150822Y-122343583D01*
X149178468Y-122385269D01*
X149187715Y-122434428D01*
X149162009Y-124285242D01*
X149144552Y-124347500D01*
X149098515Y-124392902D01*
X149036021Y-124409492D01*
X144635348Y-124409495D01*
X144634752Y-124409494D01*
X134295404Y-124360593D01*
X134232656Y-124343514D01*
X134186782Y-124297422D01*
X134170000Y-124234594D01*
X134170000Y-121596672D01*
X134186993Y-121533479D01*
X134233388Y-121487330D01*
X134296670Y-121470674D01*
X137880818Y-121489751D01*
G37*
%TD.AperFunction*%
%TD*%
D72*
X116034099Y-112111772D02*
X116052969Y-116354114D01*
X116053012Y-116354114D02*
G75*
G03*
X116483456Y-116764113I410688J214D01*
G01*
X122643533Y-112108968D02*
G75*
G03*
X122213106Y-111698969I-410133J368D01*
G01*
X133166963Y-90296963D02*
X133169024Y-85632061D01*
X149514022Y-102110000D02*
X149514022Y-99850000D01*
X133983518Y-104398103D02*
X133983518Y-117967975D01*
X138475031Y-75704054D02*
G75*
G03*
X137833206Y-76074610I-320931J-185246D01*
G01*
X121850193Y-112910000D02*
G75*
G03*
X121419756Y-112500002I-410293J200D01*
G01*
X118920000Y-95070000D02*
X136210000Y-95070000D01*
X133580000Y-90710000D02*
X137060000Y-90710871D01*
X114049965Y-118009947D02*
X114031486Y-76477000D01*
X139031575Y-92830000D02*
G75*
G03*
X138428425Y-92830000I-301575J0D01*
G01*
X124690000Y-104455063D02*
X124690000Y-118024935D01*
X117263698Y-112493958D02*
X121419756Y-112500001D01*
X116810000Y-92960000D02*
X116810000Y-90660000D01*
X116843168Y-115784446D02*
G75*
G03*
X117273699Y-116194445I410532J46D01*
G01*
X128063037Y-70017000D02*
G75*
G03*
X127650000Y-70430000I-37J-413000D01*
G01*
X153640000Y-105505978D02*
X151100000Y-102965978D01*
X122240273Y-116774315D02*
X121440275Y-116774758D01*
X133983533Y-104398077D02*
G75*
G03*
X124690000Y-104455064I-4596133J-8285823D01*
G01*
X150395978Y-103310000D02*
X153115978Y-106030000D01*
X137060000Y-90710809D02*
G75*
G03*
X137060000Y-89969791I0J370509D01*
G01*
X139007938Y-85220975D02*
G75*
G03*
X139420975Y-84807938I-38J413075D01*
G01*
X117273699Y-116768755D02*
G75*
G03*
X117273699Y-116194445I1J287155D01*
G01*
X150560000Y-102425978D02*
X149830000Y-102425978D01*
X134332062Y-85960000D02*
X139817938Y-85960975D01*
X126898920Y-75336963D02*
G75*
G03*
X127640000Y-75336963I370540J0D01*
G01*
X134332062Y-89980000D02*
X137060000Y-89969791D01*
X140230000Y-78840000D02*
X138475001Y-75704071D01*
X133582061Y-85219024D02*
G75*
G03*
X133169024Y-85632061I39J-413076D01*
G01*
X133919025Y-89566963D02*
X133919025Y-86373037D01*
X116810000Y-90660000D02*
G75*
G03*
X116068920Y-90660000I-370540J0D01*
G01*
X126903000Y-70403037D02*
G75*
G03*
X126490000Y-69990000I-413000J37D01*
G01*
X149514022Y-99850000D02*
G75*
G03*
X148772942Y-99850000I-370540J0D01*
G01*
X139420975Y-84807938D02*
X139440000Y-78900000D01*
X168031605Y-76476965D02*
G75*
G03*
X161631486Y-70076895I-6400005J65D01*
G01*
X139440000Y-78900000D02*
X137833206Y-76074610D01*
X120431556Y-70076930D02*
X120597938Y-70076930D01*
X136170000Y-95760833D02*
G75*
G03*
X139031574Y-92830000I-23700J2885533D01*
G01*
X122240273Y-116774368D02*
G75*
G03*
X122650272Y-116343828I127J410368D01*
G01*
X126490000Y-69990000D02*
X122160000Y-69990000D01*
X127650000Y-70430000D02*
X127640000Y-75336963D01*
X116810000Y-92960000D02*
G75*
G03*
X118920000Y-95070000I2110000J0D01*
G01*
X168050035Y-118009912D02*
X168031556Y-76476965D01*
X133167000Y-90296963D02*
G75*
G03*
X133580000Y-90710000I413000J-37D01*
G01*
X122649754Y-116343828D02*
X122643593Y-112108968D01*
X118880000Y-95760871D02*
X136170000Y-95760871D01*
X122160000Y-69989963D02*
G75*
G03*
X121746963Y-70403037I0J-413037D01*
G01*
X140230975Y-85547938D02*
X140230000Y-78840000D01*
X150395978Y-103310000D02*
X149520000Y-103307058D01*
X120431556Y-70076886D02*
G75*
G03*
X114031486Y-76477000I44J-6400114D01*
G01*
X116483456Y-116764113D02*
X117273699Y-116768716D01*
X148772942Y-102560000D02*
X149520000Y-103307058D01*
X128063037Y-70016963D02*
X161631486Y-70076895D01*
X116843212Y-115784446D02*
X116853699Y-112924445D01*
X136210000Y-95070029D02*
G75*
G03*
X138428425Y-92830000I0J2218529D01*
G01*
X117263698Y-112494005D02*
G75*
G03*
X116853700Y-112924445I-198J-410295D01*
G01*
X121005883Y-76300000D02*
G75*
G03*
X121746963Y-76300000I370540J0D01*
G01*
X151100000Y-102965978D02*
X150560000Y-102425978D01*
X133919100Y-89566963D02*
G75*
G03*
X134332062Y-89980000I413000J-37D01*
G01*
X134332062Y-85960025D02*
G75*
G03*
X133919025Y-86373037I-62J-412975D01*
G01*
X120450035Y-124410017D02*
X161649965Y-124409982D01*
X121440275Y-116200442D02*
G75*
G03*
X121440275Y-116774758I25J-287158D01*
G01*
X139007938Y-85220975D02*
X133582061Y-85219024D01*
X149830000Y-102425978D02*
X149514022Y-102110000D01*
X122213106Y-111698969D02*
X116444098Y-111681285D01*
X116444098Y-111681308D02*
G75*
G03*
X116034099Y-112111772I-98J-410392D01*
G01*
X121849756Y-115770000D02*
X121850243Y-112910000D01*
X148772942Y-99850000D02*
X148772942Y-102560000D01*
X121010975Y-70489967D02*
X121005883Y-76300000D01*
X121010970Y-70489967D02*
G75*
G03*
X120597938Y-70076930I-413070J-33D01*
G01*
X126903037Y-70403037D02*
X126898920Y-75336963D01*
X124690024Y-118024892D02*
G75*
G03*
X133983518Y-117967974I4596176J8285692D01*
G01*
X116069129Y-92950000D02*
X116068920Y-90660000D01*
X116069129Y-92950000D02*
G75*
G03*
X118880000Y-95760871I2810871J0D01*
G01*
X114049983Y-118009947D02*
G75*
G03*
X120450035Y-124410017I6400217J147D01*
G01*
X139817938Y-85960975D02*
G75*
G03*
X140230975Y-85547938I-38J413075D01*
G01*
X161649965Y-124410035D02*
G75*
G03*
X168050035Y-118009912I-65J6400135D01*
G01*
X121440275Y-116200461D02*
G75*
G03*
X121850273Y-115770000I25J410461D01*
G01*
X153115978Y-106030000D02*
G75*
G03*
X153640000Y-105505978I262011J262011D01*
G01*
X121746963Y-70403037D02*
X121746963Y-76300000D01*
M02*
