%TF.GenerationSoftware,KiCad,Pcbnew,7.0.1*%
%TF.CreationDate,2023-04-03T11:39:16+02:00*%
%TF.ProjectId,smart_power_socket-54x54x1.6mm_3Cu,736d6172-745f-4706-9f77-65725f736f63,rev?*%
%TF.SameCoordinates,Original*%
%TF.FileFunction,Legend,Top*%
%TF.FilePolarity,Positive*%
%FSLAX46Y46*%
G04 Gerber Fmt 4.6, Leading zero omitted, Abs format (unit mm)*
G04 Created by KiCad (PCBNEW 7.0.1) date 2023-04-03 11:39:16*
%MOMM*%
%LPD*%
G01*
G04 APERTURE LIST*
G04 Aperture macros list*
%AMRoundRect*
0 Rectangle with rounded corners*
0 $1 Rounding radius*
0 $2 $3 $4 $5 $6 $7 $8 $9 X,Y pos of 4 corners*
0 Add a 4 corners polygon primitive as box body*
4,1,4,$2,$3,$4,$5,$6,$7,$8,$9,$2,$3,0*
0 Add four circle primitives for the rounded corners*
1,1,$1+$1,$2,$3*
1,1,$1+$1,$4,$5*
1,1,$1+$1,$6,$7*
1,1,$1+$1,$8,$9*
0 Add four rect primitives between the rounded corners*
20,1,$1+$1,$2,$3,$4,$5,0*
20,1,$1+$1,$4,$5,$6,$7,0*
20,1,$1+$1,$6,$7,$8,$9,0*
20,1,$1+$1,$8,$9,$2,$3,0*%
%AMRotRect*
0 Rectangle, with rotation*
0 The origin of the aperture is its center*
0 $1 length*
0 $2 width*
0 $3 Rotation angle, in degrees counterclockwise*
0 Add horizontal line*
21,1,$1,$2,0,0,$3*%
G04 Aperture macros list end*
%ADD10C,0.150000*%
%ADD11C,0.300000*%
%ADD12C,2.309457*%
%ADD13C,1.932841*%
%ADD14C,0.250000*%
%ADD15C,0.200000*%
%ADD16C,0.500000*%
%ADD17C,0.350000*%
%ADD18C,0.254000*%
%ADD19C,0.120000*%
%ADD20C,0.127000*%
%ADD21C,0.508000*%
%ADD22RoundRect,0.218750X0.218750X0.381250X-0.218750X0.381250X-0.218750X-0.381250X0.218750X-0.381250X0*%
%ADD23RoundRect,0.200000X-0.200000X-0.275000X0.200000X-0.275000X0.200000X0.275000X-0.200000X0.275000X0*%
%ADD24RoundRect,0.250000X-0.450000X0.262500X-0.450000X-0.262500X0.450000X-0.262500X0.450000X0.262500X0*%
%ADD25RoundRect,0.225000X-0.250000X0.225000X-0.250000X-0.225000X0.250000X-0.225000X0.250000X0.225000X0*%
%ADD26RoundRect,0.250000X1.075000X-0.375000X1.075000X0.375000X-1.075000X0.375000X-1.075000X-0.375000X0*%
%ADD27RoundRect,0.250000X0.475000X-0.250000X0.475000X0.250000X-0.475000X0.250000X-0.475000X-0.250000X0*%
%ADD28C,1.000000*%
%ADD29RoundRect,0.200000X-0.275000X0.200000X-0.275000X-0.200000X0.275000X-0.200000X0.275000X0.200000X0*%
%ADD30RoundRect,0.150000X-0.512500X-0.150000X0.512500X-0.150000X0.512500X0.150000X-0.512500X0.150000X0*%
%ADD31RoundRect,0.225000X0.225000X0.250000X-0.225000X0.250000X-0.225000X-0.250000X0.225000X-0.250000X0*%
%ADD32RoundRect,0.200000X0.275000X-0.200000X0.275000X0.200000X-0.275000X0.200000X-0.275000X-0.200000X0*%
%ADD33RoundRect,0.250000X0.250000X0.475000X-0.250000X0.475000X-0.250000X-0.475000X0.250000X-0.475000X0*%
%ADD34RoundRect,0.250001X0.462499X0.624999X-0.462499X0.624999X-0.462499X-0.624999X0.462499X-0.624999X0*%
%ADD35RoundRect,0.250000X0.450000X-0.262500X0.450000X0.262500X-0.450000X0.262500X-0.450000X-0.262500X0*%
%ADD36R,0.840000X0.420000*%
%ADD37R,1.600000X2.500000*%
%ADD38RoundRect,0.225000X-0.225000X-0.250000X0.225000X-0.250000X0.225000X0.250000X-0.225000X0.250000X0*%
%ADD39RoundRect,0.225000X0.250000X-0.225000X0.250000X0.225000X-0.250000X0.225000X-0.250000X-0.225000X0*%
%ADD40RoundRect,0.250001X-0.624999X0.462499X-0.624999X-0.462499X0.624999X-0.462499X0.624999X0.462499X0*%
%ADD41RoundRect,0.150000X-0.825000X-0.150000X0.825000X-0.150000X0.825000X0.150000X-0.825000X0.150000X0*%
%ADD42R,1.200000X1.400000*%
%ADD43RoundRect,0.041300X-0.253700X0.948700X-0.253700X-0.948700X0.253700X-0.948700X0.253700X0.948700X0*%
%ADD44RoundRect,0.050000X0.309359X-0.238649X-0.238649X0.309359X-0.309359X0.238649X0.238649X-0.309359X0*%
%ADD45RoundRect,0.050000X0.309359X0.238649X0.238649X0.309359X-0.309359X-0.238649X-0.238649X-0.309359X0*%
%ADD46RotRect,5.600000X5.600000X135.000000*%
%ADD47RoundRect,0.250000X0.262500X0.450000X-0.262500X0.450000X-0.262500X-0.450000X0.262500X-0.450000X0*%
%ADD48R,0.400000X21.500000*%
%ADD49R,0.400000X25.400000*%
%ADD50R,2.195000X2.195000*%
%ADD51RoundRect,0.250000X0.375000X1.075000X-0.375000X1.075000X-0.375000X-1.075000X0.375000X-1.075000X0*%
%ADD52R,14.000000X0.400000*%
%ADD53R,5.700000X0.400000*%
%ADD54RoundRect,0.250000X-0.250000X-0.475000X0.250000X-0.475000X0.250000X0.475000X-0.250000X0.475000X0*%
%ADD55RoundRect,0.087500X-0.087500X0.225000X-0.087500X-0.225000X0.087500X-0.225000X0.087500X0.225000X0*%
%ADD56RoundRect,0.087500X-0.225000X0.087500X-0.225000X-0.087500X0.225000X-0.087500X0.225000X0.087500X0*%
%ADD57R,13.300000X0.400000*%
%ADD58C,1.600000*%
%ADD59C,3.000000*%
%ADD60C,2.500000*%
%ADD61C,2.010000*%
%ADD62R,2.743200X2.743200*%
%ADD63C,2.743200*%
%ADD64R,2.000000X2.000000*%
%ADD65C,2.000000*%
%ADD66R,2.300000X2.000000*%
%ADD67C,2.300000*%
%ADD68R,2.100000X2.100000*%
%ADD69C,2.100000*%
%TA.AperFunction,Profile*%
%ADD70C,0.100000*%
%TD*%
G04 APERTURE END LIST*
D10*
X149399924Y-90647000D02*
X152679924Y-90647000D01*
X152679924Y-98032000D01*
X149399924Y-98032000D01*
X149399924Y-90647000D01*
G36*
X149399924Y-90647000D02*
G01*
X152679924Y-90647000D01*
X152679924Y-98032000D01*
X149399924Y-98032000D01*
X149399924Y-90647000D01*
G37*
D11*
X142196102Y-123284949D02*
G75*
G03*
X142196102Y-123284949I-210950J0D01*
G01*
X114724566Y-101172000D02*
G75*
G03*
X114724566Y-101172000I-174642J0D01*
G01*
D12*
X166544652Y-77607543D02*
G75*
G03*
X166544652Y-77607543I-1154728J0D01*
G01*
D11*
X145419562Y-100952000D02*
G75*
G03*
X145419562Y-100952000I-129638J0D01*
G01*
X146070950Y-119250000D02*
G75*
G03*
X146070950Y-119250000I-210950J0D01*
G01*
X144550874Y-99529874D02*
G75*
G03*
X144550874Y-99529874I-210950J0D01*
G01*
D10*
X149854924Y-98692000D02*
X156924924Y-98692000D01*
X156924924Y-102142000D01*
X149854924Y-102142000D01*
X149854924Y-98692000D01*
G36*
X149854924Y-98692000D02*
G01*
X156924924Y-98692000D01*
X156924924Y-102142000D01*
X149854924Y-102142000D01*
X149854924Y-98692000D01*
G37*
D12*
X125450271Y-72390000D02*
G75*
G03*
X125450271Y-72390000I-1154728J0D01*
G01*
D13*
X160028503Y-93432000D02*
G75*
G03*
X160028503Y-93432000I-966420J0D01*
G01*
X157468579Y-108220000D02*
G75*
G03*
X157468579Y-108220000I-966420J0D01*
G01*
X166846344Y-108154159D02*
G75*
G03*
X166846344Y-108154159I-966420J0D01*
G01*
X167094185Y-101732000D02*
G75*
G03*
X167094185Y-101732000I-966420J0D01*
G01*
D12*
X120140195Y-92932000D02*
G75*
G03*
X120140195Y-92932000I-1154728J0D01*
G01*
X166584652Y-82537543D02*
G75*
G03*
X166584652Y-82537543I-1154728J0D01*
G01*
D10*
X134939924Y-79482000D02*
X137899924Y-79482000D01*
X137899924Y-84572000D01*
X134939924Y-84572000D01*
X134939924Y-79482000D01*
G36*
X134939924Y-79482000D02*
G01*
X137899924Y-79482000D01*
X137899924Y-84572000D01*
X134939924Y-84572000D01*
X134939924Y-79482000D01*
G37*
D13*
X167016344Y-93604159D02*
G75*
G03*
X167016344Y-93604159I-966420J0D01*
G01*
X160158503Y-101622000D02*
G75*
G03*
X160158503Y-101622000I-966420J0D01*
G01*
D10*
X126830000Y-99250000D02*
X126830000Y-96030000D01*
X127410000Y-100910000D02*
X126140000Y-100900000D01*
X126800000Y-99960000D01*
X127410000Y-100910000D01*
G36*
X127410000Y-100910000D02*
G01*
X126140000Y-100900000D01*
X126800000Y-99960000D01*
X127410000Y-100910000D01*
G37*
D12*
X131579109Y-85832000D02*
G75*
G03*
X131579109Y-85832000I-1154728J0D01*
G01*
D14*
X161737380Y-109151905D02*
X162737380Y-109151905D01*
X162261190Y-109151905D02*
X162261190Y-109723333D01*
X161737380Y-109723333D02*
X162737380Y-109723333D01*
X162737380Y-110390000D02*
X162737380Y-110580476D01*
X162737380Y-110580476D02*
X162689761Y-110675714D01*
X162689761Y-110675714D02*
X162594523Y-110770952D01*
X162594523Y-110770952D02*
X162404047Y-110818571D01*
X162404047Y-110818571D02*
X162070714Y-110818571D01*
X162070714Y-110818571D02*
X161880238Y-110770952D01*
X161880238Y-110770952D02*
X161785000Y-110675714D01*
X161785000Y-110675714D02*
X161737380Y-110580476D01*
X161737380Y-110580476D02*
X161737380Y-110390000D01*
X161737380Y-110390000D02*
X161785000Y-110294762D01*
X161785000Y-110294762D02*
X161880238Y-110199524D01*
X161880238Y-110199524D02*
X162070714Y-110151905D01*
X162070714Y-110151905D02*
X162404047Y-110151905D01*
X162404047Y-110151905D02*
X162594523Y-110199524D01*
X162594523Y-110199524D02*
X162689761Y-110294762D01*
X162689761Y-110294762D02*
X162737380Y-110390000D01*
X161737380Y-111247143D02*
X162737380Y-111247143D01*
X162737380Y-111247143D02*
X162023095Y-111580476D01*
X162023095Y-111580476D02*
X162737380Y-111913809D01*
X162737380Y-111913809D02*
X161737380Y-111913809D01*
X162261190Y-112390000D02*
X162261190Y-112723333D01*
X161737380Y-112866190D02*
X161737380Y-112390000D01*
X161737380Y-112390000D02*
X162737380Y-112390000D01*
X162737380Y-112390000D02*
X162737380Y-112866190D01*
X162023095Y-114009048D02*
X162023095Y-114485238D01*
X161737380Y-113913810D02*
X162737380Y-114247143D01*
X162737380Y-114247143D02*
X161737380Y-114580476D01*
X162737380Y-114913810D02*
X161927857Y-114913810D01*
X161927857Y-114913810D02*
X161832619Y-114961429D01*
X161832619Y-114961429D02*
X161785000Y-115009048D01*
X161785000Y-115009048D02*
X161737380Y-115104286D01*
X161737380Y-115104286D02*
X161737380Y-115294762D01*
X161737380Y-115294762D02*
X161785000Y-115390000D01*
X161785000Y-115390000D02*
X161832619Y-115437619D01*
X161832619Y-115437619D02*
X161927857Y-115485238D01*
X161927857Y-115485238D02*
X162737380Y-115485238D01*
X162737380Y-115818572D02*
X162737380Y-116390000D01*
X161737380Y-116104286D02*
X162737380Y-116104286D01*
X162737380Y-116913810D02*
X162737380Y-117104286D01*
X162737380Y-117104286D02*
X162689761Y-117199524D01*
X162689761Y-117199524D02*
X162594523Y-117294762D01*
X162594523Y-117294762D02*
X162404047Y-117342381D01*
X162404047Y-117342381D02*
X162070714Y-117342381D01*
X162070714Y-117342381D02*
X161880238Y-117294762D01*
X161880238Y-117294762D02*
X161785000Y-117199524D01*
X161785000Y-117199524D02*
X161737380Y-117104286D01*
X161737380Y-117104286D02*
X161737380Y-116913810D01*
X161737380Y-116913810D02*
X161785000Y-116818572D01*
X161785000Y-116818572D02*
X161880238Y-116723334D01*
X161880238Y-116723334D02*
X162070714Y-116675715D01*
X162070714Y-116675715D02*
X162404047Y-116675715D01*
X162404047Y-116675715D02*
X162594523Y-116723334D01*
X162594523Y-116723334D02*
X162689761Y-116818572D01*
X162689761Y-116818572D02*
X162737380Y-116913810D01*
X161737380Y-117770953D02*
X162737380Y-117770953D01*
X162737380Y-117770953D02*
X162023095Y-118104286D01*
X162023095Y-118104286D02*
X162737380Y-118437619D01*
X162737380Y-118437619D02*
X161737380Y-118437619D01*
X162023095Y-118866191D02*
X162023095Y-119342381D01*
X161737380Y-118770953D02*
X162737380Y-119104286D01*
X162737380Y-119104286D02*
X161737380Y-119437619D01*
X162737380Y-119628096D02*
X162737380Y-120199524D01*
X161737380Y-119913810D02*
X162737380Y-119913810D01*
X161737380Y-120532858D02*
X162737380Y-120532858D01*
X162737380Y-121199524D02*
X162737380Y-121390000D01*
X162737380Y-121390000D02*
X162689761Y-121485238D01*
X162689761Y-121485238D02*
X162594523Y-121580476D01*
X162594523Y-121580476D02*
X162404047Y-121628095D01*
X162404047Y-121628095D02*
X162070714Y-121628095D01*
X162070714Y-121628095D02*
X161880238Y-121580476D01*
X161880238Y-121580476D02*
X161785000Y-121485238D01*
X161785000Y-121485238D02*
X161737380Y-121390000D01*
X161737380Y-121390000D02*
X161737380Y-121199524D01*
X161737380Y-121199524D02*
X161785000Y-121104286D01*
X161785000Y-121104286D02*
X161880238Y-121009048D01*
X161880238Y-121009048D02*
X162070714Y-120961429D01*
X162070714Y-120961429D02*
X162404047Y-120961429D01*
X162404047Y-120961429D02*
X162594523Y-121009048D01*
X162594523Y-121009048D02*
X162689761Y-121104286D01*
X162689761Y-121104286D02*
X162737380Y-121199524D01*
X161737380Y-122056667D02*
X162737380Y-122056667D01*
X162737380Y-122056667D02*
X161737380Y-122628095D01*
X161737380Y-122628095D02*
X162737380Y-122628095D01*
X160165000Y-110509047D02*
X160117380Y-110651904D01*
X160117380Y-110651904D02*
X160117380Y-110889999D01*
X160117380Y-110889999D02*
X160165000Y-110985237D01*
X160165000Y-110985237D02*
X160212619Y-111032856D01*
X160212619Y-111032856D02*
X160307857Y-111080475D01*
X160307857Y-111080475D02*
X160403095Y-111080475D01*
X160403095Y-111080475D02*
X160498333Y-111032856D01*
X160498333Y-111032856D02*
X160545952Y-110985237D01*
X160545952Y-110985237D02*
X160593571Y-110889999D01*
X160593571Y-110889999D02*
X160641190Y-110699523D01*
X160641190Y-110699523D02*
X160688809Y-110604285D01*
X160688809Y-110604285D02*
X160736428Y-110556666D01*
X160736428Y-110556666D02*
X160831666Y-110509047D01*
X160831666Y-110509047D02*
X160926904Y-110509047D01*
X160926904Y-110509047D02*
X161022142Y-110556666D01*
X161022142Y-110556666D02*
X161069761Y-110604285D01*
X161069761Y-110604285D02*
X161117380Y-110699523D01*
X161117380Y-110699523D02*
X161117380Y-110937618D01*
X161117380Y-110937618D02*
X161069761Y-111080475D01*
X160117380Y-111509047D02*
X161117380Y-111509047D01*
X161117380Y-111509047D02*
X160403095Y-111842380D01*
X160403095Y-111842380D02*
X161117380Y-112175713D01*
X161117380Y-112175713D02*
X160117380Y-112175713D01*
X160403095Y-112604285D02*
X160403095Y-113080475D01*
X160117380Y-112509047D02*
X161117380Y-112842380D01*
X161117380Y-112842380D02*
X160117380Y-113175713D01*
X160117380Y-114080475D02*
X160593571Y-113747142D01*
X160117380Y-113509047D02*
X161117380Y-113509047D01*
X161117380Y-113509047D02*
X161117380Y-113889999D01*
X161117380Y-113889999D02*
X161069761Y-113985237D01*
X161069761Y-113985237D02*
X161022142Y-114032856D01*
X161022142Y-114032856D02*
X160926904Y-114080475D01*
X160926904Y-114080475D02*
X160784047Y-114080475D01*
X160784047Y-114080475D02*
X160688809Y-114032856D01*
X160688809Y-114032856D02*
X160641190Y-113985237D01*
X160641190Y-113985237D02*
X160593571Y-113889999D01*
X160593571Y-113889999D02*
X160593571Y-113509047D01*
X161117380Y-114366190D02*
X161117380Y-114937618D01*
X160117380Y-114651904D02*
X161117380Y-114651904D01*
X160165000Y-115985238D02*
X160117380Y-116128095D01*
X160117380Y-116128095D02*
X160117380Y-116366190D01*
X160117380Y-116366190D02*
X160165000Y-116461428D01*
X160165000Y-116461428D02*
X160212619Y-116509047D01*
X160212619Y-116509047D02*
X160307857Y-116556666D01*
X160307857Y-116556666D02*
X160403095Y-116556666D01*
X160403095Y-116556666D02*
X160498333Y-116509047D01*
X160498333Y-116509047D02*
X160545952Y-116461428D01*
X160545952Y-116461428D02*
X160593571Y-116366190D01*
X160593571Y-116366190D02*
X160641190Y-116175714D01*
X160641190Y-116175714D02*
X160688809Y-116080476D01*
X160688809Y-116080476D02*
X160736428Y-116032857D01*
X160736428Y-116032857D02*
X160831666Y-115985238D01*
X160831666Y-115985238D02*
X160926904Y-115985238D01*
X160926904Y-115985238D02*
X161022142Y-116032857D01*
X161022142Y-116032857D02*
X161069761Y-116080476D01*
X161069761Y-116080476D02*
X161117380Y-116175714D01*
X161117380Y-116175714D02*
X161117380Y-116413809D01*
X161117380Y-116413809D02*
X161069761Y-116556666D01*
X161117380Y-117175714D02*
X161117380Y-117366190D01*
X161117380Y-117366190D02*
X161069761Y-117461428D01*
X161069761Y-117461428D02*
X160974523Y-117556666D01*
X160974523Y-117556666D02*
X160784047Y-117604285D01*
X160784047Y-117604285D02*
X160450714Y-117604285D01*
X160450714Y-117604285D02*
X160260238Y-117556666D01*
X160260238Y-117556666D02*
X160165000Y-117461428D01*
X160165000Y-117461428D02*
X160117380Y-117366190D01*
X160117380Y-117366190D02*
X160117380Y-117175714D01*
X160117380Y-117175714D02*
X160165000Y-117080476D01*
X160165000Y-117080476D02*
X160260238Y-116985238D01*
X160260238Y-116985238D02*
X160450714Y-116937619D01*
X160450714Y-116937619D02*
X160784047Y-116937619D01*
X160784047Y-116937619D02*
X160974523Y-116985238D01*
X160974523Y-116985238D02*
X161069761Y-117080476D01*
X161069761Y-117080476D02*
X161117380Y-117175714D01*
X160212619Y-118604285D02*
X160165000Y-118556666D01*
X160165000Y-118556666D02*
X160117380Y-118413809D01*
X160117380Y-118413809D02*
X160117380Y-118318571D01*
X160117380Y-118318571D02*
X160165000Y-118175714D01*
X160165000Y-118175714D02*
X160260238Y-118080476D01*
X160260238Y-118080476D02*
X160355476Y-118032857D01*
X160355476Y-118032857D02*
X160545952Y-117985238D01*
X160545952Y-117985238D02*
X160688809Y-117985238D01*
X160688809Y-117985238D02*
X160879285Y-118032857D01*
X160879285Y-118032857D02*
X160974523Y-118080476D01*
X160974523Y-118080476D02*
X161069761Y-118175714D01*
X161069761Y-118175714D02*
X161117380Y-118318571D01*
X161117380Y-118318571D02*
X161117380Y-118413809D01*
X161117380Y-118413809D02*
X161069761Y-118556666D01*
X161069761Y-118556666D02*
X161022142Y-118604285D01*
X160117380Y-119032857D02*
X161117380Y-119032857D01*
X160117380Y-119604285D02*
X160688809Y-119175714D01*
X161117380Y-119604285D02*
X160545952Y-119032857D01*
X160641190Y-120032857D02*
X160641190Y-120366190D01*
X160117380Y-120509047D02*
X160117380Y-120032857D01*
X160117380Y-120032857D02*
X161117380Y-120032857D01*
X161117380Y-120032857D02*
X161117380Y-120509047D01*
X161117380Y-120794762D02*
X161117380Y-121366190D01*
X160117380Y-121080476D02*
X161117380Y-121080476D01*
D10*
X121250476Y-104268190D02*
X121174286Y-104230095D01*
X121174286Y-104230095D02*
X121060000Y-104230095D01*
X121060000Y-104230095D02*
X120945714Y-104268190D01*
X120945714Y-104268190D02*
X120869524Y-104344380D01*
X120869524Y-104344380D02*
X120831429Y-104420571D01*
X120831429Y-104420571D02*
X120793333Y-104572952D01*
X120793333Y-104572952D02*
X120793333Y-104687238D01*
X120793333Y-104687238D02*
X120831429Y-104839619D01*
X120831429Y-104839619D02*
X120869524Y-104915809D01*
X120869524Y-104915809D02*
X120945714Y-104992000D01*
X120945714Y-104992000D02*
X121060000Y-105030095D01*
X121060000Y-105030095D02*
X121136191Y-105030095D01*
X121136191Y-105030095D02*
X121250476Y-104992000D01*
X121250476Y-104992000D02*
X121288572Y-104953904D01*
X121288572Y-104953904D02*
X121288572Y-104687238D01*
X121288572Y-104687238D02*
X121136191Y-104687238D01*
X121631429Y-105030095D02*
X121631429Y-104230095D01*
X121631429Y-104230095D02*
X122088572Y-105030095D01*
X122088572Y-105030095D02*
X122088572Y-104230095D01*
X122469524Y-105030095D02*
X122469524Y-104230095D01*
X122469524Y-104230095D02*
X122660000Y-104230095D01*
X122660000Y-104230095D02*
X122774286Y-104268190D01*
X122774286Y-104268190D02*
X122850476Y-104344380D01*
X122850476Y-104344380D02*
X122888571Y-104420571D01*
X122888571Y-104420571D02*
X122926667Y-104572952D01*
X122926667Y-104572952D02*
X122926667Y-104687238D01*
X122926667Y-104687238D02*
X122888571Y-104839619D01*
X122888571Y-104839619D02*
X122850476Y-104915809D01*
X122850476Y-104915809D02*
X122774286Y-104992000D01*
X122774286Y-104992000D02*
X122660000Y-105030095D01*
X122660000Y-105030095D02*
X122469524Y-105030095D01*
D15*
X161413019Y-75754381D02*
X161413019Y-76230571D01*
X161127304Y-75659143D02*
X162127304Y-75992476D01*
X162127304Y-75992476D02*
X161127304Y-76325809D01*
X161222543Y-77230571D02*
X161174924Y-77182952D01*
X161174924Y-77182952D02*
X161127304Y-77040095D01*
X161127304Y-77040095D02*
X161127304Y-76944857D01*
X161127304Y-76944857D02*
X161174924Y-76802000D01*
X161174924Y-76802000D02*
X161270162Y-76706762D01*
X161270162Y-76706762D02*
X161365400Y-76659143D01*
X161365400Y-76659143D02*
X161555876Y-76611524D01*
X161555876Y-76611524D02*
X161698733Y-76611524D01*
X161698733Y-76611524D02*
X161889209Y-76659143D01*
X161889209Y-76659143D02*
X161984447Y-76706762D01*
X161984447Y-76706762D02*
X162079685Y-76802000D01*
X162079685Y-76802000D02*
X162127304Y-76944857D01*
X162127304Y-76944857D02*
X162127304Y-77040095D01*
X162127304Y-77040095D02*
X162079685Y-77182952D01*
X162079685Y-77182952D02*
X162032066Y-77230571D01*
X161698733Y-78563905D02*
X161746352Y-78468667D01*
X161746352Y-78468667D02*
X161793971Y-78421048D01*
X161793971Y-78421048D02*
X161889209Y-78373429D01*
X161889209Y-78373429D02*
X161936828Y-78373429D01*
X161936828Y-78373429D02*
X162032066Y-78421048D01*
X162032066Y-78421048D02*
X162079685Y-78468667D01*
X162079685Y-78468667D02*
X162127304Y-78563905D01*
X162127304Y-78563905D02*
X162127304Y-78754381D01*
X162127304Y-78754381D02*
X162079685Y-78849619D01*
X162079685Y-78849619D02*
X162032066Y-78897238D01*
X162032066Y-78897238D02*
X161936828Y-78944857D01*
X161936828Y-78944857D02*
X161889209Y-78944857D01*
X161889209Y-78944857D02*
X161793971Y-78897238D01*
X161793971Y-78897238D02*
X161746352Y-78849619D01*
X161746352Y-78849619D02*
X161698733Y-78754381D01*
X161698733Y-78754381D02*
X161698733Y-78563905D01*
X161698733Y-78563905D02*
X161651114Y-78468667D01*
X161651114Y-78468667D02*
X161603495Y-78421048D01*
X161603495Y-78421048D02*
X161508257Y-78373429D01*
X161508257Y-78373429D02*
X161317781Y-78373429D01*
X161317781Y-78373429D02*
X161222543Y-78421048D01*
X161222543Y-78421048D02*
X161174924Y-78468667D01*
X161174924Y-78468667D02*
X161127304Y-78563905D01*
X161127304Y-78563905D02*
X161127304Y-78754381D01*
X161127304Y-78754381D02*
X161174924Y-78849619D01*
X161174924Y-78849619D02*
X161222543Y-78897238D01*
X161222543Y-78897238D02*
X161317781Y-78944857D01*
X161317781Y-78944857D02*
X161508257Y-78944857D01*
X161508257Y-78944857D02*
X161603495Y-78897238D01*
X161603495Y-78897238D02*
X161651114Y-78849619D01*
X161651114Y-78849619D02*
X161698733Y-78754381D01*
X162127304Y-79849619D02*
X162127304Y-79373429D01*
X162127304Y-79373429D02*
X161651114Y-79325810D01*
X161651114Y-79325810D02*
X161698733Y-79373429D01*
X161698733Y-79373429D02*
X161746352Y-79468667D01*
X161746352Y-79468667D02*
X161746352Y-79706762D01*
X161746352Y-79706762D02*
X161698733Y-79802000D01*
X161698733Y-79802000D02*
X161651114Y-79849619D01*
X161651114Y-79849619D02*
X161555876Y-79897238D01*
X161555876Y-79897238D02*
X161317781Y-79897238D01*
X161317781Y-79897238D02*
X161222543Y-79849619D01*
X161222543Y-79849619D02*
X161174924Y-79802000D01*
X161174924Y-79802000D02*
X161127304Y-79706762D01*
X161127304Y-79706762D02*
X161127304Y-79468667D01*
X161127304Y-79468667D02*
X161174924Y-79373429D01*
X161174924Y-79373429D02*
X161222543Y-79325810D01*
X161508257Y-80325810D02*
X161508257Y-81087715D01*
X162032066Y-81516286D02*
X162079685Y-81563905D01*
X162079685Y-81563905D02*
X162127304Y-81659143D01*
X162127304Y-81659143D02*
X162127304Y-81897238D01*
X162127304Y-81897238D02*
X162079685Y-81992476D01*
X162079685Y-81992476D02*
X162032066Y-82040095D01*
X162032066Y-82040095D02*
X161936828Y-82087714D01*
X161936828Y-82087714D02*
X161841590Y-82087714D01*
X161841590Y-82087714D02*
X161698733Y-82040095D01*
X161698733Y-82040095D02*
X161127304Y-81468667D01*
X161127304Y-81468667D02*
X161127304Y-82087714D01*
X162127304Y-82706762D02*
X162127304Y-82802000D01*
X162127304Y-82802000D02*
X162079685Y-82897238D01*
X162079685Y-82897238D02*
X162032066Y-82944857D01*
X162032066Y-82944857D02*
X161936828Y-82992476D01*
X161936828Y-82992476D02*
X161746352Y-83040095D01*
X161746352Y-83040095D02*
X161508257Y-83040095D01*
X161508257Y-83040095D02*
X161317781Y-82992476D01*
X161317781Y-82992476D02*
X161222543Y-82944857D01*
X161222543Y-82944857D02*
X161174924Y-82897238D01*
X161174924Y-82897238D02*
X161127304Y-82802000D01*
X161127304Y-82802000D02*
X161127304Y-82706762D01*
X161127304Y-82706762D02*
X161174924Y-82611524D01*
X161174924Y-82611524D02*
X161222543Y-82563905D01*
X161222543Y-82563905D02*
X161317781Y-82516286D01*
X161317781Y-82516286D02*
X161508257Y-82468667D01*
X161508257Y-82468667D02*
X161746352Y-82468667D01*
X161746352Y-82468667D02*
X161936828Y-82516286D01*
X161936828Y-82516286D02*
X162032066Y-82563905D01*
X162032066Y-82563905D02*
X162079685Y-82611524D01*
X162079685Y-82611524D02*
X162127304Y-82706762D01*
X162127304Y-83659143D02*
X162127304Y-83754381D01*
X162127304Y-83754381D02*
X162079685Y-83849619D01*
X162079685Y-83849619D02*
X162032066Y-83897238D01*
X162032066Y-83897238D02*
X161936828Y-83944857D01*
X161936828Y-83944857D02*
X161746352Y-83992476D01*
X161746352Y-83992476D02*
X161508257Y-83992476D01*
X161508257Y-83992476D02*
X161317781Y-83944857D01*
X161317781Y-83944857D02*
X161222543Y-83897238D01*
X161222543Y-83897238D02*
X161174924Y-83849619D01*
X161174924Y-83849619D02*
X161127304Y-83754381D01*
X161127304Y-83754381D02*
X161127304Y-83659143D01*
X161127304Y-83659143D02*
X161174924Y-83563905D01*
X161174924Y-83563905D02*
X161222543Y-83516286D01*
X161222543Y-83516286D02*
X161317781Y-83468667D01*
X161317781Y-83468667D02*
X161508257Y-83421048D01*
X161508257Y-83421048D02*
X161746352Y-83421048D01*
X161746352Y-83421048D02*
X161936828Y-83468667D01*
X161936828Y-83468667D02*
X162032066Y-83516286D01*
X162032066Y-83516286D02*
X162079685Y-83563905D01*
X162079685Y-83563905D02*
X162127304Y-83659143D01*
X162127304Y-84278191D02*
X161127304Y-84611524D01*
X161127304Y-84611524D02*
X162127304Y-84944857D01*
D14*
X118928809Y-121595714D02*
X118976428Y-121452857D01*
X118976428Y-121452857D02*
X119024047Y-121405238D01*
X119024047Y-121405238D02*
X119119285Y-121357619D01*
X119119285Y-121357619D02*
X119262142Y-121357619D01*
X119262142Y-121357619D02*
X119357380Y-121405238D01*
X119357380Y-121405238D02*
X119405000Y-121452857D01*
X119405000Y-121452857D02*
X119452619Y-121548095D01*
X119452619Y-121548095D02*
X119452619Y-121929047D01*
X119452619Y-121929047D02*
X118452619Y-121929047D01*
X118452619Y-121929047D02*
X118452619Y-121595714D01*
X118452619Y-121595714D02*
X118500238Y-121500476D01*
X118500238Y-121500476D02*
X118547857Y-121452857D01*
X118547857Y-121452857D02*
X118643095Y-121405238D01*
X118643095Y-121405238D02*
X118738333Y-121405238D01*
X118738333Y-121405238D02*
X118833571Y-121452857D01*
X118833571Y-121452857D02*
X118881190Y-121500476D01*
X118881190Y-121500476D02*
X118928809Y-121595714D01*
X118928809Y-121595714D02*
X118928809Y-121929047D01*
X118785952Y-120500476D02*
X119452619Y-120500476D01*
X118405000Y-120738571D02*
X119119285Y-120976666D01*
X119119285Y-120976666D02*
X119119285Y-120357619D01*
X118452619Y-119500476D02*
X118452619Y-119976666D01*
X118452619Y-119976666D02*
X118928809Y-120024285D01*
X118928809Y-120024285D02*
X118881190Y-119976666D01*
X118881190Y-119976666D02*
X118833571Y-119881428D01*
X118833571Y-119881428D02*
X118833571Y-119643333D01*
X118833571Y-119643333D02*
X118881190Y-119548095D01*
X118881190Y-119548095D02*
X118928809Y-119500476D01*
X118928809Y-119500476D02*
X119024047Y-119452857D01*
X119024047Y-119452857D02*
X119262142Y-119452857D01*
X119262142Y-119452857D02*
X119357380Y-119500476D01*
X119357380Y-119500476D02*
X119405000Y-119548095D01*
X119405000Y-119548095D02*
X119452619Y-119643333D01*
X119452619Y-119643333D02*
X119452619Y-119881428D01*
X119452619Y-119881428D02*
X119405000Y-119976666D01*
X119405000Y-119976666D02*
X119357380Y-120024285D01*
X118452619Y-119167142D02*
X119452619Y-118833809D01*
X119452619Y-118833809D02*
X118452619Y-118500476D01*
X118785952Y-117738571D02*
X119452619Y-117738571D01*
X118405000Y-117976666D02*
X119119285Y-118214761D01*
X119119285Y-118214761D02*
X119119285Y-117595714D01*
D15*
X158092857Y-87182619D02*
X157616667Y-87182619D01*
X157616667Y-87182619D02*
X157569048Y-87658809D01*
X157569048Y-87658809D02*
X157616667Y-87611190D01*
X157616667Y-87611190D02*
X157711905Y-87563571D01*
X157711905Y-87563571D02*
X157950000Y-87563571D01*
X157950000Y-87563571D02*
X158045238Y-87611190D01*
X158045238Y-87611190D02*
X158092857Y-87658809D01*
X158092857Y-87658809D02*
X158140476Y-87754047D01*
X158140476Y-87754047D02*
X158140476Y-87992142D01*
X158140476Y-87992142D02*
X158092857Y-88087380D01*
X158092857Y-88087380D02*
X158045238Y-88135000D01*
X158045238Y-88135000D02*
X157950000Y-88182619D01*
X157950000Y-88182619D02*
X157711905Y-88182619D01*
X157711905Y-88182619D02*
X157616667Y-88135000D01*
X157616667Y-88135000D02*
X157569048Y-88087380D01*
X158997619Y-87515952D02*
X158997619Y-88182619D01*
X158759524Y-87135000D02*
X158521429Y-87849285D01*
X158521429Y-87849285D02*
X159140476Y-87849285D01*
X159521429Y-88087380D02*
X159569048Y-88135000D01*
X159569048Y-88135000D02*
X159521429Y-88182619D01*
X159521429Y-88182619D02*
X159473810Y-88135000D01*
X159473810Y-88135000D02*
X159521429Y-88087380D01*
X159521429Y-88087380D02*
X159521429Y-88182619D01*
X159902381Y-87182619D02*
X160521428Y-87182619D01*
X160521428Y-87182619D02*
X160188095Y-87563571D01*
X160188095Y-87563571D02*
X160330952Y-87563571D01*
X160330952Y-87563571D02*
X160426190Y-87611190D01*
X160426190Y-87611190D02*
X160473809Y-87658809D01*
X160473809Y-87658809D02*
X160521428Y-87754047D01*
X160521428Y-87754047D02*
X160521428Y-87992142D01*
X160521428Y-87992142D02*
X160473809Y-88087380D01*
X160473809Y-88087380D02*
X160426190Y-88135000D01*
X160426190Y-88135000D02*
X160330952Y-88182619D01*
X160330952Y-88182619D02*
X160045238Y-88182619D01*
X160045238Y-88182619D02*
X159950000Y-88135000D01*
X159950000Y-88135000D02*
X159902381Y-88087380D01*
X160854762Y-88182619D02*
X161378571Y-87515952D01*
X160854762Y-87515952D02*
X161378571Y-88182619D01*
X162235714Y-87182619D02*
X161759524Y-87182619D01*
X161759524Y-87182619D02*
X161711905Y-87658809D01*
X161711905Y-87658809D02*
X161759524Y-87611190D01*
X161759524Y-87611190D02*
X161854762Y-87563571D01*
X161854762Y-87563571D02*
X162092857Y-87563571D01*
X162092857Y-87563571D02*
X162188095Y-87611190D01*
X162188095Y-87611190D02*
X162235714Y-87658809D01*
X162235714Y-87658809D02*
X162283333Y-87754047D01*
X162283333Y-87754047D02*
X162283333Y-87992142D01*
X162283333Y-87992142D02*
X162235714Y-88087380D01*
X162235714Y-88087380D02*
X162188095Y-88135000D01*
X162188095Y-88135000D02*
X162092857Y-88182619D01*
X162092857Y-88182619D02*
X161854762Y-88182619D01*
X161854762Y-88182619D02*
X161759524Y-88135000D01*
X161759524Y-88135000D02*
X161711905Y-88087380D01*
X163140476Y-87515952D02*
X163140476Y-88182619D01*
X162902381Y-87135000D02*
X162664286Y-87849285D01*
X162664286Y-87849285D02*
X163283333Y-87849285D01*
X163664286Y-88087380D02*
X163711905Y-88135000D01*
X163711905Y-88135000D02*
X163664286Y-88182619D01*
X163664286Y-88182619D02*
X163616667Y-88135000D01*
X163616667Y-88135000D02*
X163664286Y-88087380D01*
X163664286Y-88087380D02*
X163664286Y-88182619D01*
X164330952Y-87182619D02*
X164426190Y-87182619D01*
X164426190Y-87182619D02*
X164521428Y-87230238D01*
X164521428Y-87230238D02*
X164569047Y-87277857D01*
X164569047Y-87277857D02*
X164616666Y-87373095D01*
X164616666Y-87373095D02*
X164664285Y-87563571D01*
X164664285Y-87563571D02*
X164664285Y-87801666D01*
X164664285Y-87801666D02*
X164616666Y-87992142D01*
X164616666Y-87992142D02*
X164569047Y-88087380D01*
X164569047Y-88087380D02*
X164521428Y-88135000D01*
X164521428Y-88135000D02*
X164426190Y-88182619D01*
X164426190Y-88182619D02*
X164330952Y-88182619D01*
X164330952Y-88182619D02*
X164235714Y-88135000D01*
X164235714Y-88135000D02*
X164188095Y-88087380D01*
X164188095Y-88087380D02*
X164140476Y-87992142D01*
X164140476Y-87992142D02*
X164092857Y-87801666D01*
X164092857Y-87801666D02*
X164092857Y-87563571D01*
X164092857Y-87563571D02*
X164140476Y-87373095D01*
X164140476Y-87373095D02*
X164188095Y-87277857D01*
X164188095Y-87277857D02*
X164235714Y-87230238D01*
X164235714Y-87230238D02*
X164330952Y-87182619D01*
X165092857Y-88182619D02*
X165092857Y-87515952D01*
X165092857Y-87611190D02*
X165140476Y-87563571D01*
X165140476Y-87563571D02*
X165235714Y-87515952D01*
X165235714Y-87515952D02*
X165378571Y-87515952D01*
X165378571Y-87515952D02*
X165473809Y-87563571D01*
X165473809Y-87563571D02*
X165521428Y-87658809D01*
X165521428Y-87658809D02*
X165521428Y-88182619D01*
X165521428Y-87658809D02*
X165569047Y-87563571D01*
X165569047Y-87563571D02*
X165664285Y-87515952D01*
X165664285Y-87515952D02*
X165807142Y-87515952D01*
X165807142Y-87515952D02*
X165902381Y-87563571D01*
X165902381Y-87563571D02*
X165950000Y-87658809D01*
X165950000Y-87658809D02*
X165950000Y-88182619D01*
X166426190Y-88182619D02*
X166426190Y-87515952D01*
X166426190Y-87611190D02*
X166473809Y-87563571D01*
X166473809Y-87563571D02*
X166569047Y-87515952D01*
X166569047Y-87515952D02*
X166711904Y-87515952D01*
X166711904Y-87515952D02*
X166807142Y-87563571D01*
X166807142Y-87563571D02*
X166854761Y-87658809D01*
X166854761Y-87658809D02*
X166854761Y-88182619D01*
X166854761Y-87658809D02*
X166902380Y-87563571D01*
X166902380Y-87563571D02*
X166997618Y-87515952D01*
X166997618Y-87515952D02*
X167140475Y-87515952D01*
X167140475Y-87515952D02*
X167235714Y-87563571D01*
X167235714Y-87563571D02*
X167283333Y-87658809D01*
X167283333Y-87658809D02*
X167283333Y-88182619D01*
X154592381Y-97126904D02*
X155068571Y-97126904D01*
X154497143Y-97412619D02*
X154830476Y-96412619D01*
X154830476Y-96412619D02*
X155163809Y-97412619D01*
X156068571Y-97317380D02*
X156020952Y-97365000D01*
X156020952Y-97365000D02*
X155878095Y-97412619D01*
X155878095Y-97412619D02*
X155782857Y-97412619D01*
X155782857Y-97412619D02*
X155640000Y-97365000D01*
X155640000Y-97365000D02*
X155544762Y-97269761D01*
X155544762Y-97269761D02*
X155497143Y-97174523D01*
X155497143Y-97174523D02*
X155449524Y-96984047D01*
X155449524Y-96984047D02*
X155449524Y-96841190D01*
X155449524Y-96841190D02*
X155497143Y-96650714D01*
X155497143Y-96650714D02*
X155544762Y-96555476D01*
X155544762Y-96555476D02*
X155640000Y-96460238D01*
X155640000Y-96460238D02*
X155782857Y-96412619D01*
X155782857Y-96412619D02*
X155878095Y-96412619D01*
X155878095Y-96412619D02*
X156020952Y-96460238D01*
X156020952Y-96460238D02*
X156068571Y-96507857D01*
X157401905Y-96841190D02*
X157306667Y-96793571D01*
X157306667Y-96793571D02*
X157259048Y-96745952D01*
X157259048Y-96745952D02*
X157211429Y-96650714D01*
X157211429Y-96650714D02*
X157211429Y-96603095D01*
X157211429Y-96603095D02*
X157259048Y-96507857D01*
X157259048Y-96507857D02*
X157306667Y-96460238D01*
X157306667Y-96460238D02*
X157401905Y-96412619D01*
X157401905Y-96412619D02*
X157592381Y-96412619D01*
X157592381Y-96412619D02*
X157687619Y-96460238D01*
X157687619Y-96460238D02*
X157735238Y-96507857D01*
X157735238Y-96507857D02*
X157782857Y-96603095D01*
X157782857Y-96603095D02*
X157782857Y-96650714D01*
X157782857Y-96650714D02*
X157735238Y-96745952D01*
X157735238Y-96745952D02*
X157687619Y-96793571D01*
X157687619Y-96793571D02*
X157592381Y-96841190D01*
X157592381Y-96841190D02*
X157401905Y-96841190D01*
X157401905Y-96841190D02*
X157306667Y-96888809D01*
X157306667Y-96888809D02*
X157259048Y-96936428D01*
X157259048Y-96936428D02*
X157211429Y-97031666D01*
X157211429Y-97031666D02*
X157211429Y-97222142D01*
X157211429Y-97222142D02*
X157259048Y-97317380D01*
X157259048Y-97317380D02*
X157306667Y-97365000D01*
X157306667Y-97365000D02*
X157401905Y-97412619D01*
X157401905Y-97412619D02*
X157592381Y-97412619D01*
X157592381Y-97412619D02*
X157687619Y-97365000D01*
X157687619Y-97365000D02*
X157735238Y-97317380D01*
X157735238Y-97317380D02*
X157782857Y-97222142D01*
X157782857Y-97222142D02*
X157782857Y-97031666D01*
X157782857Y-97031666D02*
X157735238Y-96936428D01*
X157735238Y-96936428D02*
X157687619Y-96888809D01*
X157687619Y-96888809D02*
X157592381Y-96841190D01*
X158687619Y-96412619D02*
X158211429Y-96412619D01*
X158211429Y-96412619D02*
X158163810Y-96888809D01*
X158163810Y-96888809D02*
X158211429Y-96841190D01*
X158211429Y-96841190D02*
X158306667Y-96793571D01*
X158306667Y-96793571D02*
X158544762Y-96793571D01*
X158544762Y-96793571D02*
X158640000Y-96841190D01*
X158640000Y-96841190D02*
X158687619Y-96888809D01*
X158687619Y-96888809D02*
X158735238Y-96984047D01*
X158735238Y-96984047D02*
X158735238Y-97222142D01*
X158735238Y-97222142D02*
X158687619Y-97317380D01*
X158687619Y-97317380D02*
X158640000Y-97365000D01*
X158640000Y-97365000D02*
X158544762Y-97412619D01*
X158544762Y-97412619D02*
X158306667Y-97412619D01*
X158306667Y-97412619D02*
X158211429Y-97365000D01*
X158211429Y-97365000D02*
X158163810Y-97317380D01*
X159163810Y-97031666D02*
X159925715Y-97031666D01*
X160354286Y-96507857D02*
X160401905Y-96460238D01*
X160401905Y-96460238D02*
X160497143Y-96412619D01*
X160497143Y-96412619D02*
X160735238Y-96412619D01*
X160735238Y-96412619D02*
X160830476Y-96460238D01*
X160830476Y-96460238D02*
X160878095Y-96507857D01*
X160878095Y-96507857D02*
X160925714Y-96603095D01*
X160925714Y-96603095D02*
X160925714Y-96698333D01*
X160925714Y-96698333D02*
X160878095Y-96841190D01*
X160878095Y-96841190D02*
X160306667Y-97412619D01*
X160306667Y-97412619D02*
X160925714Y-97412619D01*
X161544762Y-96412619D02*
X161640000Y-96412619D01*
X161640000Y-96412619D02*
X161735238Y-96460238D01*
X161735238Y-96460238D02*
X161782857Y-96507857D01*
X161782857Y-96507857D02*
X161830476Y-96603095D01*
X161830476Y-96603095D02*
X161878095Y-96793571D01*
X161878095Y-96793571D02*
X161878095Y-97031666D01*
X161878095Y-97031666D02*
X161830476Y-97222142D01*
X161830476Y-97222142D02*
X161782857Y-97317380D01*
X161782857Y-97317380D02*
X161735238Y-97365000D01*
X161735238Y-97365000D02*
X161640000Y-97412619D01*
X161640000Y-97412619D02*
X161544762Y-97412619D01*
X161544762Y-97412619D02*
X161449524Y-97365000D01*
X161449524Y-97365000D02*
X161401905Y-97317380D01*
X161401905Y-97317380D02*
X161354286Y-97222142D01*
X161354286Y-97222142D02*
X161306667Y-97031666D01*
X161306667Y-97031666D02*
X161306667Y-96793571D01*
X161306667Y-96793571D02*
X161354286Y-96603095D01*
X161354286Y-96603095D02*
X161401905Y-96507857D01*
X161401905Y-96507857D02*
X161449524Y-96460238D01*
X161449524Y-96460238D02*
X161544762Y-96412619D01*
X162497143Y-96412619D02*
X162592381Y-96412619D01*
X162592381Y-96412619D02*
X162687619Y-96460238D01*
X162687619Y-96460238D02*
X162735238Y-96507857D01*
X162735238Y-96507857D02*
X162782857Y-96603095D01*
X162782857Y-96603095D02*
X162830476Y-96793571D01*
X162830476Y-96793571D02*
X162830476Y-97031666D01*
X162830476Y-97031666D02*
X162782857Y-97222142D01*
X162782857Y-97222142D02*
X162735238Y-97317380D01*
X162735238Y-97317380D02*
X162687619Y-97365000D01*
X162687619Y-97365000D02*
X162592381Y-97412619D01*
X162592381Y-97412619D02*
X162497143Y-97412619D01*
X162497143Y-97412619D02*
X162401905Y-97365000D01*
X162401905Y-97365000D02*
X162354286Y-97317380D01*
X162354286Y-97317380D02*
X162306667Y-97222142D01*
X162306667Y-97222142D02*
X162259048Y-97031666D01*
X162259048Y-97031666D02*
X162259048Y-96793571D01*
X162259048Y-96793571D02*
X162306667Y-96603095D01*
X162306667Y-96603095D02*
X162354286Y-96507857D01*
X162354286Y-96507857D02*
X162401905Y-96460238D01*
X162401905Y-96460238D02*
X162497143Y-96412619D01*
X163116191Y-96412619D02*
X163449524Y-97412619D01*
X163449524Y-97412619D02*
X163782857Y-96412619D01*
D10*
X120923810Y-101420095D02*
X121190477Y-102220095D01*
X121190477Y-102220095D02*
X121457143Y-101420095D01*
X121723810Y-102220095D02*
X121723810Y-101420095D01*
X122104762Y-102220095D02*
X122104762Y-101420095D01*
X122104762Y-101420095D02*
X122561905Y-102220095D01*
X122561905Y-102220095D02*
X122561905Y-101420095D01*
D15*
X124315238Y-120587880D02*
X125048572Y-121687880D01*
X125048572Y-120587880D02*
X124315238Y-121687880D01*
X125310476Y-120954547D02*
X125729524Y-120954547D01*
X125467619Y-120587880D02*
X125467619Y-121530738D01*
X125467619Y-121530738D02*
X125520000Y-121635500D01*
X125520000Y-121635500D02*
X125624762Y-121687880D01*
X125624762Y-121687880D02*
X125729524Y-121687880D01*
X126515238Y-121635500D02*
X126410476Y-121687880D01*
X126410476Y-121687880D02*
X126200952Y-121687880D01*
X126200952Y-121687880D02*
X126096190Y-121635500D01*
X126096190Y-121635500D02*
X126043809Y-121530738D01*
X126043809Y-121530738D02*
X126043809Y-121111690D01*
X126043809Y-121111690D02*
X126096190Y-121006928D01*
X126096190Y-121006928D02*
X126200952Y-120954547D01*
X126200952Y-120954547D02*
X126410476Y-120954547D01*
X126410476Y-120954547D02*
X126515238Y-121006928D01*
X126515238Y-121006928D02*
X126567619Y-121111690D01*
X126567619Y-121111690D02*
X126567619Y-121216452D01*
X126567619Y-121216452D02*
X126043809Y-121321214D01*
X127039047Y-120954547D02*
X127039047Y-121687880D01*
X127039047Y-121059309D02*
X127091428Y-121006928D01*
X127091428Y-121006928D02*
X127196190Y-120954547D01*
X127196190Y-120954547D02*
X127353333Y-120954547D01*
X127353333Y-120954547D02*
X127458095Y-121006928D01*
X127458095Y-121006928D02*
X127510476Y-121111690D01*
X127510476Y-121111690D02*
X127510476Y-121687880D01*
X127981904Y-121635500D02*
X128086666Y-121687880D01*
X128086666Y-121687880D02*
X128296190Y-121687880D01*
X128296190Y-121687880D02*
X128400952Y-121635500D01*
X128400952Y-121635500D02*
X128453333Y-121530738D01*
X128453333Y-121530738D02*
X128453333Y-121478357D01*
X128453333Y-121478357D02*
X128400952Y-121373595D01*
X128400952Y-121373595D02*
X128296190Y-121321214D01*
X128296190Y-121321214D02*
X128139047Y-121321214D01*
X128139047Y-121321214D02*
X128034285Y-121268833D01*
X128034285Y-121268833D02*
X127981904Y-121164071D01*
X127981904Y-121164071D02*
X127981904Y-121111690D01*
X127981904Y-121111690D02*
X128034285Y-121006928D01*
X128034285Y-121006928D02*
X128139047Y-120954547D01*
X128139047Y-120954547D02*
X128296190Y-120954547D01*
X128296190Y-120954547D02*
X128400952Y-121006928D01*
X129396190Y-121687880D02*
X129396190Y-121111690D01*
X129396190Y-121111690D02*
X129343809Y-121006928D01*
X129343809Y-121006928D02*
X129239047Y-120954547D01*
X129239047Y-120954547D02*
X129029523Y-120954547D01*
X129029523Y-120954547D02*
X128924761Y-121006928D01*
X129396190Y-121635500D02*
X129291428Y-121687880D01*
X129291428Y-121687880D02*
X129029523Y-121687880D01*
X129029523Y-121687880D02*
X128924761Y-121635500D01*
X128924761Y-121635500D02*
X128872380Y-121530738D01*
X128872380Y-121530738D02*
X128872380Y-121425976D01*
X128872380Y-121425976D02*
X128924761Y-121321214D01*
X128924761Y-121321214D02*
X129029523Y-121268833D01*
X129029523Y-121268833D02*
X129291428Y-121268833D01*
X129291428Y-121268833D02*
X129396190Y-121216452D01*
X131281904Y-121687880D02*
X130758094Y-121687880D01*
X130758094Y-121687880D02*
X130758094Y-120587880D01*
X131543808Y-120587880D02*
X132277142Y-121687880D01*
X132277142Y-120587880D02*
X131543808Y-121687880D01*
X132591427Y-120587880D02*
X133324761Y-120587880D01*
X133324761Y-120587880D02*
X132853332Y-121687880D01*
X124970000Y-123469880D02*
X124970000Y-122369880D01*
X124970000Y-122369880D02*
X125231905Y-122369880D01*
X125231905Y-122369880D02*
X125389048Y-122422261D01*
X125389048Y-122422261D02*
X125493810Y-122527023D01*
X125493810Y-122527023D02*
X125546191Y-122631785D01*
X125546191Y-122631785D02*
X125598572Y-122841309D01*
X125598572Y-122841309D02*
X125598572Y-122998452D01*
X125598572Y-122998452D02*
X125546191Y-123207976D01*
X125546191Y-123207976D02*
X125493810Y-123312738D01*
X125493810Y-123312738D02*
X125389048Y-123417500D01*
X125389048Y-123417500D02*
X125231905Y-123469880D01*
X125231905Y-123469880D02*
X124970000Y-123469880D01*
X126541429Y-122736547D02*
X126541429Y-123469880D01*
X126070000Y-122736547D02*
X126070000Y-123312738D01*
X126070000Y-123312738D02*
X126122381Y-123417500D01*
X126122381Y-123417500D02*
X126227143Y-123469880D01*
X126227143Y-123469880D02*
X126384286Y-123469880D01*
X126384286Y-123469880D02*
X126489048Y-123417500D01*
X126489048Y-123417500D02*
X126541429Y-123365119D01*
X127536667Y-123469880D02*
X127536667Y-122893690D01*
X127536667Y-122893690D02*
X127484286Y-122788928D01*
X127484286Y-122788928D02*
X127379524Y-122736547D01*
X127379524Y-122736547D02*
X127170000Y-122736547D01*
X127170000Y-122736547D02*
X127065238Y-122788928D01*
X127536667Y-123417500D02*
X127431905Y-123469880D01*
X127431905Y-123469880D02*
X127170000Y-123469880D01*
X127170000Y-123469880D02*
X127065238Y-123417500D01*
X127065238Y-123417500D02*
X127012857Y-123312738D01*
X127012857Y-123312738D02*
X127012857Y-123207976D01*
X127012857Y-123207976D02*
X127065238Y-123103214D01*
X127065238Y-123103214D02*
X127170000Y-123050833D01*
X127170000Y-123050833D02*
X127431905Y-123050833D01*
X127431905Y-123050833D02*
X127536667Y-122998452D01*
X128217619Y-123469880D02*
X128112857Y-123417500D01*
X128112857Y-123417500D02*
X128060476Y-123312738D01*
X128060476Y-123312738D02*
X128060476Y-122369880D01*
X130103333Y-123365119D02*
X130050952Y-123417500D01*
X130050952Y-123417500D02*
X129893809Y-123469880D01*
X129893809Y-123469880D02*
X129789047Y-123469880D01*
X129789047Y-123469880D02*
X129631904Y-123417500D01*
X129631904Y-123417500D02*
X129527142Y-123312738D01*
X129527142Y-123312738D02*
X129474761Y-123207976D01*
X129474761Y-123207976D02*
X129422380Y-122998452D01*
X129422380Y-122998452D02*
X129422380Y-122841309D01*
X129422380Y-122841309D02*
X129474761Y-122631785D01*
X129474761Y-122631785D02*
X129527142Y-122527023D01*
X129527142Y-122527023D02*
X129631904Y-122422261D01*
X129631904Y-122422261D02*
X129789047Y-122369880D01*
X129789047Y-122369880D02*
X129893809Y-122369880D01*
X129893809Y-122369880D02*
X130050952Y-122422261D01*
X130050952Y-122422261D02*
X130103333Y-122474642D01*
X130731904Y-123469880D02*
X130627142Y-123417500D01*
X130627142Y-123417500D02*
X130574761Y-123365119D01*
X130574761Y-123365119D02*
X130522380Y-123260357D01*
X130522380Y-123260357D02*
X130522380Y-122946071D01*
X130522380Y-122946071D02*
X130574761Y-122841309D01*
X130574761Y-122841309D02*
X130627142Y-122788928D01*
X130627142Y-122788928D02*
X130731904Y-122736547D01*
X130731904Y-122736547D02*
X130889047Y-122736547D01*
X130889047Y-122736547D02*
X130993809Y-122788928D01*
X130993809Y-122788928D02*
X131046190Y-122841309D01*
X131046190Y-122841309D02*
X131098571Y-122946071D01*
X131098571Y-122946071D02*
X131098571Y-123260357D01*
X131098571Y-123260357D02*
X131046190Y-123365119D01*
X131046190Y-123365119D02*
X130993809Y-123417500D01*
X130993809Y-123417500D02*
X130889047Y-123469880D01*
X130889047Y-123469880D02*
X130731904Y-123469880D01*
X131569999Y-123469880D02*
X131569999Y-122736547D01*
X131569999Y-122946071D02*
X131622380Y-122841309D01*
X131622380Y-122841309D02*
X131674761Y-122788928D01*
X131674761Y-122788928D02*
X131779523Y-122736547D01*
X131779523Y-122736547D02*
X131884285Y-122736547D01*
X132669999Y-123417500D02*
X132565237Y-123469880D01*
X132565237Y-123469880D02*
X132355713Y-123469880D01*
X132355713Y-123469880D02*
X132250951Y-123417500D01*
X132250951Y-123417500D02*
X132198570Y-123312738D01*
X132198570Y-123312738D02*
X132198570Y-122893690D01*
X132198570Y-122893690D02*
X132250951Y-122788928D01*
X132250951Y-122788928D02*
X132355713Y-122736547D01*
X132355713Y-122736547D02*
X132565237Y-122736547D01*
X132565237Y-122736547D02*
X132669999Y-122788928D01*
X132669999Y-122788928D02*
X132722380Y-122893690D01*
X132722380Y-122893690D02*
X132722380Y-122998452D01*
X132722380Y-122998452D02*
X132198570Y-123103214D01*
D14*
X120538809Y-122993333D02*
X120538809Y-123326666D01*
X121062619Y-123326666D02*
X120062619Y-123326666D01*
X120062619Y-123326666D02*
X120062619Y-122850476D01*
X121062619Y-122469523D02*
X120062619Y-122469523D01*
X120062619Y-122136190D02*
X120062619Y-121564762D01*
X121062619Y-121850476D02*
X120062619Y-121850476D01*
X121015000Y-121279047D02*
X121062619Y-121136190D01*
X121062619Y-121136190D02*
X121062619Y-120898095D01*
X121062619Y-120898095D02*
X121015000Y-120802857D01*
X121015000Y-120802857D02*
X120967380Y-120755238D01*
X120967380Y-120755238D02*
X120872142Y-120707619D01*
X120872142Y-120707619D02*
X120776904Y-120707619D01*
X120776904Y-120707619D02*
X120681666Y-120755238D01*
X120681666Y-120755238D02*
X120634047Y-120802857D01*
X120634047Y-120802857D02*
X120586428Y-120898095D01*
X120586428Y-120898095D02*
X120538809Y-121088571D01*
X120538809Y-121088571D02*
X120491190Y-121183809D01*
X120491190Y-121183809D02*
X120443571Y-121231428D01*
X120443571Y-121231428D02*
X120348333Y-121279047D01*
X120348333Y-121279047D02*
X120253095Y-121279047D01*
X120253095Y-121279047D02*
X120157857Y-121231428D01*
X120157857Y-121231428D02*
X120110238Y-121183809D01*
X120110238Y-121183809D02*
X120062619Y-121088571D01*
X120062619Y-121088571D02*
X120062619Y-120850476D01*
X120062619Y-120850476D02*
X120110238Y-120707619D01*
X120538809Y-119183809D02*
X120586428Y-119040952D01*
X120586428Y-119040952D02*
X120634047Y-118993333D01*
X120634047Y-118993333D02*
X120729285Y-118945714D01*
X120729285Y-118945714D02*
X120872142Y-118945714D01*
X120872142Y-118945714D02*
X120967380Y-118993333D01*
X120967380Y-118993333D02*
X121015000Y-119040952D01*
X121015000Y-119040952D02*
X121062619Y-119136190D01*
X121062619Y-119136190D02*
X121062619Y-119517142D01*
X121062619Y-119517142D02*
X120062619Y-119517142D01*
X120062619Y-119517142D02*
X120062619Y-119183809D01*
X120062619Y-119183809D02*
X120110238Y-119088571D01*
X120110238Y-119088571D02*
X120157857Y-119040952D01*
X120157857Y-119040952D02*
X120253095Y-118993333D01*
X120253095Y-118993333D02*
X120348333Y-118993333D01*
X120348333Y-118993333D02*
X120443571Y-119040952D01*
X120443571Y-119040952D02*
X120491190Y-119088571D01*
X120491190Y-119088571D02*
X120538809Y-119183809D01*
X120538809Y-119183809D02*
X120538809Y-119517142D01*
X120062619Y-118326666D02*
X120062619Y-118136190D01*
X120062619Y-118136190D02*
X120110238Y-118040952D01*
X120110238Y-118040952D02*
X120205476Y-117945714D01*
X120205476Y-117945714D02*
X120395952Y-117898095D01*
X120395952Y-117898095D02*
X120729285Y-117898095D01*
X120729285Y-117898095D02*
X120919761Y-117945714D01*
X120919761Y-117945714D02*
X121015000Y-118040952D01*
X121015000Y-118040952D02*
X121062619Y-118136190D01*
X121062619Y-118136190D02*
X121062619Y-118326666D01*
X121062619Y-118326666D02*
X121015000Y-118421904D01*
X121015000Y-118421904D02*
X120919761Y-118517142D01*
X120919761Y-118517142D02*
X120729285Y-118564761D01*
X120729285Y-118564761D02*
X120395952Y-118564761D01*
X120395952Y-118564761D02*
X120205476Y-118517142D01*
X120205476Y-118517142D02*
X120110238Y-118421904D01*
X120110238Y-118421904D02*
X120062619Y-118326666D01*
X120062619Y-117564761D02*
X121062619Y-116898095D01*
X120062619Y-116898095D02*
X121062619Y-117564761D01*
D15*
X157253809Y-89672619D02*
X157253809Y-89005952D01*
X157253809Y-89196428D02*
X157301428Y-89101190D01*
X157301428Y-89101190D02*
X157349047Y-89053571D01*
X157349047Y-89053571D02*
X157444285Y-89005952D01*
X157444285Y-89005952D02*
X157539523Y-89005952D01*
X158253809Y-89625000D02*
X158158571Y-89672619D01*
X158158571Y-89672619D02*
X157968095Y-89672619D01*
X157968095Y-89672619D02*
X157872857Y-89625000D01*
X157872857Y-89625000D02*
X157825238Y-89529761D01*
X157825238Y-89529761D02*
X157825238Y-89148809D01*
X157825238Y-89148809D02*
X157872857Y-89053571D01*
X157872857Y-89053571D02*
X157968095Y-89005952D01*
X157968095Y-89005952D02*
X158158571Y-89005952D01*
X158158571Y-89005952D02*
X158253809Y-89053571D01*
X158253809Y-89053571D02*
X158301428Y-89148809D01*
X158301428Y-89148809D02*
X158301428Y-89244047D01*
X158301428Y-89244047D02*
X157825238Y-89339285D01*
X158634762Y-89005952D02*
X158872857Y-89672619D01*
X158872857Y-89672619D02*
X159110952Y-89005952D01*
X159491905Y-89577380D02*
X159539524Y-89625000D01*
X159539524Y-89625000D02*
X159491905Y-89672619D01*
X159491905Y-89672619D02*
X159444286Y-89625000D01*
X159444286Y-89625000D02*
X159491905Y-89577380D01*
X159491905Y-89577380D02*
X159491905Y-89672619D01*
X160920476Y-88672619D02*
X161015714Y-88672619D01*
X161015714Y-88672619D02*
X161110952Y-88720238D01*
X161110952Y-88720238D02*
X161158571Y-88767857D01*
X161158571Y-88767857D02*
X161206190Y-88863095D01*
X161206190Y-88863095D02*
X161253809Y-89053571D01*
X161253809Y-89053571D02*
X161253809Y-89291666D01*
X161253809Y-89291666D02*
X161206190Y-89482142D01*
X161206190Y-89482142D02*
X161158571Y-89577380D01*
X161158571Y-89577380D02*
X161110952Y-89625000D01*
X161110952Y-89625000D02*
X161015714Y-89672619D01*
X161015714Y-89672619D02*
X160920476Y-89672619D01*
X160920476Y-89672619D02*
X160825238Y-89625000D01*
X160825238Y-89625000D02*
X160777619Y-89577380D01*
X160777619Y-89577380D02*
X160730000Y-89482142D01*
X160730000Y-89482142D02*
X160682381Y-89291666D01*
X160682381Y-89291666D02*
X160682381Y-89053571D01*
X160682381Y-89053571D02*
X160730000Y-88863095D01*
X160730000Y-88863095D02*
X160777619Y-88767857D01*
X160777619Y-88767857D02*
X160825238Y-88720238D01*
X160825238Y-88720238D02*
X160920476Y-88672619D01*
X162110952Y-89005952D02*
X162110952Y-89672619D01*
X161872857Y-88625000D02*
X161634762Y-89339285D01*
X161634762Y-89339285D02*
X162253809Y-89339285D01*
X162634762Y-89291666D02*
X163396667Y-89291666D01*
X163825238Y-88767857D02*
X163872857Y-88720238D01*
X163872857Y-88720238D02*
X163968095Y-88672619D01*
X163968095Y-88672619D02*
X164206190Y-88672619D01*
X164206190Y-88672619D02*
X164301428Y-88720238D01*
X164301428Y-88720238D02*
X164349047Y-88767857D01*
X164349047Y-88767857D02*
X164396666Y-88863095D01*
X164396666Y-88863095D02*
X164396666Y-88958333D01*
X164396666Y-88958333D02*
X164349047Y-89101190D01*
X164349047Y-89101190D02*
X163777619Y-89672619D01*
X163777619Y-89672619D02*
X164396666Y-89672619D01*
X165015714Y-88672619D02*
X165110952Y-88672619D01*
X165110952Y-88672619D02*
X165206190Y-88720238D01*
X165206190Y-88720238D02*
X165253809Y-88767857D01*
X165253809Y-88767857D02*
X165301428Y-88863095D01*
X165301428Y-88863095D02*
X165349047Y-89053571D01*
X165349047Y-89053571D02*
X165349047Y-89291666D01*
X165349047Y-89291666D02*
X165301428Y-89482142D01*
X165301428Y-89482142D02*
X165253809Y-89577380D01*
X165253809Y-89577380D02*
X165206190Y-89625000D01*
X165206190Y-89625000D02*
X165110952Y-89672619D01*
X165110952Y-89672619D02*
X165015714Y-89672619D01*
X165015714Y-89672619D02*
X164920476Y-89625000D01*
X164920476Y-89625000D02*
X164872857Y-89577380D01*
X164872857Y-89577380D02*
X164825238Y-89482142D01*
X164825238Y-89482142D02*
X164777619Y-89291666D01*
X164777619Y-89291666D02*
X164777619Y-89053571D01*
X164777619Y-89053571D02*
X164825238Y-88863095D01*
X164825238Y-88863095D02*
X164872857Y-88767857D01*
X164872857Y-88767857D02*
X164920476Y-88720238D01*
X164920476Y-88720238D02*
X165015714Y-88672619D01*
X165730000Y-88767857D02*
X165777619Y-88720238D01*
X165777619Y-88720238D02*
X165872857Y-88672619D01*
X165872857Y-88672619D02*
X166110952Y-88672619D01*
X166110952Y-88672619D02*
X166206190Y-88720238D01*
X166206190Y-88720238D02*
X166253809Y-88767857D01*
X166253809Y-88767857D02*
X166301428Y-88863095D01*
X166301428Y-88863095D02*
X166301428Y-88958333D01*
X166301428Y-88958333D02*
X166253809Y-89101190D01*
X166253809Y-89101190D02*
X165682381Y-89672619D01*
X165682381Y-89672619D02*
X166301428Y-89672619D01*
X166634762Y-88672619D02*
X167253809Y-88672619D01*
X167253809Y-88672619D02*
X166920476Y-89053571D01*
X166920476Y-89053571D02*
X167063333Y-89053571D01*
X167063333Y-89053571D02*
X167158571Y-89101190D01*
X167158571Y-89101190D02*
X167206190Y-89148809D01*
X167206190Y-89148809D02*
X167253809Y-89244047D01*
X167253809Y-89244047D02*
X167253809Y-89482142D01*
X167253809Y-89482142D02*
X167206190Y-89577380D01*
X167206190Y-89577380D02*
X167158571Y-89625000D01*
X167158571Y-89625000D02*
X167063333Y-89672619D01*
X167063333Y-89672619D02*
X166777619Y-89672619D01*
X166777619Y-89672619D02*
X166682381Y-89625000D01*
X166682381Y-89625000D02*
X166634762Y-89577380D01*
D10*
X120899523Y-107420095D02*
X121394761Y-107420095D01*
X121394761Y-107420095D02*
X121128095Y-107724857D01*
X121128095Y-107724857D02*
X121242380Y-107724857D01*
X121242380Y-107724857D02*
X121318571Y-107762952D01*
X121318571Y-107762952D02*
X121356666Y-107801047D01*
X121356666Y-107801047D02*
X121394761Y-107877238D01*
X121394761Y-107877238D02*
X121394761Y-108067714D01*
X121394761Y-108067714D02*
X121356666Y-108143904D01*
X121356666Y-108143904D02*
X121318571Y-108182000D01*
X121318571Y-108182000D02*
X121242380Y-108220095D01*
X121242380Y-108220095D02*
X121013809Y-108220095D01*
X121013809Y-108220095D02*
X120937618Y-108182000D01*
X120937618Y-108182000D02*
X120899523Y-108143904D01*
X121623333Y-107420095D02*
X121890000Y-108220095D01*
X121890000Y-108220095D02*
X122156666Y-107420095D01*
X122347142Y-107420095D02*
X122842380Y-107420095D01*
X122842380Y-107420095D02*
X122575714Y-107724857D01*
X122575714Y-107724857D02*
X122689999Y-107724857D01*
X122689999Y-107724857D02*
X122766190Y-107762952D01*
X122766190Y-107762952D02*
X122804285Y-107801047D01*
X122804285Y-107801047D02*
X122842380Y-107877238D01*
X122842380Y-107877238D02*
X122842380Y-108067714D01*
X122842380Y-108067714D02*
X122804285Y-108143904D01*
X122804285Y-108143904D02*
X122766190Y-108182000D01*
X122766190Y-108182000D02*
X122689999Y-108220095D01*
X122689999Y-108220095D02*
X122461428Y-108220095D01*
X122461428Y-108220095D02*
X122385237Y-108182000D01*
X122385237Y-108182000D02*
X122347142Y-108143904D01*
X127803809Y-101042619D02*
X127803809Y-100042619D01*
X127803809Y-100042619D02*
X128375237Y-101042619D01*
X128375237Y-101042619D02*
X128375237Y-100042619D01*
X128851428Y-100518809D02*
X129184761Y-100518809D01*
X129327618Y-101042619D02*
X128851428Y-101042619D01*
X128851428Y-101042619D02*
X128851428Y-100042619D01*
X128851428Y-100042619D02*
X129327618Y-100042619D01*
X129756190Y-100042619D02*
X129756190Y-100852142D01*
X129756190Y-100852142D02*
X129803809Y-100947380D01*
X129803809Y-100947380D02*
X129851428Y-100995000D01*
X129851428Y-100995000D02*
X129946666Y-101042619D01*
X129946666Y-101042619D02*
X130137142Y-101042619D01*
X130137142Y-101042619D02*
X130232380Y-100995000D01*
X130232380Y-100995000D02*
X130279999Y-100947380D01*
X130279999Y-100947380D02*
X130327618Y-100852142D01*
X130327618Y-100852142D02*
X130327618Y-100042619D01*
X130660952Y-100042619D02*
X131232380Y-100042619D01*
X130946666Y-101042619D02*
X130946666Y-100042619D01*
X132137142Y-101042619D02*
X131803809Y-100566428D01*
X131565714Y-101042619D02*
X131565714Y-100042619D01*
X131565714Y-100042619D02*
X131946666Y-100042619D01*
X131946666Y-100042619D02*
X132041904Y-100090238D01*
X132041904Y-100090238D02*
X132089523Y-100137857D01*
X132089523Y-100137857D02*
X132137142Y-100233095D01*
X132137142Y-100233095D02*
X132137142Y-100375952D01*
X132137142Y-100375952D02*
X132089523Y-100471190D01*
X132089523Y-100471190D02*
X132041904Y-100518809D01*
X132041904Y-100518809D02*
X131946666Y-100566428D01*
X131946666Y-100566428D02*
X131565714Y-100566428D01*
X132518095Y-100756904D02*
X132994285Y-100756904D01*
X132422857Y-101042619D02*
X132756190Y-100042619D01*
X132756190Y-100042619D02*
X133089523Y-101042619D01*
X133899047Y-101042619D02*
X133422857Y-101042619D01*
X133422857Y-101042619D02*
X133422857Y-100042619D01*
X129780000Y-101662619D02*
X129970476Y-101662619D01*
X129970476Y-101662619D02*
X130065714Y-101710238D01*
X130065714Y-101710238D02*
X130160952Y-101805476D01*
X130160952Y-101805476D02*
X130208571Y-101995952D01*
X130208571Y-101995952D02*
X130208571Y-102329285D01*
X130208571Y-102329285D02*
X130160952Y-102519761D01*
X130160952Y-102519761D02*
X130065714Y-102615000D01*
X130065714Y-102615000D02*
X129970476Y-102662619D01*
X129970476Y-102662619D02*
X129780000Y-102662619D01*
X129780000Y-102662619D02*
X129684762Y-102615000D01*
X129684762Y-102615000D02*
X129589524Y-102519761D01*
X129589524Y-102519761D02*
X129541905Y-102329285D01*
X129541905Y-102329285D02*
X129541905Y-101995952D01*
X129541905Y-101995952D02*
X129589524Y-101805476D01*
X129589524Y-101805476D02*
X129684762Y-101710238D01*
X129684762Y-101710238D02*
X129780000Y-101662619D01*
X130637143Y-101662619D02*
X130637143Y-102472142D01*
X130637143Y-102472142D02*
X130684762Y-102567380D01*
X130684762Y-102567380D02*
X130732381Y-102615000D01*
X130732381Y-102615000D02*
X130827619Y-102662619D01*
X130827619Y-102662619D02*
X131018095Y-102662619D01*
X131018095Y-102662619D02*
X131113333Y-102615000D01*
X131113333Y-102615000D02*
X131160952Y-102567380D01*
X131160952Y-102567380D02*
X131208571Y-102472142D01*
X131208571Y-102472142D02*
X131208571Y-101662619D01*
X131541905Y-101662619D02*
X132113333Y-101662619D01*
X131827619Y-102662619D02*
X131827619Y-101662619D01*
D14*
X117278809Y-121605714D02*
X117326428Y-121462857D01*
X117326428Y-121462857D02*
X117374047Y-121415238D01*
X117374047Y-121415238D02*
X117469285Y-121367619D01*
X117469285Y-121367619D02*
X117612142Y-121367619D01*
X117612142Y-121367619D02*
X117707380Y-121415238D01*
X117707380Y-121415238D02*
X117755000Y-121462857D01*
X117755000Y-121462857D02*
X117802619Y-121558095D01*
X117802619Y-121558095D02*
X117802619Y-121939047D01*
X117802619Y-121939047D02*
X116802619Y-121939047D01*
X116802619Y-121939047D02*
X116802619Y-121605714D01*
X116802619Y-121605714D02*
X116850238Y-121510476D01*
X116850238Y-121510476D02*
X116897857Y-121462857D01*
X116897857Y-121462857D02*
X116993095Y-121415238D01*
X116993095Y-121415238D02*
X117088333Y-121415238D01*
X117088333Y-121415238D02*
X117183571Y-121462857D01*
X117183571Y-121462857D02*
X117231190Y-121510476D01*
X117231190Y-121510476D02*
X117278809Y-121605714D01*
X117278809Y-121605714D02*
X117278809Y-121939047D01*
X116802619Y-120510476D02*
X116802619Y-120700952D01*
X116802619Y-120700952D02*
X116850238Y-120796190D01*
X116850238Y-120796190D02*
X116897857Y-120843809D01*
X116897857Y-120843809D02*
X117040714Y-120939047D01*
X117040714Y-120939047D02*
X117231190Y-120986666D01*
X117231190Y-120986666D02*
X117612142Y-120986666D01*
X117612142Y-120986666D02*
X117707380Y-120939047D01*
X117707380Y-120939047D02*
X117755000Y-120891428D01*
X117755000Y-120891428D02*
X117802619Y-120796190D01*
X117802619Y-120796190D02*
X117802619Y-120605714D01*
X117802619Y-120605714D02*
X117755000Y-120510476D01*
X117755000Y-120510476D02*
X117707380Y-120462857D01*
X117707380Y-120462857D02*
X117612142Y-120415238D01*
X117612142Y-120415238D02*
X117374047Y-120415238D01*
X117374047Y-120415238D02*
X117278809Y-120462857D01*
X117278809Y-120462857D02*
X117231190Y-120510476D01*
X117231190Y-120510476D02*
X117183571Y-120605714D01*
X117183571Y-120605714D02*
X117183571Y-120796190D01*
X117183571Y-120796190D02*
X117231190Y-120891428D01*
X117231190Y-120891428D02*
X117278809Y-120939047D01*
X117278809Y-120939047D02*
X117374047Y-120986666D01*
X116802619Y-119510476D02*
X116802619Y-119986666D01*
X116802619Y-119986666D02*
X117278809Y-120034285D01*
X117278809Y-120034285D02*
X117231190Y-119986666D01*
X117231190Y-119986666D02*
X117183571Y-119891428D01*
X117183571Y-119891428D02*
X117183571Y-119653333D01*
X117183571Y-119653333D02*
X117231190Y-119558095D01*
X117231190Y-119558095D02*
X117278809Y-119510476D01*
X117278809Y-119510476D02*
X117374047Y-119462857D01*
X117374047Y-119462857D02*
X117612142Y-119462857D01*
X117612142Y-119462857D02*
X117707380Y-119510476D01*
X117707380Y-119510476D02*
X117755000Y-119558095D01*
X117755000Y-119558095D02*
X117802619Y-119653333D01*
X117802619Y-119653333D02*
X117802619Y-119891428D01*
X117802619Y-119891428D02*
X117755000Y-119986666D01*
X117755000Y-119986666D02*
X117707380Y-120034285D01*
X116802619Y-119177142D02*
X117802619Y-118843809D01*
X117802619Y-118843809D02*
X116802619Y-118510476D01*
X117135952Y-117748571D02*
X117802619Y-117748571D01*
X116755000Y-117986666D02*
X117469285Y-118224761D01*
X117469285Y-118224761D02*
X117469285Y-117605714D01*
D16*
%TO.C,Sign-RoHS*%
X130174209Y-94907238D02*
X129507542Y-93954857D01*
X129031352Y-94907238D02*
X129031352Y-92907238D01*
X129031352Y-92907238D02*
X129793257Y-92907238D01*
X129793257Y-92907238D02*
X129983733Y-93002476D01*
X129983733Y-93002476D02*
X130078971Y-93097714D01*
X130078971Y-93097714D02*
X130174209Y-93288190D01*
X130174209Y-93288190D02*
X130174209Y-93573904D01*
X130174209Y-93573904D02*
X130078971Y-93764380D01*
X130078971Y-93764380D02*
X129983733Y-93859619D01*
X129983733Y-93859619D02*
X129793257Y-93954857D01*
X129793257Y-93954857D02*
X129031352Y-93954857D01*
X131317066Y-94907238D02*
X131126590Y-94812000D01*
X131126590Y-94812000D02*
X131031352Y-94716761D01*
X131031352Y-94716761D02*
X130936114Y-94526285D01*
X130936114Y-94526285D02*
X130936114Y-93954857D01*
X130936114Y-93954857D02*
X131031352Y-93764380D01*
X131031352Y-93764380D02*
X131126590Y-93669142D01*
X131126590Y-93669142D02*
X131317066Y-93573904D01*
X131317066Y-93573904D02*
X131602781Y-93573904D01*
X131602781Y-93573904D02*
X131793257Y-93669142D01*
X131793257Y-93669142D02*
X131888495Y-93764380D01*
X131888495Y-93764380D02*
X131983733Y-93954857D01*
X131983733Y-93954857D02*
X131983733Y-94526285D01*
X131983733Y-94526285D02*
X131888495Y-94716761D01*
X131888495Y-94716761D02*
X131793257Y-94812000D01*
X131793257Y-94812000D02*
X131602781Y-94907238D01*
X131602781Y-94907238D02*
X131317066Y-94907238D01*
X132840876Y-94907238D02*
X132840876Y-92907238D01*
X132840876Y-93859619D02*
X133983733Y-93859619D01*
X133983733Y-94907238D02*
X133983733Y-92907238D01*
X134840876Y-94812000D02*
X135126590Y-94907238D01*
X135126590Y-94907238D02*
X135602781Y-94907238D01*
X135602781Y-94907238D02*
X135793257Y-94812000D01*
X135793257Y-94812000D02*
X135888495Y-94716761D01*
X135888495Y-94716761D02*
X135983733Y-94526285D01*
X135983733Y-94526285D02*
X135983733Y-94335809D01*
X135983733Y-94335809D02*
X135888495Y-94145333D01*
X135888495Y-94145333D02*
X135793257Y-94050095D01*
X135793257Y-94050095D02*
X135602781Y-93954857D01*
X135602781Y-93954857D02*
X135221828Y-93859619D01*
X135221828Y-93859619D02*
X135031352Y-93764380D01*
X135031352Y-93764380D02*
X134936114Y-93669142D01*
X134936114Y-93669142D02*
X134840876Y-93478666D01*
X134840876Y-93478666D02*
X134840876Y-93288190D01*
X134840876Y-93288190D02*
X134936114Y-93097714D01*
X134936114Y-93097714D02*
X135031352Y-93002476D01*
X135031352Y-93002476D02*
X135221828Y-92907238D01*
X135221828Y-92907238D02*
X135698019Y-92907238D01*
X135698019Y-92907238D02*
X135983733Y-93002476D01*
D17*
X130220590Y-97805204D02*
X130135923Y-97889871D01*
X130135923Y-97889871D02*
X129881923Y-97974537D01*
X129881923Y-97974537D02*
X129712590Y-97974537D01*
X129712590Y-97974537D02*
X129458590Y-97889871D01*
X129458590Y-97889871D02*
X129289257Y-97720537D01*
X129289257Y-97720537D02*
X129204590Y-97551204D01*
X129204590Y-97551204D02*
X129119923Y-97212537D01*
X129119923Y-97212537D02*
X129119923Y-96958537D01*
X129119923Y-96958537D02*
X129204590Y-96619871D01*
X129204590Y-96619871D02*
X129289257Y-96450537D01*
X129289257Y-96450537D02*
X129458590Y-96281204D01*
X129458590Y-96281204D02*
X129712590Y-96196537D01*
X129712590Y-96196537D02*
X129881923Y-96196537D01*
X129881923Y-96196537D02*
X130135923Y-96281204D01*
X130135923Y-96281204D02*
X130220590Y-96365871D01*
X131236590Y-97974537D02*
X131067257Y-97889871D01*
X131067257Y-97889871D02*
X130982590Y-97805204D01*
X130982590Y-97805204D02*
X130897923Y-97635871D01*
X130897923Y-97635871D02*
X130897923Y-97127871D01*
X130897923Y-97127871D02*
X130982590Y-96958537D01*
X130982590Y-96958537D02*
X131067257Y-96873871D01*
X131067257Y-96873871D02*
X131236590Y-96789204D01*
X131236590Y-96789204D02*
X131490590Y-96789204D01*
X131490590Y-96789204D02*
X131659923Y-96873871D01*
X131659923Y-96873871D02*
X131744590Y-96958537D01*
X131744590Y-96958537D02*
X131829257Y-97127871D01*
X131829257Y-97127871D02*
X131829257Y-97635871D01*
X131829257Y-97635871D02*
X131744590Y-97805204D01*
X131744590Y-97805204D02*
X131659923Y-97889871D01*
X131659923Y-97889871D02*
X131490590Y-97974537D01*
X131490590Y-97974537D02*
X131236590Y-97974537D01*
X132591257Y-97974537D02*
X132591257Y-96789204D01*
X132591257Y-96958537D02*
X132675924Y-96873871D01*
X132675924Y-96873871D02*
X132845257Y-96789204D01*
X132845257Y-96789204D02*
X133099257Y-96789204D01*
X133099257Y-96789204D02*
X133268590Y-96873871D01*
X133268590Y-96873871D02*
X133353257Y-97043204D01*
X133353257Y-97043204D02*
X133353257Y-97974537D01*
X133353257Y-97043204D02*
X133437924Y-96873871D01*
X133437924Y-96873871D02*
X133607257Y-96789204D01*
X133607257Y-96789204D02*
X133861257Y-96789204D01*
X133861257Y-96789204D02*
X134030590Y-96873871D01*
X134030590Y-96873871D02*
X134115257Y-97043204D01*
X134115257Y-97043204D02*
X134115257Y-97974537D01*
X134961924Y-96789204D02*
X134961924Y-98567204D01*
X134961924Y-96873871D02*
X135131257Y-96789204D01*
X135131257Y-96789204D02*
X135469924Y-96789204D01*
X135469924Y-96789204D02*
X135639257Y-96873871D01*
X135639257Y-96873871D02*
X135723924Y-96958537D01*
X135723924Y-96958537D02*
X135808591Y-97127871D01*
X135808591Y-97127871D02*
X135808591Y-97635871D01*
X135808591Y-97635871D02*
X135723924Y-97805204D01*
X135723924Y-97805204D02*
X135639257Y-97889871D01*
X135639257Y-97889871D02*
X135469924Y-97974537D01*
X135469924Y-97974537D02*
X135131257Y-97974537D01*
X135131257Y-97974537D02*
X134961924Y-97889871D01*
X136824591Y-97974537D02*
X136655258Y-97889871D01*
X136655258Y-97889871D02*
X136570591Y-97720537D01*
X136570591Y-97720537D02*
X136570591Y-96196537D01*
X137501924Y-97974537D02*
X137501924Y-96789204D01*
X137501924Y-96196537D02*
X137417257Y-96281204D01*
X137417257Y-96281204D02*
X137501924Y-96365871D01*
X137501924Y-96365871D02*
X137586591Y-96281204D01*
X137586591Y-96281204D02*
X137501924Y-96196537D01*
X137501924Y-96196537D02*
X137501924Y-96365871D01*
X139110591Y-97974537D02*
X139110591Y-97043204D01*
X139110591Y-97043204D02*
X139025924Y-96873871D01*
X139025924Y-96873871D02*
X138856591Y-96789204D01*
X138856591Y-96789204D02*
X138517924Y-96789204D01*
X138517924Y-96789204D02*
X138348591Y-96873871D01*
X139110591Y-97889871D02*
X138941258Y-97974537D01*
X138941258Y-97974537D02*
X138517924Y-97974537D01*
X138517924Y-97974537D02*
X138348591Y-97889871D01*
X138348591Y-97889871D02*
X138263924Y-97720537D01*
X138263924Y-97720537D02*
X138263924Y-97551204D01*
X138263924Y-97551204D02*
X138348591Y-97381871D01*
X138348591Y-97381871D02*
X138517924Y-97297204D01*
X138517924Y-97297204D02*
X138941258Y-97297204D01*
X138941258Y-97297204D02*
X139110591Y-97212537D01*
X139957258Y-96789204D02*
X139957258Y-97974537D01*
X139957258Y-96958537D02*
X140041925Y-96873871D01*
X140041925Y-96873871D02*
X140211258Y-96789204D01*
X140211258Y-96789204D02*
X140465258Y-96789204D01*
X140465258Y-96789204D02*
X140634591Y-96873871D01*
X140634591Y-96873871D02*
X140719258Y-97043204D01*
X140719258Y-97043204D02*
X140719258Y-97974537D01*
X141311925Y-96789204D02*
X141989258Y-96789204D01*
X141565925Y-96196537D02*
X141565925Y-97720537D01*
X141565925Y-97720537D02*
X141650592Y-97889871D01*
X141650592Y-97889871D02*
X141819925Y-97974537D01*
X141819925Y-97974537D02*
X141989258Y-97974537D01*
D18*
%TO.C,Sign-PbFree*%
X122492135Y-94363173D02*
X122492135Y-92663173D01*
X122492135Y-92663173D02*
X123063564Y-92663173D01*
X123063564Y-92663173D02*
X123206421Y-92744125D01*
X123206421Y-92744125D02*
X123277850Y-92825078D01*
X123277850Y-92825078D02*
X123349278Y-92986982D01*
X123349278Y-92986982D02*
X123349278Y-93229840D01*
X123349278Y-93229840D02*
X123277850Y-93391744D01*
X123277850Y-93391744D02*
X123206421Y-93472697D01*
X123206421Y-93472697D02*
X123063564Y-93553649D01*
X123063564Y-93553649D02*
X122492135Y-93553649D01*
X123992135Y-94363173D02*
X123992135Y-92663173D01*
X123992135Y-93310792D02*
X124134993Y-93229840D01*
X124134993Y-93229840D02*
X124420707Y-93229840D01*
X124420707Y-93229840D02*
X124563564Y-93310792D01*
X124563564Y-93310792D02*
X124634993Y-93391744D01*
X124634993Y-93391744D02*
X124706421Y-93553649D01*
X124706421Y-93553649D02*
X124706421Y-94039363D01*
X124706421Y-94039363D02*
X124634993Y-94201268D01*
X124634993Y-94201268D02*
X124563564Y-94282221D01*
X124563564Y-94282221D02*
X124420707Y-94363173D01*
X124420707Y-94363173D02*
X124134993Y-94363173D01*
X124134993Y-94363173D02*
X123992135Y-94282221D01*
D10*
%TO.C,*%
D19*
%TO.C,L1*%
X150977122Y-121860000D02*
X150177878Y-121860000D01*
X150977122Y-120740000D02*
X150177878Y-120740000D01*
%TO.C,ER2*%
X139162666Y-117899500D02*
X139637182Y-117899500D01*
X139162666Y-118944500D02*
X139637182Y-118944500D01*
%TO.C,AR1*%
X118584924Y-98194936D02*
X118584924Y-98649064D01*
X117114924Y-98194936D02*
X117114924Y-98649064D01*
%TO.C,EC15*%
X143180000Y-121399420D02*
X143180000Y-121680580D01*
X142160000Y-121399420D02*
X142160000Y-121680580D01*
%TO.C,AL1*%
X114899924Y-107032064D02*
X114899924Y-105827936D01*
X117619924Y-107032064D02*
X117619924Y-105827936D01*
%TO.C,AC1*%
X118585000Y-106961252D02*
X118585000Y-106438748D01*
X120055000Y-106961252D02*
X120055000Y-106438748D01*
%TO.C,TP3*%
X122410000Y-103190000D02*
G75*
G03*
X122410000Y-103190000I-700000J0D01*
G01*
%TO.C,ER5*%
X142152424Y-74759742D02*
X142152424Y-75234258D01*
X141107424Y-74759742D02*
X141107424Y-75234258D01*
%TO.C,RQ1*%
X117090000Y-77240000D02*
X115290000Y-77240000D01*
X117090000Y-77240000D02*
X117890000Y-77240000D01*
X117090000Y-80360000D02*
X116290000Y-80360000D01*
X117090000Y-80360000D02*
X117890000Y-80360000D01*
%TO.C,EC19*%
X142580504Y-86057000D02*
X142299344Y-86057000D01*
X142580504Y-85037000D02*
X142299344Y-85037000D01*
%TO.C,ATH20_C1*%
X119485580Y-115160000D02*
X119204420Y-115160000D01*
X119485580Y-114140000D02*
X119204420Y-114140000D01*
%TO.C,ER1*%
X152007424Y-118749258D02*
X152007424Y-118274742D01*
X153052424Y-118749258D02*
X153052424Y-118274742D01*
%TO.C,EC3*%
X152511176Y-112637000D02*
X151988672Y-112637000D01*
X152511176Y-111167000D02*
X151988672Y-111167000D01*
%TO.C,ER4*%
X141077424Y-78084258D02*
X141077424Y-77609742D01*
X142122424Y-78084258D02*
X142122424Y-77609742D01*
%TO.C,IMUC1*%
X143020504Y-104322000D02*
X142739344Y-104322000D01*
X143020504Y-103302000D02*
X142739344Y-103302000D01*
%TO.C,HLD1*%
X152589924Y-83627000D02*
X152589924Y-81357000D01*
X152589924Y-81357000D02*
X148529924Y-81357000D01*
X148529924Y-83627000D02*
X152589924Y-83627000D01*
%TO.C,AR2*%
X114935000Y-98587064D02*
X114935000Y-98132936D01*
X116405000Y-98587064D02*
X116405000Y-98132936D01*
D20*
%TO.C,AU1*%
X115669924Y-100642000D02*
X116049924Y-100642000D01*
X115669924Y-100662000D02*
X115669924Y-100642000D01*
X115669924Y-103642000D02*
X115669924Y-103622000D01*
X116049924Y-103642000D02*
X115669924Y-103642000D01*
X118289924Y-100642000D02*
X118669924Y-100642000D01*
X118669924Y-100642000D02*
X118669924Y-100662000D01*
X118669924Y-103642000D02*
X118289924Y-103642000D01*
X118669924Y-103642000D02*
X118669924Y-103622000D01*
D15*
X114989925Y-101162000D02*
G75*
G03*
X114989925Y-101162000I-192354J0D01*
G01*
D19*
%TO.C,EC10*%
X150629420Y-122300000D02*
X150910580Y-122300000D01*
X150629420Y-123320000D02*
X150910580Y-123320000D01*
%TO.C,EC1*%
X150649924Y-118642580D02*
X150649924Y-118361420D01*
X151669924Y-118642580D02*
X151669924Y-118361420D01*
%TO.C,AUC1*%
X140179924Y-104912580D02*
X140179924Y-104631420D01*
X141199924Y-104912580D02*
X141199924Y-104631420D01*
%TO.C,PWR_FUSE1*%
X157280000Y-84535436D02*
X157280000Y-85739564D01*
X155460000Y-84535436D02*
X155460000Y-85739564D01*
D18*
%TO.C,Sign-RoHS*%
X129663424Y-98610500D02*
X141474424Y-98610500D01*
X136521424Y-89593500D02*
X137382484Y-90213260D01*
X136521424Y-89593500D02*
X137387564Y-91709320D01*
D21*
X136902424Y-90101500D02*
X137410424Y-90990500D01*
D18*
X136902424Y-90101500D02*
X137915884Y-90739040D01*
D21*
X137410424Y-90990500D02*
X137537424Y-91498500D01*
X137537424Y-91498500D02*
X137915884Y-92006500D01*
X137791424Y-90990500D02*
X142363424Y-90990500D01*
X137915884Y-90739040D02*
X139061424Y-90739040D01*
D18*
X137915884Y-91244500D02*
X138197824Y-91592480D01*
D21*
X137915884Y-91625500D02*
X137537424Y-90739040D01*
X137915884Y-92006500D02*
X137915884Y-91625500D01*
X138045424Y-92133500D02*
X138426424Y-92641500D01*
X138299424Y-91117500D02*
X137791424Y-90990500D01*
X138426424Y-92260500D02*
X139188424Y-92895500D01*
X138426424Y-92641500D02*
X138680424Y-93022500D01*
X138680424Y-93022500D02*
X139569424Y-93911500D01*
X139061424Y-90739040D02*
X140077424Y-90609500D01*
X139061424Y-92260500D02*
X138299424Y-91879500D01*
D18*
X139099524Y-90551080D02*
X141248364Y-90355500D01*
D21*
X139188424Y-92895500D02*
X139315424Y-92768500D01*
D18*
X139302724Y-91658520D02*
X137915884Y-91244500D01*
D21*
X139315424Y-92768500D02*
X139442424Y-92768500D01*
X139315424Y-93276500D02*
X139442424Y-93149500D01*
D18*
X139371304Y-94096920D02*
X139406864Y-94132480D01*
D21*
X139442424Y-92768500D02*
X140585424Y-92895500D01*
X139442424Y-93149500D02*
X139950424Y-93149500D01*
X139442424Y-93403500D02*
X139315424Y-93276500D01*
X139569424Y-91498500D02*
X138299424Y-91117500D01*
X139569424Y-93911500D02*
X140077424Y-94292500D01*
X139798024Y-92514500D02*
X139061424Y-92260500D01*
X139950424Y-93149500D02*
X140966424Y-93403500D01*
X140077424Y-90609500D02*
X141728424Y-90609500D01*
X140077424Y-93911500D02*
X139442424Y-93403500D01*
X140077424Y-94292500D02*
X140966424Y-94546500D01*
D18*
X140224744Y-92344320D02*
X140534624Y-92405280D01*
D21*
X140407624Y-92514500D02*
X139798024Y-92514500D01*
X140585424Y-92895500D02*
X141601424Y-93149500D01*
X140585424Y-94038500D02*
X140077424Y-93911500D01*
X140712424Y-91625500D02*
X139569424Y-91498500D01*
X140839424Y-91625500D02*
X140712424Y-91625500D01*
X140966424Y-93403500D02*
X141220424Y-93403500D01*
X140966424Y-94165500D02*
X140585424Y-94038500D01*
X140966424Y-94546500D02*
X141855424Y-94546500D01*
D18*
X141169624Y-91948080D02*
X140651464Y-91874420D01*
D21*
X141220424Y-93403500D02*
X141728424Y-93657500D01*
X141220424Y-93784500D02*
X139950424Y-93530500D01*
D18*
X141276304Y-94800500D02*
X141791924Y-94800500D01*
D21*
X141347424Y-91625500D02*
X140839424Y-91625500D01*
D18*
X141474424Y-95562500D02*
X129663424Y-95562500D01*
D21*
X141601424Y-93149500D02*
X142236424Y-93657500D01*
X141601424Y-93911500D02*
X141220424Y-93784500D01*
X141601424Y-94165500D02*
X140966424Y-94165500D01*
X141728424Y-90609500D02*
X142363424Y-90990500D01*
X141728424Y-93657500D02*
X141728424Y-93784500D01*
X141728424Y-93784500D02*
X141601424Y-93911500D01*
X141804624Y-92997100D02*
X140407624Y-92514500D01*
X141855424Y-94546500D02*
X142617424Y-94038500D01*
X141982424Y-92006500D02*
X141347424Y-91625500D01*
X141982424Y-94038500D02*
X141601424Y-94165500D01*
X142109424Y-92006500D02*
X142363424Y-91498500D01*
X142236424Y-93657500D02*
X142363424Y-93784500D01*
X142236424Y-94038500D02*
X141982424Y-94038500D01*
D18*
X142330404Y-94579520D02*
X142383744Y-94526180D01*
D21*
X142363424Y-90990500D02*
X142363424Y-91244500D01*
X142363424Y-90990500D02*
X142871424Y-91498500D01*
X142363424Y-91244500D02*
X137410424Y-91168300D01*
X142363424Y-91498500D02*
X142363424Y-91244500D01*
X142363424Y-91498500D02*
X142744424Y-92006500D01*
X142363424Y-93784500D02*
X142236424Y-94038500D01*
D18*
X142444704Y-92456080D02*
X142437084Y-92451000D01*
D21*
X142490424Y-91625500D02*
X140839424Y-91625500D01*
X142490424Y-93403500D02*
X141804624Y-92997100D01*
X142617424Y-94038500D02*
X142998424Y-94165500D01*
D18*
X142617424Y-96070500D02*
X143107644Y-95580280D01*
D21*
X142744424Y-92387500D02*
X142109424Y-92006500D01*
D18*
X142744424Y-96070500D02*
X142929844Y-95885080D01*
X142744424Y-96197500D02*
X143252424Y-95435500D01*
D21*
X142871424Y-91498500D02*
X143125424Y-92006500D01*
X142998424Y-93911500D02*
X142490424Y-93403500D01*
X142998424Y-94165500D02*
X143252424Y-94419500D01*
D18*
X143089864Y-93675280D02*
X143260044Y-93863240D01*
X143102564Y-94526180D02*
X143379424Y-94800500D01*
D21*
X143125424Y-92006500D02*
X143252424Y-93022500D01*
X143252424Y-93022500D02*
X142744424Y-92387500D01*
X143252424Y-94419500D02*
X142998424Y-93911500D01*
D18*
X143298144Y-91871880D02*
X143445464Y-92471320D01*
X143379424Y-94973220D02*
X143379424Y-94927500D01*
X143379424Y-95308500D02*
X143483564Y-95415180D01*
X143402284Y-94754780D02*
X143379424Y-94800500D01*
X143503884Y-93149500D02*
X143503884Y-93530500D01*
X143503884Y-93530500D02*
X143501344Y-93527960D01*
X144014424Y-94292500D02*
X144141424Y-94292500D01*
X144014424Y-94546500D02*
X144014424Y-94292500D01*
X144014424Y-94546500D02*
X144776424Y-94546500D01*
X144014424Y-94569360D02*
X144014424Y-94546500D01*
X144014424Y-94673500D02*
X144776424Y-94673500D01*
X144088084Y-93687980D02*
X144141424Y-93594000D01*
X144133804Y-95443120D02*
X144268424Y-95308500D01*
X144141424Y-94292500D02*
X144141424Y-94419500D01*
X144141424Y-94292500D02*
X144268424Y-94292500D01*
X144141424Y-94419500D02*
X144141424Y-94800500D01*
X144141424Y-94419500D02*
X144776424Y-94419500D01*
X144141424Y-94800500D02*
X144141424Y-94927500D01*
X144141424Y-94800500D02*
X144776424Y-94800500D01*
X144141424Y-94927500D02*
X144141424Y-95054500D01*
X144141424Y-94927500D02*
X144649424Y-94927500D01*
X144268424Y-94292500D02*
X144268424Y-94927500D01*
X144268424Y-94292500D02*
X144649424Y-94292500D01*
X144268424Y-95308500D02*
X143971244Y-94889400D01*
X144281124Y-95308500D02*
X144268424Y-95308500D01*
X144570684Y-95184040D02*
X144542744Y-95211980D01*
X144649424Y-94292500D02*
X144649424Y-94800500D01*
X144649424Y-94292500D02*
X144903424Y-94292500D01*
X144862784Y-92948840D02*
X145284424Y-92768500D01*
X144903424Y-93784500D02*
X144141424Y-93784500D01*
X144903424Y-93911500D02*
X144141424Y-93911500D01*
X144903424Y-94038500D02*
X144014424Y-94038500D01*
X144903424Y-94165500D02*
X144014424Y-94165500D01*
X144903424Y-94292500D02*
X144395424Y-95181500D01*
X144954224Y-94114700D02*
X144954224Y-94107080D01*
X145030424Y-93530500D02*
X144268424Y-93530500D01*
X145030424Y-93657500D02*
X144141424Y-93657500D01*
X145030424Y-95181500D02*
X145538424Y-95181500D01*
X145157424Y-93276500D02*
X144522424Y-93276500D01*
X145157424Y-93403500D02*
X144395424Y-93403500D01*
X145157424Y-95054500D02*
X145792424Y-95054500D01*
X145182824Y-95308500D02*
X144827224Y-95308500D01*
X145284424Y-92768500D02*
X146300424Y-92387500D01*
X145284424Y-92895500D02*
X146046424Y-92895500D01*
X145284424Y-93149500D02*
X144776424Y-93149500D01*
X145284424Y-94800500D02*
X146046424Y-94800500D01*
X145284424Y-94927500D02*
X145919424Y-94927500D01*
X145335224Y-94673500D02*
X146173424Y-94673500D01*
X145360624Y-94117240D02*
X145335224Y-94508400D01*
X145411424Y-93784500D02*
X146046424Y-93784500D01*
X145411424Y-93911500D02*
X146173424Y-93911500D01*
X145411424Y-94038500D02*
X146173424Y-94038500D01*
X145411424Y-94165500D02*
X146173424Y-94165500D01*
X145411424Y-94292500D02*
X146173424Y-94292500D01*
X145411424Y-94419500D02*
X146173424Y-94419500D01*
X145411424Y-94546500D02*
X146173424Y-94546500D01*
X145538424Y-92768500D02*
X146173424Y-92768500D01*
X145538424Y-93530500D02*
X146046424Y-93530500D01*
X145538424Y-93657500D02*
X146046424Y-93657500D01*
X145665424Y-92641500D02*
X146173424Y-92641500D01*
X145792424Y-93022500D02*
X144903424Y-93022500D01*
X145792424Y-93022500D02*
X145792424Y-93530500D01*
X145919424Y-93022500D02*
X145792424Y-93022500D01*
X145919424Y-93022500D02*
X145919424Y-93530500D01*
X145985464Y-94988460D02*
X145962604Y-95011320D01*
X146046424Y-93022500D02*
X145919424Y-93022500D01*
X146300424Y-92387500D02*
X146165804Y-92925980D01*
X129663424Y-95562500D02*
G75*
G03*
X128139424Y-97086500I-1J-1523999D01*
G01*
X128139424Y-97086500D02*
G75*
G03*
X129663424Y-98610500I1524000J0D01*
G01*
X137384473Y-90211021D02*
G75*
G03*
X139099524Y-90551080I1268011J1900211D01*
G01*
X137389959Y-91714947D02*
G75*
G03*
X139371305Y-94096919I8343965J4925547D01*
G01*
X138197883Y-91594278D02*
G75*
G03*
X140224744Y-92344319I2631291J3996978D01*
G01*
X143088951Y-93674656D02*
G75*
G03*
X140534624Y-92405280I-3654067J-4148284D01*
G01*
X139309045Y-91658687D02*
G75*
G03*
X140651464Y-91874420I1812379J6993187D01*
G01*
X142433293Y-92448435D02*
G75*
G03*
X141169624Y-91948081I-2134969J-3546065D01*
G01*
X143298687Y-91868085D02*
G75*
G03*
X141248364Y-90355501I-2144303J-760715D01*
G01*
X139410491Y-94134513D02*
G75*
G03*
X141276304Y-94800499I1738873J1924983D01*
G01*
X142998424Y-97086500D02*
G75*
G03*
X141474424Y-95562500I-1524000J0D01*
G01*
X141791924Y-94802583D02*
G75*
G03*
X142330404Y-94579520I0J761483D01*
G01*
X143102564Y-94523640D02*
G75*
G03*
X142383744Y-94526180I-358140J-360660D01*
G01*
X143499776Y-93526270D02*
G75*
G03*
X142444704Y-92456080I-3832752J-2723430D01*
G01*
X141474424Y-98610500D02*
G75*
G03*
X142998424Y-97086500I0J1524000D01*
G01*
X143380270Y-94800569D02*
G75*
G03*
X143260044Y-93863240I-762846J378529D01*
G01*
X142931876Y-95886060D02*
G75*
G03*
X143379424Y-94800500I-1086302J1082890D01*
G01*
X143111171Y-95580215D02*
G75*
G03*
X143379423Y-94927500I-653647J650115D01*
G01*
X142873449Y-96197783D02*
G75*
G03*
X143379424Y-94973220I-1228425J1224383D01*
G01*
X143505669Y-93148743D02*
G75*
G03*
X143445464Y-92471320I-3050845J70243D01*
G01*
X143484292Y-95414452D02*
G75*
G03*
X143841704Y-95562500I357432J357452D01*
G01*
X144087630Y-93689821D02*
G75*
G03*
X143887424Y-94444900I1323794J-755079D01*
G01*
X143885551Y-94445401D02*
G75*
G03*
X143971245Y-94889400I1195673J501D01*
G01*
X143841704Y-95564103D02*
G75*
G03*
X144133803Y-95443119I-80J413303D01*
G01*
X144863426Y-92950016D02*
G75*
G03*
X144141424Y-93594000I601398J-1400984D01*
G01*
X144014891Y-94570871D02*
G75*
G03*
X144268424Y-95181500I866133J1671D01*
G01*
X144266636Y-95310275D02*
G75*
G03*
X144570684Y-95184040I-912J431475D01*
G01*
X145461404Y-93075680D02*
G75*
G03*
X144954224Y-94107080I991420J-1127920D01*
G01*
X144544086Y-95211548D02*
G75*
G03*
X144954223Y-94114700I-1119062J1043548D01*
G01*
X144833081Y-95304109D02*
G75*
G03*
X145335224Y-94508400I-709457J1004009D01*
G01*
X145714630Y-93169567D02*
G75*
G03*
X145360624Y-94160420I1409194J-1062133D01*
G01*
X145181497Y-95309809D02*
G75*
G03*
X145380944Y-95285640I1127J825709D01*
G01*
X145382927Y-95284954D02*
G75*
G03*
X145962604Y-95011320I-205403J1185954D01*
G01*
X146165301Y-92928642D02*
G75*
G03*
X146229305Y-93863240I1478223J-368258D01*
G01*
X146300150Y-94231987D02*
G75*
G03*
X146229303Y-93863240I-992526J487D01*
G01*
X145986470Y-94989466D02*
G75*
G03*
X146300424Y-94231540I-757746J757866D01*
G01*
D19*
%TO.C,ACS1*%
X140079924Y-79477000D02*
X136629924Y-79477000D01*
X140079924Y-79477000D02*
X142029924Y-79477000D01*
X140079924Y-84597000D02*
X138129924Y-84597000D01*
X140079924Y-84597000D02*
X142029924Y-84597000D01*
%TO.C,ECY1*%
X148589924Y-101162000D02*
X145289924Y-101162000D01*
X145289924Y-101162000D02*
X145289924Y-105162000D01*
%TO.C,EC4*%
X143475000Y-121111252D02*
X143475000Y-120588748D01*
X144945000Y-121111252D02*
X144945000Y-120588748D01*
D15*
%TO.C,Sign-PbFree*%
X122285944Y-92433720D02*
X124719264Y-94854340D01*
D18*
X125248961Y-93597040D02*
G75*
G03*
X125248961Y-93597040I-1802237J0D01*
G01*
D19*
%TO.C,HLC1*%
X145454924Y-82843252D02*
X145454924Y-82320748D01*
X146924924Y-82843252D02*
X146924924Y-82320748D01*
%TO.C,ECY2*%
X138259924Y-123412000D02*
X141559924Y-123412000D01*
X141559924Y-123412000D02*
X141559924Y-119412000D01*
%TO.C,G\u002A\u002A\u002A*%
G36*
X126739530Y-76346136D02*
G01*
X126748476Y-76366604D01*
X126761650Y-76399001D01*
X126777688Y-76439745D01*
X126795223Y-76485257D01*
X126812892Y-76531953D01*
X126829329Y-76576253D01*
X126843171Y-76614575D01*
X126853052Y-76643338D01*
X126857607Y-76658961D01*
X126857760Y-76660238D01*
X126848269Y-76663483D01*
X126822472Y-76666126D01*
X126784377Y-76667885D01*
X126740920Y-76668480D01*
X126694918Y-76668185D01*
X126657443Y-76667384D01*
X126632505Y-76666202D01*
X126624080Y-76664853D01*
X126627377Y-76654572D01*
X126636489Y-76628495D01*
X126650247Y-76589907D01*
X126667483Y-76542094D01*
X126679960Y-76507732D01*
X126698955Y-76454830D01*
X126715224Y-76408139D01*
X126727570Y-76371207D01*
X126734794Y-76347584D01*
X126736176Y-76341179D01*
X126739530Y-76346136D01*
G37*
G36*
X125002463Y-76287976D02*
G01*
X125058303Y-76290112D01*
X125099570Y-76294857D01*
X125129133Y-76303181D01*
X125149860Y-76316052D01*
X125164619Y-76334441D01*
X125176278Y-76359317D01*
X125181200Y-76372667D01*
X125189862Y-76401093D01*
X125189946Y-76421231D01*
X125180787Y-76443512D01*
X125176120Y-76452204D01*
X125160220Y-76478995D01*
X125143818Y-76498996D01*
X125123711Y-76513271D01*
X125096693Y-76522884D01*
X125059560Y-76528901D01*
X125009107Y-76532386D01*
X124942129Y-76534402D01*
X124927761Y-76534698D01*
X124870994Y-76535337D01*
X124821654Y-76534974D01*
X124783174Y-76533709D01*
X124758988Y-76531642D01*
X124752291Y-76529618D01*
X124750550Y-76516623D01*
X124749280Y-76487718D01*
X124748612Y-76447308D01*
X124748634Y-76404320D01*
X124749560Y-76287480D01*
X124929182Y-76287480D01*
X125002463Y-76287976D01*
G37*
G36*
X127601980Y-76284541D02*
G01*
X127674804Y-76288266D01*
X127730835Y-76294557D01*
X127773549Y-76304526D01*
X127806420Y-76319287D01*
X127832922Y-76339953D01*
X127854980Y-76365550D01*
X127889300Y-76426687D01*
X127911682Y-76500713D01*
X127921388Y-76583565D01*
X127917682Y-76671177D01*
X127914515Y-76693712D01*
X127895273Y-76773889D01*
X127866199Y-76838343D01*
X127827890Y-76886162D01*
X127780944Y-76916439D01*
X127764120Y-76922296D01*
X127739075Y-76927113D01*
X127701591Y-76931574D01*
X127656153Y-76935454D01*
X127607246Y-76938529D01*
X127559355Y-76940574D01*
X127516968Y-76941365D01*
X127484568Y-76940677D01*
X127466641Y-76938285D01*
X127464820Y-76937273D01*
X127462963Y-76925508D01*
X127461270Y-76895908D01*
X127459798Y-76850959D01*
X127458602Y-76793147D01*
X127457741Y-76724957D01*
X127457271Y-76648874D01*
X127457200Y-76604425D01*
X127457200Y-76279598D01*
X127601980Y-76284541D01*
G37*
G36*
X124742160Y-78656336D02*
G01*
X124778913Y-78657914D01*
X124804651Y-78660663D01*
X124822474Y-78664831D01*
X124835483Y-78670665D01*
X124839108Y-78672906D01*
X124866400Y-78690788D01*
X124866400Y-78988332D01*
X124866202Y-79078853D01*
X124865552Y-79151011D01*
X124864367Y-79206762D01*
X124862562Y-79248058D01*
X124860053Y-79276854D01*
X124856755Y-79295104D01*
X124852772Y-79304512D01*
X124843949Y-79314056D01*
X124832056Y-79318181D01*
X124811815Y-79317241D01*
X124777950Y-79311592D01*
X124769897Y-79310083D01*
X124733887Y-79303736D01*
X124701237Y-79299425D01*
X124668806Y-79297315D01*
X124633454Y-79297572D01*
X124592039Y-79300362D01*
X124541419Y-79305851D01*
X124478454Y-79314205D01*
X124400003Y-79325589D01*
X124358400Y-79331807D01*
X124300684Y-79343927D01*
X124229240Y-79364466D01*
X124148115Y-79391996D01*
X124061359Y-79425092D01*
X123973017Y-79462326D01*
X123921520Y-79485785D01*
X123902524Y-79496335D01*
X123871330Y-79515350D01*
X123832544Y-79539869D01*
X123790771Y-79566932D01*
X123750619Y-79593582D01*
X123716694Y-79616858D01*
X123709122Y-79622236D01*
X123690670Y-79637423D01*
X123661090Y-79663966D01*
X123623566Y-79698796D01*
X123581283Y-79738846D01*
X123537427Y-79781047D01*
X123495182Y-79822332D01*
X123457733Y-79859633D01*
X123428265Y-79889881D01*
X123409963Y-79910008D01*
X123408440Y-79911886D01*
X123397351Y-79927301D01*
X123379199Y-79953810D01*
X123357982Y-79985467D01*
X123337702Y-80016323D01*
X123327315Y-80032501D01*
X123286506Y-80102951D01*
X123245887Y-80183640D01*
X123208820Y-80267192D01*
X123178668Y-80346231D01*
X123165553Y-80387508D01*
X123155237Y-80419899D01*
X123144985Y-80446710D01*
X123141750Y-80453548D01*
X123135439Y-80471276D01*
X123126490Y-80503955D01*
X123116192Y-80546598D01*
X123107717Y-80585160D01*
X123099413Y-80627119D01*
X123093346Y-80665298D01*
X123089212Y-80704111D01*
X123086704Y-80747969D01*
X123085516Y-80801286D01*
X123085342Y-80868476D01*
X123085517Y-80905200D01*
X123086235Y-80979285D01*
X123087545Y-81036711D01*
X123089743Y-81081132D01*
X123093120Y-81116207D01*
X123097971Y-81145593D01*
X123104589Y-81172946D01*
X123107924Y-81184567D01*
X123118415Y-81222566D01*
X123125973Y-81255060D01*
X123129033Y-81275276D01*
X123129040Y-81275811D01*
X123132614Y-81296314D01*
X123141791Y-81327290D01*
X123149743Y-81349344D01*
X123165612Y-81390882D01*
X123183140Y-81437665D01*
X123191851Y-81461301D01*
X123232480Y-81560241D01*
X123280482Y-81656760D01*
X123332771Y-81745245D01*
X123386263Y-81820083D01*
X123394924Y-81830651D01*
X123411649Y-81852497D01*
X123418600Y-81862697D01*
X123437558Y-81888315D01*
X123465974Y-81921678D01*
X123501007Y-81959957D01*
X123539814Y-82000324D01*
X123579554Y-82039951D01*
X123617385Y-82076009D01*
X123650464Y-82105671D01*
X123675951Y-82126108D01*
X123691003Y-82134493D01*
X123691781Y-82134560D01*
X123702439Y-82140401D01*
X123724406Y-82155802D01*
X123753164Y-82177578D01*
X123756609Y-82180273D01*
X123786183Y-82202614D01*
X123809870Y-82218901D01*
X123822971Y-82225924D01*
X123823537Y-82225993D01*
X123836144Y-82231772D01*
X123857970Y-82246376D01*
X123869257Y-82254879D01*
X123928715Y-82293710D01*
X124006788Y-82331817D01*
X124104166Y-82369517D01*
X124157262Y-82387335D01*
X124334015Y-82433978D01*
X124512062Y-82460697D01*
X124690252Y-82467335D01*
X124736690Y-82465741D01*
X124787401Y-82463384D01*
X124821379Y-82462570D01*
X124842187Y-82463785D01*
X124853383Y-82467515D01*
X124858528Y-82474242D01*
X124860794Y-82482634D01*
X124862464Y-82500803D01*
X124863604Y-82535121D01*
X124864254Y-82582504D01*
X124864452Y-82639869D01*
X124864239Y-82704130D01*
X124863655Y-82772205D01*
X124862739Y-82841008D01*
X124861532Y-82907456D01*
X124860072Y-82968465D01*
X124858401Y-83020951D01*
X124856557Y-83061829D01*
X124854580Y-83088015D01*
X124852877Y-83096373D01*
X124839018Y-83100199D01*
X124808277Y-83103103D01*
X124764073Y-83105099D01*
X124709823Y-83106204D01*
X124648945Y-83106432D01*
X124584856Y-83105798D01*
X124520973Y-83104318D01*
X124460715Y-83102008D01*
X124407497Y-83098882D01*
X124364739Y-83094956D01*
X124358400Y-83094163D01*
X124291248Y-83084280D01*
X124222562Y-83072366D01*
X124155862Y-83059210D01*
X124094668Y-83045603D01*
X124042503Y-83032334D01*
X124002886Y-83020194D01*
X123979339Y-83009974D01*
X123977400Y-83008647D01*
X123960748Y-83000942D01*
X123936760Y-82993854D01*
X123908134Y-82985118D01*
X123865558Y-82969553D01*
X123813455Y-82949006D01*
X123756250Y-82925325D01*
X123698364Y-82900356D01*
X123644224Y-82875948D01*
X123598251Y-82853948D01*
X123582509Y-82845906D01*
X123448096Y-82767076D01*
X123313010Y-82672033D01*
X123181682Y-82564230D01*
X123058546Y-82447122D01*
X123023547Y-82410349D01*
X122997686Y-82382553D01*
X122967031Y-82349664D01*
X122951240Y-82332746D01*
X122917895Y-82294158D01*
X122879615Y-82245366D01*
X122840500Y-82192047D01*
X122804650Y-82139874D01*
X122776166Y-82094523D01*
X122766269Y-82076757D01*
X122744771Y-82037375D01*
X122721787Y-81998122D01*
X122699988Y-81963246D01*
X122682045Y-81936991D01*
X122670628Y-81923604D01*
X122669483Y-81922893D01*
X122662035Y-81911203D01*
X122661679Y-81907459D01*
X122657417Y-81893677D01*
X122645939Y-81866295D01*
X122629212Y-81829839D01*
X122616822Y-81804166D01*
X122573199Y-81704822D01*
X122533065Y-81592787D01*
X122499109Y-81475672D01*
X122494906Y-81458920D01*
X122484616Y-81417284D01*
X122474853Y-81378183D01*
X122468150Y-81351715D01*
X122455904Y-81291858D01*
X122445345Y-81215961D01*
X122436840Y-81128262D01*
X122430761Y-81032996D01*
X122427477Y-80934403D01*
X122426995Y-80879800D01*
X122429073Y-80753165D01*
X122435654Y-80640230D01*
X122447465Y-80534728D01*
X122465229Y-80430393D01*
X122489673Y-80320958D01*
X122493447Y-80305760D01*
X122521970Y-80207667D01*
X122559877Y-80100544D01*
X122604614Y-79990358D01*
X122653627Y-79883077D01*
X122704360Y-79784670D01*
X122748337Y-79710249D01*
X122766486Y-79681154D01*
X122779214Y-79659366D01*
X122783599Y-79650082D01*
X122789221Y-79639608D01*
X122804094Y-79617104D01*
X122825236Y-79586764D01*
X122849662Y-79552779D01*
X122874387Y-79519343D01*
X122896427Y-79490648D01*
X122902388Y-79483198D01*
X122933500Y-79447380D01*
X122975330Y-79402838D01*
X123024837Y-79352477D01*
X123078980Y-79299198D01*
X123134718Y-79245907D01*
X123189008Y-79195506D01*
X123238811Y-79150899D01*
X123281085Y-79114990D01*
X123312788Y-79090682D01*
X123315311Y-79088967D01*
X123350276Y-79065918D01*
X123378535Y-79047901D01*
X123396123Y-79037413D01*
X123399809Y-79035760D01*
X123410203Y-79030167D01*
X123430249Y-79016184D01*
X123438016Y-79010360D01*
X123460523Y-78994437D01*
X123476188Y-78985597D01*
X123478656Y-78984960D01*
X123490688Y-78979315D01*
X123511674Y-78965247D01*
X123518768Y-78959962D01*
X123540861Y-78945699D01*
X123577029Y-78925153D01*
X123622907Y-78900573D01*
X123674127Y-78874210D01*
X123726324Y-78848310D01*
X123775132Y-78825124D01*
X123814840Y-78807466D01*
X123863998Y-78788306D01*
X123920358Y-78768806D01*
X123977790Y-78750858D01*
X124030164Y-78736353D01*
X124071352Y-78727181D01*
X124079000Y-78725969D01*
X124110636Y-78720136D01*
X124134281Y-78713208D01*
X124140941Y-78709738D01*
X124155221Y-78704963D01*
X124184946Y-78699325D01*
X124225310Y-78693636D01*
X124257781Y-78690012D01*
X124306281Y-78684397D01*
X124350979Y-78677868D01*
X124385575Y-78671410D01*
X124399040Y-78667922D01*
X124422319Y-78663772D01*
X124462644Y-78660298D01*
X124516746Y-78657679D01*
X124581358Y-78656092D01*
X124623208Y-78655711D01*
X124691291Y-78655685D01*
X124742160Y-78656336D01*
G37*
G36*
X128601033Y-78665126D02*
G01*
X128642863Y-78669043D01*
X128669234Y-78675129D01*
X128676621Y-78680160D01*
X128679238Y-78694263D01*
X128681439Y-78725549D01*
X128683220Y-78770889D01*
X128684580Y-78827155D01*
X128685514Y-78891219D01*
X128686018Y-78959951D01*
X128686091Y-79030225D01*
X128685727Y-79098911D01*
X128684925Y-79162881D01*
X128683680Y-79219008D01*
X128681989Y-79264161D01*
X128679849Y-79295214D01*
X128677294Y-79308979D01*
X128665383Y-79317360D01*
X128641804Y-79318703D01*
X128619030Y-79316230D01*
X128532529Y-79306185D01*
X128455854Y-79302441D01*
X128379526Y-79304952D01*
X128294070Y-79313668D01*
X128287221Y-79314546D01*
X128233145Y-79322208D01*
X128182683Y-79330535D01*
X128141199Y-79338567D01*
X128114061Y-79345340D01*
X128112520Y-79345850D01*
X128080326Y-79355954D01*
X128038675Y-79367812D01*
X128005840Y-79376480D01*
X127970651Y-79386054D01*
X127943091Y-79394795D01*
X127929640Y-79400540D01*
X127915792Y-79407783D01*
X127888603Y-79420116D01*
X127853583Y-79435052D01*
X127848360Y-79437213D01*
X127788160Y-79463862D01*
X127726343Y-79494463D01*
X127665968Y-79527164D01*
X127610094Y-79560111D01*
X127561783Y-79591452D01*
X127524092Y-79619335D01*
X127500083Y-79641906D01*
X127493545Y-79652057D01*
X127480992Y-79664503D01*
X127475237Y-79665680D01*
X127463341Y-79672547D01*
X127440631Y-79691110D01*
X127410265Y-79718309D01*
X127375402Y-79751088D01*
X127339200Y-79786386D01*
X127304816Y-79821147D01*
X127275410Y-79852310D01*
X127254139Y-79876819D01*
X127246529Y-79887162D01*
X127230235Y-79909129D01*
X127216143Y-79922724D01*
X127204418Y-79935543D01*
X127203200Y-79940298D01*
X127197459Y-79952699D01*
X127182448Y-79975904D01*
X127162603Y-80003293D01*
X127141799Y-80032354D01*
X127127143Y-80055920D01*
X127121963Y-80068295D01*
X127114876Y-80084008D01*
X127107615Y-80091623D01*
X127093363Y-80108588D01*
X127077990Y-80133838D01*
X127076855Y-80136047D01*
X127063045Y-80162522D01*
X127051747Y-80182829D01*
X127051139Y-80183840D01*
X127037449Y-80209483D01*
X127021908Y-80243074D01*
X127007101Y-80278388D01*
X126995611Y-80309202D01*
X126990022Y-80329291D01*
X126989840Y-80331503D01*
X126985103Y-80352390D01*
X126974969Y-80375312D01*
X126964403Y-80400031D01*
X126952711Y-80435579D01*
X126945207Y-80463240D01*
X126939698Y-80483533D01*
X126934777Y-80500894D01*
X126931855Y-80515547D01*
X126932342Y-80527719D01*
X126937649Y-80537638D01*
X126949187Y-80545528D01*
X126968365Y-80551616D01*
X126996594Y-80556130D01*
X127035285Y-80559294D01*
X127085847Y-80561335D01*
X127149692Y-80562480D01*
X127228230Y-80562956D01*
X127322871Y-80562987D01*
X127435025Y-80562801D01*
X127564527Y-80562626D01*
X127674496Y-80562690D01*
X127778835Y-80563026D01*
X127875698Y-80563610D01*
X127963238Y-80564416D01*
X128039611Y-80565422D01*
X128102969Y-80566603D01*
X128151467Y-80567935D01*
X128183259Y-80569393D01*
X128196340Y-80570886D01*
X128219200Y-80579577D01*
X128219200Y-81199840D01*
X128191260Y-81199996D01*
X128176207Y-81200019D01*
X128142723Y-81200031D01*
X128092696Y-81200032D01*
X128028015Y-81200022D01*
X127950568Y-81200003D01*
X127862245Y-81199974D01*
X127764933Y-81199935D01*
X127660522Y-81199889D01*
X127567299Y-81199842D01*
X127437674Y-81199710D01*
X127326917Y-81199599D01*
X127233578Y-81199721D01*
X127156205Y-81200286D01*
X127093348Y-81201506D01*
X127043555Y-81203591D01*
X127005375Y-81206754D01*
X126977359Y-81211205D01*
X126958054Y-81217155D01*
X126946010Y-81224816D01*
X126939776Y-81234398D01*
X126937901Y-81246112D01*
X126938934Y-81260171D01*
X126941424Y-81276784D01*
X126943328Y-81290641D01*
X126954698Y-81350095D01*
X126974959Y-81418837D01*
X127001761Y-81489232D01*
X127010811Y-81509720D01*
X127023658Y-81538418D01*
X127033264Y-81560990D01*
X127035070Y-81565600D01*
X127043173Y-81582374D01*
X127058109Y-81609577D01*
X127070927Y-81631640D01*
X127091101Y-81665928D01*
X127109767Y-81698234D01*
X127118065Y-81712920D01*
X127130655Y-81732507D01*
X127152497Y-81763597D01*
X127180280Y-81801719D01*
X127210692Y-81842406D01*
X127240423Y-81881188D01*
X127266160Y-81913596D01*
X127272112Y-81920815D01*
X127306940Y-81960269D01*
X127347582Y-82002652D01*
X127391200Y-82045405D01*
X127434959Y-82085971D01*
X127476022Y-82121789D01*
X127511552Y-82150302D01*
X127538713Y-82168951D01*
X127554116Y-82175200D01*
X127564957Y-82181062D01*
X127585989Y-82196119D01*
X127602810Y-82209244D01*
X127639985Y-82235853D01*
X127689069Y-82266536D01*
X127743508Y-82297604D01*
X127796748Y-82325370D01*
X127842235Y-82346146D01*
X127854451Y-82350848D01*
X127887535Y-82362693D01*
X127930168Y-82377924D01*
X127970280Y-82392231D01*
X128006699Y-82403334D01*
X128057231Y-82416199D01*
X128115915Y-82429428D01*
X128176792Y-82441620D01*
X128193800Y-82444725D01*
X128259771Y-82455932D01*
X128313378Y-82463323D01*
X128362098Y-82467450D01*
X128413413Y-82468868D01*
X128474800Y-82468130D01*
X128500772Y-82467444D01*
X128555040Y-82466441D01*
X128602138Y-82466619D01*
X128638319Y-82467880D01*
X128659839Y-82470130D01*
X128663949Y-82471613D01*
X128666028Y-82483590D01*
X128667734Y-82513291D01*
X128669019Y-82558126D01*
X128669836Y-82615501D01*
X128670135Y-82682824D01*
X128669870Y-82757504D01*
X128669666Y-82781736D01*
X128668620Y-82872059D01*
X128667328Y-82944010D01*
X128665687Y-82999539D01*
X128663594Y-83040592D01*
X128660945Y-83069118D01*
X128657635Y-83087066D01*
X128653561Y-83096382D01*
X128652847Y-83097187D01*
X128636705Y-83103255D01*
X128603681Y-83108266D01*
X128557192Y-83112116D01*
X128500654Y-83114705D01*
X128437482Y-83115927D01*
X128371092Y-83115681D01*
X128304901Y-83113864D01*
X128242324Y-83110374D01*
X128234440Y-83109776D01*
X128146959Y-83099915D01*
X128049062Y-83083877D01*
X127949097Y-83063286D01*
X127855410Y-83039766D01*
X127817880Y-83028769D01*
X127774479Y-83015399D01*
X127731489Y-83002237D01*
X127701040Y-82992986D01*
X127665534Y-82980932D01*
X127619554Y-82963470D01*
X127568828Y-82942983D01*
X127519083Y-82921853D01*
X127476044Y-82902461D01*
X127445440Y-82887191D01*
X127441960Y-82885220D01*
X127416773Y-82871477D01*
X127381344Y-82853280D01*
X127347487Y-82836586D01*
X127315533Y-82819737D01*
X127276648Y-82797166D01*
X127235834Y-82772029D01*
X127198092Y-82747484D01*
X127168425Y-82726691D01*
X127152400Y-82713417D01*
X127137495Y-82700233D01*
X127114530Y-82682298D01*
X127089348Y-82663874D01*
X127067793Y-82649225D01*
X127055708Y-82642615D01*
X127055270Y-82642560D01*
X127042481Y-82636215D01*
X127031332Y-82626851D01*
X127003559Y-82600510D01*
X126972110Y-82571852D01*
X126940810Y-82544209D01*
X126913484Y-82520914D01*
X126893957Y-82505298D01*
X126886348Y-82500551D01*
X126877581Y-82492913D01*
X126859533Y-82472512D01*
X126835168Y-82442802D01*
X126816940Y-82419610D01*
X126789853Y-82385257D01*
X126767013Y-82357514D01*
X126751449Y-82339992D01*
X126746656Y-82335790D01*
X126737720Y-82326925D01*
X126720033Y-82305824D01*
X126696695Y-82276537D01*
X126670807Y-82243113D01*
X126645472Y-82209602D01*
X126623790Y-82180051D01*
X126608862Y-82158511D01*
X126603760Y-82149214D01*
X126598421Y-82137924D01*
X126585167Y-82117193D01*
X126580874Y-82111022D01*
X126566181Y-82089886D01*
X126553031Y-82069723D01*
X126539478Y-82047092D01*
X126523580Y-82018554D01*
X126503393Y-81980670D01*
X126476974Y-81929997D01*
X126459273Y-81895800D01*
X126439842Y-81857490D01*
X126423311Y-81822752D01*
X126407623Y-81786717D01*
X126390721Y-81744514D01*
X126370547Y-81691272D01*
X126354131Y-81646880D01*
X126325186Y-81566712D01*
X126302802Y-81500723D01*
X126285707Y-81444337D01*
X126272634Y-81392982D01*
X126262313Y-81342083D01*
X126253474Y-81287068D01*
X126252616Y-81281120D01*
X126245151Y-81230257D01*
X126237576Y-81180904D01*
X126231014Y-81140283D01*
X126228127Y-81123640D01*
X126225098Y-81096915D01*
X126222421Y-81054279D01*
X126220278Y-81000140D01*
X126218849Y-80938906D01*
X126218332Y-80884880D01*
X126220440Y-80770550D01*
X126227153Y-80659581D01*
X126238032Y-80555994D01*
X126252640Y-80463810D01*
X126270536Y-80387049D01*
X126273885Y-80375787D01*
X126301917Y-80286359D01*
X126326399Y-80210955D01*
X126346888Y-80150859D01*
X126362943Y-80107353D01*
X126374123Y-80081718D01*
X126376639Y-80077439D01*
X126387574Y-80055995D01*
X126390400Y-80043419D01*
X126394605Y-80028514D01*
X126405866Y-80000359D01*
X126422147Y-79963878D01*
X126431040Y-79945080D01*
X126448916Y-79906967D01*
X126462784Y-79875490D01*
X126470636Y-79855297D01*
X126471680Y-79850930D01*
X126477370Y-79836508D01*
X126490319Y-79816910D01*
X126505259Y-79794572D01*
X126524337Y-79762239D01*
X126538187Y-79736800D01*
X126558302Y-79702016D01*
X126585861Y-79659090D01*
X126615770Y-79615869D01*
X126623919Y-79604720D01*
X126651087Y-79567671D01*
X126675423Y-79533758D01*
X126693049Y-79508410D01*
X126697486Y-79501677D01*
X126711466Y-79484008D01*
X126737309Y-79455247D01*
X126772148Y-79418300D01*
X126813113Y-79376072D01*
X126857337Y-79331465D01*
X126901950Y-79287386D01*
X126944084Y-79246738D01*
X126980870Y-79212425D01*
X127000000Y-79195377D01*
X127036799Y-79163524D01*
X127061749Y-79142218D01*
X127078308Y-79128643D01*
X127089937Y-79119986D01*
X127100094Y-79113431D01*
X127102527Y-79111960D01*
X127117965Y-79102172D01*
X127145736Y-79084109D01*
X127181260Y-79060759D01*
X127204500Y-79045383D01*
X127277647Y-78998646D01*
X127354995Y-78952357D01*
X127432530Y-78908693D01*
X127506236Y-78869832D01*
X127572098Y-78837952D01*
X127626101Y-78815231D01*
X127634221Y-78812294D01*
X127699383Y-78789308D01*
X127751021Y-78770690D01*
X127792480Y-78755279D01*
X127824916Y-78745610D01*
X127864344Y-78737218D01*
X127878840Y-78734954D01*
X127918450Y-78727801D01*
X127957189Y-78718072D01*
X127968523Y-78714449D01*
X128005933Y-78704376D01*
X128056795Y-78695072D01*
X128118218Y-78686677D01*
X128187311Y-78679331D01*
X128261183Y-78673174D01*
X128336942Y-78668346D01*
X128411698Y-78664988D01*
X128482559Y-78663238D01*
X128546634Y-78663237D01*
X128601033Y-78665126D01*
G37*
G36*
X121604066Y-76611764D02*
G01*
X122352537Y-76611764D01*
X122354713Y-76674227D01*
X122360251Y-76729707D01*
X122365920Y-76759920D01*
X122394306Y-76844004D01*
X122435376Y-76920514D01*
X122486652Y-76986136D01*
X122545655Y-77037558D01*
X122594319Y-77065182D01*
X122674597Y-77090881D01*
X122763335Y-77102178D01*
X122854022Y-77098411D01*
X122880471Y-77094275D01*
X122966692Y-77068368D01*
X123045425Y-77023698D01*
X123055307Y-77016383D01*
X123086073Y-76987371D01*
X123115996Y-76949476D01*
X123143047Y-76906722D01*
X123165196Y-76863131D01*
X123180413Y-76822728D01*
X123186669Y-76789536D01*
X123181934Y-76767579D01*
X123181261Y-76766712D01*
X123179218Y-76765461D01*
X123320897Y-76765461D01*
X123321045Y-76842832D01*
X123321452Y-76913046D01*
X123322129Y-76973605D01*
X123323088Y-77022010D01*
X123324343Y-77055765D01*
X123325905Y-77072370D01*
X123326284Y-77073463D01*
X123338191Y-77076808D01*
X123367527Y-77079627D01*
X123411407Y-77081920D01*
X123466948Y-77083690D01*
X123531266Y-77084941D01*
X123601476Y-77085674D01*
X123674693Y-77085891D01*
X123748035Y-77085596D01*
X123818616Y-77084790D01*
X123883553Y-77083476D01*
X123939961Y-77081656D01*
X123984956Y-77079333D01*
X124015654Y-77076508D01*
X124029171Y-77073186D01*
X124029437Y-77072878D01*
X124033703Y-77054803D01*
X124034701Y-77025419D01*
X124032870Y-76992634D01*
X124028649Y-76964360D01*
X124022538Y-76948567D01*
X124010014Y-76945887D01*
X123979659Y-76943610D01*
X123933958Y-76941817D01*
X123875397Y-76940586D01*
X123806463Y-76939997D01*
X123754077Y-76940006D01*
X123664806Y-76939973D01*
X123594848Y-76939149D01*
X123543212Y-76937495D01*
X123508904Y-76934972D01*
X123490933Y-76931541D01*
X123487783Y-76929506D01*
X123484422Y-76914530D01*
X123481489Y-76884514D01*
X123479148Y-76844738D01*
X123477560Y-76800481D01*
X123476889Y-76757020D01*
X123477297Y-76719637D01*
X123478947Y-76693608D01*
X123480290Y-76686498D01*
X123483598Y-76680925D01*
X123491151Y-76676595D01*
X123505355Y-76673314D01*
X123528616Y-76670886D01*
X123563338Y-76669117D01*
X123611927Y-76667811D01*
X123676789Y-76666773D01*
X123731647Y-76666119D01*
X123977400Y-76663400D01*
X123980127Y-76605826D01*
X123980446Y-76599081D01*
X123981325Y-76563248D01*
X123978975Y-76542813D01*
X123972329Y-76532972D01*
X123965084Y-76529948D01*
X123949948Y-76528483D01*
X123917634Y-76527022D01*
X123871286Y-76525649D01*
X123814047Y-76524449D01*
X123749059Y-76523508D01*
X123713118Y-76523147D01*
X123479560Y-76521160D01*
X123479560Y-76287480D01*
X124007880Y-76277320D01*
X124007880Y-76145240D01*
X123673249Y-76142558D01*
X123592676Y-76142142D01*
X123518612Y-76142200D01*
X123453500Y-76142695D01*
X123399785Y-76143591D01*
X123359910Y-76144853D01*
X123336319Y-76146443D01*
X123330871Y-76147638D01*
X123329122Y-76159198D01*
X123327506Y-76188579D01*
X123326037Y-76233284D01*
X123324727Y-76290814D01*
X123323588Y-76358673D01*
X123322633Y-76434362D01*
X123321874Y-76515383D01*
X123321324Y-76599239D01*
X123320994Y-76683431D01*
X123320897Y-76765461D01*
X123179218Y-76765461D01*
X123163895Y-76756076D01*
X123133915Y-76745836D01*
X123098979Y-76737752D01*
X123066746Y-76733583D01*
X123044875Y-76735091D01*
X123044404Y-76735264D01*
X123029710Y-76749053D01*
X123027216Y-76758467D01*
X123023003Y-76777734D01*
X123012729Y-76805801D01*
X123008350Y-76815800D01*
X122971719Y-76873148D01*
X122922695Y-76916337D01*
X122864387Y-76944344D01*
X122799904Y-76956148D01*
X122732354Y-76950727D01*
X122666834Y-76928041D01*
X122614450Y-76895004D01*
X122575855Y-76852228D01*
X122547638Y-76795543D01*
X122539978Y-76772931D01*
X122520668Y-76685453D01*
X122515185Y-76596441D01*
X122523206Y-76510635D01*
X122544410Y-76432776D01*
X122566153Y-76386864D01*
X122606708Y-76336405D01*
X122660558Y-76298575D01*
X122724015Y-76274841D01*
X122793393Y-76266672D01*
X122852703Y-76272737D01*
X122891958Y-76283535D01*
X122922053Y-76300288D01*
X122952975Y-76328570D01*
X122953264Y-76328869D01*
X122979255Y-76360698D01*
X123000175Y-76394904D01*
X123008212Y-76414120D01*
X123020643Y-76442913D01*
X123034824Y-76454845D01*
X123036668Y-76454999D01*
X123061358Y-76451873D01*
X123093693Y-76444160D01*
X123126983Y-76433940D01*
X123154536Y-76423295D01*
X123169662Y-76414305D01*
X123170327Y-76413432D01*
X123172829Y-76392015D01*
X123163686Y-76359960D01*
X123145226Y-76321380D01*
X123119781Y-76280388D01*
X123089681Y-76241096D01*
X123057255Y-76207617D01*
X123050348Y-76201693D01*
X122990476Y-76164107D01*
X122924799Y-76140160D01*
X124592080Y-76140160D01*
X124592080Y-76605826D01*
X124592232Y-76701223D01*
X124592668Y-76790353D01*
X124593356Y-76871165D01*
X124594265Y-76941608D01*
X124595365Y-76999633D01*
X124596623Y-77043187D01*
X124598010Y-77070221D01*
X124599269Y-77078682D01*
X124612425Y-77081948D01*
X124639761Y-77083441D01*
X124672929Y-77082916D01*
X124739400Y-77079960D01*
X124744480Y-76889068D01*
X124746613Y-76819600D01*
X124748969Y-76767885D01*
X124751809Y-76731355D01*
X124755390Y-76707445D01*
X124759973Y-76693586D01*
X124764800Y-76687824D01*
X124785765Y-76681906D01*
X124820236Y-76680276D01*
X124861978Y-76682391D01*
X124904761Y-76687708D01*
X124942351Y-76695682D01*
X124968176Y-76705568D01*
X124989668Y-76721619D01*
X125014807Y-76747390D01*
X125044894Y-76784572D01*
X125081230Y-76834852D01*
X125125114Y-76899922D01*
X125164724Y-76960944D01*
X125244313Y-77085040D01*
X125329995Y-77085040D01*
X125374525Y-77084193D01*
X125402366Y-77081260D01*
X125417095Y-77075649D01*
X125421474Y-77069934D01*
X125418327Y-77055666D01*
X125405167Y-77028152D01*
X125384014Y-76990519D01*
X125356889Y-76945894D01*
X125325814Y-76897404D01*
X125292808Y-76848176D01*
X125259892Y-76801337D01*
X125248362Y-76785871D01*
X125518424Y-76785871D01*
X125518446Y-76866372D01*
X125518683Y-76936590D01*
X125519126Y-76994422D01*
X125519764Y-77037763D01*
X125520588Y-77064509D01*
X125521342Y-77072471D01*
X125526852Y-77076009D01*
X125541483Y-77078793D01*
X125566911Y-77080873D01*
X125604808Y-77082294D01*
X125656850Y-77083106D01*
X125724711Y-77083354D01*
X125810064Y-77083088D01*
X125879591Y-77082631D01*
X126232920Y-77079960D01*
X126233439Y-77069908D01*
X126312852Y-77069908D01*
X126312900Y-77070077D01*
X126321610Y-77078322D01*
X126342272Y-77083055D01*
X126378449Y-77084934D01*
X126393921Y-77085040D01*
X126469200Y-77085040D01*
X126568200Y-76810322D01*
X126920646Y-76815800D01*
X127024062Y-77085040D01*
X127103790Y-77085040D01*
X127147167Y-77084012D01*
X127173718Y-77080540D01*
X127186853Y-77074035D01*
X127189154Y-77070350D01*
X127186548Y-77058272D01*
X127176905Y-77029292D01*
X127160946Y-76985289D01*
X127139389Y-76928141D01*
X127112952Y-76859728D01*
X127083940Y-76785956D01*
X127296446Y-76785956D01*
X127296493Y-76866532D01*
X127296763Y-76936842D01*
X127297247Y-76994778D01*
X127297931Y-77038232D01*
X127298806Y-77065096D01*
X127299601Y-77073145D01*
X127304944Y-77077502D01*
X127318603Y-77080697D01*
X127342735Y-77082816D01*
X127379497Y-77083945D01*
X127431046Y-77084170D01*
X127499538Y-77083575D01*
X127546090Y-77082916D01*
X127623448Y-77081594D01*
X127683547Y-77080137D01*
X127729444Y-77078269D01*
X127764201Y-77075714D01*
X127790876Y-77072197D01*
X127812528Y-77067441D01*
X127832218Y-77061169D01*
X127846213Y-77055833D01*
X127913693Y-77018383D01*
X127971582Y-76964424D01*
X128018850Y-76895876D01*
X128054467Y-76814658D01*
X128077403Y-76722689D01*
X128086628Y-76621889D01*
X128086767Y-76607520D01*
X128079503Y-76506151D01*
X128058357Y-76413319D01*
X128024293Y-76331194D01*
X127978279Y-76261946D01*
X127921280Y-76207746D01*
X127903337Y-76195470D01*
X127873631Y-76178318D01*
X127843439Y-76165048D01*
X127812075Y-76155912D01*
X128141397Y-76155912D01*
X128145228Y-76169272D01*
X128160416Y-76198337D01*
X128186473Y-76242299D01*
X128222907Y-76300355D01*
X128269231Y-76371697D01*
X128309356Y-76432223D01*
X128483360Y-76692783D01*
X128483360Y-76882138D01*
X128483728Y-76942248D01*
X128484751Y-76995269D01*
X128486310Y-77037889D01*
X128488282Y-77066797D01*
X128490536Y-77078669D01*
X128503584Y-77081839D01*
X128531096Y-77083381D01*
X128567255Y-77082982D01*
X128569276Y-77082902D01*
X128640840Y-77079960D01*
X128645920Y-76879382D01*
X128651000Y-76678805D01*
X128827042Y-76423928D01*
X128874164Y-76354984D01*
X128915320Y-76293336D01*
X128949379Y-76240773D01*
X128975207Y-76199085D01*
X128991671Y-76170060D01*
X128997640Y-76155488D01*
X128997541Y-76154605D01*
X128988722Y-76146810D01*
X128967448Y-76142226D01*
X128930455Y-76140305D01*
X128911409Y-76140160D01*
X128830820Y-76140160D01*
X128700534Y-76338828D01*
X128657737Y-76403595D01*
X128624454Y-76452685D01*
X128599473Y-76487679D01*
X128581577Y-76510156D01*
X128569554Y-76521696D01*
X128562188Y-76523879D01*
X128559824Y-76521885D01*
X128551410Y-76508941D01*
X128533828Y-76481651D01*
X128508860Y-76442787D01*
X128478284Y-76395122D01*
X128443883Y-76341427D01*
X128432560Y-76323740D01*
X128315720Y-76141206D01*
X128231581Y-76140683D01*
X128188087Y-76141197D01*
X128161012Y-76143832D01*
X128146506Y-76149238D01*
X128141397Y-76155912D01*
X127812075Y-76155912D01*
X127809744Y-76155233D01*
X127769530Y-76148448D01*
X127719779Y-76144268D01*
X127657475Y-76142269D01*
X127579602Y-76142024D01*
X127527574Y-76142500D01*
X127299720Y-76145240D01*
X127297070Y-76602440D01*
X127296635Y-76697222D01*
X127296446Y-76785956D01*
X127083940Y-76785956D01*
X127082356Y-76781929D01*
X127048319Y-76696624D01*
X127011560Y-76605691D01*
X127008495Y-76598160D01*
X126822200Y-76140659D01*
X126740491Y-76140409D01*
X126658783Y-76140160D01*
X126482971Y-76597637D01*
X126447974Y-76689304D01*
X126415530Y-76775454D01*
X126386325Y-76854184D01*
X126361043Y-76923590D01*
X126340369Y-76981768D01*
X126324990Y-77026816D01*
X126315589Y-77056830D01*
X126312852Y-77069908D01*
X126233439Y-77069908D01*
X126236011Y-77020059D01*
X126236124Y-76986207D01*
X126233227Y-76960440D01*
X126229327Y-76950383D01*
X126216557Y-76947500D01*
X126185743Y-76944893D01*
X126139161Y-76942654D01*
X126079089Y-76940875D01*
X126007802Y-76939648D01*
X125951916Y-76939164D01*
X125684280Y-76937720D01*
X125678610Y-76668480D01*
X126177040Y-76668480D01*
X126177040Y-76597360D01*
X126176579Y-76560115D01*
X126174253Y-76538747D01*
X126168646Y-76528816D01*
X126158341Y-76525883D01*
X126154180Y-76525705D01*
X126137570Y-76525459D01*
X126103950Y-76525072D01*
X126056628Y-76524578D01*
X125998913Y-76524010D01*
X125934112Y-76523403D01*
X125907800Y-76523165D01*
X125684280Y-76521160D01*
X125678558Y-76282738D01*
X126212600Y-76277320D01*
X126212600Y-76145240D01*
X125521720Y-76145240D01*
X125519070Y-76602440D01*
X125518629Y-76697192D01*
X125518424Y-76785871D01*
X125248362Y-76785871D01*
X125229087Y-76760015D01*
X125202415Y-76727335D01*
X125194272Y-76718351D01*
X125140700Y-76661542D01*
X125182632Y-76648979D01*
X125226406Y-76627822D01*
X125270389Y-76593232D01*
X125308504Y-76551097D01*
X125334673Y-76507307D01*
X125338133Y-76498300D01*
X125352901Y-76425915D01*
X125349059Y-76354048D01*
X125327381Y-76286402D01*
X125288644Y-76226679D01*
X125279032Y-76216130D01*
X125257674Y-76195441D01*
X125236028Y-76178860D01*
X125211617Y-76165940D01*
X125181964Y-76156231D01*
X125144594Y-76149284D01*
X125097030Y-76144653D01*
X125036794Y-76141887D01*
X124961411Y-76140540D01*
X124868404Y-76140161D01*
X124859475Y-76140159D01*
X124592080Y-76140160D01*
X122924799Y-76140160D01*
X122918173Y-76137744D01*
X122838626Y-76123708D01*
X122757025Y-76123103D01*
X122710447Y-76129408D01*
X122617595Y-76156831D01*
X122536909Y-76200369D01*
X122469127Y-76259335D01*
X122414986Y-76333042D01*
X122375224Y-76420803D01*
X122366133Y-76450040D01*
X122358252Y-76492913D01*
X122353718Y-76549074D01*
X122352537Y-76611764D01*
X121604066Y-76611764D01*
X121619505Y-76566993D01*
X121654571Y-76485405D01*
X121696807Y-76401474D01*
X121744152Y-76319527D01*
X121794547Y-76243890D01*
X121807347Y-76226520D01*
X121839205Y-76185042D01*
X121869146Y-76147508D01*
X121893780Y-76118081D01*
X121909562Y-76101063D01*
X121933722Y-76080168D01*
X121965394Y-76054866D01*
X122000458Y-76028183D01*
X122034794Y-76003145D01*
X122064281Y-75982779D01*
X122084800Y-75970112D01*
X122091457Y-75967440D01*
X122105496Y-75959875D01*
X122109995Y-75954191D01*
X122123972Y-75941272D01*
X122148110Y-75926284D01*
X122153680Y-75923430D01*
X122180998Y-75909474D01*
X122202157Y-75897818D01*
X122204480Y-75896410D01*
X122249522Y-75872647D01*
X122308244Y-75847836D01*
X122374266Y-75824179D01*
X122441209Y-75803877D01*
X122502694Y-75789131D01*
X122528243Y-75784695D01*
X122567514Y-75778063D01*
X122600585Y-75770793D01*
X122620730Y-75764380D01*
X122621555Y-75763964D01*
X122633641Y-75762938D01*
X122665811Y-75761964D01*
X122717828Y-75761042D01*
X122789457Y-75760175D01*
X122880461Y-75759362D01*
X122990604Y-75758604D01*
X123119649Y-75757902D01*
X123267361Y-75757256D01*
X123433503Y-75756668D01*
X123617839Y-75756138D01*
X123820132Y-75755667D01*
X124040147Y-75755255D01*
X124277648Y-75754904D01*
X124532398Y-75754614D01*
X124804160Y-75754386D01*
X125092699Y-75754220D01*
X125397779Y-75754118D01*
X125719163Y-75754080D01*
X125749307Y-75754080D01*
X126052270Y-75754090D01*
X126335553Y-75754123D01*
X126599795Y-75754182D01*
X126845636Y-75754269D01*
X127073715Y-75754387D01*
X127284673Y-75754540D01*
X127479148Y-75754730D01*
X127657781Y-75754960D01*
X127821211Y-75755234D01*
X127970078Y-75755553D01*
X128105021Y-75755921D01*
X128226681Y-75756340D01*
X128335696Y-75756815D01*
X128432706Y-75757347D01*
X128518351Y-75757939D01*
X128593270Y-75758594D01*
X128658104Y-75759316D01*
X128713492Y-75760107D01*
X128760073Y-75760970D01*
X128798487Y-75761908D01*
X128829374Y-75762924D01*
X128853374Y-75764021D01*
X128871125Y-75765201D01*
X128883268Y-75766468D01*
X128890443Y-75767824D01*
X128891955Y-75768344D01*
X128919370Y-75777480D01*
X128958124Y-75787299D01*
X128996440Y-75795042D01*
X129081065Y-75816562D01*
X129174921Y-75853305D01*
X129278799Y-75905642D01*
X129393489Y-75973947D01*
X129438400Y-76003060D01*
X129464850Y-76020864D01*
X129483690Y-76034132D01*
X129489200Y-76038482D01*
X129499253Y-76047590D01*
X129519399Y-76065194D01*
X129534156Y-76077926D01*
X129570226Y-76112844D01*
X129611876Y-76159298D01*
X129655006Y-76212078D01*
X129695518Y-76265972D01*
X129729313Y-76315769D01*
X129751030Y-76353649D01*
X129768979Y-76386844D01*
X129788394Y-76418372D01*
X129789286Y-76419689D01*
X129813929Y-76463005D01*
X129839267Y-76519568D01*
X129862784Y-76582561D01*
X129881970Y-76645165D01*
X129894311Y-76700562D01*
X129895380Y-76707565D01*
X129901863Y-76743985D01*
X129909648Y-76774678D01*
X129914999Y-76788680D01*
X129916014Y-76800600D01*
X129916983Y-76831855D01*
X129917908Y-76881500D01*
X129918786Y-76948593D01*
X129919619Y-77032190D01*
X129920406Y-77131347D01*
X129921147Y-77245121D01*
X129921842Y-77372568D01*
X129922490Y-77512745D01*
X129923092Y-77664707D01*
X129923648Y-77827513D01*
X129924157Y-78000217D01*
X129924619Y-78181877D01*
X129925034Y-78371548D01*
X129925402Y-78568288D01*
X129925722Y-78771153D01*
X129925996Y-78979199D01*
X129926221Y-79191482D01*
X129926399Y-79407060D01*
X129926529Y-79624989D01*
X129926611Y-79844324D01*
X129926645Y-80064123D01*
X129926631Y-80283442D01*
X129926568Y-80501337D01*
X129926457Y-80716865D01*
X129926297Y-80929083D01*
X129926088Y-81137046D01*
X129925830Y-81339811D01*
X129925523Y-81536435D01*
X129925167Y-81725975D01*
X129924761Y-81907485D01*
X129924306Y-82080024D01*
X129923801Y-82242647D01*
X129923246Y-82394411D01*
X129922641Y-82534373D01*
X129921986Y-82661588D01*
X129921281Y-82775113D01*
X129920525Y-82874005D01*
X129919719Y-82957321D01*
X129918862Y-83024116D01*
X129917954Y-83073447D01*
X129916995Y-83104370D01*
X129915985Y-83115943D01*
X129915957Y-83115978D01*
X129908851Y-83130874D01*
X129900813Y-83159096D01*
X129895081Y-83186590D01*
X129875045Y-83268202D01*
X129843851Y-83356836D01*
X129804549Y-83444988D01*
X129760186Y-83525151D01*
X129752884Y-83536640D01*
X129734634Y-83565479D01*
X129720535Y-83589048D01*
X129715921Y-83597600D01*
X129695883Y-83630717D01*
X129664153Y-83673031D01*
X129624365Y-83720398D01*
X129580157Y-83768675D01*
X129535165Y-83813722D01*
X129493291Y-83851177D01*
X129469030Y-83869590D01*
X129436301Y-83892292D01*
X129399485Y-83916510D01*
X129362963Y-83939474D01*
X129331119Y-83958409D01*
X129308334Y-83970546D01*
X129299896Y-83973520D01*
X129287246Y-83978297D01*
X129286000Y-83981655D01*
X129276803Y-83992421D01*
X129251478Y-84007462D01*
X129213423Y-84025427D01*
X129166038Y-84044969D01*
X129112720Y-84064738D01*
X129056869Y-84083387D01*
X129001883Y-84099567D01*
X128965960Y-84108648D01*
X128874520Y-84129862D01*
X125740160Y-84132689D01*
X125453454Y-84132918D01*
X125177097Y-84133079D01*
X124911634Y-84133172D01*
X124657611Y-84133201D01*
X124415573Y-84133164D01*
X124186066Y-84133064D01*
X123969636Y-84132901D01*
X123766830Y-84132678D01*
X123578191Y-84132394D01*
X123404268Y-84132051D01*
X123245604Y-84131649D01*
X123102747Y-84131192D01*
X122976242Y-84130678D01*
X122866634Y-84130110D01*
X122774470Y-84129488D01*
X122700295Y-84128814D01*
X122644655Y-84128088D01*
X122608096Y-84127313D01*
X122591164Y-84126488D01*
X122590028Y-84126257D01*
X122573679Y-84120334D01*
X122542551Y-84111944D01*
X122501829Y-84102417D01*
X122475016Y-84096724D01*
X122378984Y-84070041D01*
X122277089Y-84029217D01*
X122173863Y-83976959D01*
X122073837Y-83915973D01*
X121981543Y-83848967D01*
X121901512Y-83778646D01*
X121851325Y-83724219D01*
X121816916Y-83680501D01*
X121781892Y-83632806D01*
X121749962Y-83586462D01*
X121724836Y-83546796D01*
X121713593Y-83526480D01*
X121699536Y-83499186D01*
X121687815Y-83478030D01*
X121686385Y-83475680D01*
X121677104Y-83457951D01*
X121663768Y-83429231D01*
X121655212Y-83409640D01*
X121640097Y-83374849D01*
X121625910Y-83343302D01*
X121620250Y-83331233D01*
X121611706Y-83307951D01*
X121601428Y-83271934D01*
X121591455Y-83230416D01*
X121590194Y-83224553D01*
X121579929Y-83179019D01*
X121568806Y-83134264D01*
X121559155Y-83099644D01*
X121558769Y-83098396D01*
X121557284Y-83083552D01*
X121555868Y-83049395D01*
X121554522Y-82996881D01*
X121553245Y-82926961D01*
X121552038Y-82840589D01*
X121550900Y-82738720D01*
X121549833Y-82622307D01*
X121548835Y-82492303D01*
X121547906Y-82349662D01*
X121547049Y-82195337D01*
X121546261Y-82030283D01*
X121545543Y-81855452D01*
X121544896Y-81671799D01*
X121544320Y-81480276D01*
X121543815Y-81281838D01*
X121543379Y-81077438D01*
X121543015Y-80868030D01*
X121542721Y-80654567D01*
X121542499Y-80438002D01*
X121542348Y-80219291D01*
X121542315Y-80128966D01*
X121798001Y-80128966D01*
X121798006Y-80210173D01*
X121798021Y-80493427D01*
X121798028Y-80757101D01*
X121798039Y-81001935D01*
X121798068Y-81228670D01*
X121798125Y-81438045D01*
X121798222Y-81630801D01*
X121798374Y-81807677D01*
X121798590Y-81969414D01*
X121798884Y-82116752D01*
X121799268Y-82250431D01*
X121799754Y-82371191D01*
X121800354Y-82479772D01*
X121801080Y-82576915D01*
X121801944Y-82663359D01*
X121802960Y-82739844D01*
X121804138Y-82807111D01*
X121805491Y-82865900D01*
X121807031Y-82916951D01*
X121808771Y-82961003D01*
X121810723Y-82998798D01*
X121812898Y-83031075D01*
X121815309Y-83058574D01*
X121817968Y-83082036D01*
X121820888Y-83102200D01*
X121824080Y-83119807D01*
X121827557Y-83135596D01*
X121831330Y-83150309D01*
X121835413Y-83164684D01*
X121839817Y-83179462D01*
X121844555Y-83195384D01*
X121847310Y-83204907D01*
X121858702Y-83241104D01*
X121869750Y-83269976D01*
X121878121Y-83285456D01*
X121878335Y-83285679D01*
X121888587Y-83305492D01*
X121889519Y-83312762D01*
X121895109Y-83333851D01*
X121910233Y-83366900D01*
X121932419Y-83407472D01*
X121959199Y-83451131D01*
X121988103Y-83493440D01*
X121996200Y-83504386D01*
X122012649Y-83523527D01*
X122039377Y-83551938D01*
X122071810Y-83585018D01*
X122105377Y-83618166D01*
X122135507Y-83646782D01*
X122154444Y-83663640D01*
X122220622Y-83712772D01*
X122296710Y-83758745D01*
X122375646Y-83797788D01*
X122450362Y-83826129D01*
X122468640Y-83831389D01*
X122498228Y-83840017D01*
X122519723Y-83847708D01*
X122524520Y-83850089D01*
X122529521Y-83852857D01*
X122536157Y-83855444D01*
X122545099Y-83857858D01*
X122557020Y-83860103D01*
X122572592Y-83862188D01*
X122592487Y-83864118D01*
X122617378Y-83865900D01*
X122647937Y-83867540D01*
X122684837Y-83869044D01*
X122728749Y-83870418D01*
X122780346Y-83871670D01*
X122840300Y-83872805D01*
X122909284Y-83873830D01*
X122987969Y-83874752D01*
X123077029Y-83875575D01*
X123177136Y-83876308D01*
X123288962Y-83876956D01*
X123413178Y-83877526D01*
X123550459Y-83878024D01*
X123701475Y-83878456D01*
X123866899Y-83878829D01*
X124047404Y-83879149D01*
X124243662Y-83879423D01*
X124456345Y-83879657D01*
X124686126Y-83879857D01*
X124933676Y-83880030D01*
X125199669Y-83880181D01*
X125484776Y-83880319D01*
X125724920Y-83880421D01*
X126026142Y-83880534D01*
X126307702Y-83880616D01*
X126570255Y-83880664D01*
X126814460Y-83880675D01*
X127040973Y-83880646D01*
X127250450Y-83880575D01*
X127443549Y-83880460D01*
X127620927Y-83880296D01*
X127783241Y-83880082D01*
X127931148Y-83879814D01*
X128065305Y-83879491D01*
X128186368Y-83879108D01*
X128294995Y-83878664D01*
X128391843Y-83878156D01*
X128477568Y-83877580D01*
X128552828Y-83876935D01*
X128618280Y-83876217D01*
X128674581Y-83875423D01*
X128722387Y-83874552D01*
X128762355Y-83873599D01*
X128795143Y-83872563D01*
X128821408Y-83871440D01*
X128841806Y-83870228D01*
X128856994Y-83868924D01*
X128867630Y-83867525D01*
X128869440Y-83867202D01*
X128994873Y-83836002D01*
X129109567Y-83792568D01*
X129194560Y-83747797D01*
X129225118Y-83729787D01*
X129251653Y-83715232D01*
X129261276Y-83710503D01*
X129280790Y-83697618D01*
X129310314Y-83673183D01*
X129346211Y-83640703D01*
X129384843Y-83603681D01*
X129422573Y-83565623D01*
X129455763Y-83530032D01*
X129480774Y-83500414D01*
X129484558Y-83495402D01*
X129525953Y-83430600D01*
X129566553Y-83351868D01*
X129603718Y-83265517D01*
X129634809Y-83177852D01*
X129657188Y-83095182D01*
X129661997Y-83071264D01*
X129663087Y-83055211D01*
X129664118Y-83020077D01*
X129665091Y-82966863D01*
X129666006Y-82896567D01*
X129666861Y-82810191D01*
X129667659Y-82708734D01*
X129668399Y-82593197D01*
X129669081Y-82464579D01*
X129669705Y-82323880D01*
X129670272Y-82172100D01*
X129670782Y-82010241D01*
X129671234Y-81839300D01*
X129671630Y-81660279D01*
X129671969Y-81474178D01*
X129672251Y-81281996D01*
X129672477Y-81084734D01*
X129672647Y-80883392D01*
X129672760Y-80678969D01*
X129672818Y-80472466D01*
X129672820Y-80264883D01*
X129672767Y-80057220D01*
X129672658Y-79850477D01*
X129672494Y-79645653D01*
X129672275Y-79443750D01*
X129672002Y-79245766D01*
X129671673Y-79052703D01*
X129671291Y-78865559D01*
X129670854Y-78685336D01*
X129670362Y-78513033D01*
X129669817Y-78349650D01*
X129669219Y-78196187D01*
X129668566Y-78053644D01*
X129667861Y-77923022D01*
X129667102Y-77805320D01*
X129666290Y-77701539D01*
X129665425Y-77612677D01*
X129664508Y-77539737D01*
X129663538Y-77483716D01*
X129662515Y-77445617D01*
X129661441Y-77426437D01*
X129660997Y-77424288D01*
X129657720Y-77423058D01*
X129649616Y-77421899D01*
X129636121Y-77420809D01*
X129616670Y-77419788D01*
X129590700Y-77418831D01*
X129557646Y-77417939D01*
X129516945Y-77417107D01*
X129468031Y-77416336D01*
X129410342Y-77415621D01*
X129343312Y-77414963D01*
X129266377Y-77414358D01*
X129178974Y-77413804D01*
X129080539Y-77413300D01*
X128970506Y-77412843D01*
X128848313Y-77412432D01*
X128713394Y-77412064D01*
X128565186Y-77411738D01*
X128403124Y-77411451D01*
X128226645Y-77411202D01*
X128035184Y-77410988D01*
X127828177Y-77410807D01*
X127605060Y-77410658D01*
X127365269Y-77410538D01*
X127108240Y-77410446D01*
X126833407Y-77410379D01*
X126540209Y-77410336D01*
X126228079Y-77410313D01*
X125896454Y-77410310D01*
X125736375Y-77410315D01*
X125455467Y-77410347D01*
X125179706Y-77410420D01*
X124909790Y-77410532D01*
X124646414Y-77410682D01*
X124390275Y-77410868D01*
X124142069Y-77411089D01*
X123902492Y-77411343D01*
X123672240Y-77411630D01*
X123452010Y-77411946D01*
X123242497Y-77412292D01*
X123044398Y-77412665D01*
X122858408Y-77413064D01*
X122685225Y-77413487D01*
X122525544Y-77413934D01*
X122380061Y-77414402D01*
X122249473Y-77414890D01*
X122134475Y-77415397D01*
X122035764Y-77415921D01*
X121954036Y-77416460D01*
X121889987Y-77417014D01*
X121844314Y-77417581D01*
X121817712Y-77418158D01*
X121810635Y-77418624D01*
X121809294Y-77422909D01*
X121808045Y-77434414D01*
X121806884Y-77453753D01*
X121805810Y-77481544D01*
X121804819Y-77518402D01*
X121803908Y-77564942D01*
X121803075Y-77621781D01*
X121802316Y-77689534D01*
X121801630Y-77768817D01*
X121801013Y-77860247D01*
X121800463Y-77964439D01*
X121799976Y-78082008D01*
X121799550Y-78213571D01*
X121799183Y-78359743D01*
X121798870Y-78521141D01*
X121798611Y-78698380D01*
X121798401Y-78892076D01*
X121798238Y-79102845D01*
X121798119Y-79331303D01*
X121798042Y-79578065D01*
X121798004Y-79843748D01*
X121798001Y-80128966D01*
X121542315Y-80128966D01*
X121542267Y-79999385D01*
X121542259Y-79779238D01*
X121542321Y-79559805D01*
X121542456Y-79342039D01*
X121542662Y-79126893D01*
X121542939Y-78915321D01*
X121543289Y-78708277D01*
X121543710Y-78506714D01*
X121544203Y-78311585D01*
X121544769Y-78123845D01*
X121545407Y-77944446D01*
X121546117Y-77774343D01*
X121546901Y-77614490D01*
X121547756Y-77465838D01*
X121548685Y-77329343D01*
X121549686Y-77205958D01*
X121550760Y-77096637D01*
X121551907Y-77002332D01*
X121553128Y-76923998D01*
X121554421Y-76862588D01*
X121555788Y-76819056D01*
X121557228Y-76794355D01*
X121558069Y-76789100D01*
X121568289Y-76757179D01*
X121577037Y-76718496D01*
X121579122Y-76705841D01*
X121593669Y-76641914D01*
X121604066Y-76611764D01*
G37*
%TO.C,RR1*%
X116982742Y-80467500D02*
X117457258Y-80467500D01*
X116982742Y-81512500D02*
X117457258Y-81512500D01*
%TO.C,TP2*%
X122490000Y-105970000D02*
G75*
G03*
X122490000Y-105970000I-700000J0D01*
G01*
%TO.C,EC18*%
X143549924Y-77216420D02*
X143549924Y-77497580D01*
X142529924Y-77216420D02*
X142529924Y-77497580D01*
%TO.C,HLD3*%
X119117500Y-77315000D02*
X119117500Y-75045000D01*
X119117500Y-75045000D02*
X115057500Y-75045000D01*
X115057500Y-77315000D02*
X119117500Y-77315000D01*
D20*
%TO.C,U1*%
X139899924Y-101194500D02*
X139899924Y-105184500D01*
X134859924Y-101194500D02*
X134859924Y-105184500D01*
D15*
X139974924Y-98739500D02*
G75*
G03*
X139974924Y-98739500I-100000J0D01*
G01*
D19*
%TO.C,EC17*%
X136565580Y-120990000D02*
X136284420Y-120990000D01*
X136565580Y-119970000D02*
X136284420Y-119970000D01*
%TO.C,ESP32S1*%
X150200235Y-113947051D02*
X149740616Y-114406670D01*
X144635305Y-118592743D02*
X145094924Y-119052362D01*
X149740616Y-113487432D02*
X150200235Y-113947051D01*
X140449232Y-114406670D02*
X139989613Y-113947051D01*
X145554543Y-109301359D02*
X145094924Y-108841740D01*
X139989613Y-113947051D02*
X140449232Y-113487432D01*
X145094924Y-108841740D02*
X144635305Y-109301359D01*
%TO.C,ER3*%
X136157742Y-118477500D02*
X136632258Y-118477500D01*
X136157742Y-119522500D02*
X136632258Y-119522500D01*
%TO.C,DS1*%
X156736988Y-112157000D02*
X156282860Y-112157000D01*
X156736988Y-110687000D02*
X156282860Y-110687000D01*
%TO.C,EC11*%
X139575580Y-117440000D02*
X139294420Y-117440000D01*
X139575580Y-116420000D02*
X139294420Y-116420000D01*
%TO.C,EC7*%
X153520000Y-121981420D02*
X153520000Y-122262580D01*
X152500000Y-121981420D02*
X152500000Y-122262580D01*
%TO.C,AC2*%
X121634924Y-99683252D02*
X121634924Y-99160748D01*
X123104924Y-99683252D02*
X123104924Y-99160748D01*
%TO.C,EC2*%
X145295000Y-122201252D02*
X145295000Y-121678748D01*
X146765000Y-122201252D02*
X146765000Y-121678748D01*
%TO.C,BZ1*%
X158244924Y-77847000D02*
X158244924Y-73847000D01*
X155874924Y-71477000D02*
X151874924Y-71477000D01*
X151124924Y-80217000D02*
X155874924Y-80217000D01*
X151124924Y-80217000D02*
X149504924Y-78597000D01*
X149504924Y-73847000D02*
X149504924Y-78597000D01*
%TO.C,IMR2*%
X142667742Y-104839500D02*
X143142258Y-104839500D01*
X142667742Y-105884500D02*
X143142258Y-105884500D01*
%TO.C,IMR1*%
X142712666Y-106459500D02*
X143187182Y-106459500D01*
X142712666Y-107504500D02*
X143187182Y-107504500D01*
%TO.C,EC13*%
X145950504Y-107932000D02*
X145669344Y-107932000D01*
X145950504Y-106912000D02*
X145669344Y-106912000D01*
%TO.C,HLL1*%
X147061988Y-87152000D02*
X145857860Y-87152000D01*
X147061988Y-84432000D02*
X145857860Y-84432000D01*
%TO.C,EC12*%
X146799344Y-99882000D02*
X147080504Y-99882000D01*
X146799344Y-100902000D02*
X147080504Y-100902000D01*
%TO.C,HLR2*%
X145746988Y-80217000D02*
X145292860Y-80217000D01*
X145746988Y-78747000D02*
X145292860Y-78747000D01*
%TO.C,TP1*%
X122480000Y-109170000D02*
G75*
G03*
X122480000Y-109170000I-700000J0D01*
G01*
D10*
%TO.C,Sign-RecycleBin*%
X121202224Y-90058040D02*
X125774224Y-90058040D01*
X121202224Y-90820040D02*
X121202224Y-90058040D01*
X121253024Y-90210440D02*
X125723424Y-90210440D01*
X121253024Y-90261240D02*
X125672624Y-90261240D01*
X121253024Y-90413640D02*
X125723424Y-90413640D01*
X121253024Y-90718440D02*
X125672624Y-90718440D01*
D18*
X121408224Y-85282040D02*
X125599224Y-89473040D01*
X121535224Y-89346040D02*
X125599224Y-85409040D01*
X122043224Y-85790040D02*
X124964224Y-85790040D01*
X122551224Y-85155040D02*
X122678224Y-85155040D01*
X122551224Y-85663040D02*
X122551224Y-85155040D01*
X122551224Y-88965040D02*
X122297224Y-85917040D01*
X122551224Y-88965040D02*
X122551224Y-89346040D01*
X122551224Y-88965040D02*
X123948224Y-88965040D01*
X122551224Y-89346040D02*
X123059224Y-89346040D01*
X122678224Y-85155040D02*
X122678224Y-85663040D01*
X123059224Y-89346040D02*
X123059224Y-89092040D01*
X123313224Y-84901040D02*
X123313224Y-85028040D01*
X123313224Y-85028040D02*
X123694224Y-85028040D01*
X123313224Y-86298040D02*
X124202224Y-86298040D01*
X123313224Y-86679040D02*
X123313224Y-86298040D01*
X123440224Y-86425040D02*
X124075224Y-86425040D01*
X123694224Y-84901040D02*
X123313224Y-84901040D01*
X123694224Y-85028040D02*
X123694224Y-84901040D01*
X124202224Y-86298040D02*
X124202224Y-86679040D01*
X124202224Y-86679040D02*
X123313224Y-86679040D01*
X124456224Y-88457040D02*
X124583224Y-86425040D01*
X124583224Y-85790040D02*
X124583224Y-86298040D01*
X124583224Y-86298040D02*
X124964224Y-86298040D01*
X124710224Y-85790040D02*
X124837224Y-86171040D01*
X124710224Y-85917040D02*
X124710224Y-86044040D01*
X124710224Y-85917040D02*
X124710224Y-86044040D01*
X124710224Y-85917040D02*
X124837224Y-85917040D01*
X124710224Y-86298040D02*
X124710224Y-85917040D01*
X124837224Y-85917040D02*
X124837224Y-86298040D01*
X124964224Y-86298040D02*
X124964224Y-85790040D01*
D10*
X125672624Y-90616840D02*
X121303824Y-90616840D01*
X125723424Y-90108840D02*
X121303824Y-90108840D01*
X125723424Y-90362840D02*
X121303824Y-90362840D01*
X125723424Y-90515240D02*
X121303824Y-90515240D01*
X125774224Y-90058040D02*
X125774224Y-90820040D01*
X125774224Y-90820040D02*
X121202224Y-90820040D01*
D18*
X124583224Y-85663040D02*
G75*
G03*
X122297224Y-85663040I-1143000J-1143000D01*
G01*
D20*
X124583224Y-88965040D02*
G75*
G03*
X124583224Y-88965040I-127000J0D01*
G01*
D18*
X124857833Y-88965040D02*
G75*
G03*
X124857833Y-88965040I-401609J0D01*
G01*
D19*
%TO.C,EC14*%
X146970504Y-106472000D02*
X146689344Y-106472000D01*
X146970504Y-105452000D02*
X146689344Y-105452000D01*
%TO.C,EC16*%
X150278672Y-106687000D02*
X150801176Y-106687000D01*
X150278672Y-108157000D02*
X150801176Y-108157000D01*
%TO.C,U3*%
X141569924Y-99512000D02*
X141744924Y-99512000D01*
X144289924Y-100187000D02*
X144289924Y-99512000D01*
X141569924Y-100187000D02*
X141569924Y-99512000D01*
X144289924Y-102057000D02*
X144289924Y-102732000D01*
X141569924Y-102057000D02*
X141569924Y-102732000D01*
X144289924Y-102732000D02*
X144114924Y-102732000D01*
X141569924Y-102732000D02*
X141744924Y-102732000D01*
%TO.C,G\u002A\u002A\u002A*%
G36*
X141870911Y-71326896D02*
G01*
X141914682Y-71352868D01*
X141955790Y-71408884D01*
X141963992Y-71473869D01*
X141943535Y-71536498D01*
X141898663Y-71585443D01*
X141833621Y-71609377D01*
X141818250Y-71610166D01*
X141749548Y-71594514D01*
X141712169Y-71567560D01*
X141675657Y-71502984D01*
X141673698Y-71438266D01*
X141699267Y-71380853D01*
X141745342Y-71338189D01*
X141804898Y-71317721D01*
X141870911Y-71326896D01*
G37*
G36*
X141924807Y-71675226D02*
G01*
X142004075Y-71681089D01*
X142059710Y-71690495D01*
X142078599Y-71699066D01*
X142091903Y-71735465D01*
X142100398Y-71812197D01*
X142103910Y-71927516D01*
X142104000Y-71953066D01*
X142103363Y-72054317D01*
X142100646Y-72120522D01*
X142094634Y-72158958D01*
X142084115Y-72176905D01*
X142067876Y-72181639D01*
X142065900Y-72181666D01*
X142030444Y-72186903D01*
X142005676Y-72206699D01*
X141989785Y-72247177D01*
X141980958Y-72314463D01*
X141977383Y-72414682D01*
X141977000Y-72482233D01*
X141977000Y-72732000D01*
X141659500Y-72732000D01*
X141659500Y-72482233D01*
X141657950Y-72362359D01*
X141652095Y-72278621D01*
X141640123Y-72224892D01*
X141620222Y-72195048D01*
X141590579Y-72182964D01*
X141570600Y-72181666D01*
X141553724Y-72177849D01*
X141542690Y-72161544D01*
X141536284Y-72125473D01*
X141533293Y-72062359D01*
X141532504Y-71964924D01*
X141532500Y-71953066D01*
X141535066Y-71830766D01*
X141542647Y-71746729D01*
X141555071Y-71702700D01*
X141557900Y-71699066D01*
X141590790Y-71687211D01*
X141654896Y-71678900D01*
X141739247Y-71674132D01*
X141832874Y-71672907D01*
X141924807Y-71675226D01*
G37*
G36*
X139642433Y-71718241D02*
G01*
X139716703Y-71773746D01*
X139748069Y-71809863D01*
X139751420Y-71830902D01*
X139728133Y-71852254D01*
X139723996Y-71855289D01*
X139661533Y-71882985D01*
X139606921Y-71872629D01*
X139585166Y-71853583D01*
X139538194Y-71826398D01*
X139477099Y-71826188D01*
X139419329Y-71851723D01*
X139403238Y-71866388D01*
X139373812Y-71924817D01*
X139361520Y-72004498D01*
X139366365Y-72087973D01*
X139388345Y-72157782D01*
X139403238Y-72179444D01*
X139460464Y-72215293D01*
X139529929Y-72222685D01*
X139594003Y-72201323D01*
X139615668Y-72183046D01*
X139651533Y-72155262D01*
X139691785Y-72160214D01*
X139703615Y-72165277D01*
X139745006Y-72197455D01*
X139747174Y-72235667D01*
X139712222Y-72276769D01*
X139642253Y-72317621D01*
X139586746Y-72339859D01*
X139526992Y-72360540D01*
X139488631Y-72368455D01*
X139452709Y-72363662D01*
X139400277Y-72346221D01*
X139384083Y-72340495D01*
X139284302Y-72285469D01*
X139215714Y-72202750D01*
X139179363Y-72094366D01*
X139176293Y-71962340D01*
X139178609Y-71941853D01*
X139209861Y-71847885D01*
X139271352Y-71772905D01*
X139354219Y-71719681D01*
X139449597Y-71690983D01*
X139548623Y-71689580D01*
X139642433Y-71718241D01*
G37*
G36*
X138907901Y-71690238D02*
G01*
X139011472Y-71726917D01*
X139071537Y-71769689D01*
X139108581Y-71805042D01*
X139116387Y-71826237D01*
X139097763Y-71846776D01*
X139088996Y-71853631D01*
X139027635Y-71882648D01*
X138973237Y-71873457D01*
X138950166Y-71853583D01*
X138904583Y-71827700D01*
X138841950Y-71824296D01*
X138781301Y-71843706D01*
X138771008Y-71850411D01*
X138741821Y-71892150D01*
X138725020Y-71968310D01*
X138722548Y-71993286D01*
X138720122Y-72068291D01*
X138730514Y-72119285D01*
X138757397Y-72163590D01*
X138759122Y-72165791D01*
X138818684Y-72212414D01*
X138887709Y-72223004D01*
X138954054Y-72196634D01*
X138971021Y-72181978D01*
X139009176Y-72153688D01*
X139048504Y-72156814D01*
X139066271Y-72164209D01*
X139105180Y-72186347D01*
X139119500Y-72202270D01*
X139102804Y-72230993D01*
X139060885Y-72269927D01*
X139005989Y-72309587D01*
X138950366Y-72340492D01*
X138931133Y-72348119D01*
X138883686Y-72363486D01*
X138851617Y-72368462D01*
X138815988Y-72362978D01*
X138759666Y-72347469D01*
X138664429Y-72301400D01*
X138588985Y-72227605D01*
X138542944Y-72136525D01*
X138535823Y-72104337D01*
X138532037Y-71973674D01*
X138563844Y-71863878D01*
X138611527Y-71793285D01*
X138698360Y-71723913D01*
X138800341Y-71689400D01*
X138907901Y-71690238D01*
G37*
G36*
X147264088Y-71471355D02*
G01*
X147394322Y-71519264D01*
X147500933Y-71600919D01*
X147586943Y-71718088D01*
X147601567Y-71745215D01*
X147630815Y-71809473D01*
X147648013Y-71871276D01*
X147656241Y-71946223D01*
X147658494Y-72033500D01*
X147657525Y-72127290D01*
X147650910Y-72193990D01*
X147635481Y-72248771D01*
X147608068Y-72306804D01*
X147597221Y-72326775D01*
X147549342Y-72400928D01*
X147493870Y-72469076D01*
X147461063Y-72500810D01*
X147341472Y-72574236D01*
X147205985Y-72615471D01*
X147065416Y-72623117D01*
X146930579Y-72595775D01*
X146882536Y-72575648D01*
X146783955Y-72512101D01*
X146704846Y-72431439D01*
X146652554Y-72342976D01*
X146634416Y-72261041D01*
X146636375Y-72227722D01*
X146650259Y-72210395D01*
X146686416Y-72203839D01*
X146749799Y-72202833D01*
X146817172Y-72204408D01*
X146855541Y-72213538D01*
X146878225Y-72236830D01*
X146896298Y-72275510D01*
X146948756Y-72349110D01*
X147029507Y-72397205D01*
X147129648Y-72414499D01*
X147130032Y-72414500D01*
X147186125Y-72406451D01*
X147238060Y-72377052D01*
X147286526Y-72333140D01*
X147344463Y-72262912D01*
X147378643Y-72186085D01*
X147393767Y-72089291D01*
X147395666Y-72022916D01*
X147388418Y-71905795D01*
X147364484Y-71817805D01*
X147320578Y-71747925D01*
X147310294Y-71736410D01*
X147269341Y-71698835D01*
X147226662Y-71680086D01*
X147165052Y-71673969D01*
X147136028Y-71673666D01*
X147047202Y-71680534D01*
X146984785Y-71703491D01*
X146965855Y-71716552D01*
X146917494Y-71766883D01*
X146894630Y-71816841D01*
X146900962Y-71856171D01*
X146911859Y-71866238D01*
X146920761Y-71883786D01*
X146904440Y-71914885D01*
X146859448Y-71965403D01*
X146844794Y-71980273D01*
X146749005Y-72076354D01*
X146644506Y-71970260D01*
X146591544Y-71914192D01*
X146567215Y-71881264D01*
X146568545Y-71866455D01*
X146581683Y-71864166D01*
X146614544Y-71850509D01*
X146640935Y-71804704D01*
X146650989Y-71775636D01*
X146702199Y-71658641D01*
X146777905Y-71569380D01*
X146859887Y-71511470D01*
X146922462Y-71479519D01*
X146983205Y-71462327D01*
X147059832Y-71455878D01*
X147107212Y-71455419D01*
X147264088Y-71471355D01*
G37*
G36*
X145998666Y-72022916D02*
G01*
X146200653Y-72022916D01*
X146212512Y-72197800D01*
X146250887Y-72348629D01*
X146319972Y-72484901D01*
X146423961Y-72616116D01*
X146493241Y-72685520D01*
X146614470Y-72781684D01*
X146751923Y-72861183D01*
X146889633Y-72915244D01*
X146930000Y-72925491D01*
X147020948Y-72935364D01*
X147134728Y-72934121D01*
X147253717Y-72923125D01*
X147360292Y-72903736D01*
X147411928Y-72888276D01*
X147589390Y-72801528D01*
X147738545Y-72687463D01*
X147858179Y-72550977D01*
X147947074Y-72396967D01*
X148004015Y-72230330D01*
X148027788Y-72055962D01*
X148017175Y-71878759D01*
X147970962Y-71703619D01*
X147887933Y-71535437D01*
X147782421Y-71395942D01*
X147645499Y-71274314D01*
X147488627Y-71185850D01*
X147318167Y-71130671D01*
X147140481Y-71108902D01*
X146961930Y-71120665D01*
X146788875Y-71166081D01*
X146627678Y-71245275D01*
X146484700Y-71358368D01*
X146472483Y-71370687D01*
X146350779Y-71515318D01*
X146267348Y-71662452D01*
X146218580Y-71820753D01*
X146200864Y-71998884D01*
X146200653Y-72022916D01*
X145998666Y-72022916D01*
X146010164Y-71897854D01*
X146041561Y-71755557D01*
X146088213Y-71613282D01*
X146139604Y-71499144D01*
X146201078Y-71405310D01*
X146286947Y-71303137D01*
X146386633Y-71202979D01*
X146489560Y-71115189D01*
X146585148Y-71050123D01*
X146613420Y-71035336D01*
X146823568Y-70955727D01*
X147029168Y-70917995D01*
X147231103Y-70922034D01*
X147355995Y-70945760D01*
X147569714Y-71020439D01*
X147756297Y-71127334D01*
X147914365Y-71265068D01*
X148042540Y-71432261D01*
X148139442Y-71627535D01*
X148187072Y-71776837D01*
X148215971Y-71972228D01*
X148206416Y-72172523D01*
X148160252Y-72369658D01*
X148079322Y-72555567D01*
X147973046Y-72713062D01*
X147826216Y-72861472D01*
X147657242Y-72979304D01*
X147472202Y-73064546D01*
X147277172Y-73115185D01*
X147078230Y-73129208D01*
X146881453Y-73104602D01*
X146830685Y-73091423D01*
X146737122Y-73059484D01*
X146639142Y-73018682D01*
X146587317Y-72993280D01*
X146491570Y-72929910D01*
X146387008Y-72841317D01*
X146285290Y-72739147D01*
X146198073Y-72635043D01*
X146140164Y-72546640D01*
X146083425Y-72419504D01*
X146037820Y-72276356D01*
X146008045Y-72134582D01*
X145998666Y-72022916D01*
G37*
G36*
X138046513Y-72022916D02*
G01*
X138243514Y-72022916D01*
X138244736Y-72125100D01*
X138250190Y-72199285D01*
X138262563Y-72259775D01*
X138284540Y-72320875D01*
X138310287Y-72378615D01*
X138403473Y-72534979D01*
X138526933Y-72674593D01*
X138672572Y-72790837D01*
X138832292Y-72877087D01*
X138975064Y-72922294D01*
X139079391Y-72933487D01*
X139203584Y-72930970D01*
X139327960Y-72916126D01*
X139432835Y-72890341D01*
X139433676Y-72890047D01*
X139613557Y-72807473D01*
X139770111Y-72695740D01*
X139897227Y-72559712D01*
X139951703Y-72477478D01*
X140025294Y-72308983D01*
X140061804Y-72128663D01*
X140062075Y-71943505D01*
X140026949Y-71760499D01*
X139957268Y-71586632D01*
X139853874Y-71428893D01*
X139820738Y-71390469D01*
X139745447Y-71322896D01*
X139645381Y-71253125D01*
X139536295Y-71191184D01*
X139443621Y-71150486D01*
X139342563Y-71126431D01*
X139217155Y-71114484D01*
X139083607Y-71114631D01*
X138958130Y-71126860D01*
X138857493Y-71150956D01*
X138681192Y-71236487D01*
X138527736Y-71356880D01*
X138399368Y-71510012D01*
X138309438Y-71669091D01*
X138278399Y-71739993D01*
X138258946Y-71799534D01*
X138248424Y-71861964D01*
X138244178Y-71941535D01*
X138243514Y-72022916D01*
X138046513Y-72022916D01*
X138057273Y-71857007D01*
X138109448Y-71663014D01*
X138199586Y-71477444D01*
X138326322Y-71304689D01*
X138387754Y-71239367D01*
X138556819Y-71099106D01*
X138740268Y-70997875D01*
X138934857Y-70936218D01*
X139137340Y-70914677D01*
X139344474Y-70933793D01*
X139553014Y-70994111D01*
X139637289Y-71030459D01*
X139784500Y-71118595D01*
X139923656Y-71235991D01*
X140043681Y-71371713D01*
X140133499Y-71514826D01*
X140138683Y-71525500D01*
X140217261Y-71735382D01*
X140254553Y-71944765D01*
X140251066Y-72150517D01*
X140207307Y-72349507D01*
X140123780Y-72538603D01*
X140000993Y-72714674D01*
X139934798Y-72787071D01*
X139790706Y-72913418D01*
X139635965Y-73008036D01*
X139458654Y-73077621D01*
X139377082Y-73100364D01*
X139209445Y-73127883D01*
X139042199Y-73123163D01*
X138883983Y-73092196D01*
X138689453Y-73020156D01*
X138512125Y-72912344D01*
X138356441Y-72773353D01*
X138226841Y-72607774D01*
X138127763Y-72420200D01*
X138072285Y-72252694D01*
X138044430Y-72055031D01*
X138046513Y-72022916D01*
G37*
G36*
X140713195Y-72022916D02*
G01*
X140908690Y-72022916D01*
X140921076Y-72198533D01*
X140959849Y-72349753D01*
X141029253Y-72486184D01*
X141133537Y-72617432D01*
X141201574Y-72685520D01*
X141322926Y-72781768D01*
X141460538Y-72861322D01*
X141598419Y-72915396D01*
X141638333Y-72925529D01*
X141721045Y-72934724D01*
X141826571Y-72934632D01*
X141938561Y-72926432D01*
X142040666Y-72911304D01*
X142114760Y-72891142D01*
X142298587Y-72798403D01*
X142453455Y-72679106D01*
X142576941Y-72536906D01*
X142666624Y-72375458D01*
X142720081Y-72198417D01*
X142734891Y-72009438D01*
X142732163Y-71959416D01*
X142696139Y-71761208D01*
X142623433Y-71582005D01*
X142516587Y-71425133D01*
X142378142Y-71293916D01*
X142210641Y-71191679D01*
X142114583Y-71151674D01*
X142006254Y-71125559D01*
X141875963Y-71113149D01*
X141739662Y-71114386D01*
X141613303Y-71129211D01*
X141521916Y-71153867D01*
X141335975Y-71247013D01*
X141179713Y-71370340D01*
X141053369Y-71523610D01*
X140957182Y-71706582D01*
X140949201Y-71726583D01*
X140924840Y-71808711D01*
X140911973Y-71906001D01*
X140908690Y-72022916D01*
X140713195Y-72022916D01*
X140712228Y-71947734D01*
X140740726Y-71785037D01*
X140746787Y-71762385D01*
X140804925Y-71591623D01*
X140880507Y-71447231D01*
X140982384Y-71314123D01*
X141053737Y-71239367D01*
X141221887Y-71100454D01*
X141404613Y-70999150D01*
X141598160Y-70936544D01*
X141798773Y-70913729D01*
X142002698Y-70931792D01*
X142065248Y-70945672D01*
X142278182Y-71019758D01*
X142464494Y-71126390D01*
X142622581Y-71263964D01*
X142750837Y-71430876D01*
X142847660Y-71625521D01*
X142895494Y-71775917D01*
X142925477Y-71977361D01*
X142913777Y-72182027D01*
X142860288Y-72390823D01*
X142807219Y-72520333D01*
X142752874Y-72610112D01*
X142672010Y-72710816D01*
X142574759Y-72812181D01*
X142471249Y-72903939D01*
X142371610Y-72975825D01*
X142339374Y-72994471D01*
X142150606Y-73073828D01*
X141952373Y-73118231D01*
X141753470Y-73126614D01*
X141562691Y-73097912D01*
X141539019Y-73091423D01*
X141362214Y-73025508D01*
X141206190Y-72933525D01*
X141058248Y-72807855D01*
X141045714Y-72795452D01*
X140920198Y-72652260D01*
X140828540Y-72503845D01*
X140763040Y-72336913D01*
X140746877Y-72279457D01*
X140714278Y-72107102D01*
X140713195Y-72022916D01*
G37*
G36*
X143491049Y-71514651D02*
G01*
X143712666Y-71514651D01*
X143730573Y-71535033D01*
X143777566Y-71565029D01*
X143843552Y-71598218D01*
X143844958Y-71598853D01*
X143925075Y-71634990D01*
X144000458Y-71669044D01*
X144047470Y-71690326D01*
X144091290Y-71708053D01*
X144120510Y-71706868D01*
X144150309Y-71681672D01*
X144180878Y-71645521D01*
X144251097Y-71581926D01*
X144326518Y-71544160D01*
X144380468Y-71523721D01*
X144405674Y-71496129D01*
X144415051Y-71446695D01*
X144415360Y-71443103D01*
X144423933Y-71391678D01*
X144444157Y-71370343D01*
X144474666Y-71366750D01*
X144510673Y-71372824D01*
X144527701Y-71399149D01*
X144534020Y-71443900D01*
X144541914Y-71493505D01*
X144563044Y-71520658D01*
X144609899Y-71538412D01*
X144629270Y-71543462D01*
X144695785Y-71565093D01*
X144750622Y-71590971D01*
X144760416Y-71597461D01*
X144784941Y-71618612D01*
X144786934Y-71638195D01*
X144763480Y-71668347D01*
X144736819Y-71695714D01*
X144694369Y-71736126D01*
X144664892Y-71750108D01*
X144632034Y-71741758D01*
X144605579Y-71728606D01*
X144542385Y-71704712D01*
X144482676Y-71694833D01*
X144423889Y-71708395D01*
X144374227Y-71741826D01*
X144348599Y-71784240D01*
X144347666Y-71793405D01*
X144367292Y-71816369D01*
X144424813Y-71852354D01*
X144518199Y-71900313D01*
X144645418Y-71959201D01*
X144798150Y-72025322D01*
X144884215Y-72062486D01*
X144984504Y-72107027D01*
X145062733Y-72142614D01*
X145169526Y-72191576D01*
X145244430Y-72224651D01*
X145293799Y-72244105D01*
X145323987Y-72252200D01*
X145341350Y-72251203D01*
X145350509Y-72245154D01*
X145361303Y-72216148D01*
X145371711Y-72157552D01*
X145379458Y-72082292D01*
X145372777Y-71891134D01*
X145326893Y-71709179D01*
X145244709Y-71541287D01*
X145129131Y-71392318D01*
X144983066Y-71267134D01*
X144843813Y-71186227D01*
X144675889Y-71128472D01*
X144495277Y-71105910D01*
X144312143Y-71118097D01*
X144136651Y-71164591D01*
X144015078Y-71222342D01*
X143955547Y-71263101D01*
X143888577Y-71317852D01*
X143822488Y-71378552D01*
X143765604Y-71437156D01*
X143726246Y-71485620D01*
X143712666Y-71514651D01*
X143491049Y-71514651D01*
X143526340Y-71447231D01*
X143628217Y-71314123D01*
X143699570Y-71239367D01*
X143867720Y-71100454D01*
X144050446Y-70999150D01*
X144243993Y-70936544D01*
X144444606Y-70913729D01*
X144648531Y-70931792D01*
X144711082Y-70945672D01*
X144924016Y-71019758D01*
X145110328Y-71126390D01*
X145268414Y-71263964D01*
X145396670Y-71430876D01*
X145493493Y-71625521D01*
X145541327Y-71775917D01*
X145571310Y-71977361D01*
X145559611Y-72182027D01*
X145506121Y-72390823D01*
X145453052Y-72520333D01*
X145398707Y-72610112D01*
X145317844Y-72710816D01*
X145220592Y-72812181D01*
X145117082Y-72903939D01*
X145017443Y-72975825D01*
X144985207Y-72994471D01*
X144796439Y-73073828D01*
X144598206Y-73118231D01*
X144399303Y-73126614D01*
X144208524Y-73097912D01*
X144184852Y-73091423D01*
X144008047Y-73025508D01*
X143852023Y-72933525D01*
X143704081Y-72807855D01*
X143691547Y-72795452D01*
X143568555Y-72655830D01*
X143478143Y-72511497D01*
X143411736Y-72347827D01*
X143393789Y-72287665D01*
X143358715Y-72103613D01*
X143359434Y-72013184D01*
X143554806Y-72013184D01*
X143554846Y-72033500D01*
X143568431Y-72207907D01*
X143609921Y-72359717D01*
X143683340Y-72497900D01*
X143792713Y-72631426D01*
X143847407Y-72685520D01*
X143994265Y-72799363D01*
X144157378Y-72882693D01*
X144287898Y-72922294D01*
X144396998Y-72933920D01*
X144526158Y-72930641D01*
X144656369Y-72913854D01*
X144761119Y-72887554D01*
X144909741Y-72821823D01*
X145041051Y-72734036D01*
X145059595Y-72718264D01*
X145104337Y-72674191D01*
X145154840Y-72617842D01*
X145202747Y-72559480D01*
X145239703Y-72509367D01*
X145257351Y-72477766D01*
X145257833Y-72474793D01*
X145239806Y-72457510D01*
X145191739Y-72429047D01*
X145122655Y-72394543D01*
X145093791Y-72381372D01*
X145013604Y-72345136D01*
X144945162Y-72313259D01*
X144900237Y-72291252D01*
X144893189Y-72287447D01*
X144863710Y-72280298D01*
X144838678Y-72303710D01*
X144824419Y-72328860D01*
X144771228Y-72398842D01*
X144695000Y-72461445D01*
X144613808Y-72502469D01*
X144597647Y-72507054D01*
X144558377Y-72523637D01*
X144539921Y-72557966D01*
X144534147Y-72599792D01*
X144525881Y-72652436D01*
X144506941Y-72674829D01*
X144474666Y-72679083D01*
X144438933Y-72673163D01*
X144421879Y-72647348D01*
X144415223Y-72600435D01*
X144406767Y-72547640D01*
X144384102Y-72521907D01*
X144333535Y-72508232D01*
X144330557Y-72507691D01*
X144224455Y-72477966D01*
X144141642Y-72428247D01*
X144130190Y-72418613D01*
X144109243Y-72396136D01*
X144110227Y-72374280D01*
X144136572Y-72340852D01*
X144158559Y-72317813D01*
X144224488Y-72249791D01*
X144312535Y-72300140D01*
X144398790Y-72339786D01*
X144471948Y-72348323D01*
X144545868Y-72327284D01*
X144548261Y-72326204D01*
X144594582Y-72288889D01*
X144617465Y-72238273D01*
X144612005Y-72189256D01*
X144599119Y-72171808D01*
X144567431Y-72151470D01*
X144507259Y-72120187D01*
X144429186Y-72083321D01*
X144390000Y-72065888D01*
X144296507Y-72024913D01*
X144205253Y-71984593D01*
X144131999Y-71951901D01*
X144114833Y-71944143D01*
X144036075Y-71908797D01*
X143955762Y-71873385D01*
X143934916Y-71864335D01*
X143861760Y-71832247D01*
X143778875Y-71795182D01*
X143750869Y-71782480D01*
X143687402Y-71756287D01*
X143636161Y-71739922D01*
X143618981Y-71737166D01*
X143590220Y-71753128D01*
X143570309Y-71802732D01*
X143558691Y-71888558D01*
X143554806Y-72013184D01*
X143359434Y-72013184D01*
X143360119Y-71926948D01*
X143392621Y-71762385D01*
X143450759Y-71591623D01*
X143491049Y-71514651D01*
G37*
%TO.C,EC8*%
X150429344Y-108592000D02*
X150710504Y-108592000D01*
X150429344Y-109612000D02*
X150710504Y-109612000D01*
%TO.C,EC5*%
X152471176Y-114507000D02*
X151948672Y-114507000D01*
X152471176Y-113037000D02*
X151948672Y-113037000D01*
%TD*%
%LPC*%
D22*
%TO.C,L1*%
X151640000Y-121300000D03*
X149515000Y-121300000D03*
%TD*%
D23*
%TO.C,ER2*%
X138574924Y-118422000D03*
X140224924Y-118422000D03*
%TD*%
D24*
%TO.C,AR1*%
X117849924Y-97509500D03*
X117849924Y-99334500D03*
%TD*%
D25*
%TO.C,EC15*%
X142670000Y-120765000D03*
X142670000Y-122315000D03*
%TD*%
D26*
%TO.C,AL1*%
X116259924Y-107830000D03*
X116259924Y-105030000D03*
%TD*%
D27*
%TO.C,AC1*%
X119320000Y-107650000D03*
X119320000Y-105750000D03*
%TD*%
D28*
%TO.C,TP3*%
X121710000Y-103190000D03*
%TD*%
D29*
%TO.C,ER5*%
X141629924Y-74172000D03*
X141629924Y-75822000D03*
%TD*%
D30*
%TO.C,RQ1*%
X115952500Y-77850000D03*
X115952500Y-79750000D03*
X118227500Y-78800000D03*
%TD*%
D31*
%TO.C,EC19*%
X143214924Y-85547000D03*
X141664924Y-85547000D03*
%TD*%
%TO.C,ATH20_C1*%
X120120000Y-114650000D03*
X118570000Y-114650000D03*
%TD*%
D32*
%TO.C,ER1*%
X152529924Y-119337000D03*
X152529924Y-117687000D03*
%TD*%
D33*
%TO.C,EC3*%
X153199924Y-111902000D03*
X151299924Y-111902000D03*
%TD*%
D32*
%TO.C,ER4*%
X141599924Y-78672000D03*
X141599924Y-77022000D03*
%TD*%
D31*
%TO.C,IMUC1*%
X143654924Y-103812000D03*
X142104924Y-103812000D03*
%TD*%
D34*
%TO.C,HLD1*%
X151617424Y-82492000D03*
X148642424Y-82492000D03*
%TD*%
D35*
%TO.C,AR2*%
X115670000Y-99272500D03*
X115670000Y-97447500D03*
%TD*%
D36*
%TO.C,AU1*%
X115734924Y-101192000D03*
X115734924Y-102142000D03*
X115734924Y-103092000D03*
X118604924Y-103092000D03*
X118604924Y-102142000D03*
X118604924Y-101192000D03*
D37*
X117169924Y-102142000D03*
%TD*%
D38*
%TO.C,EC10*%
X149995000Y-122810000D03*
X151545000Y-122810000D03*
%TD*%
D39*
%TO.C,EC1*%
X151159924Y-119277000D03*
X151159924Y-117727000D03*
%TD*%
%TO.C,AUC1*%
X140689924Y-105547000D03*
X140689924Y-103997000D03*
%TD*%
D40*
%TO.C,PWR_FUSE1*%
X156370000Y-83650000D03*
X156370000Y-86625000D03*
%TD*%
D41*
%TO.C,ACS1*%
X137604924Y-80132000D03*
X137604924Y-81402000D03*
X137604924Y-82672000D03*
X137604924Y-83942000D03*
X142554924Y-83942000D03*
X142554924Y-82672000D03*
X142554924Y-81402000D03*
X142554924Y-80132000D03*
%TD*%
D42*
%TO.C,ECY1*%
X146089924Y-102062000D03*
X146089924Y-104262000D03*
X147789924Y-104262000D03*
X147789924Y-102062000D03*
%TD*%
D27*
%TO.C,EC4*%
X144210000Y-121800000D03*
X144210000Y-119900000D03*
%TD*%
%TO.C,HLC1*%
X146189924Y-83532000D03*
X146189924Y-81632000D03*
%TD*%
D42*
%TO.C,ECY2*%
X140759924Y-122512000D03*
X140759924Y-120312000D03*
X139059924Y-120312000D03*
X139059924Y-122512000D03*
%TD*%
D23*
%TO.C,RR1*%
X116395000Y-80990000D03*
X118045000Y-80990000D03*
%TD*%
D28*
%TO.C,TP2*%
X121790000Y-105970000D03*
%TD*%
D25*
%TO.C,EC18*%
X143039924Y-76582000D03*
X143039924Y-78132000D03*
%TD*%
D34*
%TO.C,HLD3*%
X118145000Y-76180000D03*
X115170000Y-76180000D03*
%TD*%
D43*
%TO.C,U1*%
X139284924Y-100719500D03*
X138014924Y-100719500D03*
X136744924Y-100719500D03*
X135474924Y-100719500D03*
X135474924Y-105659500D03*
X136744924Y-105659500D03*
X138014924Y-105659500D03*
X139284924Y-105659500D03*
%TD*%
D31*
%TO.C,EC17*%
X137200000Y-120480000D03*
X135650000Y-120480000D03*
%TD*%
D44*
%TO.C,ESP32S1*%
X145687126Y-118216208D03*
X145969969Y-117933365D03*
X146252811Y-117650523D03*
X146535654Y-117367680D03*
X146818497Y-117084837D03*
X147101339Y-116801995D03*
X147384182Y-116519152D03*
X147667025Y-116236309D03*
X147949868Y-115953466D03*
X148232710Y-115670624D03*
X148515553Y-115387781D03*
X148798396Y-115104938D03*
X149081238Y-114822096D03*
X149364081Y-114539253D03*
D45*
X149364081Y-113354849D03*
X149081238Y-113072006D03*
X148798396Y-112789164D03*
X148515553Y-112506321D03*
X148232710Y-112223478D03*
X147949868Y-111940636D03*
X147667025Y-111657793D03*
X147384182Y-111374950D03*
X147101339Y-111092107D03*
X146818497Y-110809265D03*
X146535654Y-110526422D03*
X146252811Y-110243579D03*
X145969969Y-109960737D03*
X145687126Y-109677894D03*
D44*
X144502722Y-109677894D03*
X144219879Y-109960737D03*
X143937037Y-110243579D03*
X143654194Y-110526422D03*
X143371351Y-110809265D03*
X143088509Y-111092107D03*
X142805666Y-111374950D03*
X142522823Y-111657793D03*
X142239980Y-111940636D03*
X141957138Y-112223478D03*
X141674295Y-112506321D03*
X141391452Y-112789164D03*
X141108610Y-113072006D03*
X140825767Y-113354849D03*
D45*
X140825767Y-114539253D03*
X141108610Y-114822096D03*
X141391452Y-115104938D03*
X141674295Y-115387781D03*
X141957138Y-115670624D03*
X142239980Y-115953466D03*
X142522823Y-116236309D03*
X142805666Y-116519152D03*
X143088509Y-116801995D03*
X143371351Y-117084837D03*
X143654194Y-117367680D03*
X143937037Y-117650523D03*
X144219879Y-117933365D03*
X144502722Y-118216208D03*
D46*
X145094924Y-113947051D03*
%TD*%
D23*
%TO.C,ER3*%
X135570000Y-119000000D03*
X137220000Y-119000000D03*
%TD*%
D47*
%TO.C,DS1*%
X157422424Y-111422000D03*
X155597424Y-111422000D03*
%TD*%
D31*
%TO.C,EC11*%
X140210000Y-116930000D03*
X138660000Y-116930000D03*
%TD*%
D25*
%TO.C,EC7*%
X153010000Y-121347000D03*
X153010000Y-122897000D03*
%TD*%
D27*
%TO.C,AC2*%
X122369924Y-100372000D03*
X122369924Y-98472000D03*
%TD*%
D48*
%TO.C,*%
X154280000Y-113210000D03*
%TD*%
D49*
%TO.C,*%
X134245000Y-111505000D03*
%TD*%
D27*
%TO.C,EC2*%
X146030000Y-122890000D03*
X146030000Y-120990000D03*
%TD*%
D50*
%TO.C,BZ1*%
X157574924Y-79547000D03*
X157574924Y-72147000D03*
X150174924Y-72147000D03*
%TD*%
D23*
%TO.C,IMR2*%
X142080000Y-105362000D03*
X143730000Y-105362000D03*
%TD*%
%TO.C,IMR1*%
X142124924Y-106982000D03*
X143774924Y-106982000D03*
%TD*%
D31*
%TO.C,EC13*%
X146584924Y-107422000D03*
X145034924Y-107422000D03*
%TD*%
D51*
%TO.C,HLL1*%
X147859924Y-85792000D03*
X145059924Y-85792000D03*
%TD*%
D38*
%TO.C,EC12*%
X146164924Y-100392000D03*
X147714924Y-100392000D03*
%TD*%
D47*
%TO.C,HLR2*%
X146432424Y-79482000D03*
X144607424Y-79482000D03*
%TD*%
D52*
%TO.C,REF\u002A\u002A*%
X141050000Y-98980000D03*
%TD*%
D28*
%TO.C,TP1*%
X121780000Y-109170000D03*
%TD*%
D53*
%TO.C,*%
X151615000Y-123965000D03*
%TD*%
D31*
%TO.C,EC14*%
X147604924Y-105962000D03*
X146054924Y-105962000D03*
%TD*%
D54*
%TO.C,EC16*%
X149589924Y-107422000D03*
X151489924Y-107422000D03*
%TD*%
D55*
%TO.C,U3*%
X143679924Y-99959500D03*
X143179924Y-99959500D03*
X142679924Y-99959500D03*
X142179924Y-99959500D03*
D56*
X142017424Y-100622000D03*
X142017424Y-101122000D03*
X142017424Y-101622000D03*
D55*
X142179924Y-102284500D03*
X142679924Y-102284500D03*
X143179924Y-102284500D03*
X143679924Y-102284500D03*
D56*
X143842424Y-101622000D03*
X143842424Y-101122000D03*
X143842424Y-100622000D03*
%TD*%
D57*
%TO.C,REF\u002A\u002A*%
X140715152Y-124004949D03*
%TD*%
D38*
%TO.C,EC8*%
X149794924Y-109102000D03*
X151344924Y-109102000D03*
%TD*%
D33*
%TO.C,EC5*%
X153159924Y-113772000D03*
X151259924Y-113772000D03*
%TD*%
D58*
%TO.C,HLV1*%
X151019924Y-101002000D03*
X156019924Y-99702000D03*
%TD*%
D59*
%TO.C,Relay1*%
X124194924Y-71607000D03*
D60*
X130244924Y-73557000D03*
D59*
X130244924Y-85757000D03*
X118194924Y-85807000D03*
D60*
X118244924Y-73557000D03*
%TD*%
D61*
%TO.C,PF1*%
X151579924Y-96952000D03*
X150379924Y-91852000D03*
%TD*%
D62*
%TO.C,J3*%
X143677924Y-92956000D03*
D63*
X135422924Y-92956000D03*
X127167924Y-92956000D03*
X118912924Y-92956000D03*
%TD*%
D64*
%TO.C,HLL2*%
X166205549Y-101650750D03*
D65*
X159138049Y-101578250D03*
X166135549Y-93522750D03*
X159088049Y-93445250D03*
%TD*%
D66*
%TO.C,HiLink1*%
X165422424Y-77622000D03*
D67*
X165422424Y-82622000D03*
X136022424Y-72422000D03*
X136022424Y-87822000D03*
%TD*%
D68*
%TO.C,TEMPDS1*%
X156040000Y-120890000D03*
D69*
X156040000Y-118350000D03*
X156040000Y-115810000D03*
%TD*%
D65*
%TO.C,HLC2*%
X156390000Y-107740000D03*
X166390000Y-107740000D03*
%TD*%
D70*
X116034099Y-112111772D02*
X116052969Y-116354114D01*
X116053012Y-116354114D02*
G75*
G03*
X116483456Y-116764113I410688J214D01*
G01*
X122643533Y-112108968D02*
G75*
G03*
X122213106Y-111698969I-410133J368D01*
G01*
X133166963Y-90296963D02*
X133169024Y-85632061D01*
X149514022Y-102110000D02*
X149514022Y-99850000D01*
X133983518Y-104398103D02*
X133983518Y-117967975D01*
X138475031Y-75704054D02*
G75*
G03*
X137833206Y-76074610I-320931J-185246D01*
G01*
X121850193Y-112910000D02*
G75*
G03*
X121419756Y-112500002I-410293J200D01*
G01*
X118920000Y-95070000D02*
X136210000Y-95070000D01*
X133580000Y-90710000D02*
X137060000Y-90710871D01*
X114049965Y-118009947D02*
X114031486Y-76477000D01*
X139031575Y-92830000D02*
G75*
G03*
X138428425Y-92830000I-301575J0D01*
G01*
X124690000Y-104455063D02*
X124690000Y-118024935D01*
X117263698Y-112493958D02*
X121419756Y-112500001D01*
X116810000Y-92960000D02*
X116810000Y-90660000D01*
X116843168Y-115784446D02*
G75*
G03*
X117273699Y-116194445I410532J46D01*
G01*
X128063037Y-70017000D02*
G75*
G03*
X127650000Y-70430000I-37J-413000D01*
G01*
X153640000Y-105505978D02*
X151100000Y-102965978D01*
X122240273Y-116774315D02*
X121440275Y-116774758D01*
X133983533Y-104398077D02*
G75*
G03*
X124690000Y-104455064I-4596133J-8285823D01*
G01*
X150395978Y-103310000D02*
X153115978Y-106030000D01*
X137060000Y-90710809D02*
G75*
G03*
X137060000Y-89969791I0J370509D01*
G01*
X139007938Y-85220975D02*
G75*
G03*
X139420975Y-84807938I-38J413075D01*
G01*
X117273699Y-116768755D02*
G75*
G03*
X117273699Y-116194445I1J287155D01*
G01*
X150560000Y-102425978D02*
X149830000Y-102425978D01*
X134332062Y-85960000D02*
X139817938Y-85960975D01*
X126898920Y-75336963D02*
G75*
G03*
X127640000Y-75336963I370540J0D01*
G01*
X134332062Y-89980000D02*
X137060000Y-89969791D01*
X140230000Y-78840000D02*
X138475001Y-75704071D01*
X133582061Y-85219024D02*
G75*
G03*
X133169024Y-85632061I39J-413076D01*
G01*
X133919025Y-89566963D02*
X133919025Y-86373037D01*
X116810000Y-90660000D02*
G75*
G03*
X116068920Y-90660000I-370540J0D01*
G01*
X126903000Y-70403037D02*
G75*
G03*
X126490000Y-69990000I-413000J37D01*
G01*
X149514022Y-99850000D02*
G75*
G03*
X148772942Y-99850000I-370540J0D01*
G01*
X139420975Y-84807938D02*
X139440000Y-78900000D01*
X168031605Y-76476965D02*
G75*
G03*
X161631486Y-70076895I-6400005J65D01*
G01*
X139440000Y-78900000D02*
X137833206Y-76074610D01*
X120431556Y-70076930D02*
X120597938Y-70076930D01*
X136170000Y-95760833D02*
G75*
G03*
X139031574Y-92830000I-23700J2885533D01*
G01*
X122240273Y-116774368D02*
G75*
G03*
X122650272Y-116343828I127J410368D01*
G01*
X126490000Y-69990000D02*
X122160000Y-69990000D01*
X127650000Y-70430000D02*
X127640000Y-75336963D01*
X116810000Y-92960000D02*
G75*
G03*
X118920000Y-95070000I2110000J0D01*
G01*
X168050035Y-118009912D02*
X168031556Y-76476965D01*
X133167000Y-90296963D02*
G75*
G03*
X133580000Y-90710000I413000J-37D01*
G01*
X122649754Y-116343828D02*
X122643593Y-112108968D01*
X118880000Y-95760871D02*
X136170000Y-95760871D01*
X122160000Y-69989963D02*
G75*
G03*
X121746963Y-70403037I0J-413037D01*
G01*
X140230975Y-85547938D02*
X140230000Y-78840000D01*
X150395978Y-103310000D02*
X149520000Y-103307058D01*
X120431556Y-70076886D02*
G75*
G03*
X114031486Y-76477000I44J-6400114D01*
G01*
X116483456Y-116764113D02*
X117273699Y-116768716D01*
X148772942Y-102560000D02*
X149520000Y-103307058D01*
X128063037Y-70016963D02*
X161631486Y-70076895D01*
X116843212Y-115784446D02*
X116853699Y-112924445D01*
X136210000Y-95070029D02*
G75*
G03*
X138428425Y-92830000I0J2218529D01*
G01*
X117263698Y-112494005D02*
G75*
G03*
X116853700Y-112924445I-198J-410295D01*
G01*
X121005883Y-76300000D02*
G75*
G03*
X121746963Y-76300000I370540J0D01*
G01*
X151100000Y-102965978D02*
X150560000Y-102425978D01*
X133919100Y-89566963D02*
G75*
G03*
X134332062Y-89980000I413000J-37D01*
G01*
X134332062Y-85960025D02*
G75*
G03*
X133919025Y-86373037I-62J-412975D01*
G01*
X120450035Y-124410017D02*
X161649965Y-124409982D01*
X121440275Y-116200442D02*
G75*
G03*
X121440275Y-116774758I25J-287158D01*
G01*
X139007938Y-85220975D02*
X133582061Y-85219024D01*
X149830000Y-102425978D02*
X149514022Y-102110000D01*
X122213106Y-111698969D02*
X116444098Y-111681285D01*
X116444098Y-111681308D02*
G75*
G03*
X116034099Y-112111772I-98J-410392D01*
G01*
X121849756Y-115770000D02*
X121850243Y-112910000D01*
X148772942Y-99850000D02*
X148772942Y-102560000D01*
X121010975Y-70489967D02*
X121005883Y-76300000D01*
X121010970Y-70489967D02*
G75*
G03*
X120597938Y-70076930I-413070J-33D01*
G01*
X126903037Y-70403037D02*
X126898920Y-75336963D01*
X124690024Y-118024892D02*
G75*
G03*
X133983518Y-117967974I4596176J8285692D01*
G01*
X116069129Y-92950000D02*
X116068920Y-90660000D01*
X116069129Y-92950000D02*
G75*
G03*
X118880000Y-95760871I2810871J0D01*
G01*
X114049983Y-118009947D02*
G75*
G03*
X120450035Y-124410017I6400217J147D01*
G01*
X139817938Y-85960975D02*
G75*
G03*
X140230975Y-85547938I-38J413075D01*
G01*
X161649965Y-124410035D02*
G75*
G03*
X168050035Y-118009912I-65J6400135D01*
G01*
X121440275Y-116200461D02*
G75*
G03*
X121850273Y-115770000I25J410461D01*
G01*
X153115978Y-106030000D02*
G75*
G03*
X153640000Y-105505978I262011J262011D01*
G01*
X121746963Y-70403037D02*
X121746963Y-76300000D01*
M02*
