M48
; DRILL file {KiCad 7.0.1} date Mon Apr  3 11:39:20 2023
; FORMAT={-:-/ absolute / inch / decimal}
; #@! TF.CreationDate,2023-04-03T11:39:20+02:00
; #@! TF.GenerationSoftware,Kicad,Pcbnew,7.0.1
; #@! TF.FileFunction,Plated,1,2,PTH
FMAT,2
INCH
; #@! TA.AperFunction,Plated,PTH,ViaDrill
T1C0.0157
; #@! TA.AperFunction,Plated,PTH,ComponentDrill
T2C0.0236
; #@! TA.AperFunction,Plated,PTH,ComponentDrill
T3C0.0394
; #@! TA.AperFunction,Plated,PTH,ComponentDrill
T4C0.0398
; #@! TA.AperFunction,Plated,PTH,ComponentDrill
T5C0.0433
; #@! TA.AperFunction,Plated,PTH,ComponentDrill
T6C0.0512
; #@! TA.AperFunction,Plated,PTH,ComponentDrill
T7C0.0720
%
G90
G05
T1
X4.5165Y-3.7579
X4.6Y-4.6325
X4.613Y-4.0213
X4.639Y-4.2394
X4.6539Y-4.3264
X4.6823Y-3.9422
X4.6823Y-4.5787
X4.7339Y-4.6673
X4.7516Y-3.9299
X5.0426Y-3.8981
X5.0969Y-3.9012
X5.1421Y-3.9012
X5.1831Y-3.9012
X5.2531Y-3.8795
X5.3008Y-3.0213
X5.3157Y-3.0567
X5.3386Y-3.0264
X5.3394Y-4.6462
X5.3453Y-3.0886
X5.3748Y-3.0547
X5.3894Y-3.0976
X5.4055Y-4.6462
X5.4598Y-3.7702
X5.4752Y-4.6851
X5.4764Y-4.076
X5.5091Y-4.0276
X5.5146Y-3.7791
X5.5193Y-3.9575
X5.5335Y-3.0083
X5.5488Y-4.5732
X5.5559Y-3.9331
X5.5587Y-4.6634
X5.5594Y-4.71
X5.6088Y-4.6565
X5.627Y-3.1182
X5.6275Y-3.9818
X5.6467Y-4.5348
X5.653Y-4.4376
X5.6591Y-3.4135
X5.6864Y-4.5762
X5.6899Y-4.1101
X5.6907Y-3.0493
X5.7004Y-4.483
X5.701Y-4.0082
X5.7053Y-4.6738
X5.7063Y-3.9374
X5.7065Y-4.3998
X5.7065Y-4.0785
X5.7068Y-3.9728
X5.7396Y-4.5274
X5.7482Y-4.4352
X5.7896Y-4.4738
X5.8083Y-4.2414
X5.8094Y-4.8401
X5.8272Y-3.052
X5.8281Y-4.3024
X5.8394Y-4.3362
X5.8439Y-4.2414
X5.8532Y-4.366
X5.8848Y-4.3754
X5.8969Y-4.696
X5.9055Y-4.5654
X5.9075Y-4.3382
X5.9075Y-4.6319
X5.9114Y-4.4799
X5.9142Y-4.4462
X5.9172Y-4.4148
X5.9322Y-4.741
X5.9449Y-4.5689
X5.9725Y-4.7297
X5.9783Y-4.5839
X5.9863Y-4.5463
X6.0289Y-4.7368
X6.0307Y-3.293
X6.0374Y-3.9063
X6.0405Y-4.355
X6.0524Y-3.4127
X6.063Y-4.804
X6.0878Y-3.1808
X6.126Y-4.4379
X6.1303Y-3.2304
X6.1968Y-4.3367
X6.3815Y-4.8189
X6.4285Y-4.6211
X6.4961Y-4.6098
X6.5039Y-4.7071
X6.5142Y-4.7744
X6.5193Y-4.4559
T2
X5.9457Y-3.9765
X6.1425Y-3.9253
T3
X4.6553Y-2.8959
X5.1278Y-2.8959
X5.3552Y-2.8513
X5.3552Y-3.4576
X6.1571Y-4.2417
X6.2633Y-3.6789
X6.2653Y-3.9991
X6.5127Y-3.056
X6.5127Y-3.2528
X6.5408Y-3.682
X6.5435Y-4.002
X6.5508Y-4.2417
T4
X5.9205Y-3.6162
X5.9677Y-3.817
T5
X6.1433Y-4.5594
X6.1433Y-4.6594
X6.1433Y-4.7594
T6
X4.6533Y-3.3782
X4.8896Y-2.8192
X5.1278Y-3.3763
T7
X4.6816Y-3.6597
X5.0066Y-3.6597
X5.3316Y-3.6597
X5.6566Y-3.6597
T0
M30
