%TF.GenerationSoftware,KiCad,Pcbnew,7.0.1*%
%TF.CreationDate,2023-04-03T11:39:19+02:00*%
%TF.ProjectId,smart_power_socket-54x54x1.6mm_3Cu,736d6172-745f-4706-9f77-65725f736f63,rev?*%
%TF.SameCoordinates,Original*%
%TF.FileFunction,Drillmap*%
%TF.FilePolarity,Positive*%
%FSLAX45Y45*%
G04 Gerber Fmt 4.5, Leading zero omitted, Abs format (unit mm)*
G04 Created by KiCad (PCBNEW 7.0.1) date 2023-04-03 11:39:19*
%MOMM*%
%LPD*%
G01*
G04 APERTURE LIST*
%ADD10C,0.100000*%
%ADD11C,0.200000*%
G04 APERTURE END LIST*
D10*
X11603410Y-11211177D02*
X11605297Y-11635411D01*
X11605301Y-11635411D02*
G75*
G03*
X11648346Y-11676411I41069J21D01*
G01*
X12264353Y-11210897D02*
G75*
G03*
X12221311Y-11169897I-41013J37D01*
G01*
X13316696Y-9029696D02*
X13316902Y-8563206D01*
X14951402Y-10211000D02*
X14951402Y-9985000D01*
X13398352Y-10439810D02*
X13398352Y-11796797D01*
X13847503Y-7570405D02*
G75*
G03*
X13783321Y-7607461I-32093J-18525D01*
G01*
X12185019Y-11291000D02*
G75*
G03*
X12141976Y-11250000I-41029J20D01*
G01*
X11892000Y-9507000D02*
X13621000Y-9507000D01*
X13358000Y-9071000D02*
X13706000Y-9071087D01*
X11404996Y-11800995D02*
X11403149Y-7647700D01*
X13903157Y-9283000D02*
G75*
G03*
X13842842Y-9283000I-30158J0D01*
G01*
X12469000Y-10445506D02*
X12469000Y-11802493D01*
X11726370Y-11249396D02*
X12141976Y-11250000D01*
X11681000Y-9296000D02*
X11681000Y-9066000D01*
X11684317Y-11578445D02*
G75*
G03*
X11727370Y-11619444I41053J5D01*
G01*
X12806304Y-7001700D02*
G75*
G03*
X12765000Y-7043000I-4J-41300D01*
G01*
X15364000Y-10550598D02*
X15110000Y-10296598D01*
X12224027Y-11677431D02*
X12144027Y-11677476D01*
X13398353Y-10439808D02*
G75*
G03*
X12469000Y-10445506I-459613J-828582D01*
G01*
X15039598Y-10331000D02*
X15311598Y-10603000D01*
X13706000Y-9071081D02*
G75*
G03*
X13706000Y-8996979I0J37051D01*
G01*
X13900794Y-8522098D02*
G75*
G03*
X13942097Y-8480794I-4J41308D01*
G01*
X11727370Y-11676875D02*
G75*
G03*
X11727370Y-11619444I0J28716D01*
G01*
X15056000Y-10242598D02*
X14983000Y-10242598D01*
X13433206Y-8596000D02*
X13981794Y-8596098D01*
X12689892Y-7533696D02*
G75*
G03*
X12764000Y-7533696I37054J0D01*
G01*
X13433206Y-8998000D02*
X13706000Y-8996979D01*
X14023000Y-7884000D02*
X13847500Y-7570407D01*
X13358206Y-8521902D02*
G75*
G03*
X13316902Y-8563206I4J-41308D01*
G01*
X13391902Y-8956696D02*
X13391902Y-8637304D01*
X11681000Y-9066000D02*
G75*
G03*
X11606892Y-9066000I-37054J0D01*
G01*
X12690300Y-7040304D02*
G75*
G03*
X12649000Y-6999000I-41300J4D01*
G01*
X14951402Y-9985000D02*
G75*
G03*
X14877294Y-9985000I-37054J0D01*
G01*
X13942097Y-8480794D02*
X13944000Y-7890000D01*
X16803161Y-7647696D02*
G75*
G03*
X16163149Y-7007689I-640001J7D01*
G01*
X13944000Y-7890000D02*
X13783321Y-7607461D01*
X12043156Y-7007693D02*
X12059794Y-7007693D01*
X13617000Y-9576083D02*
G75*
G03*
X13903157Y-9283000I-2370J288553D01*
G01*
X12224027Y-11677437D02*
G75*
G03*
X12265027Y-11634383I13J41037D01*
G01*
X12649000Y-6999000D02*
X12216000Y-6999000D01*
X12765000Y-7043000D02*
X12764000Y-7533696D01*
X11681000Y-9296000D02*
G75*
G03*
X11892000Y-9507000I211000J0D01*
G01*
X16805004Y-11800991D02*
X16803156Y-7647696D01*
X13316700Y-9029696D02*
G75*
G03*
X13358000Y-9071000I41300J-4D01*
G01*
X12264975Y-11634383D02*
X12264359Y-11210897D01*
X11888000Y-9576087D02*
X13617000Y-9576087D01*
X12216000Y-6998996D02*
G75*
G03*
X12174696Y-7040304I0J-41304D01*
G01*
X14023097Y-8554794D02*
X14023000Y-7884000D01*
X15039598Y-10331000D02*
X14952000Y-10330706D01*
X12043156Y-7007689D02*
G75*
G03*
X11403149Y-7647700I4J-640011D01*
G01*
X11648346Y-11676411D02*
X11727370Y-11676872D01*
X14877294Y-10256000D02*
X14952000Y-10330706D01*
X12806304Y-7001696D02*
X16163149Y-7007689D01*
X11684321Y-11578445D02*
X11685370Y-11292444D01*
X13621000Y-9507003D02*
G75*
G03*
X13842842Y-9283000I0J221853D01*
G01*
X11726370Y-11249400D02*
G75*
G03*
X11685370Y-11292444I-20J-41030D01*
G01*
X12100588Y-7630000D02*
G75*
G03*
X12174696Y-7630000I37054J0D01*
G01*
X15110000Y-10296598D02*
X15056000Y-10242598D01*
X13391910Y-8956696D02*
G75*
G03*
X13433206Y-8998000I41300J-4D01*
G01*
X13433206Y-8596003D02*
G75*
G03*
X13391902Y-8637304I-6J-41298D01*
G01*
X12045003Y-12441002D02*
X16164996Y-12440998D01*
X12144027Y-11620044D02*
G75*
G03*
X12144027Y-11677476I3J-28716D01*
G01*
X13900794Y-8522098D02*
X13358206Y-8521902D01*
X14983000Y-10242598D02*
X14951402Y-10211000D01*
X12221311Y-11169897D02*
X11644410Y-11168129D01*
X11644410Y-11168131D02*
G75*
G03*
X11603410Y-11211177I-10J-41039D01*
G01*
X12184976Y-11577000D02*
X12185024Y-11291000D01*
X14877294Y-9985000D02*
X14877294Y-10256000D01*
X12101097Y-7048997D02*
X12100588Y-7630000D01*
X12101097Y-7048997D02*
G75*
G03*
X12059794Y-7007693I-41307J-3D01*
G01*
X12690304Y-7040304D02*
X12689892Y-7533696D01*
X12469002Y-11802489D02*
G75*
G03*
X13398352Y-11796797I459618J828569D01*
G01*
X11606913Y-9295000D02*
X11606892Y-9066000D01*
X11606913Y-9295000D02*
G75*
G03*
X11888000Y-9576087I281087J0D01*
G01*
X11404998Y-11800995D02*
G75*
G03*
X12045003Y-12441002I640022J15D01*
G01*
X13981794Y-8596098D02*
G75*
G03*
X14023097Y-8554794I-4J41308D01*
G01*
X16164996Y-12441003D02*
G75*
G03*
X16805004Y-11800991I-7J640014D01*
G01*
X12144027Y-11620046D02*
G75*
G03*
X12185027Y-11577000I3J41046D01*
G01*
X15311598Y-10603000D02*
G75*
G03*
X15364000Y-10550598I26201J26201D01*
G01*
X12174696Y-7040304D02*
X12174696Y-7630000D01*
D11*
X11645768Y-12758525D02*
X11645768Y-12558525D01*
X11645768Y-12558525D02*
X11693387Y-12558525D01*
X11693387Y-12558525D02*
X11721958Y-12568049D01*
X11721958Y-12568049D02*
X11741006Y-12587097D01*
X11741006Y-12587097D02*
X11750529Y-12606144D01*
X11750529Y-12606144D02*
X11760053Y-12644240D01*
X11760053Y-12644240D02*
X11760053Y-12672811D01*
X11760053Y-12672811D02*
X11750529Y-12710906D01*
X11750529Y-12710906D02*
X11741006Y-12729954D01*
X11741006Y-12729954D02*
X11721958Y-12749002D01*
X11721958Y-12749002D02*
X11693387Y-12758525D01*
X11693387Y-12758525D02*
X11645768Y-12758525D01*
X11845768Y-12758525D02*
X11845768Y-12625192D01*
X11845768Y-12663287D02*
X11855291Y-12644240D01*
X11855291Y-12644240D02*
X11864815Y-12634716D01*
X11864815Y-12634716D02*
X11883863Y-12625192D01*
X11883863Y-12625192D02*
X11902910Y-12625192D01*
X11969577Y-12758525D02*
X11969577Y-12625192D01*
X11969577Y-12558525D02*
X11960053Y-12568049D01*
X11960053Y-12568049D02*
X11969577Y-12577573D01*
X11969577Y-12577573D02*
X11979101Y-12568049D01*
X11979101Y-12568049D02*
X11969577Y-12558525D01*
X11969577Y-12558525D02*
X11969577Y-12577573D01*
X12093387Y-12758525D02*
X12074339Y-12749002D01*
X12074339Y-12749002D02*
X12064815Y-12729954D01*
X12064815Y-12729954D02*
X12064815Y-12558525D01*
X12198148Y-12758525D02*
X12179101Y-12749002D01*
X12179101Y-12749002D02*
X12169577Y-12729954D01*
X12169577Y-12729954D02*
X12169577Y-12558525D01*
X12426720Y-12758525D02*
X12426720Y-12558525D01*
X12426720Y-12558525D02*
X12493387Y-12701383D01*
X12493387Y-12701383D02*
X12560053Y-12558525D01*
X12560053Y-12558525D02*
X12560053Y-12758525D01*
X12741006Y-12758525D02*
X12741006Y-12653764D01*
X12741006Y-12653764D02*
X12731482Y-12634716D01*
X12731482Y-12634716D02*
X12712434Y-12625192D01*
X12712434Y-12625192D02*
X12674339Y-12625192D01*
X12674339Y-12625192D02*
X12655291Y-12634716D01*
X12741006Y-12749002D02*
X12721958Y-12758525D01*
X12721958Y-12758525D02*
X12674339Y-12758525D01*
X12674339Y-12758525D02*
X12655291Y-12749002D01*
X12655291Y-12749002D02*
X12645768Y-12729954D01*
X12645768Y-12729954D02*
X12645768Y-12710906D01*
X12645768Y-12710906D02*
X12655291Y-12691859D01*
X12655291Y-12691859D02*
X12674339Y-12682335D01*
X12674339Y-12682335D02*
X12721958Y-12682335D01*
X12721958Y-12682335D02*
X12741006Y-12672811D01*
X12836244Y-12625192D02*
X12836244Y-12825192D01*
X12836244Y-12634716D02*
X12855291Y-12625192D01*
X12855291Y-12625192D02*
X12893387Y-12625192D01*
X12893387Y-12625192D02*
X12912434Y-12634716D01*
X12912434Y-12634716D02*
X12921958Y-12644240D01*
X12921958Y-12644240D02*
X12931482Y-12663287D01*
X12931482Y-12663287D02*
X12931482Y-12720430D01*
X12931482Y-12720430D02*
X12921958Y-12739478D01*
X12921958Y-12739478D02*
X12912434Y-12749002D01*
X12912434Y-12749002D02*
X12893387Y-12758525D01*
X12893387Y-12758525D02*
X12855291Y-12758525D01*
X12855291Y-12758525D02*
X12836244Y-12749002D01*
X13017196Y-12739478D02*
X13026720Y-12749002D01*
X13026720Y-12749002D02*
X13017196Y-12758525D01*
X13017196Y-12758525D02*
X13007672Y-12749002D01*
X13007672Y-12749002D02*
X13017196Y-12739478D01*
X13017196Y-12739478D02*
X13017196Y-12758525D01*
X13017196Y-12634716D02*
X13026720Y-12644240D01*
X13026720Y-12644240D02*
X13017196Y-12653764D01*
X13017196Y-12653764D02*
X13007672Y-12644240D01*
X13007672Y-12644240D02*
X13017196Y-12634716D01*
X13017196Y-12634716D02*
X13017196Y-12653764D01*
M02*
