%TF.GenerationSoftware,KiCad,Pcbnew,7.0.1*%
%TF.CreationDate,2023-04-03T11:39:16+02:00*%
%TF.ProjectId,smart_power_socket-54x54x1.6mm_3Cu,736d6172-745f-4706-9f77-65725f736f63,rev?*%
%TF.SameCoordinates,Original*%
%TF.FileFunction,Soldermask,Top*%
%TF.FilePolarity,Negative*%
%FSLAX46Y46*%
G04 Gerber Fmt 4.6, Leading zero omitted, Abs format (unit mm)*
G04 Created by KiCad (PCBNEW 7.0.1) date 2023-04-03 11:39:16*
%MOMM*%
%LPD*%
G01*
G04 APERTURE LIST*
G04 Aperture macros list*
%AMRoundRect*
0 Rectangle with rounded corners*
0 $1 Rounding radius*
0 $2 $3 $4 $5 $6 $7 $8 $9 X,Y pos of 4 corners*
0 Add a 4 corners polygon primitive as box body*
4,1,4,$2,$3,$4,$5,$6,$7,$8,$9,$2,$3,0*
0 Add four circle primitives for the rounded corners*
1,1,$1+$1,$2,$3*
1,1,$1+$1,$4,$5*
1,1,$1+$1,$6,$7*
1,1,$1+$1,$8,$9*
0 Add four rect primitives between the rounded corners*
20,1,$1+$1,$2,$3,$4,$5,0*
20,1,$1+$1,$4,$5,$6,$7,0*
20,1,$1+$1,$6,$7,$8,$9,0*
20,1,$1+$1,$8,$9,$2,$3,0*%
%AMRotRect*
0 Rectangle, with rotation*
0 The origin of the aperture is its center*
0 $1 length*
0 $2 width*
0 $3 Rotation angle, in degrees counterclockwise*
0 Add horizontal line*
21,1,$1,$2,0,0,$3*%
G04 Aperture macros list end*
%ADD10RoundRect,0.218750X0.218750X0.381250X-0.218750X0.381250X-0.218750X-0.381250X0.218750X-0.381250X0*%
%ADD11RoundRect,0.200000X-0.200000X-0.275000X0.200000X-0.275000X0.200000X0.275000X-0.200000X0.275000X0*%
%ADD12RoundRect,0.250000X-0.450000X0.262500X-0.450000X-0.262500X0.450000X-0.262500X0.450000X0.262500X0*%
%ADD13RoundRect,0.225000X-0.250000X0.225000X-0.250000X-0.225000X0.250000X-0.225000X0.250000X0.225000X0*%
%ADD14RoundRect,0.250000X1.075000X-0.375000X1.075000X0.375000X-1.075000X0.375000X-1.075000X-0.375000X0*%
%ADD15RoundRect,0.250000X0.475000X-0.250000X0.475000X0.250000X-0.475000X0.250000X-0.475000X-0.250000X0*%
%ADD16C,1.000000*%
%ADD17RoundRect,0.200000X-0.275000X0.200000X-0.275000X-0.200000X0.275000X-0.200000X0.275000X0.200000X0*%
%ADD18RoundRect,0.150000X-0.512500X-0.150000X0.512500X-0.150000X0.512500X0.150000X-0.512500X0.150000X0*%
%ADD19RoundRect,0.225000X0.225000X0.250000X-0.225000X0.250000X-0.225000X-0.250000X0.225000X-0.250000X0*%
%ADD20RoundRect,0.200000X0.275000X-0.200000X0.275000X0.200000X-0.275000X0.200000X-0.275000X-0.200000X0*%
%ADD21RoundRect,0.250000X0.250000X0.475000X-0.250000X0.475000X-0.250000X-0.475000X0.250000X-0.475000X0*%
%ADD22RoundRect,0.250001X0.462499X0.624999X-0.462499X0.624999X-0.462499X-0.624999X0.462499X-0.624999X0*%
%ADD23RoundRect,0.250000X0.450000X-0.262500X0.450000X0.262500X-0.450000X0.262500X-0.450000X-0.262500X0*%
%ADD24R,0.840000X0.420000*%
%ADD25R,1.600000X2.500000*%
%ADD26RoundRect,0.225000X-0.225000X-0.250000X0.225000X-0.250000X0.225000X0.250000X-0.225000X0.250000X0*%
%ADD27RoundRect,0.225000X0.250000X-0.225000X0.250000X0.225000X-0.250000X0.225000X-0.250000X-0.225000X0*%
%ADD28RoundRect,0.250001X-0.624999X0.462499X-0.624999X-0.462499X0.624999X-0.462499X0.624999X0.462499X0*%
%ADD29RoundRect,0.150000X-0.825000X-0.150000X0.825000X-0.150000X0.825000X0.150000X-0.825000X0.150000X0*%
%ADD30R,1.200000X1.400000*%
%ADD31RoundRect,0.041300X-0.253700X0.948700X-0.253700X-0.948700X0.253700X-0.948700X0.253700X0.948700X0*%
%ADD32RoundRect,0.050000X0.309359X-0.238649X-0.238649X0.309359X-0.309359X0.238649X0.238649X-0.309359X0*%
%ADD33RoundRect,0.050000X0.309359X0.238649X0.238649X0.309359X-0.309359X-0.238649X-0.238649X-0.309359X0*%
%ADD34RotRect,5.600000X5.600000X135.000000*%
%ADD35RoundRect,0.250000X0.262500X0.450000X-0.262500X0.450000X-0.262500X-0.450000X0.262500X-0.450000X0*%
%ADD36R,0.400000X21.500000*%
%ADD37R,0.400000X25.400000*%
%ADD38R,2.195000X2.195000*%
%ADD39RoundRect,0.250000X0.375000X1.075000X-0.375000X1.075000X-0.375000X-1.075000X0.375000X-1.075000X0*%
%ADD40R,14.000000X0.400000*%
%ADD41R,5.700000X0.400000*%
%ADD42RoundRect,0.250000X-0.250000X-0.475000X0.250000X-0.475000X0.250000X0.475000X-0.250000X0.475000X0*%
%ADD43RoundRect,0.087500X-0.087500X0.225000X-0.087500X-0.225000X0.087500X-0.225000X0.087500X0.225000X0*%
%ADD44RoundRect,0.087500X-0.225000X0.087500X-0.225000X-0.087500X0.225000X-0.087500X0.225000X0.087500X0*%
%ADD45R,13.300000X0.400000*%
%ADD46C,1.600000*%
%ADD47C,3.000000*%
%ADD48C,2.500000*%
%ADD49C,2.010000*%
%ADD50R,2.743200X2.743200*%
%ADD51C,2.743200*%
%ADD52R,2.000000X2.000000*%
%ADD53C,2.000000*%
%ADD54R,2.300000X2.000000*%
%ADD55C,2.300000*%
%ADD56R,2.100000X2.100000*%
%ADD57C,2.100000*%
%TA.AperFunction,Profile*%
%ADD58C,0.100000*%
%TD*%
G04 APERTURE END LIST*
D10*
%TO.C,L1*%
X151640000Y-121300000D03*
X149515000Y-121300000D03*
%TD*%
D11*
%TO.C,ER2*%
X138574924Y-118422000D03*
X140224924Y-118422000D03*
%TD*%
D12*
%TO.C,AR1*%
X117849924Y-97509500D03*
X117849924Y-99334500D03*
%TD*%
D13*
%TO.C,EC15*%
X142670000Y-120765000D03*
X142670000Y-122315000D03*
%TD*%
D14*
%TO.C,AL1*%
X116259924Y-107830000D03*
X116259924Y-105030000D03*
%TD*%
D15*
%TO.C,AC1*%
X119320000Y-107650000D03*
X119320000Y-105750000D03*
%TD*%
D16*
%TO.C,TP3*%
X121710000Y-103190000D03*
%TD*%
D17*
%TO.C,ER5*%
X141629924Y-74172000D03*
X141629924Y-75822000D03*
%TD*%
D18*
%TO.C,RQ1*%
X115952500Y-77850000D03*
X115952500Y-79750000D03*
X118227500Y-78800000D03*
%TD*%
D19*
%TO.C,EC19*%
X143214924Y-85547000D03*
X141664924Y-85547000D03*
%TD*%
%TO.C,ATH20_C1*%
X120120000Y-114650000D03*
X118570000Y-114650000D03*
%TD*%
D20*
%TO.C,ER1*%
X152529924Y-119337000D03*
X152529924Y-117687000D03*
%TD*%
D21*
%TO.C,EC3*%
X153199924Y-111902000D03*
X151299924Y-111902000D03*
%TD*%
D20*
%TO.C,ER4*%
X141599924Y-78672000D03*
X141599924Y-77022000D03*
%TD*%
D19*
%TO.C,IMUC1*%
X143654924Y-103812000D03*
X142104924Y-103812000D03*
%TD*%
D22*
%TO.C,HLD1*%
X151617424Y-82492000D03*
X148642424Y-82492000D03*
%TD*%
D23*
%TO.C,AR2*%
X115670000Y-99272500D03*
X115670000Y-97447500D03*
%TD*%
D24*
%TO.C,AU1*%
X115734924Y-101192000D03*
X115734924Y-102142000D03*
X115734924Y-103092000D03*
X118604924Y-103092000D03*
X118604924Y-102142000D03*
X118604924Y-101192000D03*
D25*
X117169924Y-102142000D03*
%TD*%
D26*
%TO.C,EC10*%
X149995000Y-122810000D03*
X151545000Y-122810000D03*
%TD*%
D27*
%TO.C,EC1*%
X151159924Y-119277000D03*
X151159924Y-117727000D03*
%TD*%
%TO.C,AUC1*%
X140689924Y-105547000D03*
X140689924Y-103997000D03*
%TD*%
D28*
%TO.C,PWR_FUSE1*%
X156370000Y-83650000D03*
X156370000Y-86625000D03*
%TD*%
D29*
%TO.C,ACS1*%
X137604924Y-80132000D03*
X137604924Y-81402000D03*
X137604924Y-82672000D03*
X137604924Y-83942000D03*
X142554924Y-83942000D03*
X142554924Y-82672000D03*
X142554924Y-81402000D03*
X142554924Y-80132000D03*
%TD*%
D30*
%TO.C,ECY1*%
X146089924Y-102062000D03*
X146089924Y-104262000D03*
X147789924Y-104262000D03*
X147789924Y-102062000D03*
%TD*%
D15*
%TO.C,EC4*%
X144210000Y-121800000D03*
X144210000Y-119900000D03*
%TD*%
%TO.C,HLC1*%
X146189924Y-83532000D03*
X146189924Y-81632000D03*
%TD*%
D30*
%TO.C,ECY2*%
X140759924Y-122512000D03*
X140759924Y-120312000D03*
X139059924Y-120312000D03*
X139059924Y-122512000D03*
%TD*%
D11*
%TO.C,RR1*%
X116395000Y-80990000D03*
X118045000Y-80990000D03*
%TD*%
D16*
%TO.C,TP2*%
X121790000Y-105970000D03*
%TD*%
D13*
%TO.C,EC18*%
X143039924Y-76582000D03*
X143039924Y-78132000D03*
%TD*%
D22*
%TO.C,HLD3*%
X118145000Y-76180000D03*
X115170000Y-76180000D03*
%TD*%
D31*
%TO.C,U1*%
X139284924Y-100719500D03*
X138014924Y-100719500D03*
X136744924Y-100719500D03*
X135474924Y-100719500D03*
X135474924Y-105659500D03*
X136744924Y-105659500D03*
X138014924Y-105659500D03*
X139284924Y-105659500D03*
%TD*%
D19*
%TO.C,EC17*%
X137200000Y-120480000D03*
X135650000Y-120480000D03*
%TD*%
D32*
%TO.C,ESP32S1*%
X145687126Y-118216208D03*
X145969969Y-117933365D03*
X146252811Y-117650523D03*
X146535654Y-117367680D03*
X146818497Y-117084837D03*
X147101339Y-116801995D03*
X147384182Y-116519152D03*
X147667025Y-116236309D03*
X147949868Y-115953466D03*
X148232710Y-115670624D03*
X148515553Y-115387781D03*
X148798396Y-115104938D03*
X149081238Y-114822096D03*
X149364081Y-114539253D03*
D33*
X149364081Y-113354849D03*
X149081238Y-113072006D03*
X148798396Y-112789164D03*
X148515553Y-112506321D03*
X148232710Y-112223478D03*
X147949868Y-111940636D03*
X147667025Y-111657793D03*
X147384182Y-111374950D03*
X147101339Y-111092107D03*
X146818497Y-110809265D03*
X146535654Y-110526422D03*
X146252811Y-110243579D03*
X145969969Y-109960737D03*
X145687126Y-109677894D03*
D32*
X144502722Y-109677894D03*
X144219879Y-109960737D03*
X143937037Y-110243579D03*
X143654194Y-110526422D03*
X143371351Y-110809265D03*
X143088509Y-111092107D03*
X142805666Y-111374950D03*
X142522823Y-111657793D03*
X142239980Y-111940636D03*
X141957138Y-112223478D03*
X141674295Y-112506321D03*
X141391452Y-112789164D03*
X141108610Y-113072006D03*
X140825767Y-113354849D03*
D33*
X140825767Y-114539253D03*
X141108610Y-114822096D03*
X141391452Y-115104938D03*
X141674295Y-115387781D03*
X141957138Y-115670624D03*
X142239980Y-115953466D03*
X142522823Y-116236309D03*
X142805666Y-116519152D03*
X143088509Y-116801995D03*
X143371351Y-117084837D03*
X143654194Y-117367680D03*
X143937037Y-117650523D03*
X144219879Y-117933365D03*
X144502722Y-118216208D03*
D34*
X145094924Y-113947051D03*
%TD*%
D11*
%TO.C,ER3*%
X135570000Y-119000000D03*
X137220000Y-119000000D03*
%TD*%
D35*
%TO.C,DS1*%
X157422424Y-111422000D03*
X155597424Y-111422000D03*
%TD*%
D19*
%TO.C,EC11*%
X140210000Y-116930000D03*
X138660000Y-116930000D03*
%TD*%
D13*
%TO.C,EC7*%
X153010000Y-121347000D03*
X153010000Y-122897000D03*
%TD*%
D15*
%TO.C,AC2*%
X122369924Y-100372000D03*
X122369924Y-98472000D03*
%TD*%
D36*
%TO.C,*%
X154280000Y-113210000D03*
%TD*%
D37*
%TO.C,*%
X134245000Y-111505000D03*
%TD*%
D15*
%TO.C,EC2*%
X146030000Y-122890000D03*
X146030000Y-120990000D03*
%TD*%
D38*
%TO.C,BZ1*%
X157574924Y-79547000D03*
X157574924Y-72147000D03*
X150174924Y-72147000D03*
%TD*%
D11*
%TO.C,IMR2*%
X142080000Y-105362000D03*
X143730000Y-105362000D03*
%TD*%
%TO.C,IMR1*%
X142124924Y-106982000D03*
X143774924Y-106982000D03*
%TD*%
D19*
%TO.C,EC13*%
X146584924Y-107422000D03*
X145034924Y-107422000D03*
%TD*%
D39*
%TO.C,HLL1*%
X147859924Y-85792000D03*
X145059924Y-85792000D03*
%TD*%
D26*
%TO.C,EC12*%
X146164924Y-100392000D03*
X147714924Y-100392000D03*
%TD*%
D35*
%TO.C,HLR2*%
X146432424Y-79482000D03*
X144607424Y-79482000D03*
%TD*%
D40*
%TO.C,REF\u002A\u002A*%
X141050000Y-98980000D03*
%TD*%
D16*
%TO.C,TP1*%
X121780000Y-109170000D03*
%TD*%
D41*
%TO.C,*%
X151615000Y-123965000D03*
%TD*%
D19*
%TO.C,EC14*%
X147604924Y-105962000D03*
X146054924Y-105962000D03*
%TD*%
D42*
%TO.C,EC16*%
X149589924Y-107422000D03*
X151489924Y-107422000D03*
%TD*%
D43*
%TO.C,U3*%
X143679924Y-99959500D03*
X143179924Y-99959500D03*
X142679924Y-99959500D03*
X142179924Y-99959500D03*
D44*
X142017424Y-100622000D03*
X142017424Y-101122000D03*
X142017424Y-101622000D03*
D43*
X142179924Y-102284500D03*
X142679924Y-102284500D03*
X143179924Y-102284500D03*
X143679924Y-102284500D03*
D44*
X143842424Y-101622000D03*
X143842424Y-101122000D03*
X143842424Y-100622000D03*
%TD*%
D45*
%TO.C,REF\u002A\u002A*%
X140715152Y-124004949D03*
%TD*%
D26*
%TO.C,EC8*%
X149794924Y-109102000D03*
X151344924Y-109102000D03*
%TD*%
D21*
%TO.C,EC5*%
X153159924Y-113772000D03*
X151259924Y-113772000D03*
%TD*%
D46*
%TO.C,HLV1*%
X151019924Y-101002000D03*
X156019924Y-99702000D03*
%TD*%
D47*
%TO.C,Relay1*%
X124194924Y-71607000D03*
D48*
X130244924Y-73557000D03*
D47*
X130244924Y-85757000D03*
X118194924Y-85807000D03*
D48*
X118244924Y-73557000D03*
%TD*%
D49*
%TO.C,PF1*%
X151579924Y-96952000D03*
X150379924Y-91852000D03*
%TD*%
D50*
%TO.C,J3*%
X143677924Y-92956000D03*
D51*
X135422924Y-92956000D03*
X127167924Y-92956000D03*
X118912924Y-92956000D03*
%TD*%
D52*
%TO.C,HLL2*%
X166205549Y-101650750D03*
D53*
X159138049Y-101578250D03*
X166135549Y-93522750D03*
X159088049Y-93445250D03*
%TD*%
D54*
%TO.C,HiLink1*%
X165422424Y-77622000D03*
D55*
X165422424Y-82622000D03*
X136022424Y-72422000D03*
X136022424Y-87822000D03*
%TD*%
D56*
%TO.C,TEMPDS1*%
X156040000Y-120890000D03*
D57*
X156040000Y-118350000D03*
X156040000Y-115810000D03*
%TD*%
D53*
%TO.C,HLC2*%
X156390000Y-107740000D03*
X166390000Y-107740000D03*
%TD*%
D58*
X116034099Y-112111772D02*
X116052969Y-116354114D01*
X116053012Y-116354114D02*
G75*
G03*
X116483456Y-116764113I410688J214D01*
G01*
X122643533Y-112108968D02*
G75*
G03*
X122213106Y-111698969I-410133J368D01*
G01*
X133166963Y-90296963D02*
X133169024Y-85632061D01*
X149514022Y-102110000D02*
X149514022Y-99850000D01*
X133983518Y-104398103D02*
X133983518Y-117967975D01*
X138475031Y-75704054D02*
G75*
G03*
X137833206Y-76074610I-320931J-185246D01*
G01*
X121850193Y-112910000D02*
G75*
G03*
X121419756Y-112500002I-410293J200D01*
G01*
X118920000Y-95070000D02*
X136210000Y-95070000D01*
X133580000Y-90710000D02*
X137060000Y-90710871D01*
X114049965Y-118009947D02*
X114031486Y-76477000D01*
X139031575Y-92830000D02*
G75*
G03*
X138428425Y-92830000I-301575J0D01*
G01*
X124690000Y-104455063D02*
X124690000Y-118024935D01*
X117263698Y-112493958D02*
X121419756Y-112500001D01*
X116810000Y-92960000D02*
X116810000Y-90660000D01*
X116843168Y-115784446D02*
G75*
G03*
X117273699Y-116194445I410532J46D01*
G01*
X128063037Y-70017000D02*
G75*
G03*
X127650000Y-70430000I-37J-413000D01*
G01*
X153640000Y-105505978D02*
X151100000Y-102965978D01*
X122240273Y-116774315D02*
X121440275Y-116774758D01*
X133983533Y-104398077D02*
G75*
G03*
X124690000Y-104455064I-4596133J-8285823D01*
G01*
X150395978Y-103310000D02*
X153115978Y-106030000D01*
X137060000Y-90710809D02*
G75*
G03*
X137060000Y-89969791I0J370509D01*
G01*
X139007938Y-85220975D02*
G75*
G03*
X139420975Y-84807938I-38J413075D01*
G01*
X117273699Y-116768755D02*
G75*
G03*
X117273699Y-116194445I1J287155D01*
G01*
X150560000Y-102425978D02*
X149830000Y-102425978D01*
X134332062Y-85960000D02*
X139817938Y-85960975D01*
X126898920Y-75336963D02*
G75*
G03*
X127640000Y-75336963I370540J0D01*
G01*
X134332062Y-89980000D02*
X137060000Y-89969791D01*
X140230000Y-78840000D02*
X138475001Y-75704071D01*
X133582061Y-85219024D02*
G75*
G03*
X133169024Y-85632061I39J-413076D01*
G01*
X133919025Y-89566963D02*
X133919025Y-86373037D01*
X116810000Y-90660000D02*
G75*
G03*
X116068920Y-90660000I-370540J0D01*
G01*
X126903000Y-70403037D02*
G75*
G03*
X126490000Y-69990000I-413000J37D01*
G01*
X149514022Y-99850000D02*
G75*
G03*
X148772942Y-99850000I-370540J0D01*
G01*
X139420975Y-84807938D02*
X139440000Y-78900000D01*
X168031605Y-76476965D02*
G75*
G03*
X161631486Y-70076895I-6400005J65D01*
G01*
X139440000Y-78900000D02*
X137833206Y-76074610D01*
X120431556Y-70076930D02*
X120597938Y-70076930D01*
X136170000Y-95760833D02*
G75*
G03*
X139031574Y-92830000I-23700J2885533D01*
G01*
X122240273Y-116774368D02*
G75*
G03*
X122650272Y-116343828I127J410368D01*
G01*
X126490000Y-69990000D02*
X122160000Y-69990000D01*
X127650000Y-70430000D02*
X127640000Y-75336963D01*
X116810000Y-92960000D02*
G75*
G03*
X118920000Y-95070000I2110000J0D01*
G01*
X168050035Y-118009912D02*
X168031556Y-76476965D01*
X133167000Y-90296963D02*
G75*
G03*
X133580000Y-90710000I413000J-37D01*
G01*
X122649754Y-116343828D02*
X122643593Y-112108968D01*
X118880000Y-95760871D02*
X136170000Y-95760871D01*
X122160000Y-69989963D02*
G75*
G03*
X121746963Y-70403037I0J-413037D01*
G01*
X140230975Y-85547938D02*
X140230000Y-78840000D01*
X150395978Y-103310000D02*
X149520000Y-103307058D01*
X120431556Y-70076886D02*
G75*
G03*
X114031486Y-76477000I44J-6400114D01*
G01*
X116483456Y-116764113D02*
X117273699Y-116768716D01*
X148772942Y-102560000D02*
X149520000Y-103307058D01*
X128063037Y-70016963D02*
X161631486Y-70076895D01*
X116843212Y-115784446D02*
X116853699Y-112924445D01*
X136210000Y-95070029D02*
G75*
G03*
X138428425Y-92830000I0J2218529D01*
G01*
X117263698Y-112494005D02*
G75*
G03*
X116853700Y-112924445I-198J-410295D01*
G01*
X121005883Y-76300000D02*
G75*
G03*
X121746963Y-76300000I370540J0D01*
G01*
X151100000Y-102965978D02*
X150560000Y-102425978D01*
X133919100Y-89566963D02*
G75*
G03*
X134332062Y-89980000I413000J-37D01*
G01*
X134332062Y-85960025D02*
G75*
G03*
X133919025Y-86373037I-62J-412975D01*
G01*
X120450035Y-124410017D02*
X161649965Y-124409982D01*
X121440275Y-116200442D02*
G75*
G03*
X121440275Y-116774758I25J-287158D01*
G01*
X139007938Y-85220975D02*
X133582061Y-85219024D01*
X149830000Y-102425978D02*
X149514022Y-102110000D01*
X122213106Y-111698969D02*
X116444098Y-111681285D01*
X116444098Y-111681308D02*
G75*
G03*
X116034099Y-112111772I-98J-410392D01*
G01*
X121849756Y-115770000D02*
X121850243Y-112910000D01*
X148772942Y-99850000D02*
X148772942Y-102560000D01*
X121010975Y-70489967D02*
X121005883Y-76300000D01*
X121010970Y-70489967D02*
G75*
G03*
X120597938Y-70076930I-413070J-33D01*
G01*
X126903037Y-70403037D02*
X126898920Y-75336963D01*
X124690024Y-118024892D02*
G75*
G03*
X133983518Y-117967974I4596176J8285692D01*
G01*
X116069129Y-92950000D02*
X116068920Y-90660000D01*
X116069129Y-92950000D02*
G75*
G03*
X118880000Y-95760871I2810871J0D01*
G01*
X114049983Y-118009947D02*
G75*
G03*
X120450035Y-124410017I6400217J147D01*
G01*
X139817938Y-85960975D02*
G75*
G03*
X140230975Y-85547938I-38J413075D01*
G01*
X161649965Y-124410035D02*
G75*
G03*
X168050035Y-118009912I-65J6400135D01*
G01*
X121440275Y-116200461D02*
G75*
G03*
X121850273Y-115770000I25J410461D01*
G01*
X153115978Y-106030000D02*
G75*
G03*
X153640000Y-105505978I262011J262011D01*
G01*
X121746963Y-70403037D02*
X121746963Y-76300000D01*
M02*
